<svg xmlns="http://www.w3.org/2000/svg" width="59" height="59" fill="none"><path fill="#60A0DC" d="M14.75 51.521V25.71c0-2.036-1.651-3.584-3.688-3.584H3.689C1.65 22.125 0 23.776 0 25.709v25.709C0 53.454 1.651 55 3.688 55h7.374c2.04.208 3.688-1.348 3.688-3.48ZM59 25.824a5.53 5.53 0 0 0-5.531-5.529H36.587c2.624-4.369 3.978-9.32 3.978-11.065-.002-2.717-2.134-5.543-5.707-5.543-7.274 0-3.037 8.776-12.468 16.318l-1.878 1.498c-1.36 1.095-2.052 2.696-2.063 4.31-.003.002 0 0 0 0l-.012 18.437c0 1.74.82 3.38 2.213 4.424l3.934 2.949a18.387 18.387 0 0 0 11.058 3.69h6.764a5.528 5.528 0 0 0 5.532-5.53c0-.418-.056-.823-.144-1.215 2.218-.723 3.831-2.774 3.831-5.24 0-1.054-.31-2.03-.823-2.867 2.563-.475 4.51-2.722 4.51-5.418 0-1.44-.563-2.74-1.465-3.725C56.718 31.125 59 28.751 59 25.824Z"/></svg>