<svg xmlns="http://www.w3.org/2000/svg" width="67" height="60" fill="none"><g filter="url(#a)"><path fill="#fff" fill-rule="evenodd" d="M12 0a8 8 0 0 0-8 8v36a8 8 0 0 0 8 8h36a8 8 0 0 0 8-8v-6H39a8 8 0 0 1-8-8v-9a8 8 0 0 1 8-8h17V8a8 8 0 0 0-8-8H12Z" clip-rule="evenodd"/><g filter="url(#b)"><rect width="28" height="20" x="35" y="16" fill="#fff" rx="8"/></g></g><defs><filter id="a" width="67" height="60" x="0" y="0" color-interpolation-filters="sRGB" filterUnits="userSpaceOnUse"><feFlood flood-opacity="0" result="BackgroundImageFix"/><feColorMatrix in="SourceAlpha" result="hardAlpha" values="0 0 0 0 0 0 0 0 0 0 0 0 0 0 0 0 0 0 127 0"/><feOffset dy="4"/><feGaussianBlur stdDeviation="2"/><feComposite in2="hardAlpha" operator="out"/><feColorMatrix values="0 0 0 0 0 0 0 0 0 0 0 0 0 0 0 0 0 0 0.25 0"/><feBlend in2="BackgroundImageFix" result="effect1_dropShadow_3_7"/><feBlend in="SourceGraphic" in2="effect1_dropShadow_3_7" result="shape"/></filter><filter id="b" width="36" height="28" x="31" y="16" color-interpolation-filters="sRGB" filterUnits="userSpaceOnUse"><feFlood flood-opacity="0" result="BackgroundImageFix"/><feColorMatrix in="SourceAlpha" result="hardAlpha" values="0 0 0 0 0 0 0 0 0 0 0 0 0 0 0 0 0 0 127 0"/><feOffset dy="4"/><feGaussianBlur stdDeviation="2"/><feComposite in2="hardAlpha" operator="out"/><feColorMatrix values="0 0 0 0 0 0 0 0 0 0 0 0 0 0 0 0 0 0 0.25 0"/><feBlend in2="BackgroundImageFix" result="effect1_dropShadow_3_7"/><feBlend in="SourceGraphic" in2="effect1_dropShadow_3_7" result="shape"/></filter></defs></svg>