<svg xmlns="http://www.w3.org/2000/svg" viewBox="0 0 500 500"><path d="M393.27 317.77a3 3 0 1 0 .35 0M406.51 308a5.11 5.11 0 1 0 .35-.24" style="fill:#f5f5f5"/><path d="M480 279.43a25.8 25.8 0 0 0-2.69-26.11c12.94-5.52 19.9-22 14.81-35.16s-21.38-20.62-34.65-16a30.14 30.14 0 0 0-57.15-6.94 18.16 18.16 0 0 0-19.93 26.85 19.9 19.9 0 0 0 5.6 35.49 27.63 27.63 0 1 0 47.4 28.44 30.43 30.43 0 0 0 25.1 8.92A27.94 27.94 0 0 0 480 279.43Z" style="fill:#fafafa"/><path d="M399.93 236.99h13.4v1.16h-13.4zM440.14 248.37v2.81h-3.04v-2.81h-4.72v2.81h-3.12v-2.81h-4.28v2.81h-3.12v-2.81h-4.72v2.81h-3.04v-2.81h-4.72l2.35 9.65v14.13h30.78v-14.13l2.35-9.65h-4.72zM435.76 229.69v1.84h-1.98v-1.84h-3.09v1.84h-2.03v-1.84h-3.08v1.84h-2.03v-1.84h-3.09v1.84h-1.98v-1.84h-3.08l1.65 6.79h9.8l.27-1.01.27 1.01h9.8l1.65-6.79h-3.08zM410.52 223.4l-4-10.67-4 10.67a13.56 13.56 0 0 0-3.95 4 33.79 33.79 0 0 1 15.83 0 13.59 13.59 0 0 0-3.88-4Z" style="fill:#ebebeb"/><path d="M440.85 236.99h13.4v1.16h-13.4z" style="fill:#ebebeb" transform="rotate(180 447.545 237.57)"/><path d="m443.66 223.4 4-10.67 4 10.67a13.59 13.59 0 0 1 3.94 4 33.75 33.75 0 0 0-15.82 0 13.42 13.42 0 0 1 3.88-4ZM395.38 208.4l-.44.11a14.93 14.93 0 0 1-3.71.42c-.74 0-3 0-3.5-.52 1.71 1.77 4.49 2 6.91 1.57s4.79-1.3 7.25-1.28a10.05 10.05 0 0 1 4.56 1.13c0-.7.05-1.48.05-2.18a.6.6 0 0 0-.07-.35.56.56 0 0 0-.28-.22 8.63 8.63 0 0 0-5.17-.52c-1.98.34-3.69 1.33-5.6 1.84ZM458.66 208.4l.44.11a15 15 0 0 0 3.71.42c.75 0 3 0 3.5-.52-1.71 1.77-4.48 2-6.91 1.57s-4.79-1.3-7.25-1.28a10.05 10.05 0 0 0-4.56 1.13v-2.18a.68.68 0 0 1 .06-.35.58.58 0 0 1 .29-.22 8.59 8.59 0 0 1 5.16-.52c1.9.34 3.66 1.33 5.56 1.84ZM401.72 224.67v47.48h10v-47.48Zm7 9.68h-3.91v-3.78a2 2 0 1 1 3.91 0Z" style="fill:#ebebeb"/><path d="M442.45 224.67v47.48h10v-47.48Zm7 9.68h-3.92v-3.78a2 2 0 0 1 3.92 0ZM418.34 234.88v37.27h2.39v-9.79c0-2.81 2.7-5.09 6-5.09s6 2.28 6 5.09v9.79h2.4v-37.27Zm11.08 10.36h-5.24v-5.05a2.62 2.62 0 0 1 5.24 0Z" style="fill:#ebebeb"/><path d="m412.79 263.45-3.24 1.81s1.56.75 1.8.79 2.88-.9 3.69-1.06l3.43-.35.21-1.49.8.17.26-.77a2.32 2.32 0 0 1 2.17 0c1.21.62 4.29 3.48 6.86 4.4a13.91 13.91 0 0 0 6.79.85c2.8-.21 3.75-1.42 6.7-1.24s6.09 1.16 9.31 1.23 5.43-.1 7.28-1.94 4.72-4.74 4-10.12-2.89-5.88-4.38-9.12-1.76-7.67 1.19-9.08 10.5-3.07 10.89 4.16c0 0 .3 3.31-1.32 5l-1.22.21-2.74 4 4.23-2.54.23-1.25a9.59 9.59 0 0 0 2.26-4.19c.28-2 .68-5.65-3.33-8.12s-10-1.12-11.91.81-4.12 4.66-3 9.27 3.28 8 3.8 10 1.2 4.11-.59 5.71-5.54 1-6.39.38-5.66-3.45-9.85-3c0 0-2.34.07-4.81 2.88-2.62 3-5.82 2.68-6.69 2-1.74-1.35-4.85-3.15-7.4-2.95a23.88 23.88 0 0 0-4.43.69s1-2.66 1-2.93-1.94 1.42-2.12 2.76a13.9 13.9 0 0 0 1-2.93c-.15-.3-2.17 2.28-2.34 3.41s-.15 0-.15 0l-2.27 2.1Z" style="fill:#e0e0e0"/><path d="M435.94 260.77a2.27 2.27 0 0 0-1-2.34c-1.2-.62-12.41-4-11.92-8.26s5.86-21.24 30.64-22.43c0 0-10.94 8.35-4.1 20.79 0 0-4.43 3.4-3.1 7.52 0 0-8.85.57-8.49 1.24a5.83 5.83 0 0 0 .92 1.22ZM431.65 267.5a12.6 12.6 0 0 0 4.07 2.29 1 1 0 0 1 .62.4.72.72 0 0 1-.34.84 5.53 5.53 0 0 1-.91.35.91.91 0 0 0-.64.69l3.11.07a5.89 5.89 0 0 1 .71-1.65 2.61 2.61 0 0 0 .36-.68.71.71 0 0 0-.17-.73 2.87 2.87 0 0 1-2.25-2.73M444.43 266.48a5.28 5.28 0 0 0 3.2 3.12 3 3 0 0 1-1.36 1.53c-.35.13-.73.13-1.08.25s-.7.41-.67.78l4.09.19a7.31 7.31 0 0 1 3.83-4.51" style="fill:#e0e0e0"/><path d="M470 272.15c0 .15-17.29.26-38.61.26s-38.62-.11-38.62-.26 17.29-.26 38.62-.26 38.61.11 38.61.26Z" style="fill:#e0e0e0"/><path d="M83.22 346.77h7.7v57.67h-7.7z" style="fill:#e0e0e0" transform="rotate(-90 87.07 375.61)"/><path d="M66.09 372.08c.2 0 .36 1.61.36 3.6s-.16 3.61-.36 3.61-.36-1.61-.36-3.61.16-3.6.36-3.6ZM64.84 371.92c.2 0 .36 1.61.36 3.61s-.16 3.61-.36 3.61-.37-1.62-.37-3.61.17-3.61.37-3.61ZM111.44 372.08c.2 0 .37 1.61.37 3.6s-.17 3.61-.37 3.61-.36-1.61-.36-3.61.16-3.6.36-3.6Z" style="fill:#fafafa"/><ellipse cx="110.19" cy="375.53" rx=".36" ry="3.61" style="fill:#fafafa"/><path d="M102.65 375.84c0 .2-6.6.36-14.75.36s-14.75-.16-14.75-.36 6.61-.36 14.75-.36 14.75.16 14.75.36Z" style="fill:#fafafa"/><path d="M79.12 385.31h15.41v57.67H79.12z" style="fill:#e0e0e0" transform="rotate(-90 86.815 414.145)"/><path d="M116.39 417.52a1.34 1.34 0 0 1-.31.18c-.21.1-.53.25-1 .43a16.63 16.63 0 0 1-3.91 1.12 10.15 10.15 0 0 1-6.35-.9 8.44 8.44 0 0 1-3-2.73 6.33 6.33 0 0 1-1-4.44 4.72 4.72 0 0 1 1.06-2.29 3.05 3.05 0 0 1 2.43-1.11 3.54 3.54 0 0 1 2.45 1.32 4.75 4.75 0 0 1 1.11 2.63 7 7 0 0 1-2 5.46 8.8 8.8 0 0 1-5.55 2.71 14.79 14.79 0 0 1-6.43-.8 11.88 11.88 0 0 1-5.62-3.78A6.15 6.15 0 0 1 87 412a4.3 4.3 0 0 1 1.23-3.46 2.79 2.79 0 0 1 1.8-.8 3.29 3.29 0 0 1 1.89.54 5 5 0 0 1 2.12 3.1 7.28 7.28 0 0 1-2.27 6.79 11.33 11.33 0 0 1-6.5 2.64 16 16 0 0 1-6.73-.66 9.29 9.29 0 0 1-5.12-4 6.83 6.83 0 0 1-.64-6.12 3.22 3.22 0 0 1 2.35-2 3.74 3.74 0 0 1 2.91.7 4.8 4.8 0 0 1 1.33 5.27 9.06 9.06 0 0 1-2.9 4.1 13.12 13.12 0 0 1-7.91 3.07 12.7 12.7 0 0 1-6.27-1.43 12.53 12.53 0 0 1-3.29-2.47c-.31-.34-.55-.61-.69-.8a1.34 1.34 0 0 1-.2-.3 14.54 14.54 0 0 0 4.29 3.27 12.41 12.41 0 0 0 6.12 1.27 12.69 12.69 0 0 0 7.59-3 8.58 8.58 0 0 0 2.71-3.87 4.26 4.26 0 0 0-1.2-4.55 3.13 3.13 0 0 0-2.43-.57 2.56 2.56 0 0 0-1.88 1.64 6.17 6.17 0 0 0 .63 5.52 8.6 8.6 0 0 0 4.77 3.67 15.53 15.53 0 0 0 6.43.61 10.65 10.65 0 0 0 6.08-2.47 6.56 6.56 0 0 0 2.05-6.09 4.29 4.29 0 0 0-1.8-2.66 2.2 2.2 0 0 0-2.81.17 3.63 3.63 0 0 0-1 2.89 5.47 5.47 0 0 0 1.16 2.95 11.26 11.26 0 0 0 5.27 3.55 14.16 14.16 0 0 0 6.13.79 8.17 8.17 0 0 0 5.16-2.48 6.42 6.42 0 0 0 1.86-5c-.14-1.69-1.44-3.34-3-3.45a2.52 2.52 0 0 0-2 .9 4.27 4.27 0 0 0-1 2 5.85 5.85 0 0 0 .93 4.1 8.09 8.09 0 0 0 2.82 2.63 9.91 9.91 0 0 0 6.11 1 18.21 18.21 0 0 0 3.89-1 13.56 13.56 0 0 1 1.4-.47Z" style="fill:#fafafa"/><path d="M76.03 366.79h26.73v52.52H76.03z" style="fill:#ebebeb" transform="rotate(-90 89.395 393.045)"/><path d="M71.86 380.6c.2 0 .36 5.79.36 12.94s-.16 12.94-.36 12.94-.36-5.8-.36-12.94.16-12.94.36-12.94ZM75.84 380.27c.2 0 .37 5.72.37 12.77s-.17 12.77-.37 12.77-.36-5.71-.36-12.77.16-12.77.36-12.77ZM109.72 379.41c.2 0 .36 6 .36 13.45s-.16 13.45-.36 13.45-.37-6-.37-13.45.17-13.45.37-13.45ZM105 379.77c.2 0 .36 5.87.36 13.1S105.24 406 105 406s-.37-5.87-.37-13.11.21-13.12.37-13.12Z" style="fill:#e0e0e0"/><path d="M84.02 296.17h7.7v57.67h-7.7z" style="fill:#e0e0e0" transform="rotate(-90 87.87 325)"/><path d="M66.89 321.47c.2 0 .37 1.62.37 3.61s-.17 3.61-.37 3.61-.36-1.62-.36-3.61.16-3.61.36-3.61ZM65.64 321.31c.2 0 .36 1.62.36 3.61s-.16 3.61-.36 3.61-.37-1.62-.37-3.61.17-3.61.37-3.61ZM112.24 321.47c.2 0 .37 1.62.37 3.61s-.17 3.61-.37 3.61-.36-1.62-.36-3.61.12-3.61.36-3.61ZM111 321.31c.2 0 .36 1.62.36 3.61s-.16 3.61-.36 3.61-.36-1.62-.36-3.61.15-3.61.36-3.61ZM103.46 325.24c0 .2-6.61.36-14.75.36S74 325.44 74 325.24s6.61-.37 14.76-.37 14.7.13 14.7.37Z" style="fill:#fafafa"/><path d="M79.92 334.71h15.41v57.67H79.92z" style="fill:#e0e0e0" transform="rotate(-90 87.62 363.54)"/><path d="M117.19 366.91a1.34 1.34 0 0 1-.31.18c-.21.11-.53.26-1 .44a17.13 17.13 0 0 1-3.91 1.12 10.29 10.29 0 0 1-6.35-.9 8.63 8.63 0 0 1-3-2.73 6.36 6.36 0 0 1-1.05-4.44 4.71 4.71 0 0 1 1.06-2.3 3 3 0 0 1 2.43-1.1 3.5 3.5 0 0 1 2.45 1.32 4.69 4.69 0 0 1 1.11 2.62 7 7 0 0 1-2 5.46 8.8 8.8 0 0 1-5.55 2.71 14.5 14.5 0 0 1-6.43-.8 11.86 11.86 0 0 1-5.62-3.77 6.21 6.21 0 0 1-1.31-3.33 4.3 4.3 0 0 1 1.29-3.46 2.78 2.78 0 0 1 1.8-.79 3.28 3.28 0 0 1 1.89.53 5 5 0 0 1 2.12 3.11 7.26 7.26 0 0 1-2.27 6.78 11.41 11.41 0 0 1-6.5 2.65 15.88 15.88 0 0 1-6.73-.67 9.28 9.28 0 0 1-5.12-4 6.83 6.83 0 0 1-.64-6.12 3.26 3.26 0 0 1 2.35-2 3.78 3.78 0 0 1 2.91.7 4.81 4.81 0 0 1 1.37 5.2 9 9 0 0 1-2.9 4.09 13.12 13.12 0 0 1-7.91 3.07 12.7 12.7 0 0 1-6.27-1.42 12.5 12.5 0 0 1-3.26-2.42 8.36 8.36 0 0 1-.7-.81 1.47 1.47 0 0 1-.2-.29 14.75 14.75 0 0 0 4.29 3.27 12.64 12.64 0 0 0 6.12 1.27 12.77 12.77 0 0 0 7.59-3.06 8.5 8.5 0 0 0 2.71-3.86 4.27 4.27 0 0 0-1.2-4.56 3.18 3.18 0 0 0-2.43-.57 2.58 2.58 0 0 0-1.88 1.64 6.17 6.17 0 0 0 .63 5.52 8.63 8.63 0 0 0 4.77 3.67 15.37 15.37 0 0 0 6.43.61A10.65 10.65 0 0 0 92 367a6.53 6.53 0 0 0 2-6.09 4.29 4.29 0 0 0-1.8-2.66 2.23 2.23 0 0 0-2.81.17 3.63 3.63 0 0 0-1 2.89 5.47 5.47 0 0 0 1.16 3 11.18 11.18 0 0 0 5.27 3.55 14.19 14.19 0 0 0 6.14.79 8.12 8.12 0 0 0 5.15-2.48 6.42 6.42 0 0 0 1.86-5c-.14-1.7-1.44-3.35-3-3.45a2.49 2.49 0 0 0-2 .9 4.24 4.24 0 0 0-1 2 5.85 5.85 0 0 0 .93 4.1 8.09 8.09 0 0 0 2.82 2.63 10 10 0 0 0 6.11 1 18.39 18.39 0 0 0 3.9-1c1-.27 1.45-.47 1.46-.44Z" style="fill:#fafafa"/><path d="M76.83 316.18h26.73v52.52H76.83z" style="fill:#ebebeb" transform="rotate(-90 90.195 342.445)"/><path d="M72.66 330c.2 0 .36 5.8.36 12.94s-.16 12.94-.36 12.94-.36-5.79-.36-12.94.16-12.94.36-12.94ZM76.64 329.66c.2 0 .37 5.72.37 12.77s-.17 12.78-.37 12.78-.36-5.72-.36-12.78.16-12.77.36-12.77ZM110.52 328.8c.2 0 .36 6 .36 13.45s-.16 13.45-.36 13.45-.37-6-.37-13.45.17-13.45.37-13.45ZM105.84 329.16c.2 0 .36 5.87.36 13.11s-.16 13.1-.36 13.1-.37-5.86-.37-13.1.17-13.11.37-13.11ZM34.76 78.16h80.85v117.18H34.76z" style="fill:#e0e0e0"/><path d="M30.71 78.16h80.85v117.18H30.71z" style="fill:#f5f5f5"/><path d="M40.76 90.85h60.76v91.8H40.76z" style="fill:#fff"/><path d="M101.51 182.65v-6.75c0-4.4 0-10.82-.06-18.91 0-16.19-.06-39.11-.1-66.11l.2.2H40.8l.22-.22v91.8l-.17-.17 44.22.09h16.53-16.42l-44.33.1h-.18v-92.2h61.18v.2c0 27.05-.08 50-.1 66.24 0 8.08-.05 14.47-.06 18.86v6.28c0 .28-.18.59-.18.59Z" style="fill:#e0e0e0"/><path d="M111.79 78.16a14.8 14.8 0 0 1-1.45 2.09c-.93 1.26-2.27 3-3.79 4.82s-2.94 3.48-4 4.64a15 15 0 0 1-1.77 1.82 14.42 14.42 0 0 1 1.54-2l3.89-4.72 3.89-4.73a14.91 14.91 0 0 1 1.69-1.92Z" style="fill:#e0e0e0"/><path d="M101.82 182.36a75.55 75.55 0 0 0 10.6 13.25" style="fill:#fff"/><path d="M112.42 195.61a12.58 12.58 0 0 1-1.85-1.68 62.55 62.55 0 0 1-4-4.51 56.51 56.51 0 0 1-3.52-4.89 13.13 13.13 0 0 1-1.24-2.17 14.94 14.94 0 0 1 1.49 2c.9 1.25 2.15 3 3.61 4.79s2.86 3.43 3.88 4.57a16.33 16.33 0 0 1 1.63 1.89Z" style="fill:#e0e0e0"/><path d="m30.7 195.25 10.59-13.07" style="fill:#fff"/><path d="M41.29 182.18a81.15 81.15 0 0 1-5.12 6.68 80.46 80.46 0 0 1-5.47 6.39 82.1 82.1 0 0 1 5.12-6.67c2.93-3.58 5.38-6.47 5.47-6.4ZM30.71 78.16a71.54 71.54 0 0 1 5.14 6.14 74.45 74.45 0 0 1 4.8 6.42 69.69 69.69 0 0 1-5.14-6.14 72.68 72.68 0 0 1-4.8-6.42ZM62.24 109.49h20.34v57.76H62.24zM475.81 51.31v63.81h-91.66l-3.3-63.37 94.96-.44z" style="fill:#e0e0e0"/><path d="M395.06 37.54h63.23v91.65h-63.23z" style="fill:#fff" transform="rotate(-90 426.68 83.37)"/><path d="M472.94 115.42h-92.52v-64.1h92.52Zm-91.65-.87h90.78V52.19h-90.78Z" style="fill:#e0e0e0"/><path d="M390.78 59.61h71.8v47.52h-71.8z" style="fill:#fff"/><path d="M462.58 59.61h-5.32l-14.8.05-51.68.11.21-.21v47.51l-.23-.23h71.8l-.18.18c0-14.46.07-26.32.09-34.58 0-4.12 0-7.35.05-9.56V59.5v12.83c0 8.29.06 20.18.1 34.69v.18H390.41V59.4h.21l51.82.1 14.75.06h4.9Z" style="fill:#e0e0e0"/><path d="M380.85 51.58a7.47 7.47 0 0 1 1.58 1c.94.67 2.21 1.63 3.59 2.74s2.59 2.14 3.45 2.93a7.37 7.37 0 0 1 1.31 1.34 61.86 61.86 0 0 1-5-3.92 53 53 0 0 1-4.93-4.09ZM472.51 51.75a45.59 45.59 0 0 1-4.83 4.11 43.84 43.84 0 0 1-5.1 3.75 43.63 43.63 0 0 1 4.82-4.11 44.85 44.85 0 0 1 5.11-3.75Z" style="fill:#e0e0e0"/><path d="m472.43 115-10.22-8.28" style="fill:#fff"/><path d="M462.21 106.71a47.88 47.88 0 0 1 5.26 4 48 48 0 0 1 5 4.31 46.37 46.37 0 0 1-5.25-4 49.44 49.44 0 0 1-5.01-4.31ZM380.85 115a44 44 0 0 1 4.78-4.07 45.35 45.35 0 0 1 5.05-3.71 43.29 43.29 0 0 1-4.77 4.07 46 46 0 0 1-5.06 3.71Z" style="fill:#e0e0e0"/><path d="M419.99 59.78h15.91v45.18h-15.91z" style="fill:#e0e0e0" transform="rotate(-90 427.95 82.37)"/><path d="M66.84 234a13.32 13.32 0 0 1 9.29 4.86 23.56 23.56 0 0 1 4.67 9.61c1.74 6.74.57 14.66-1.4 21.33-7.26-2.66-11.68-10.46-13.67-14.55-3.15-6.48-4.91-20.09 1.11-21.25" style="fill:#f5f5f5"/><path d="M89.79 278a11.44 11.44 0 0 1-.43-11.47 15.16 15.16 0 0 1 9.2-7.27c1.78-.53 3.84-.74 5.38.31a4.88 4.88 0 0 1 1.84 4.59 9.94 9.94 0 0 1-2.13 4.69c-3.58 4.76-7.92 8.71-13.86 9.15M82.05 285.12a26.74 26.74 0 0 0-21-12.46c-2.15-.11-4.73.31-5.65 2.26s.41 4.21 1.91 5.77a22.85 22.85 0 0 0 24.85 5" style="fill:#ebebeb"/><path d="M89.86 301.09a7.23 7.23 0 0 1-.3-1.43c-.16-.92-.38-2.26-.6-3.92a50.34 50.34 0 0 1-.29-13.1 24.73 24.73 0 0 1 4.85-12.1 17.16 17.16 0 0 1 2.81-2.82 8.83 8.83 0 0 1 .89-.63 1.54 1.54 0 0 1 .32-.19 25 25 0 0 0-3.76 3.84 25.52 25.52 0 0 0-4.66 12 55.35 55.35 0 0 0 .16 13c.19 1.6.34 2.93.46 3.94a10.25 10.25 0 0 1 .12 1.41Z" style="fill:#e0e0e0"/><path d="M69.1 244.2a3.2 3.2 0 0 1 .28.55c.19.41.43 1 .73 1.63.63 1.41 1.51 3.48 2.59 6 2.14 5.11 5 12.21 8 20.12s5.53 15.13 7.31 20.39c.88 2.62 1.58 4.75 2 6.23.22.7.39 1.27.53 1.7a4 4 0 0 1 .15.61 3 3 0 0 1-.24-.58c-.16-.42-.36-1-.61-1.67-.54-1.51-1.28-3.61-2.19-6.19-1.85-5.22-4.44-12.42-7.43-20.33s-5.81-15-7.87-20.16L70 246.45c-.27-.69-.49-1.24-.65-1.66a2.68 2.68 0 0 1-.25-.59Z" style="fill:#e0e0e0"/><path d="M64.48 278.24a6.41 6.41 0 0 1 1.4.08 11.82 11.82 0 0 1 1.62.22 20.92 20.92 0 0 1 2.12.47l1.22.34c.42.12.84.29 1.29.45a27.45 27.45 0 0 1 2.78 1.2 32.52 32.52 0 0 1 5.84 3.72 33.51 33.51 0 0 1 4.84 4.95 26.64 26.64 0 0 1 1.72 2.49c.24.4.5.78.71 1.17l.58 1.12a20.77 20.77 0 0 1 .88 2A13.17 13.17 0 0 1 90 298a8.19 8.19 0 0 1 .36 1.35c-.1 0-.61-1.9-2.09-4.72-.19-.35-.39-.72-.6-1.09s-.47-.75-.72-1.15c-.48-.8-1.11-1.59-1.73-2.43a34.76 34.76 0 0 0-4.8-4.85 35.34 35.34 0 0 0-5.73-3.71 29.58 29.58 0 0 0-2.69-1.24c-.43-.17-.85-.35-1.26-.48l-1.2-.36c-3.07-.87-5.07-.98-5.06-1.08Z" style="fill:#e0e0e0"/><path d="M76 294.58h26.13v13.84a12.29 12.29 0 0 1-12.29 12.29h-1.5A12.29 12.29 0 0 1 76 308.42v-13.84Z" style="fill:#e0e0e0"/><path d="M93.7 294.65a2.46 2.46 0 0 1-.3.77 12.94 12.94 0 0 1-1.16 1.94 15.63 15.63 0 0 1-12.84 6.56 13 13 0 0 1-2.25-.2 2.52 2.52 0 0 1-.8-.21c0-.08 1.17.14 3 .08A16.46 16.46 0 0 0 92 297.17c1.13-1.49 1.63-2.56 1.7-2.52ZM101.93 312.24a2.49 2.49 0 0 1-.84-.18 10 10 0 0 1-2.16-1 11.07 11.07 0 0 1-4.71-13.64 10 10 0 0 1 1.09-2.09 2.7 2.7 0 0 1 .55-.66 24.5 24.5 0 0 0-1.34 2.86 11.23 11.23 0 0 0 4.59 13.26 22.81 22.81 0 0 0 2.82 1.45ZM95.24 320a16.3 16.3 0 0 0-.55-3.86 12 12 0 0 0-2-3.71 13.57 13.57 0 0 0-3.86-3.37 14.84 14.84 0 0 0-9.07-1.74 29.69 29.69 0 0 0-3.83.84 4.29 4.29 0 0 1 1-.44 13.77 13.77 0 0 1 2.82-.72 14.46 14.46 0 0 1 9.34 1.67 13.32 13.32 0 0 1 4 3.5A11.65 11.65 0 0 1 95 316a9.8 9.8 0 0 1 .36 2.89 4.32 4.32 0 0 1-.12 1.11Z" style="fill:#fafafa"/><path d="M476.58 433.53c0 .14-102.07.26-227.94.26s-227.95-.12-227.95-.26 102-.26 228-.26 227.89.11 227.89.26Z" style="fill:#263238"/><path d="M144.54 56.5h45.32v376.72h-45.32z" style="fill:#fdd535"/><path d="M144.54 56.5h45.32v376.72h-45.32z" style="opacity:.6000000000000001"/><path d="M276.8 213.99h21.71v37.41H276.8z" style="fill:#fdd535" transform="rotate(180 287.66 232.7)"/><path d="M216.24 205.3h17.14v46.71h-17.14z" style="fill:#455a64" transform="rotate(180 224.815 228.65)"/><path d="M216.05 208.67a74.81 74.81 0 0 1 8.75-.26 74.67 74.67 0 0 1 8.75.26 74.67 74.67 0 0 1-8.75.26 74.81 74.81 0 0 1-8.75-.26ZM217 210.89a64.75 64.75 0 0 1 8.28-.26 64.62 64.62 0 0 1 8.28.26 66.89 66.89 0 0 1-8.28.26 67 67 0 0 1-8.28-.26ZM224.33 242.79c-.15 0-.26-6.18-.26-13.81s.11-13.82.26-13.82.26 6.18.26 13.82-.12 13.81-.26 13.81ZM216.24 247.07a65.37 65.37 0 0 1 8.4-.27 65.27 65.27 0 0 1 8.39.27 68.82 68.82 0 0 1-8.39.26 68.92 68.92 0 0 1-8.4-.26ZM216.24 249.07a72.48 72.48 0 0 1 8.61-.26 72.24 72.24 0 0 1 8.6.26 72.24 72.24 0 0 1-8.6.26 72.48 72.48 0 0 1-8.61-.26Z" style="fill:#fafafa"/><path d="M233.38 200.25h13.77v51.76h-13.77z" style="fill:#fdd535" transform="rotate(180 240.26 226.125)"/><path d="M233.29 224a12.52 12.52 0 0 1 2.13 1.47l5 3.77 5 3.78a14 14 0 0 1 2 1.66 12.5 12.5 0 0 1-2.21-1.36c-1.32-.9-3.11-2.19-5.06-3.66s-3.66-2.87-4.88-3.9a12.24 12.24 0 0 1-1.98-1.76ZM233.23 215.91a78.89 78.89 0 0 1 7.05 5.7 77.42 77.42 0 0 1 6.7 6.09 79.69 79.69 0 0 1-7-5.7 78.57 78.57 0 0 1-6.75-6.09Z" style="fill:#fafafa"/><path d="M173.53 202.73h6.59v49.3h-6.59z" style="fill:#fdd535" transform="rotate(180 176.82 227.385)"/><path d="M173.8 209.45a15.51 15.51 0 0 0 6.17 0 15.51 15.51 0 0 0-6.17 0Z" style="fill:#fafafa"/><ellipse cx="176.75" cy="208.38" rx="3.09" ry=".31" style="fill:#fafafa"/><path d="M173.8 248.23a15.51 15.51 0 0 0 6.17 0 15.51 15.51 0 0 0-6.17 0ZM173.67 247.15a15.51 15.51 0 0 0 6.17 0 15.51 15.51 0 0 0-6.17 0ZM177 240.71c.17 0 .31-5.64.31-12.61s-.14-12.61-.31-12.61-.31 5.64-.31 12.61.16 12.61.31 12.61Z" style="fill:#fafafa"/><path d="M203.04 202.42h13.17v49.3h-13.17z" style="fill:#263238" transform="rotate(180 209.63 227.07)"/><path d="M212.51 252.35s.06-.08.16-.26.22-.46.37-.82a14.69 14.69 0 0 0 1-3.35 8.7 8.7 0 0 0-.77-5.42 7.32 7.32 0 0 0-2.34-2.58 5.38 5.38 0 0 0-3.79-.89 4 4 0 0 0-2 .9 2.57 2.57 0 0 0-.95 2.08 3 3 0 0 0 1.13 2.09 4.15 4.15 0 0 0 2.25 1 6 6 0 0 0 4.66-1.7 7.48 7.48 0 0 0 2.32-4.74 12.51 12.51 0 0 0-.68-5.5 10.17 10.17 0 0 0-3.23-4.81 5.34 5.34 0 0 0-2.85-1.12 3.72 3.72 0 0 0-3 1.05 2.36 2.36 0 0 0-.67 1.54 2.83 2.83 0 0 0 .45 1.62 4.29 4.29 0 0 0 2.66 1.81 6.22 6.22 0 0 0 5.8-1.94 9.71 9.71 0 0 0 2.26-5.56 13.57 13.57 0 0 0-.57-5.75 8 8 0 0 0-3.4-4.38 5.86 5.86 0 0 0-5.23-.55 2.75 2.75 0 0 0-1.7 2 3.17 3.17 0 0 0 .6 2.48 4.1 4.1 0 0 0 4.43 1.17 7.66 7.66 0 0 0 3.51-2.48 11.26 11.26 0 0 0 2.62-6.76 10.73 10.73 0 0 0-1.22-5.36 10.62 10.62 0 0 0-2.07-2.79 7.37 7.37 0 0 0-.68-.59c-.16-.13-.25-.19-.26-.18a12.43 12.43 0 0 1 2.8 3.67 10.64 10.64 0 0 1-1.53 11.72 7.22 7.22 0 0 1-3.3 2.31 3.6 3.6 0 0 1-3.89-1 2.63 2.63 0 0 1-.49-2.07 2.22 2.22 0 0 1 1.4-1.62 5.29 5.29 0 0 1 4.72.54 7.33 7.33 0 0 1 3.13 4.08 13.16 13.16 0 0 1 .53 5.5 9.19 9.19 0 0 1-2.11 5.2 5.63 5.63 0 0 1-5.21 1.76 3.7 3.7 0 0 1-2.27-1.54 1.9 1.9 0 0 1 .14-2.41 3.13 3.13 0 0 1 2.47-.86 4.68 4.68 0 0 1 2.52 1 9.55 9.55 0 0 1 3 4.51 12 12 0 0 1 .67 5.24 7 7 0 0 1-2.12 4.41 5.45 5.45 0 0 1-4.24 1.58 3.14 3.14 0 0 1-3-2.55 2.12 2.12 0 0 1 .77-1.71 3.52 3.52 0 0 1 1.73-.82 5 5 0 0 1 3.51.79 7 7 0 0 1 2.24 2.42 8.53 8.53 0 0 1 .84 5.22 15.48 15.48 0 0 1-.84 3.33c-.14.74-.3 1.08-.28 1.09Z" style="fill:#fafafa"/><path d="M180.01 206.84h22.86v44.9h-22.86z" style="fill:#fdd535" transform="rotate(180 191.435 229.295)"/><path d="M180.01 206.84h22.86v44.9h-22.86z" style="opacity:.2" transform="rotate(180 191.435 229.295)"/><path d="M180.79 214.3c0 .17 5 .31 11.06.31s11.07-.14 11.07-.31-5-.31-11.07-.31-11.06.14-11.06.31ZM180.51 217.71c0 .17 4.89.31 10.92.31s10.92-.14 10.92-.31-4.89-.31-10.92-.31-10.92.14-10.92.31ZM179.77 246.67c0 .17 5.15.31 11.5.31s11.5-.14 11.5-.31-5.14-.31-11.5-.31-11.5.14-11.5.31ZM180.08 242.67c0 .17 5 .31 11.21.31s11.2-.14 11.2-.31-5-.31-11.2-.31-11.21.14-11.21.31Z" style="fill:#e0e0e0"/><path d="M247.14 202.1h13.17v49.3h-13.17z" style="fill:#455a64" transform="rotate(180 253.725 226.755)"/><path d="M256.6 252a1.13 1.13 0 0 0 .16-.27c.09-.18.22-.45.37-.82a14.09 14.09 0 0 0 1-3.34 8.73 8.73 0 0 0-.77-5.43 7.21 7.21 0 0 0-2.34-2.57 5.38 5.38 0 0 0-3.79-.9 4 4 0 0 0-2 .91 2.62 2.62 0 0 0-.95 2.08 3 3 0 0 0 1.13 2.09 4.14 4.14 0 0 0 2.25 1 6 6 0 0 0 4.67-1.7 7.49 7.49 0 0 0 2.31-4.74 12.53 12.53 0 0 0-.68-5.5 10.1 10.1 0 0 0-3.23-4.8 5.19 5.19 0 0 0-2.84-1.12 3.67 3.67 0 0 0-3 1 2.42 2.42 0 0 0-.68 1.55 2.82 2.82 0 0 0 .45 1.61 4.25 4.25 0 0 0 2.66 1.81 6.18 6.18 0 0 0 5.8-1.94 9.68 9.68 0 0 0 2.26-5.55 13.77 13.77 0 0 0-.56-5.76 7.91 7.91 0 0 0-3.41-4.37 5.8 5.8 0 0 0-5.23-.55 2.75 2.75 0 0 0-1.7 2 3.15 3.15 0 0 0 .6 2.48 4.12 4.12 0 0 0 4.44 1.18 7.77 7.77 0 0 0 3.5-2.49 11.13 11.13 0 0 0 2.62-6.76 10.86 10.86 0 0 0-3.24-8.1 7.45 7.45 0 0 0-.69-.59 1.29 1.29 0 0 0-.25-.17 12.57 12.57 0 0 1 2.79 3.66 10.65 10.65 0 0 1 1.09 5.23 10.94 10.94 0 0 1-2.62 6.5 7.24 7.24 0 0 1-3.3 2.31 3.64 3.64 0 0 1-3.89-1 2.67 2.67 0 0 1-.49-2.07 2.2 2.2 0 0 1 1.4-1.61 5.29 5.29 0 0 1 4.72.54 7.36 7.36 0 0 1 3.14 4.08 13.26 13.26 0 0 1 .52 5.49 9.06 9.06 0 0 1-2.11 5.2 5.6 5.6 0 0 1-5.21 1.76 3.62 3.62 0 0 1-2.27-1.54 1.88 1.88 0 0 1 .15-2.4 3 3 0 0 1 2.46-.86 4.59 4.59 0 0 1 2.52 1 9.6 9.6 0 0 1 3 4.51 12 12 0 0 1 .67 5.24 6.92 6.92 0 0 1-2.12 4.41 5.47 5.47 0 0 1-4.24 1.59 3.15 3.15 0 0 1-3-2.56 2.14 2.14 0 0 1 .77-1.71 3.61 3.61 0 0 1 1.73-.82 5.05 5.05 0 0 1 3.51.8 7 7 0 0 1 2.25 2.41 8.59 8.59 0 0 1 .83 5.22 15.58 15.58 0 0 1-.83 3.33c-.18.7-.35 1.05-.33 1.05Z" style="fill:#fafafa"/><path d="M155.22 199.61h18.31v51.79h-18.31z" style="fill:#fdd535" transform="rotate(180 164.375 225.51)"/><g style="opacity:.30000000000000004"><path d="M155.22 199.61h18.31v51.79h-18.31z" style="fill:#fff" transform="rotate(180 164.375 225.51)"/></g><path d="M260.31 205.3h17.12v46.11h-17.12z" style="fill:#263238" transform="rotate(180 268.87 228.35)"/><path d="M277.86 228.29a14.41 14.41 0 0 0 2.72 1.94 9.49 9.49 0 0 0 3.45 1 8.79 8.79 0 0 0 4.27-.74c1.44-.62 2.77-1.41 4.11-1.87a6.41 6.41 0 0 1 3.73-.34 4 4 0 0 1 2.17 1.31 1.56 1.56 0 0 1 .42.82s-.17-.28-.58-.69a4 4 0 0 0-2.09-1.08 6.2 6.2 0 0 0-3.48.43c-1.28.46-2.58 1.26-4.08 1.9a9 9 0 0 1-4.52.74 9.27 9.27 0 0 1-3.57-1.11 7.8 7.8 0 0 1-2-1.52 2.5 2.5 0 0 1-.55-.79ZM277.48 232.86a13.85 13.85 0 0 0 2.72 1.93 9.38 9.38 0 0 0 3.44 1 8.94 8.94 0 0 0 4.28-.75c1.44-.61 2.77-1.41 4.11-1.87a6.48 6.48 0 0 1 3.73-.34 4 4 0 0 1 2.16 1.31c.38.48.45.82.42.82s-.17-.28-.57-.69a4.08 4.08 0 0 0-2.09-1.08 6.32 6.32 0 0 0-3.49.43c-1.28.47-2.58 1.26-4.07 1.9a9 9 0 0 1-4.52.74 9.22 9.22 0 0 1-3.57-1.1 8.12 8.12 0 0 1-2-1.53c-.41-.47-.58-.76-.55-.77ZM277.76 218.09a104.45 104.45 0 0 1 10.53-.26 104.32 104.32 0 0 1 10.52.26c0 .14-4.71.26-10.52.26s-10.53-.12-10.53-.26ZM270 212.73a2.42 2.42 0 0 0-1.49-.13 1.84 1.84 0 0 0-1.16 1 1.53 1.53 0 0 0 .44 1.67 1.55 1.55 0 0 0 1.69.38 1.82 1.82 0 0 0 .92-1.2 2.46 2.46 0 0 0-.19-1.48s.17.06.33.32a1.89 1.89 0 0 1 .22 1.23 2.14 2.14 0 0 1-1.07 1.56 2.1 2.1 0 0 1-2.77-2.67 2.14 2.14 0 0 1 1.51-1.13 1.91 1.91 0 0 1 1.24.17c.26.11.33.26.33.28ZM268.9 246.79c-.15 0-.27-6.46-.27-14.43s.12-14.44.27-14.44.26 6.46.26 14.44-.16 14.43-.26 14.43Z" style="fill:#fafafa"/><path d="m305.25 56.5-159.79-.85H131v377.56h14.44v-42.45h159.81v42.45h14.44V56.5Zm0 324.11H145.46v-54.85h159.79Zm0-65H145.46v-54.85h159.79Zm0-65H145.46v-54.84h159.79Zm0-65H145.46v-54.84h159.79Zm0-65H145.46v-54h159.79Z" style="fill:#fdd535"/><path d="M319.47 56.5h45.32v376.72h-45.32z" style="fill:#fdd535"/><path d="M209.35 107.91h43.73v12.56h-43.73z" style="fill:#455a64"/><path d="M213.47 119.61a31.29 31.29 0 0 1-.26-5.75 31.44 31.44 0 0 1 .26-5.76 32.54 32.54 0 0 1 .26 5.76 32.38 32.38 0 0 1-.26 5.75ZM215.39 119.61a31.29 31.29 0 0 1-.26-5.75 31.44 31.44 0 0 1 .26-5.76 32.54 32.54 0 0 1 .26 5.76 32.38 32.38 0 0 1-.26 5.75ZM246.28 119.61a31.29 31.29 0 0 1-.26-5.75 31.44 31.44 0 0 1 .26-5.76 32.54 32.54 0 0 1 .26 5.76 32.38 32.38 0 0 1-.26 5.75ZM248 119.61a32.38 32.38 0 0 1-.26-5.75 32.54 32.54 0 0 1 .26-5.76 31.44 31.44 0 0 1 .26 5.76 31.29 31.29 0 0 1-.26 5.75ZM243.31 114c0 .14-5.67.26-12.66.26S218 114.11 218 114s5.67-.26 12.67-.26 12.64.08 12.64.26Z" style="fill:#263238"/><path d="M212.92 95.36h43.73v12.56h-43.73z" style="fill:#fdd535"/><path d="M217 107.06a30.88 30.88 0 0 1-.27-5.76 30.72 30.72 0 0 1 .27-5.75 32.38 32.38 0 0 1 .26 5.75 32.54 32.54 0 0 1-.26 5.76ZM219 107.06a32.54 32.54 0 0 1-.26-5.76 32.38 32.38 0 0 1 .26-5.75 31.29 31.29 0 0 1 .26 5.75 31.44 31.44 0 0 1-.26 5.76ZM249.85 107.06a31.44 31.44 0 0 1-.26-5.76 31.29 31.29 0 0 1 .26-5.75 32.38 32.38 0 0 1 .26 5.75 32.54 32.54 0 0 1-.26 5.76ZM251.57 107.06a32.54 32.54 0 0 1-.26-5.76 32.38 32.38 0 0 1 .26-5.75 32.38 32.38 0 0 1 .26 5.75 32.54 32.54 0 0 1-.26 5.76ZM246.88 101.42c0 .14-5.67.26-12.67.26s-12.66-.12-12.66-.26 5.67-.26 12.66-.26 12.67.11 12.67.26Z" style="fill:#263238"/><path d="M199.82 71.48h6.59v49.3h-6.59z" style="fill:#fdd535"/><path d="M206.13 78.2a15.51 15.51 0 0 1-6.17 0 15.51 15.51 0 0 1 6.17 0ZM206.27 77.13a15.56 15.56 0 0 1-6.18 0 15.56 15.56 0 0 1 6.18 0ZM206.13 117a15.51 15.51 0 0 1-6.17 0 15.51 15.51 0 0 1 6.17 0ZM206.27 115.9a15.56 15.56 0 0 1-6.18 0 15.56 15.56 0 0 1 6.18 0ZM202.91 109.46c-.17 0-.31-5.64-.31-12.61s.14-12.61.31-12.61.31 5.65.31 12.61-.14 12.61-.31 12.61Z" style="fill:#fafafa"/><path d="M163.71 71.17h13.17v49.3h-13.17z" style="fill:#263238"/><path d="M167.42 121.11a1.41 1.41 0 0 1-.15-.27c-.1-.18-.22-.46-.38-.82a14.69 14.69 0 0 1-1-3.35 8.7 8.7 0 0 1 .77-5.42 7.32 7.32 0 0 1 2.34-2.58 5.38 5.38 0 0 1 3.79-.89 4 4 0 0 1 2 .9 2.59 2.59 0 0 1 .94 2.08 3 3 0 0 1-1.13 2.09 4.12 4.12 0 0 1-2.24 1 6 6 0 0 1-4.67-1.7 7.58 7.58 0 0 1-2.32-4.74 12.66 12.66 0 0 1 .68-5.5 10.25 10.25 0 0 1 3.23-4.81 5.37 5.37 0 0 1 2.85-1.12 3.71 3.71 0 0 1 3 1 2.36 2.36 0 0 1 .67 1.54 2.83 2.83 0 0 1-.45 1.62 4.29 4.29 0 0 1-2.66 1.81 6.22 6.22 0 0 1-5.8-1.94 9.71 9.71 0 0 1-2.26-5.55 13.6 13.6 0 0 1 .57-5.76 8 8 0 0 1 3.4-4.38 5.86 5.86 0 0 1 5.23-.55 2.78 2.78 0 0 1 1.71 2 3.21 3.21 0 0 1-.6 2.48 4.12 4.12 0 0 1-4.44 1.17A7.63 7.63 0 0 1 167 87a11.21 11.21 0 0 1-2.63-6.76 10.73 10.73 0 0 1 1.22-5.36 10.62 10.62 0 0 1 2.07-2.79 7.37 7.37 0 0 1 .68-.59c.17-.13.25-.19.26-.18a12.62 12.62 0 0 0-2.8 3.67 10.69 10.69 0 0 0 1.53 11.72A7.22 7.22 0 0 0 170.6 89a3.62 3.62 0 0 0 3.9-1 2.63 2.63 0 0 0 .5-2.1 2.2 2.2 0 0 0-1.4-1.62 5.29 5.29 0 0 0-4.72.54 7.42 7.42 0 0 0-3.13 4.08 13.16 13.16 0 0 0-.53 5.5 9.13 9.13 0 0 0 2.12 5.2 5.6 5.6 0 0 0 5.2 1.76 3.68 3.68 0 0 0 2.27-1.54 1.9 1.9 0 0 0-.14-2.41 3.13 3.13 0 0 0-2.47-.86 4.68 4.68 0 0 0-2.52 1 9.51 9.51 0 0 0-3 4.51 11.9 11.9 0 0 0-.68 5.24 7 7 0 0 0 2.12 4.41 5.45 5.45 0 0 0 4.24 1.58 3.14 3.14 0 0 0 2.95-2.55 2.09 2.09 0 0 0-.77-1.71 3.52 3.52 0 0 0-1.73-.82 5.06 5.06 0 0 0-3.51.79 7 7 0 0 0-2.24 2.42 8.53 8.53 0 0 0-.84 5.22A16.1 16.1 0 0 0 167 120c.28.71.44 1.09.42 1.11Z" style="fill:#fafafa"/><path d="M177.07 75.59h22.86v44.9h-22.86z" style="fill:#fdd535"/><path d="M177.07 75.59h22.86v44.9h-22.86z" style="opacity:.2"/><path d="M199.14 83.05c0 .17-4.95.31-11.06.31S177 83.22 177 83.05s4.95-.31 11.06-.31 11.08.14 11.08.31ZM199.42 86.46c0 .17-4.89.31-10.92.31s-10.92-.14-10.92-.31 4.89-.31 10.92-.31 10.92.14 10.92.31ZM200.16 115.42c0 .17-5.15.31-11.5.31s-11.5-.14-11.5-.31 5.15-.31 11.5-.31 11.5.14 11.5.31ZM199.85 111.42c0 .17-5 .31-11.2.31s-11.21-.14-11.21-.31 5-.31 11.21-.31 11.2.14 11.2.31Z" style="fill:#e0e0e0"/><path d="M210.39 91.15h54.15v4.21h-54.15z" style="fill:#263238"/><path d="M214.4 95.09c-.14 0-.26-.83-.26-1.86s.12-1.86.26-1.86.26.83.26 1.86-.11 1.86-.26 1.86ZM261.15 95.09c-.15 0-.26-.83-.26-1.86s.11-1.86.26-1.86.26.83.26 1.86-.12 1.86-.26 1.86ZM259 93.23c0 .14-9.41.26-21 .26s-21-.12-21-.26 9.42-.26 21-.26 21 .11 21 .26Z" style="fill:#fff"/><path d="M281.09 79.62h6.89v40.99h-6.89z" style="fill:#fdd535"/><path d="M281.09 79.62h6.89v40.99h-6.89z" style="opacity:.30000000000000004"/><path d="M288.1 73.9h17.14v46.71H288.1z" style="fill:#455a64"/><path d="M305.44 77.27a72.27 72.27 0 0 1-8.75.26 72.14 72.14 0 0 1-8.75-.26 74.67 74.67 0 0 1 8.75-.26 74.81 74.81 0 0 1 8.75.26ZM304.5 79.49a67 67 0 0 1-8.28.26 66.89 66.89 0 0 1-8.28-.26 64.62 64.62 0 0 1 8.28-.26 64.75 64.75 0 0 1 8.28.26ZM297.16 111.4c-.14 0-.26-6.19-.26-13.82s.12-13.82.26-13.82.27 6.19.27 13.82-.12 13.82-.27 13.82ZM305.25 115.67a68.92 68.92 0 0 1-8.4.26 68.82 68.82 0 0 1-8.39-.26 66.48 66.48 0 0 1 8.39-.26 66.58 66.58 0 0 1 8.4.26ZM305.25 117.67a70 70 0 0 1-8.61.26 69.79 69.79 0 0 1-8.6-.26 72.24 72.24 0 0 1 8.6-.26 72.48 72.48 0 0 1 8.61.26Z" style="fill:#fafafa"/><path d="M267.43 73.9h13.77v46.71h-13.77z" style="fill:#fdd535"/><path d="M281.29 95.35a11.24 11.24 0 0 1-1.91 1.65c-1.23.94-2.95 2.2-4.89 3.53s-3.74 2.49-5.06 3.3a11.45 11.45 0 0 1-2.19 1.2 12.41 12.41 0 0 1 2-1.51l5-3.42 5-3.4a12.28 12.28 0 0 1 2.05-1.35ZM281.35 88a74.05 74.05 0 0 1-6.72 5.52 72.46 72.46 0 0 1-7 5.11 74.05 74.05 0 0 1 6.72-5.52 69.72 69.72 0 0 1 7-5.11Z" style="fill:#fafafa"/><path d="M210.24 303.42h43.73v12.56h-43.73z" style="fill:#455a64" transform="rotate(180 232.105 309.705)"/><path d="M249.85 315.12a63.82 63.82 0 0 1 0-11.51 63.82 63.82 0 0 1 0 11.51ZM247.93 315.12a63.82 63.82 0 0 1 0-11.51 63.82 63.82 0 0 1 0 11.51ZM217 315.12a63.82 63.82 0 0 1 0-11.51 63.82 63.82 0 0 1 0 11.51ZM215.32 315.12a63.82 63.82 0 0 1 0-11.51 63.82 63.82 0 0 1 0 11.51ZM220 309.48c0-.14 5.67-.26 12.66-.26s12.66.12 12.66.26-5.66.26-12.66.26-12.66-.12-12.66-.26Z" style="fill:#263238"/><path d="M207.42 292.02h43.73v12.56h-43.73z" style="fill:#fdd535" transform="rotate(180 229.28 298.3)"/><path d="M247 303.72a63.93 63.93 0 0 1 0-11.52 63.93 63.93 0 0 1 0 11.52ZM245.11 303.72a63.93 63.93 0 0 1 0-11.52 63.93 63.93 0 0 1 0 11.52ZM214.21 303.72a63.93 63.93 0 0 1 0-11.52 63.93 63.93 0 0 1 0 11.52ZM212.49 303.72a63.93 63.93 0 0 1 0-11.52 63.93 63.93 0 0 1 0 11.52ZM217.18 298.07c0-.14 5.67-.26 12.66-.26s12.67.12 12.67.26-5.67.26-12.67.26-12.66-.11-12.66-.26Z" style="fill:#263238"/><path d="M257.65 267.1h6.59v49.3h-6.59z" style="fill:#fdd535" transform="rotate(180 260.945 291.745)"/><path d="M257.93 273.81a15.51 15.51 0 0 0 6.17 0 15.51 15.51 0 0 0-6.17 0ZM257.79 272.74a15.51 15.51 0 0 0 6.17 0 15.51 15.51 0 0 0-6.17 0ZM257.93 312.59a15.51 15.51 0 0 0 6.17 0 15.51 15.51 0 0 0-6.17 0ZM257.79 311.51a15.51 15.51 0 0 0 6.17 0 15.51 15.51 0 0 0-6.17 0ZM261.15 305.07c.17 0 .31-5.64.31-12.61s-.14-12.61-.31-12.61-.31 5.65-.31 12.61.16 12.61.31 12.61Z" style="fill:#fafafa"/><path d="M287.17 266.78h13.17v49.3h-13.17z" style="fill:#263238" transform="rotate(180 293.755 291.43)"/><path d="M296.64 316.72a1.41 1.41 0 0 0 .15-.27c.1-.18.22-.46.38-.82a14.27 14.27 0 0 0 .95-3.35 8.7 8.7 0 0 0-.77-5.42 7.2 7.2 0 0 0-2.33-2.58 5.41 5.41 0 0 0-3.8-.89 4 4 0 0 0-2 .9 2.59 2.59 0 0 0-.94 2.08 3 3 0 0 0 1.12 2.09 4.15 4.15 0 0 0 2.25 1 6 6 0 0 0 4.67-1.7 7.58 7.58 0 0 0 2.32-4.74 12.66 12.66 0 0 0-.69-5.5 10.1 10.1 0 0 0-3.23-4.81 5.31 5.31 0 0 0-2.84-1.12 3.71 3.71 0 0 0-3 1.05 2.42 2.42 0 0 0-.68 1.54 2.92 2.92 0 0 0 .46 1.62 4.25 4.25 0 0 0 2.66 1.81 6.22 6.22 0 0 0 5.8-1.94 9.71 9.71 0 0 0 2.26-5.55 13.6 13.6 0 0 0-.57-5.76 8 8 0 0 0-3.4-4.38 5.86 5.86 0 0 0-5.23-.55 2.76 2.76 0 0 0-1.71 2 3.21 3.21 0 0 0 .6 2.48 4.12 4.12 0 0 0 4.44 1.17 7.63 7.63 0 0 0 3.5-2.48 11.21 11.21 0 0 0 2.63-6.76 10.84 10.84 0 0 0-1.22-5.36 10.62 10.62 0 0 0-2.07-2.79c-.29-.27-.52-.47-.68-.59s-.25-.19-.26-.18a12.83 12.83 0 0 1 2.8 3.67 10.69 10.69 0 0 1-1.53 11.72 7.24 7.24 0 0 1-3.3 2.32 3.65 3.65 0 0 1-3.9-1 2.67 2.67 0 0 1-.49-2.07 2.25 2.25 0 0 1 1.4-1.62 5.28 5.28 0 0 1 4.72.54 7.39 7.39 0 0 1 3.14 4.08 13 13 0 0 1 .52 5.5 9.06 9.06 0 0 1-2.11 5.2 5.61 5.61 0 0 1-5.2 1.76 3.73 3.73 0 0 1-2.28-1.54 1.9 1.9 0 0 1 .15-2.41 3.12 3.12 0 0 1 2.47-.86 4.71 4.71 0 0 1 2.52 1 9.58 9.58 0 0 1 3 4.51 11.9 11.9 0 0 1 .68 5.24 7 7 0 0 1-2.12 4.41 5.45 5.45 0 0 1-4.24 1.58 3.14 3.14 0 0 1-2.95-2.55 2.07 2.07 0 0 1 .77-1.71 3.52 3.52 0 0 1 1.73-.82 5 5 0 0 1 3.5.79 6.89 6.89 0 0 1 2.25 2.42 8.44 8.44 0 0 1 .83 5.22 15.58 15.58 0 0 1-.83 3.33 10.58 10.58 0 0 0-.3 1.09Z" style="fill:#fafafa"/><path d="M264.13 271.2h22.86v44.9h-22.86z" style="fill:#fdd535" transform="rotate(180 275.56 293.655)"/><path d="M264.13 271.2h22.86v44.9h-22.86z" style="opacity:.2" transform="rotate(180 275.56 293.655)"/><path d="M264.92 278.66c0 .17 4.95.31 11.06.31s11.06-.14 11.06-.31-5-.31-11.06-.31-11.06.14-11.06.31ZM264.64 282.07c0 .17 4.88.31 10.91.31s10.93-.14 10.93-.31-4.89-.31-10.93-.31-10.91.14-10.91.31ZM263.9 311c0 .17 5.15.31 11.5.31s11.5-.14 11.5-.31-5.15-.31-11.5-.31-11.5.17-11.5.31ZM264.21 307c0 .17 5 .31 11.2.31s11.21-.14 11.21-.31-5-.31-11.21-.31-11.2.17-11.2.31Z" style="fill:#e0e0e0"/><path d="M199.53 287.81h54.15v4.21h-54.15z" style="fill:#263238" transform="rotate(180 226.6 289.91)"/><path d="M249.66 291.75c-.15 0-.26-.84-.26-1.87s.11-1.86.26-1.86.26.84.26 1.86-.12 1.87-.26 1.87ZM202.91 291.75c-.14 0-.26-.84-.26-1.87s.12-1.86.26-1.86.26.84.26 1.86-.11 1.87-.26 1.87ZM205 289.88c0-.14 9.41-.26 21-.26s21 .12 21 .26-9.41.27-21 .27-21-.15-21-.27Z" style="fill:#fff"/><path d="M176.08 275.23h6.89v40.99h-6.89z" style="fill:#fdd535" transform="rotate(180 179.52 295.72)"/><path d="M176.08 275.23h6.89v40.99h-6.89z" style="opacity:.30000000000000004" transform="rotate(180 179.52 295.72)"/><path d="M158.81 269.51h17.14v46.71h-17.14z" style="fill:#fdd535" transform="rotate(180 167.385 292.86)"/><path d="M158.61 272.88a74.92 74.92 0 0 1 8.76-.26 74.81 74.81 0 0 1 8.75.26 72.27 72.27 0 0 1-8.75.26 72.38 72.38 0 0 1-8.76-.26ZM159.56 275.1a64.75 64.75 0 0 1 8.28-.26 64.62 64.62 0 0 1 8.28.26 66.89 66.89 0 0 1-8.28.26 67 67 0 0 1-8.28-.26ZM166.89 307c-.14 0-.26-6.19-.26-13.82s.12-13.82.26-13.82.26 6.19.26 13.82S167 307 166.89 307ZM158.81 311.28a66.48 66.48 0 0 1 8.39-.26 66.58 66.58 0 0 1 8.4.26 68.92 68.92 0 0 1-8.4.26 68.82 68.82 0 0 1-8.39-.26ZM158.81 313.28a72.24 72.24 0 0 1 8.6-.26 72.34 72.34 0 0 1 8.61.26 69.89 69.89 0 0 1-8.61.26 69.79 69.79 0 0 1-8.6-.26Z" style="fill:#fafafa"/><path d="M182.85 269.51h13.77v46.71h-13.77z" style="fill:#fdd535" transform="rotate(180 189.74 292.86)"/><path d="M182.77 291a12 12 0 0 1 2.13 1.32l5 3.39 5 3.42a12.41 12.41 0 0 1 2 1.51 11.66 11.66 0 0 1-2.2-1.2c-1.31-.81-3.1-2-5.05-3.3s-3.66-2.59-4.89-3.53a10.28 10.28 0 0 1-1.99-1.61ZM182.71 283.65a71.06 71.06 0 0 1 7 5.11 74.05 74.05 0 0 1 6.72 5.52 70.45 70.45 0 0 1-7-5.11 74.7 74.7 0 0 1-6.72-5.52ZM183.71 183.72c0 .15-4.85.26-10.83.26s-10.83-.11-10.83-.26 4.85-.26 10.83-.26 10.83.12 10.83.26Z" style="fill:#fafafa"/><path d="M161.95 148.14h21.71v37.41h-21.71z" style="fill:#fdd535"/><path d="M227.08 139.45h17.14v46.71h-17.14z" style="fill:#455a64"/><path d="M244.42 142.82a74.81 74.81 0 0 1-8.75.26 74.92 74.92 0 0 1-8.76-.26 74.92 74.92 0 0 1 8.76-.26 74.81 74.81 0 0 1 8.75.26ZM243.47 145a67 67 0 0 1-8.28.26 67 67 0 0 1-8.28-.26 64.75 64.75 0 0 1 8.28-.26 64.75 64.75 0 0 1 8.28.26ZM236.14 176.94c-.14 0-.26-6.18-.26-13.81s.12-13.82.26-13.82.26 6.18.26 13.82-.11 13.81-.26 13.81ZM244.22 181.22a68.68 68.68 0 0 1-8.39.26 68.82 68.82 0 0 1-8.39-.26 65.27 65.27 0 0 1 8.39-.27 65.14 65.14 0 0 1 8.39.27ZM244.22 183.22a72.24 72.24 0 0 1-8.6.26 72.24 72.24 0 0 1-8.6-.26 72.24 72.24 0 0 1 8.6-.26 72.24 72.24 0 0 1 8.6.26Z" style="fill:#fafafa"/><path d="M213.32 134.4h13.77v51.76h-13.77z" style="fill:#fdd535"/><path d="M227.18 158.17a12.87 12.87 0 0 1-1.9 1.76c-1.22 1-2.94 2.42-4.89 3.9s-3.74 2.76-5.06 3.66a12.26 12.26 0 0 1-2.2 1.36 12.67 12.67 0 0 1 2-1.66l5-3.78 5-3.77a12.52 12.52 0 0 1 2.05-1.47ZM227.24 150.06a78.57 78.57 0 0 1-6.71 6.09 77.26 77.26 0 0 1-7.05 5.7 78.57 78.57 0 0 1 6.71-6.09 77.26 77.26 0 0 1 7.05-5.7Z" style="fill:#fafafa"/><path d="M280.35 136.88h6.59v49.3h-6.59z" style="fill:#fdd535"/><path d="M286.67 143.6a15.51 15.51 0 0 1-6.17 0 15.51 15.51 0 0 1 6.17 0ZM286.8 142.53a15.51 15.51 0 0 1-6.17 0 15.51 15.51 0 0 1 6.17 0ZM286.67 182.38a15.51 15.51 0 0 1-6.17 0 15.51 15.51 0 0 1 6.17 0ZM286.8 181.3a15.51 15.51 0 0 1-6.17 0 15.51 15.51 0 0 1 6.17 0ZM283.45 174.86c-.17 0-.31-5.64-.31-12.61s.14-12.61.31-12.61.31 5.64.31 12.61-.14 12.61-.31 12.61Z" style="fill:#fafafa"/><path d="M244.25 136.57h13.17v49.3h-13.17z" style="fill:#263238"/><path d="M248 186.51a1.13 1.13 0 0 1-.16-.27c-.09-.18-.22-.46-.37-.82a14.19 14.19 0 0 1-1-3.35 8.7 8.7 0 0 1 .77-5.42 7.38 7.38 0 0 1 2.33-2.58 5.41 5.41 0 0 1 3.8-.89 4 4 0 0 1 2 .9 2.63 2.63 0 0 1 .95 2.08 3 3 0 0 1-1.13 2.09 4.15 4.15 0 0 1-2.25 1 6 6 0 0 1-4.67-1.7 7.51 7.51 0 0 1-2.31-4.74 12.51 12.51 0 0 1 .68-5.5 10.17 10.17 0 0 1 3.23-4.81 5.34 5.34 0 0 1 2.84-1.12 3.71 3.71 0 0 1 3 1 2.42 2.42 0 0 1 .68 1.54 2.83 2.83 0 0 1-.45 1.62 4.29 4.29 0 0 1-2.66 1.81 6.23 6.23 0 0 1-5.81-1.94 9.76 9.76 0 0 1-2.25-5.56 13.56 13.56 0 0 1 .56-5.75 8 8 0 0 1 3.41-4.38 5.86 5.86 0 0 1 5.23-.55 2.75 2.75 0 0 1 1.7 2 3.17 3.17 0 0 1-.6 2.48 4.11 4.11 0 0 1-4.44 1.17 7.68 7.68 0 0 1-3.5-2.48 11.13 11.13 0 0 1-2.62-6.76 10.86 10.86 0 0 1 3.28-8.15 6.14 6.14 0 0 1 .69-.59 1.16 1.16 0 0 1 .25-.18 12.72 12.72 0 0 0-2.79 3.67 10.63 10.63 0 0 0-1.09 5.23 10.89 10.89 0 0 0 2.62 6.49 7.17 7.17 0 0 0 3.3 2.31 3.61 3.61 0 0 0 3.89-1 2.67 2.67 0 0 0 .49-2.07 2.22 2.22 0 0 0-1.4-1.62 5.29 5.29 0 0 0-4.72.54 7.39 7.39 0 0 0-3.14 4.08 13.16 13.16 0 0 0-.52 5.5 9.06 9.06 0 0 0 2.11 5.2 5.62 5.62 0 0 0 5.21 1.76 3.73 3.73 0 0 0 2.27-1.54 1.9 1.9 0 0 0-.15-2.41 3.11 3.11 0 0 0-2.46-.86 4.68 4.68 0 0 0-2.52 1 9.55 9.55 0 0 0-3 4.51 12.17 12.17 0 0 0-.68 5.24 7 7 0 0 0 2.13 4.41 5.42 5.42 0 0 0 4.24 1.58 3.14 3.14 0 0 0 3-2.55 2.12 2.12 0 0 0-.77-1.71 3.52 3.52 0 0 0-1.73-.82 5 5 0 0 0-3.51.79 7.07 7.07 0 0 0-2.25 2.42 8.59 8.59 0 0 0-.83 5.22 15.58 15.58 0 0 0 .83 3.33c.1.75.29 1.13.29 1.15Z" style="fill:#fafafa"/><path d="M257.6 140.99h22.86v44.9H257.6z" style="fill:#fdd535"/><path d="M257.6 140.99h22.86v44.9H257.6z" style="opacity:.2"/><path d="M279.67 148.45c0 .17-4.95.31-11.06.31s-11.06-.14-11.06-.31 4.95-.31 11.06-.31 11.06.14 11.06.31ZM280 151.86c0 .17-4.89.31-10.92.31s-10.92-.14-10.92-.31 4.89-.31 10.92-.31 10.92.14 10.92.31ZM280.69 180.82c0 .17-5.15.31-11.5.31s-11.5-.14-11.5-.31 5.15-.31 11.5-.31 11.5.14 11.5.31ZM280.38 176.82c0 .17-5 .31-11.2.31S258 177 258 176.82s5-.31 11.2-.31 11.18.14 11.18.31Z" style="fill:#e0e0e0"/><path d="M200.16 136.25h13.17v49.3h-13.17z" style="fill:#455a64"/><path d="M203.86 186.19a1.41 1.41 0 0 1-.15-.27c-.09-.18-.22-.45-.38-.82a14.16 14.16 0 0 1-1-3.34 8.73 8.73 0 0 1 .77-5.43 7.09 7.09 0 0 1 2.33-2.57 5.41 5.41 0 0 1 3.8-.9 4 4 0 0 1 2 .91 2.58 2.58 0 0 1 .94 2.08 3 3 0 0 1-1.12 2.09 4.14 4.14 0 0 1-2.25.95 6 6 0 0 1-4.67-1.7 7.55 7.55 0 0 1-2.32-4.74 12.68 12.68 0 0 1 .69-5.5 10 10 0 0 1 3.23-4.8 5.19 5.19 0 0 1 2.84-1.12 3.67 3.67 0 0 1 3 1 2.47 2.47 0 0 1 .68 1.55 2.75 2.75 0 0 1-.46 1.61 4.26 4.26 0 0 1-2.65 1.81 6.21 6.21 0 0 1-5.81-1.94 9.68 9.68 0 0 1-2.26-5.55 13.77 13.77 0 0 1 .57-5.76 7.89 7.89 0 0 1 3.4-4.37 5.82 5.82 0 0 1 5.24-.55 2.77 2.77 0 0 1 1.7 2 3.19 3.19 0 0 1-.6 2.48 4.12 4.12 0 0 1-4.44 1.18 7.72 7.72 0 0 1-3.5-2.49 11.21 11.21 0 0 1-2.63-6.76 11 11 0 0 1 1.22-5.36 10.62 10.62 0 0 1 2.07-2.79 7.45 7.45 0 0 1 .69-.59c.16-.12.24-.18.25-.17a12.37 12.37 0 0 0-2.79 3.66 10.67 10.67 0 0 0-1.09 5.24 10.92 10.92 0 0 0 2.61 6.49 7.32 7.32 0 0 0 3.31 2.31 3.64 3.64 0 0 0 3.89-1 2.67 2.67 0 0 0 .49-2.07 2.2 2.2 0 0 0-1.4-1.61 5.28 5.28 0 0 0-4.72.54 7.36 7.36 0 0 0-3.14 4.08 12.94 12.94 0 0 0-.52 5.49 9.06 9.06 0 0 0 2.11 5.2 5.6 5.6 0 0 0 5.21 1.76 3.65 3.65 0 0 0 2.27-1.54 1.88 1.88 0 0 0-.15-2.4 3.05 3.05 0 0 0-2.47-.86 4.62 4.62 0 0 0-2.52 1 9.58 9.58 0 0 0-3 4.51 12 12 0 0 0-.68 5.24 7 7 0 0 0 2.12 4.41 5.49 5.49 0 0 0 4.24 1.59 3.16 3.16 0 0 0 3-2.56 2.12 2.12 0 0 0-.78-1.71 3.52 3.52 0 0 0-1.73-.82 5 5 0 0 0-3.5.8 6.78 6.78 0 0 0-2.25 2.41 8.52 8.52 0 0 0-.83 5.22 15.58 15.58 0 0 0 .83 3.33 11.62 11.62 0 0 1 .31 1.15Z" style="fill:#fafafa"/><path d="M286.94 133.76h18.31v51.79h-18.31z" style="fill:#455a64"/><path d="M183.04 139.45h17.12v46.11h-17.12z" style="fill:#263238"/><path d="M182.61 162.44a2.5 2.5 0 0 1-.56.74 8 8 0 0 1-2 1.52 9.32 9.32 0 0 1-3.58 1.11 9 9 0 0 1-4.52-.74c-1.49-.64-2.79-1.44-4.07-1.9a6.2 6.2 0 0 0-3.48-.43 4 4 0 0 0-2.1 1.08c-.4.41-.53.71-.57.69a1.56 1.56 0 0 1 .42-.82 4 4 0 0 1 2.16-1.31 6.44 6.44 0 0 1 3.74.34c1.34.46 2.66 1.25 4.11 1.87a8.76 8.76 0 0 0 4.27.74 9.38 9.38 0 0 0 3.44-1 14.31 14.31 0 0 0 2.74-1.89ZM183 167a2.61 2.61 0 0 1-.55.73 8.32 8.32 0 0 1-2 1.53 9.22 9.22 0 0 1-3.57 1.1 9 9 0 0 1-4.52-.74c-1.5-.64-2.8-1.43-4.07-1.9a6.33 6.33 0 0 0-3.49-.43 4.08 4.08 0 0 0-2.09 1.08c-.4.41-.53.72-.58.69a1.68 1.68 0 0 1 .43-.82 4 4 0 0 1 2.16-1.31 6.49 6.49 0 0 1 3.73.34c1.34.46 2.67 1.26 4.11 1.87a8.94 8.94 0 0 0 4.28.75 9.49 9.49 0 0 0 3.44-1A14.7 14.7 0 0 0 183 167ZM182.71 152.24c0 .14-4.72.26-10.53.26s-10.53-.12-10.53-.26a104.61 104.61 0 0 1 10.53-.26 104.61 104.61 0 0 1 10.53.26ZM190.46 146.88s.07-.17.34-.32a1.89 1.89 0 0 1 1.24-.17 2.14 2.14 0 0 1 1.51 1.13 2.1 2.1 0 0 1-2.78 2.67 2.12 2.12 0 0 1-1.06-1.56 1.83 1.83 0 0 1 .22-1.23c.16-.26.31-.34.32-.32a2.6 2.6 0 0 0-.18 1.48 1.79 1.79 0 0 0 .92 1.2 1.66 1.66 0 0 0 2.12-2 1.82 1.82 0 0 0-1.16-1 2.46 2.46 0 0 0-1.49.12ZM191.57 180.94c-.14 0-.26-6.46-.26-14.43s.12-14.44.26-14.44.26 6.46.26 14.44-.11 14.43-.26 14.43Z" style="fill:#fafafa"/><path d="M161.95 342.4h21.71v37.41h-21.71z" style="fill:#fdd535"/><path d="M227.08 333.7h17.14v46.71h-17.14z" style="fill:#455a64"/><path d="M244.42 337.08a74.81 74.81 0 0 1-8.75.26 74.92 74.92 0 0 1-8.76-.26 72.38 72.38 0 0 1 8.76-.26 72.27 72.27 0 0 1 8.75.26ZM243.47 339.29a64.75 64.75 0 0 1-8.28.26 64.75 64.75 0 0 1-8.28-.26 67 67 0 0 1 8.28-.26 67 67 0 0 1 8.28.26ZM236.14 371.2c-.14 0-.26-6.19-.26-13.82s.12-13.82.26-13.82.26 6.19.26 13.82-.11 13.82-.26 13.82ZM244.22 375.47a66.35 66.35 0 0 1-8.39.26 66.48 66.48 0 0 1-8.39-.26 68.82 68.82 0 0 1 8.39-.26 68.68 68.68 0 0 1 8.39.26ZM244.22 377.48a72.24 72.24 0 0 1-8.6.26 72.24 72.24 0 0 1-8.6-.26 69.79 69.79 0 0 1 8.6-.26 69.79 69.79 0 0 1 8.6.26Z" style="fill:#fafafa"/><path d="M213.32 328.65h13.77v51.76h-13.77z" style="fill:#fdd535"/><path d="M227.18 352.42a12.55 12.55 0 0 1-1.9 1.77c-1.22 1-2.94 2.42-4.89 3.89s-3.74 2.77-5.06 3.67a13.05 13.05 0 0 1-2.2 1.36 12 12 0 0 1 2-1.66l5-3.78 5-3.77a13.91 13.91 0 0 1 2.05-1.48ZM227.24 344.32a78.57 78.57 0 0 1-6.71 6.09 77.26 77.26 0 0 1-7.05 5.7 78.57 78.57 0 0 1 6.71-6.09 77.26 77.26 0 0 1 7.05-5.7Z" style="fill:#fafafa"/><path d="M280.35 331.14h6.59v49.3h-6.59z" style="fill:#455a64"/><path d="M286.67 337.86a15.51 15.51 0 0 1-6.17 0 15.51 15.51 0 0 1 6.17 0ZM286.8 336.78c0 .18-1.38.31-3.08.31s-3.09-.13-3.09-.31a15.51 15.51 0 0 1 6.17 0ZM286.67 376.63a15.51 15.51 0 0 1-6.17 0 15.51 15.51 0 0 1 6.17 0ZM286.8 375.56a15.51 15.51 0 0 1-6.17 0 15.51 15.51 0 0 1 6.17 0ZM283.45 369.12c-.17 0-.31-5.65-.31-12.61s.14-12.61.31-12.61.31 5.64.31 12.61-.14 12.61-.31 12.61Z" style="fill:#fafafa"/><path d="M244.25 330.83h13.17v49.3h-13.17z" style="fill:#263238"/><path d="M248 380.76s-.07-.08-.16-.27-.22-.45-.37-.82a14.09 14.09 0 0 1-1-3.34 8.69 8.69 0 0 1 .77-5.42 7.3 7.3 0 0 1 2.33-2.58 5.47 5.47 0 0 1 3.8-.9 4 4 0 0 1 2 .91 2.62 2.62 0 0 1 .95 2.08 3 3 0 0 1-1.13 2.09 4.07 4.07 0 0 1-2.25.95 6 6 0 0 1-4.67-1.7 7.47 7.47 0 0 1-2.31-4.74 12.53 12.53 0 0 1 .68-5.5 10.15 10.15 0 0 1 3.23-4.8 5.26 5.26 0 0 1 2.84-1.12 3.68 3.68 0 0 1 3 1 2.42 2.42 0 0 1 .68 1.54 2.82 2.82 0 0 1-.45 1.61 4.3 4.3 0 0 1-2.66 1.82 6.22 6.22 0 0 1-5.81-1.95 9.73 9.73 0 0 1-2.25-5.55 13.56 13.56 0 0 1 .56-5.75 8 8 0 0 1 3.41-4.38 5.83 5.83 0 0 1 5.23-.55 2.75 2.75 0 0 1 1.7 2 3.18 3.18 0 0 1-.6 2.49 4.11 4.11 0 0 1-4.44 1.17 7.7 7.7 0 0 1-3.5-2.49 11.11 11.11 0 0 1-2.62-6.76 10.8 10.8 0 0 1 1.21-5.35 10.93 10.93 0 0 1 2.07-2.8 7.45 7.45 0 0 1 .69-.59 1.29 1.29 0 0 1 .25-.17 12.55 12.55 0 0 0-2.79 3.66 10.67 10.67 0 0 0-1.09 5.24 10.89 10.89 0 0 0 2.62 6.49 7.24 7.24 0 0 0 3.3 2.31 3.65 3.65 0 0 0 3.89-1 2.69 2.69 0 0 0 .49-2.08 2.2 2.2 0 0 0-1.4-1.61 5.29 5.29 0 0 0-4.72.54 7.36 7.36 0 0 0-3.14 4.08 13.14 13.14 0 0 0-.52 5.5 9.08 9.08 0 0 0 2.11 5.2 5.61 5.61 0 0 0 5.21 1.75 3.65 3.65 0 0 0 2.27-1.54 1.88 1.88 0 0 0-.15-2.4 3.08 3.08 0 0 0-2.46-.86 4.75 4.75 0 0 0-2.52 1 9.6 9.6 0 0 0-3 4.51 12.24 12.24 0 0 0-.68 5.25 6.92 6.92 0 0 0 2.13 4.4 5.43 5.43 0 0 0 4.24 1.59 3.14 3.14 0 0 0 3-2.56 2.15 2.15 0 0 0-.77-1.71 3.59 3.59 0 0 0-1.73-.81 5 5 0 0 0-3.51.79 7 7 0 0 0-2.25 2.41 8.62 8.62 0 0 0-.83 5.23 15.58 15.58 0 0 0 .83 3.33c.1.77.29 1.15.29 1.16Z" style="fill:#fafafa"/><path d="M257.6 335.25h22.86v44.9H257.6z" style="fill:#fdd535"/><path d="M257.6 335.25h22.86v44.9H257.6z" style="opacity:.2"/><path d="M279.67 342.71c0 .17-4.95.31-11.06.31s-11.06-.14-11.06-.31 4.95-.31 11.06-.31 11.06.14 11.06.31ZM280 346.11c0 .17-4.89.31-10.92.31s-10.92-.14-10.92-.31 4.89-.31 10.92-.31 10.92.14 10.92.31ZM280.69 375.07c0 .18-5.15.32-11.5.32s-11.5-.14-11.5-.32 5.15-.31 11.5-.31 11.5.14 11.5.31ZM280.38 371.07c0 .18-5 .31-11.2.31s-11.2-.13-11.2-.31 5-.31 11.2-.31 11.2.14 11.2.31Z" style="fill:#e0e0e0"/><path d="M200.16 330.51h13.17v49.3h-13.17z" style="fill:#455a64"/><path d="M203.86 380.45a1.41 1.41 0 0 1-.15-.27 21.8 21.8 0 0 1-.38-.82 14.27 14.27 0 0 1-1-3.35 8.7 8.7 0 0 1 .77-5.42 7.2 7.2 0 0 1 2.33-2.58 5.41 5.41 0 0 1 3.8-.89 4 4 0 0 1 2 .9 2.59 2.59 0 0 1 .94 2.08 3 3 0 0 1-1.12 2.09 4.15 4.15 0 0 1-2.25 1 6 6 0 0 1-4.67-1.7 7.58 7.58 0 0 1-2.32-4.74 12.66 12.66 0 0 1 .69-5.5 10.1 10.1 0 0 1 3.23-4.81 5.34 5.34 0 0 1 2.84-1.12 3.71 3.71 0 0 1 3 1.05 2.42 2.42 0 0 1 .68 1.54 2.76 2.76 0 0 1-.46 1.62 4.26 4.26 0 0 1-2.65 1.81 6.23 6.23 0 0 1-5.81-1.94 9.71 9.71 0 0 1-2.26-5.55 13.76 13.76 0 0 1 .57-5.76 8 8 0 0 1 3.4-4.38 5.88 5.88 0 0 1 5.24-.55 2.77 2.77 0 0 1 1.7 2 3.21 3.21 0 0 1-.6 2.48 4.12 4.12 0 0 1-4.44 1.17 7.63 7.63 0 0 1-3.5-2.48 11.21 11.21 0 0 1-2.63-6.76 11 11 0 0 1 1.22-5.36 10.62 10.62 0 0 1 2.07-2.79 7.45 7.45 0 0 1 .69-.59c.16-.13.24-.19.25-.18a12.72 12.72 0 0 0-2.79 3.67 10.63 10.63 0 0 0-1.09 5.23 10.87 10.87 0 0 0 2.61 6.49 7.27 7.27 0 0 0 3.31 2.32 3.64 3.64 0 0 0 3.89-1 2.67 2.67 0 0 0 .49-2.07 2.23 2.23 0 0 0-1.4-1.62 5.28 5.28 0 0 0-4.72.54 7.39 7.39 0 0 0-3.14 4.08 13 13 0 0 0-.52 5.5 9.06 9.06 0 0 0 2.11 5.2 5.62 5.62 0 0 0 5.21 1.71 3.73 3.73 0 0 0 2.27-1.54 1.9 1.9 0 0 0-.15-2.41 3.12 3.12 0 0 0-2.47-.86 4.71 4.71 0 0 0-2.52 1 9.58 9.58 0 0 0-3 4.51 12 12 0 0 0-.68 5.24 7 7 0 0 0 2.12 4.41 5.45 5.45 0 0 0 4.24 1.58 3.15 3.15 0 0 0 3-2.55 2.1 2.1 0 0 0-.78-1.71 3.44 3.44 0 0 0-1.73-.82 5 5 0 0 0-3.5.79 6.89 6.89 0 0 0-2.25 2.42 8.52 8.52 0 0 0-.83 5.22 15.58 15.58 0 0 0 .83 3.33 10.58 10.58 0 0 1 .31 1.14Z" style="fill:#fafafa"/><path d="M286.94 328.02h18.31v51.79h-18.31z" style="fill:#455a64"/><path d="M183.04 333.7h17.12v46.11h-17.12z" style="fill:#263238"/><path d="M182.61 356.7a2.4 2.4 0 0 1-.56.73 7.75 7.75 0 0 1-2 1.53 9.5 9.5 0 0 1-3.58 1.11 9.16 9.16 0 0 1-4.52-.74c-1.49-.65-2.79-1.44-4.07-1.91a6.39 6.39 0 0 0-3.48-.43 4.12 4.12 0 0 0-2.1 1.09c-.4.4-.53.71-.57.69a1.57 1.57 0 0 1 .42-.83 4 4 0 0 1 2.16-1.31 6.52 6.52 0 0 1 3.74.34c1.34.47 2.66 1.26 4.11 1.88a8.87 8.87 0 0 0 4.27.74 9.38 9.38 0 0 0 3.44-1 14.05 14.05 0 0 0 2.74-1.89ZM183 361.26a2.55 2.55 0 0 1-.55.74 8.07 8.07 0 0 1-2 1.52 9.21 9.21 0 0 1-3.57 1.11 9 9 0 0 1-4.52-.74c-1.5-.64-2.8-1.44-4.07-1.9a6.24 6.24 0 0 0-3.49-.43 4 4 0 0 0-2.09 1.08c-.4.41-.53.71-.58.69a1.64 1.64 0 0 1 .43-.82 4 4 0 0 1 2.16-1.31 6.41 6.41 0 0 1 3.73.34c1.34.46 2.67 1.25 4.11 1.87a8.81 8.81 0 0 0 4.28.74 9.5 9.5 0 0 0 3.44-.95 14.41 14.41 0 0 0 2.72-1.94ZM182.71 346.49a104.61 104.61 0 0 1-10.53.26 104.61 104.61 0 0 1-10.53-.26c0-.14 4.72-.26 10.53-.26s10.53.12 10.53.26ZM190.46 341.13s.07-.16.34-.31a1.83 1.83 0 0 1 1.24-.17 2.1 2.1 0 0 1 1.51 1.12 2.1 2.1 0 0 1-2.78 2.67 2.1 2.1 0 0 1-1.06-1.55 1.87 1.87 0 0 1 .22-1.24c.16-.25.31-.33.32-.31a2.6 2.6 0 0 0-.18 1.48A1.79 1.79 0 0 0 191 344a1.65 1.65 0 0 0 2.12-2 1.79 1.79 0 0 0-1.16-1 2.61 2.61 0 0 0-1.5.13ZM191.57 375.2c-.14 0-.26-6.47-.26-14.44s.12-14.43.26-14.43.26 6.46.26 14.43-.11 14.44-.26 14.44Z" style="fill:#fafafa"/><path d="M319.47 56.5h45.32v376.72h-45.32z" style="opacity:.6000000000000001"/><path d="M305.22 250.55c0 .15-35.77.26-79.88.26s-79.89-.11-79.89-.26 35.76-.26 79.89-.26 79.88.12 79.88.26ZM305.22 316c0 .14-35.77.26-79.88.26s-79.89-.12-79.89-.26 35.76-.26 79.89-.26 79.88.11 79.88.26ZM305.22 185.56c0 .14-35.77.26-79.88.26s-79.89-.12-79.89-.26 35.76-.26 79.89-.26 79.88.11 79.88.26ZM305.22 120.66c0 .14-35.77.26-79.88.26s-79.89-.12-79.89-.26 35.76-.26 79.89-.26 79.88.12 79.88.26ZM305.22 380.13c0 .14-35.77.26-79.88.26s-79.89-.12-79.89-.26 35.76-.26 79.89-.26 79.88.13 79.88.26Z" style="fill:#263238"/><path d="m50.44 428 11.55.32.75-21.62-16.89-.66-.14 1.34c-.53 6-2.31 30.32-1.24 34.35 1.2 4.5 5.97-13.73 5.97-13.73Z" style="fill:#fdd535"/><g style="opacity:.5"><path d="M45.75 413.9a7.51 7.51 0 0 0 4.7-2.6 7.29 7.29 0 0 0 1.75-5l-6-.21Z" style="fill:#fff"/></g><g style="opacity:.4"><path d="M47.79 436.9s-2.08 6.38-3.12 5.54-.16-25.53 1.18-36.39l.48.05-1.26 28.79s2.71.75 2.72 2.01Z" style="fill:#fff"/></g><path d="M46.35 405.76s0 .13-.05.38-.06.67-.1 1.06c-.08 1.07-.19 2.38-.31 3.92-.23 3.32-.5 7.9-.68 13s-.25 9.66-.25 13v5a1.88 1.88 0 0 0 0 .38V437.12c0-3.32.15-7.91.33-13s.42-9.65.61-13c.09-1.55.16-2.86.22-3.93 0-.4 0-.75.05-1.07a1.87 1.87 0 0 0 .18-.36Z" style="fill:#263238"/><path d="M44.73 434.87a9.25 9.25 0 0 1 1.86.8 8.35 8.35 0 0 1 1.45 1.4 2.85 2.85 0 0 0-1.31-1.61 3 3 0 0 0-2-.59ZM48.2 428.61c0 .06.32.38.8.71s.92.55 1 .49-.32-.37-.81-.71-.95-.55-.99-.49ZM49.19 426.89c-.06.05.16.4.48.78s.62.66.68.61-.16-.39-.48-.78-.63-.66-.68-.61ZM51.27 425.85c-.08 0-.16.5-.19 1.13a2.53 2.53 0 0 0 .08 1.13 2.44 2.44 0 0 0 .18-1.12 2.71 2.71 0 0 0-.07-1.14ZM52.72 425.53a2.11 2.11 0 0 0-.41 1.24 2.22 2.22 0 0 0 .13 1.31 7.94 7.94 0 0 0 .13-1.28 7.59 7.59 0 0 0 .15-1.27Z" style="fill:#263238"/><path d="M50.06 429.41a4.1 4.1 0 0 0 0 1.39 7.89 7.89 0 0 0 .27 1.49 4.35 4.35 0 0 0 .32.86.76.76 0 0 0 .42.36.55.55 0 0 0 .56-.19 2.54 2.54 0 0 0-.63-3.18 2.49 2.49 0 0 0-.91-.49 1 1 0 0 0-.38 0 4.12 4.12 0 0 1 1.17.68 2.54 2.54 0 0 1 .73 1.21 2.15 2.15 0 0 1-.17 1.65c-.18.22-.43.12-.57-.13a4.19 4.19 0 0 1-.31-.79 10.1 10.1 0 0 1-.32-1.44c-.16-.89-.14-1.42-.18-1.42Z" style="fill:#263238"/><path d="M50 429.77a1.45 1.45 0 0 0 1 .19 2.31 2.31 0 0 0 1-.34 1.41 1.41 0 0 0 .74-1.14.55.55 0 0 0-.62-.45 1.47 1.47 0 0 0-.63.22 4.25 4.25 0 0 0-.87.62 2.13 2.13 0 0 0-.59.78s.26-.27.72-.64a4.63 4.63 0 0 1 .85-.55c.3-.18.83-.29.88.06s-.33.69-.62.89a2.34 2.34 0 0 1-.92.37 6.46 6.46 0 0 1-.94-.01ZM52.26 406.41s0 .63-.11 1.6a7.06 7.06 0 0 1-1.56 3.43 6.94 6.94 0 0 1-3.16 2.07c-.94.3-1.56.31-1.56.36a1.19 1.19 0 0 0 .44 0 6.31 6.31 0 0 0 1.17-.2 6.6 6.6 0 0 0 4.85-5.67 5.94 5.94 0 0 0 0-1.19 1.57 1.57 0 0 0-.07-.4ZM61.18 409a39.74 39.74 0 0 0-4.44-.34 35 35 0 0 0-4.44-.08 39.41 39.41 0 0 0 4.43.34 37.55 37.55 0 0 0 4.45.08ZM47.76 416.69a12.22 12.22 0 0 0-.43 3.15 12 12 0 0 0 .15 3.17c.07 0 0-1.42.12-3.16s.23-3.15.16-3.16Z" style="fill:#263238"/><path d="M47.91 412.46c0-.06-.3.1-.63.23s-.62.21-.61.28.33.12.71 0 .62-.47.53-.51ZM50 410.93c-.05-.05-.28.08-.51.29s-.39.44-.34.49.28-.08.51-.29.34-.42.34-.49ZM51 408.68c-.08 0-.08.3-.21.61s-.3.54-.25.59.35-.11.5-.5-.04-.72-.04-.7ZM51.43 407.06c-.06 0-.18.1-.25.27s-.09.35 0 .37.18-.09.26-.26.06-.35-.01-.38Z" style="fill:#263238"/><path d="m107.62 337.66 5.53 10.15 19.06-10.25-7.94-14.92-1.23.56c-5.41 2.53-27.35 13.27-30.3 16.23-3.28 3.29 14.88-1.77 14.88-1.77Z" style="fill:#fdd535"/><g style="opacity:.5"><path d="M117.44 326.5a7.5 7.5 0 0 0 4.61 2.76 7.29 7.29 0 0 0 5.2-1l-2.86-5.33Z" style="fill:#fff"/></g><g style="opacity:.4"><path d="M98.59 339.85s-6.55 1.42-6.35.1 22-13 32-17.31l.19.44L99 336.49s.68 2.72-.41 3.36Z" style="fill:#fff"/></g><path d="m124.77 322.93-.35.14-1 .45-3.54 1.71c-3 1.47-7.08 3.55-11.55 5.94s-8.44 4.66-11.33 6.33l-3.39 2-.91.56a2.2 2.2 0 0 0-.31.21l.33-.16.94-.52 3.43-1.93c2.89-1.63 6.9-3.86 11.37-6.26s8.55-4.5 11.51-6l3.51-1.79 1-.49Z" style="fill:#263238"/><path d="M98.81 336.19a9.63 9.63 0 0 1 .24 2 9.29 9.29 0 0 1-.47 2 3.52 3.52 0 0 0 .23-4ZM106 336a2.32 2.32 0 0 0-.2 1.05 2.27 2.27 0 0 0 0 1.08 2.31 2.31 0 0 0 .21-1.06c.05-.56-.01-1.07-.01-1.07ZM108 336c-.07 0-.26.33-.43.81s-.26.87-.19.89.26-.33.43-.8.19-.9.19-.9ZM109.89 337.29a2.58 2.58 0 0 0-1.06.41c-.56.29-1 .58-.94.64a2.69 2.69 0 0 0 1.06-.41c.55-.29.97-.57.94-.64ZM110.91 338.38a2.18 2.18 0 0 0-1.29.27c-.67.3-1.11.72-1.06.77a6.48 6.48 0 0 0 1.17-.53 6.28 6.28 0 0 0 1.18-.51Z" style="fill:#263238"/><path d="M106.21 338a4.07 4.07 0 0 0-1.22.66 8.63 8.63 0 0 0-1.15 1 4.24 4.24 0 0 0-.58.71.75.75 0 0 0-.1.54.53.53 0 0 0 .45.39 2.54 2.54 0 0 0 2.42-2.14 2.28 2.28 0 0 0 0-1 .77.77 0 0 0-.14-.34 4 4 0 0 1 0 1.34 2.41 2.41 0 0 1-.68 1.24 2.16 2.16 0 0 1-1.51.69c-.27 0-.32-.31-.17-.56a4.14 4.14 0 0 1 .53-.66 8.84 8.84 0 0 1 1.08-1c.63-.54 1.09-.79 1.07-.87Z" style="fill:#263238"/><path d="M105.86 338.15a1.38 1.38 0 0 0 .32.93 2.21 2.21 0 0 0 .81.71 1.4 1.4 0 0 0 1.36.08.55.55 0 0 0 .07-.77 1.57 1.57 0 0 0-.5-.44 5 5 0 0 0-1-.43 2 2 0 0 0-1-.12c0 .05.37.09.91.3a4.58 4.58 0 0 1 .91.46c.31.17.67.57.4.79a1.24 1.24 0 0 1-1.09-.08 2.14 2.14 0 0 1-.77-.62 4.64 4.64 0 0 1-.42-.81ZM127.18 328.36s-.52.34-1.43.7a6.74 6.74 0 0 1-7.13-1.3c-.73-.66-1.06-1.19-1.1-1.16a2 2 0 0 0 .21.38 5.46 5.46 0 0 0 .76.92 6.59 6.59 0 0 0 7.33 1.33 5 5 0 0 0 1-.59c.26-.16.37-.27.36-.28ZM129.47 337.35a77.72 77.72 0 0 0-4.11-7.89 34.93 34.93 0 0 0 1.94 4 34.48 34.48 0 0 0 2.17 3.89ZM116 329.65a17.89 17.89 0 0 0-5.6 2.94c0 .06 1.24-.68 2.79-1.49s2.87-1.38 2.81-1.45Z" style="fill:#263238"/><path d="M119.78 327.65c0-.07-.25-.21-.53-.43s-.48-.43-.55-.39.07.35.39.6.67.29.69.22ZM122.12 328.65c0-.07-.2-.21-.51-.3s-.57-.11-.59-.05.21.21.51.3.57.11.59.05ZM124.57 328.36c0-.05-.3.09-.63.14s-.62 0-.65.08.28.25.69.18.64-.35.59-.4ZM126.21 328c0-.07-.17-.11-.37-.08s-.33.1-.33.17.18.11.37.09.34-.18.33-.18ZM221.25 400.77s-47.63-14.36-51.84-18.11S132 328.84 132 328.84l-24.11 14.69s35 56.06 37.7 58.87S183 421 183 421Z" style="fill:#263238"/><path d="M280.8 394.83c-1.4-.93-27.53-10.41-43.53-5.61-6.66 2-17.55 10-17.55 10S148 406.37 135.38 405s-79-.07-79-.07l-3 28 223.63.93Z" style="fill:#263238"/><path d="M227.83 393.84a4 4 0 0 1-.58.6 19.24 19.24 0 0 1-1.84 1.52 21.55 21.55 0 0 1-8 3.74c-3.61.44-7.9.94-12.67 1.39-2.38.23-4.92.43-7.52.5s-5.28.28-8 .48l-28.4 2.36c-3.64.28-6.59.47-8.63.57l-2.34.1a4.65 4.65 0 0 1-.82 0 2.77 2.77 0 0 1 .81-.12l2.34-.23 8.6-.78c7.26-.65 17.28-1.7 28.39-2.55 2.75-.21 5.45-.37 8.06-.47s5.09-.25 7.48-.46c4.77-.42 9.07-.87 12.68-1.25a22.12 22.12 0 0 0 7.89-3.48c.86-.58 1.49-1.07 1.91-1.41a4.11 4.11 0 0 1 .64-.51ZM147.48 416.64c-.19 0 0-2.56.32-5.67s.8-5.61 1-5.59 0 2.56-.33 5.67-.81 5.61-.99 5.59Z" style="fill:#455a64"/><path d="M153.84 418.34c-.15.08-1.64-2.72-2.8-6.44s-1.54-6.9-1.36-6.9.85 3 2 6.68 2.32 6.58 2.16 6.66ZM161 389.79c-.14-.12 1.38-2.09 3.7-4.07s4.49-3.18 4.59-3-1.88 1.58-4.16 3.54-4.01 3.65-4.13 3.53Z" style="fill:#455a64"/><path d="M165.87 392.05c-.18-.06.45-2.22 1.39-4.83s1.86-4.66 2-4.6-.45 2.22-1.4 4.83-1.86 4.67-1.99 4.6Z" style="fill:#455a64"/><path d="M217.43 399.7h-.24l-.68-.18-2.61-.74c-2.26-.65-5.53-1.62-9.55-2.87-8-2.54-19.12-6.14-31-11.17-1.45-.61-2.86-1.25-4.2-1.85h-.06v-.06c-6.78-9.63-12.8-18.2-17.16-24.41l-5.08-7.3-1.35-2a6.69 6.69 0 0 1-.44-.71 5.58 5.58 0 0 1 .52.65L147 351l5.2 7.21 17.3 24.31-.1-.09c1.33.6 2.74 1.23 4.18 1.84 11.82 5 22.88 8.67 30.88 11.29l9.5 3 2.58.83.67.22ZM149.68 405a6.36 6.36 0 0 1-1.17-.61l-3-1.85c-1.46-2.15-3.42-5.07-5.54-8.29-2.25-3.42-4.27-6.53-5.7-8.8l-1.69-2.7a5.4 5.4 0 0 1-.55-1 4.82 4.82 0 0 1 .72.92c.5.7 1.1 1.57 1.82 2.61 1.52 2.21 3.58 5.29 5.84 8.72 2.12 3.21 4 6.16 5.43 8.36l-.06-.06 3 2a6.23 6.23 0 0 1 .9.7Z" style="fill:#455a64"/><path d="M446.1 403.54c-1.53-2.23-11 3.67-11.86 4.11s-1.51-.77-.73-1.13c1.12-.51 12.77-6.17 11.28-8.37-.82-1.23-2.85.45-2.85.45s-10.51 6.1-11.17 5 5.36-4.88 7.49-6 2.42-2.59 1.15-3.12c-.87-.36-7.47 3-9.55 4.13s-7.73 4.49-6.29.57 1.08-7.5.31-8.4a1.29 1.29 0 0 0-2.18 1.13 15.24 15.24 0 0 1-.68 4.16 10.08 10.08 0 0 1-1.41 3.07c-.58.84-1.12 1.57-1.61 2.2l-47.69 11-7.17-32.46-21.69.16L354 423.83A14.89 14.89 0 0 0 372.71 434L419 419.61c2.53-.84 17.21-5.72 20.11-6.92 5.72-2.37 5.51-2.89 5.12-3.52-1.06-1.68-10.23 3.79-8.94 1.46s11.99-5.38 10.81-7.09Z" style="fill:#eb996e"/><path d="m362.54 368.09 6.54 26.33-33.41 10.47s-3.33-37.39 2.21-43.85c5.21-6.08 12-7.9 18.42-2.88a18.06 18.06 0 0 1 6.24 9.93Z" style="fill:#455a64"/><g style="opacity:.30000000000000004"><path d="m362.54 368.09 6.54 26.33-33.41 10.47s-3.33-37.39 2.21-43.85c5.21-6.08 12-7.9 18.42-2.88a18.06 18.06 0 0 1 6.24 9.93Z" style="fill:#455a64"/></g><path d="m344.88 321.14-4.45 43.8 21.91 2.37c.61-2.49 2.28-12.28 2.28-12.28s9.25.31 11.06-8.65c.88-4.35 2-13.48 2.85-21.72a16.91 16.91 0 0 0-14.64-18.58 16.93 16.93 0 0 0-19.01 15.06Z" style="fill:#ffbe9d"/><path d="M364.66 354.91a21.28 21.28 0 0 1-11.07-5.55s1.54 7 10.65 7.88Z" style="fill:#eb996e"/><path d="M375.2 330.21a1.32 1.32 0 0 1-1.48 1.06 1.26 1.26 0 0 1-1.11-1.41 1.31 1.31 0 0 1 1.48-1.06 1.26 1.26 0 0 1 1.11 1.41ZM375.75 328.82c-.19.14-1-.77-2.41-1s-2.52.25-2.64 0 .16-.36.67-.6a3.52 3.52 0 0 1 2.15-.24 3.43 3.43 0 0 1 1.87 1c.37.45.45.78.36.84ZM361.62 328a1.3 1.3 0 0 1-1.48 1.06 1.25 1.25 0 0 1-1.1-1.41 1.31 1.31 0 0 1 1.48-1.06 1.25 1.25 0 0 1 1.1 1.41ZM362.14 326.5c-.19.14-1-.76-2.41-1s-2.52.24-2.64 0 .16-.36.66-.59a3.57 3.57 0 0 1 2.16-.24 3.4 3.4 0 0 1 1.87 1c.36.45.45.77.36.83ZM365.21 337.69a9 9 0 0 1 2.31 0c.36 0 .71 0 .82-.21a1.87 1.87 0 0 0 0-1.09l-.54-2.88a48 48 0 0 1-1-7.46c.17 0 .89 3.27 1.61 7.36l.49 2.89a2.07 2.07 0 0 1-.08 1.42.88.88 0 0 1-.68.4 2 2 0 0 1-.61 0 9.37 9.37 0 0 1-2.32-.43ZM361 337.87c.22 0-.06 1.53 1 2.84s2.71 1.44 2.68 1.65-.41.22-1.09.11a3.77 3.77 0 0 1-2.25-1.29 3.28 3.28 0 0 1-.76-2.36c.05-.64.28-.98.42-.95ZM363.52 321.17c-.21.34-1.55-.09-3.21-.21s-3.05.09-3.2-.29c-.06-.18.23-.49.83-.75a5.57 5.57 0 0 1 4.88.37c.55.36.79.71.7.88ZM376 324.73c-.3.27-1.19-.24-2.33-.47s-2.15-.19-2.31-.56c-.07-.18.14-.46.62-.68a3.45 3.45 0 0 1 3.74.83c.34.4.42.75.28.88ZM356.5 313.15h-.06a7.22 7.22 0 0 0-3.49 4.07 1.89 1.89 0 0 1-.06.18c-.84 2.5-1.27 5.11-2.13 7.6a11.83 11.83 0 0 1-4.46 6.32c-.92.58-2.39.82-2.87-.15a2.26 2.26 0 0 1-.09-1.24c.69-6.27 0-12.08 1.28-18.54a5.56 5.56 0 0 1 3.1-4c1.54-.71 3.38-1.41 4.75-.41s2.79 4.19 3.73 5.6" style="fill:#263238"/><path d="M347.14 325.78c-.14-.1-5.82-3-6.79 3.18s5.43 5.87 5.47 5.7 1.32-8.88 1.32-8.88Z" style="fill:#ffbe9d"/><path d="M344.3 332s-.12.06-.31.12a1.12 1.12 0 0 1-.81-.11 2.7 2.7 0 0 1-.86-2.58 3.67 3.67 0 0 1 .54-1.5 1.29 1.29 0 0 1 .94-.7.56.56 0 0 1 .59.4c.06.18 0 .3 0 .32s.15-.09.14-.35a.73.73 0 0 0-.18-.42.8.8 0 0 0-.57-.25 1.5 1.5 0 0 0-1.28.78 3.7 3.7 0 0 0-.64 1.66 2.81 2.81 0 0 0 1.14 2.93 1.16 1.16 0 0 0 1 0c.27-.13.32-.3.3-.3Z" style="fill:#eb996e"/><path d="M352.09 307.9c-1-2.74 3.76-5.48 7-5.86s6.92 1.85 9.75 3.42c1.78 1 3.51 2.23 5.53 2.53a14 14 0 0 0 4.08-.25 10.15 10.15 0 0 1 4.07 0 3.79 3.79 0 0 1 2.84 2.67 2.36 2.36 0 0 1-2.14 2.84 3.06 3.06 0 1 1-.26 5.73c1-.49 2.13.85 1.82 1.92a3.26 3.26 0 0 1-2.54 1.93c-2.78.64-5.69-.29-8.17-1.68s-4.68-3.25-7.12-4.7-6.52-4-9.33-3.58c-2.08.31-3.87 2.4-4.87 1.67a3.85 3.85 0 0 1-1.42-3.13 11.07 11.07 0 0 1 .79-3.47" style="fill:#263238"/><path d="M384 313.18s-.4.39-1.2 1a8.51 8.51 0 0 1-3.82 1.55 7.89 7.89 0 0 1-5.81-1.35c-1.91-1.33-3.35-3.54-5.07-5.69a12.9 12.9 0 0 0-6.27-4.62 7.16 7.16 0 0 0-6.25.92 5.45 5.45 0 0 0-2.15 3.7 4.51 4.51 0 0 0 .05 1.18c.07.26.11.4.13.39a9.9 9.9 0 0 1 .06-1.54 5.4 5.4 0 0 1 2.16-3.38 6.83 6.83 0 0 1 5.84-.73 12.65 12.65 0 0 1 5.95 4.47c1.69 2.11 3.17 4.38 5.22 5.77a8.49 8.49 0 0 0 10.11-.48 5.59 5.59 0 0 0 .82-.83c.13-.23.23-.35.23-.36ZM345.63 325.22s.3-.12.62-.57a4.22 4.22 0 0 0 .73-2.16c.24-2-1.11-4.46-.81-7.24a6.27 6.27 0 0 1 1.37-3.53 4.73 4.73 0 0 1 2.65-1.54 4.11 4.11 0 0 1 2.11.11c.47.17.72.34.75.29s-.18-.26-.66-.51a3.85 3.85 0 0 0-2.27-.32 5 5 0 0 0-3 1.59 6.64 6.64 0 0 0-1.56 3.86 11.41 11.41 0 0 0 .45 4.09 11.67 11.67 0 0 1 .54 3.17 4.93 4.93 0 0 1-.92 2.76ZM345.37 417.42c-17.85 22.93-85.09 17.19-85.09 17.19s.74-40.81 2.62-45.95c.83-2.28 16 1.54 26.27-.79 4.37-1 23.4-17.57 34-27.21a20.65 20.65 0 0 1 23.07-3.27 110.41 110.41 0 0 1 12.48 7.35 8.56 8.56 0 0 1 3.77 7.32 72.65 72.65 0 0 1-13.73 40.7Z" style="fill:#455a64"/><path d="M269.2 434.29a1.43 1.43 0 0 1-.06-.46c0-.37-.05-.82-.08-1.35-.05-1.17-.09-2.85-.12-4.94-.07-4.18 0-10 .21-16.32s.66-12.14 1-16.3c.19-2.08.37-3.76.51-4.92.07-.53.13-1 .17-1.33s.08-.47.1-.46a1.53 1.53 0 0 1 0 .47c0 .37-.05.81-.08 1.34-.09 1.25-.2 2.91-.34 4.93-.29 4.17-.64 9.92-.89 16.29s-.33 12.12-.37 16.3v6.28a2.15 2.15 0 0 1-.05.47ZM281.22 434.73a1.71 1.71 0 0 1-.11-.46q-.09-.54-.21-1.32c-.18-1.15-.4-2.82-.64-4.89-.48-4.13-1-9.86-1.28-16.21s-.27-12.11-.16-16.27c.06-2.08.13-3.76.21-4.92l.09-1.34c0-.31.05-.47.07-.46a1.52 1.52 0 0 1 0 .46v6.27c0 4.15 0 9.9.31 16.24s.74 12.05 1.13 16.19c.19 2 .35 3.66.47 4.91 0 .52.08 1 .12 1.33a1.4 1.4 0 0 1 0 .47ZM294.25 434.89a1.64 1.64 0 0 1-.18-.45l-.43-1.31c-.36-1.14-.84-2.81-1.4-4.88-1.12-4.14-2.49-9.91-3.55-16.37a151.62 151.62 0 0 1-1.8-16.65c-.1-2.14-.15-3.88-.15-5.07v-1.38a1.72 1.72 0 0 1 0-.49 1.58 1.58 0 0 1 .06.48l.09 1.38c.06 1.19.17 2.92.32 5.06.3 4.26.89 10.15 1.94 16.59s2.37 12.21 3.39 16.36c.51 2 .93 3.67 1.25 4.91l.33 1.34a1.55 1.55 0 0 1 .13.48ZM311.33 433c-.13.06-4.49-10.21-9.74-22.93s-9.4-23.07-9.27-23.07 4.5 10.21 9.75 22.94 9.4 23.06 9.26 23.06ZM327.13 429.32c-.13.07-6.41-10.55-14-23.71s-13.72-23.89-13.59-24 6.41 10.54 14 23.7 13.71 23.93 13.59 24.01ZM338.23 422.85a2.68 2.68 0 0 1-.37-.44l-1-1.34c-.85-1.16-2.06-2.86-3.54-5-2.95-4.23-6.95-10.12-11.24-16.73s-8-12.67-10.69-17.09c-1.32-2.21-2.38-4-3.1-5.26l-.82-1.45a2.62 2.62 0 0 1-.25-.52 2.17 2.17 0 0 1 .34.47c.24.37.54.83.9 1.4l3.25 5.17c2.73 4.37 6.53 10.4 10.81 17s8.23 12.52 11.11 16.8c1.4 2.1 2.55 3.82 3.4 5.08.36.56.67 1 .9 1.39a1.94 1.94 0 0 1 .3.52ZM323.38 379.43c-.13.08-1.75-2.69-4-5.94s-4.21-5.77-4.1-5.87a7.81 7.81 0 0 1 1.46 1.52c.84 1 1.95 2.42 3.07 4.05s2 3.19 2.66 4.33a8 8 0 0 1 .91 1.91ZM324.84 366c-.13.07-.81-.86-1.53-2.09a6.53 6.53 0 0 1-1.08-2.36 12.81 12.81 0 0 1 2.61 4.45Z" style="fill:#f5f5f5"/><path d="M289.22 405.89a9 9 0 0 1-.6-2.62 47 47 0 0 1-.54-6.45 47.71 47.71 0 0 1 .3-6.47 9.22 9.22 0 0 1 .51-2.63c.2 0-.25 4.08-.14 9.09s.67 9.05.47 9.08Z" style="fill:#263238"/><path d="M294.46 403.27c-.12.1-2.36-2.77-3.87-6.94s-1.7-7.8-1.54-7.8.65 3.5 2.16 7.57 3.43 7.06 3.25 7.17Z" style="fill:#263238"/><path d="M288.19 388.07a47.71 47.71 0 0 0-.74 19 4.06 4.06 0 0 0 1.32 2.77c1.32.91 3.27-.06 4-1.51a8.46 8.46 0 0 0 .25-4.74c1.28 1.7 3.06 3.6 5.13 3.13a3.71 3.71 0 0 0 2.59-3.19 9.27 9.27 0 0 0-.69-4.27 38.91 38.91 0 0 0-7.67-13c-2.71 1.58-2.58 1.37-4 1.76M325.46 364.06c-4.81 15.3-6.13 31.55-4.55 42.85a5.78 5.78 0 0 0 1.39 3.55c1.4 1.31 3.63 1 5.46.41s3.84-1.29 5.59-.5c.42 4.66 2.22 9.59 4.06 13.88l2.15-1.4c.84.68 1.11 4.71 2 4.08l6.53-3.79-15.76-62.48Z" style="opacity:.30000000000000004"/><path d="m351.6 368.09 6.54 26.33-33.4 10.47s-3.34-37.39 2.2-43.85c5.21-6.08 12-7.9 18.42-2.88a18.06 18.06 0 0 1 6.24 9.93Z" style="fill:#455a64"/><path d="M333.39 357.24a3 3 0 0 1 .82-.24 19.23 19.23 0 0 1 2.41-.38 14.79 14.79 0 0 1 8.77 1.68 10.62 10.62 0 0 1 4.3 4.53 23.8 23.8 0 0 1 1.9 6.89c.78 4.95 1.63 10.37 2.53 16.07.5 3.23 1 6.38 1.45 9.36l.05.28-.27.08-22.11 6.71-6.49 1.9-1.75.48a2.19 2.19 0 0 1-.62.13 2.92 2.92 0 0 1 .59-.24l1.71-.59 6.43-2.08 22-6.93-.22.36c-.47-3-1-6.13-1.47-9.36-.88-5.7-1.72-11.12-2.48-16.07a23.38 23.38 0 0 0-1.79-6.75 10.15 10.15 0 0 0-4-4.36 14.85 14.85 0 0 0-8.51-1.83c-1.05.06-1.86.18-2.41.26a7.42 7.42 0 0 1-.84.1Z" style="fill:#263238"/><path d="M351.05 368.16c0 .15-6.09.82-13.64 1.51s-13.68 1.14-13.69 1 6.09-.82 13.64-1.52 13.64-1.15 13.69-.99ZM348.27 361.58c0 .15-5 .55-11.18.91s-11.2.53-11.21.39 5-.55 11.18-.91 11.2-.53 11.21-.39ZM351.53 378c0 .14-6.25 1-14 1.87s-14 1.5-14.05 1.36 6.24-1 14-1.87 14.03-1.52 14.05-1.36ZM352.34 387.17a4.45 4.45 0 0 1-1.07.32c-.7.17-1.71.39-3 .64-2.51.51-6 1.14-9.85 1.71s-7.39 1-9.94 1.2c-1.27.11-2.31.19-3 .23a4.07 4.07 0 0 1-1.12 0 5.55 5.55 0 0 1 1.1-.2l3-.4c2.54-.33 6-.78 9.9-1.35s7.34-1.13 9.87-1.55l3-.48a5 5 0 0 1 1.11-.12Z" style="fill:#f5f5f5"/><path d="m335.61 355.46 3.08-8.1a2.31 2.31 0 0 1 3.31-1.19c6.44 3.66 23.87 13.86 23.75 16.91-.15 3.74 1.28 26.7-4.05 25.45s-10.52-24.91-14.48-28.92-11.61-4.15-11.61-4.15Z" style="fill:#fdd535"/><g style="opacity:.5"><path d="m335.61 355.46 3.08-8.1a2.31 2.31 0 0 1 3.31-1.19c6.44 3.66 23.87 13.86 23.75 16.91-.15 3.74 1.28 26.7-4.05 25.45s-10.52-24.91-14.48-28.92-11.61-4.15-11.61-4.15Z" style="fill:#fff"/></g><path d="M365.64 380.94v.47a2.23 2.23 0 0 1-.77 1.12 2.69 2.69 0 0 1-2.07.57 4.32 4.32 0 0 1-2.5-1.36 10.82 10.82 0 0 1-1.79-2.92c-.53-1.11-1.05-2.3-1.58-3.56-1-2.54-2.15-5.33-3.33-8.25a24.84 24.84 0 0 0-4.34-7.6 15.5 15.5 0 0 0-6.05-3.71 38.28 38.28 0 0 1-4.51-1.93 10.73 10.73 0 0 1-1.15-.7 1.75 1.75 0 0 1-.36-.29s.56.32 1.6.81 2.6 1.07 4.55 1.77a15.42 15.42 0 0 1 6.27 3.72 24.57 24.57 0 0 1 4.47 7.73c1.22 2.92 2.26 5.74 3.29 8.27.52 1.26 1 2.45 1.53 3.55a10.89 10.89 0 0 0 1.67 2.86 4 4 0 0 0 2.27 1.32 2.53 2.53 0 0 0 1.91-.44 2.39 2.39 0 0 0 .89-1.43Z" style="fill:#fdd535"/><path d="M365.73 375.06a1.25 1.25 0 0 1-.4 0 4.65 4.65 0 0 1-1.16-.17 7.5 7.5 0 0 1-3.56-2.37 12.17 12.17 0 0 1-1.67-2.46 24.46 24.46 0 0 1-1.29-3.14c-.79-2.24-1.46-4.79-3-7a18.16 18.16 0 0 0-5.64-5 32.71 32.71 0 0 0-5.69-2.58c-1.69-.59-3.08-1-4-1.31a8.32 8.32 0 0 1-1.48-.52 9.3 9.3 0 0 1 1.53.32c1 .25 2.39.61 4.1 1.17a30.56 30.56 0 0 1 5.82 2.51 18.23 18.23 0 0 1 5.82 5.15c1.62 2.3 2.29 4.91 3 7.13a25.86 25.86 0 0 0 1.22 3.11 11.8 11.8 0 0 0 1.57 2.41 7.52 7.52 0 0 0 3.34 2.41c.93.28 1.5.28 1.49.34Z" style="fill:#fdd535"/><path d="M365.75 368a6.91 6.91 0 0 1-.77-1.11c-.48-.72-1.18-1.76-2.12-3a40.54 40.54 0 0 0-8.68-8.3 79.23 79.23 0 0 0-10.45-6l-3.29-1.64a7.11 7.11 0 0 1-1.18-.66 7.1 7.1 0 0 1 1.27.47c.8.34 2 .84 3.36 1.49a66.35 66.35 0 0 1 10.59 6 37.28 37.28 0 0 1 8.67 8.5 35.09 35.09 0 0 1 2 3.1 6.19 6.19 0 0 1 .6 1.15ZM401.59 423.21l-22.41-21.15-.55-2.01 45.41-15.15 1.95-.5 21.67 24.18-46.07 14.63z" style="fill:#fdd535"/><path d="m447.66 408.58 2.71-24.18-1.36-1.43-19.89 7.03 18.54 18.58z" style="fill:#fdd535"/><path d="M425.31 386.32c0 .06-10.29 3.6-23 7.92S379.23 402 379.22 402s10.28-3.59 23-7.91 23.07-7.82 23.09-7.77ZM446 404.9c-.06 0 .47-4.85 1.17-10.81s1.32-10.8 1.38-10.8-.47 4.85-1.17 10.82-1.28 10.8-1.38 10.79Z" style="fill:#263238"/><path d="m445.55 406.02 1.85-24.15-18.28 6.03 16.43 18.12z" style="fill:#f5f5f5"/><path d="m447.66 408.58-1.61.54-20.79-22.72v-.06c.11-.3.22-.63.34-1s.23-.67.34-1l.06-.17.11.13 15.35 17.2 4.6 5.17 1.23 1.39.42.49-6.39-7.05-15.36-17.06h.18l-.35 1c-.11.32-.23.65-.33.95v-.11l20.67 22.82Z" style="fill:#263238"/><path d="M445.55 406c0-.3-.21-24.74-.21-24.74l-17.23 5.49Z" style="fill:#ebebeb"/><path d="M421.64 395.77c0 .37 11.87 12.89 11.87 12.89l-25.82 9-12.39-13.3Z" style="opacity:.2"/><path d="M440.46 400.43a4.24 4.24 0 0 1-.08-.57l-.16-1.56c-.13-1.53-.27-3.26-.43-5.16s-.26-3.63-.37-5.16c0-.56-.06-1.07-.09-1.57a4.14 4.14 0 0 1 0-.57 3.91 3.91 0 0 1 .08.57c0 .49.1 1 .16 1.56.13 1.53.27 3.25.43 5.15s.26 3.63.37 5.16c0 .56.06 1.07.09 1.57a2.94 2.94 0 0 1 0 .58ZM438.26 398.09a1.75 1.75 0 0 1-.08-.45c0-.41-.08-.82-.13-1.23-.11-1.29-.22-2.62-.34-4.07s-.2-2.79-.29-4.08l-.06-1.23a2.8 2.8 0 0 1 0-.46 1.75 1.75 0 0 1 .08.45c0 .41.08.82.13 1.24.11 1.28.22 2.61.34 4.06s.2 2.79.29 4.07l.06 1.24a2.74 2.74 0 0 1 0 .46ZM436 395.6a9.13 9.13 0 0 1-.2-1.2c-.09-.74-.23-1.76-.33-2.9s-.1-2.17-.12-2.91a6.16 6.16 0 0 1 0-1.21 7.7 7.7 0 0 1 .13 1.2c.06 1 .12 1.94.18 2.91s.17 1.87.27 2.9a6.51 6.51 0 0 1 .07 1.21ZM442.66 402.88c-.05 0-.32-3.94-.6-8.8s-.45-8.81-.4-8.82.33 3.94.61 8.81.45 8.81.39 8.81ZM433.53 392.9a14.57 14.57 0 0 1-.33-2.4 15.63 15.63 0 0 1-.12-2.42 27.83 27.83 0 0 1 .45 4.82ZM431.75 391.28a3.24 3.24 0 0 1-.41-1.34 3.06 3.06 0 0 1 0-1.4 9.36 9.36 0 0 1 .2 1.37 8 8 0 0 1 .21 1.37Z" style="fill:#263238"/><path d="M433.22 407.16c-1.53-2.23-11 3.67-11.87 4.11s-1.51-.78-.73-1.13c1.13-.51 12.77-6.17 11.29-8.38-.83-1.22-2.86.45-2.86.45s-10.5 6.11-11.17 5.05 5.37-4.88 7.5-6 2.42-2.59 1.14-3.12c-.87-.36-7.47 3-9.55 4.13s-7.72 4.48-6.28.56 1.08-7.49.31-8.4a1.3 1.3 0 0 0-2.19 1.13 15.3 15.3 0 0 1-.68 4.17 9.63 9.63 0 0 1-1.41 3.07c-.57.84-1.11 1.56-1.6 2.19l-47.68 11-4.37-19.74-18.96 5.75 7 25.5a14.88 14.88 0 0 0 18.71 10.11l46.29-14.33c2.53-.84 17.21-5.72 20.1-6.92 5.72-2.37 5.52-2.89 5.12-3.52-1.06-1.68-10.22 3.78-8.94 1.45s12.01-5.42 10.83-7.13Z" style="fill:#ffbe9d"/><path d="M366.49 466.74a9.47 9.47 0 0 0-4.11 1.11 3.27 3.27 0 0 0-1.55 3.67c.63 1.66 2.78 2.07 4.56 2.07a47 47 0 0 0 11.54-1.67c1.7-.44 3.51-1 4.57-2.42a1.73 1.73 0 0 0 .29-1.89c-.48-.74-1.57-.6-2.43-.42a26.53 26.53 0 0 1-13.21-.59" style="fill:#ebebeb"/><path d="M364.32 422.55s-3.46 18.85 8 21.28l.37 19.79s-6.19 2.45-5.93 3.49 14.45 1.36 14.07-.2-6-3.19-6-3.19l.08-20.16s7.31-.54 7.64-9.51-.05-11.39-.05-11.39-9.09-5.46-18.18-.11Z" style="fill:#fff"/><path d="M364.32 422.55a3 3 0 0 1 .29-.16l.86-.47c.19-.09.4-.22.65-.32l.81-.32c.29-.11.6-.26.95-.36l1.12-.3a17.61 17.61 0 0 1 6-.37 17.35 17.35 0 0 1 1.8.26c.6.14 1.24.26 1.87.47a18.78 18.78 0 0 1 3.9 1.6 50.38 50.38 0 0 1 .2 5.44c0 1.91 0 3.9-.12 6a11.32 11.32 0 0 1-1.88 6.16 8.65 8.65 0 0 1-5.87 3.47l.12-.12c0 6.22 0 13-.07 20.16l-.1-.13a24.84 24.84 0 0 1 4.42 1.74 5.9 5.9 0 0 1 1.31.93 2 2 0 0 1 .25.33.93.93 0 0 1 .1.2.45.45 0 0 1 0 .27.64.64 0 0 1-.32.36 2.39 2.39 0 0 1-.38.16 13.73 13.73 0 0 1-3.09.45 53.44 53.44 0 0 1-6.07 0c-1-.06-2-.14-3-.29l-.73-.15-.36-.11a1 1 0 0 1-.37-.23.47.47 0 0 1 0-.49 2 2 0 0 1 .26-.31 5.09 5.09 0 0 1 .58-.46 20 20 0 0 1 2.53-1.37c.86-.4 1.71-.77 2.58-1.12l-.09.12c-.12-7.3-.24-14-.34-19.79l.08.1a9.31 9.31 0 0 1-4.79-2.64 11.27 11.27 0 0 1-.84-1c-.22-.36-.48-.69-.67-1.06l-.3-.53c-.08-.19-.17-.37-.25-.55-.18-.36-.3-.74-.45-1.09a20 20 0 0 1-1-4.18 30.33 30.33 0 0 1-.26-3.61 38 38 0 0 1 .27-5c.07-.57.14-1 .19-1.29a4 4 0 0 1 .08-.44s0 .15-.05.44-.1.73-.16 1.3a40 40 0 0 0-.21 5 30.31 30.31 0 0 0 .28 3.59 19.65 19.65 0 0 0 1 4.14c.14.35.26.72.44 1.08.09.17.17.35.26.54l.29.52c.19.37.45.69.67 1a9.46 9.46 0 0 0 .83 1 9 9 0 0 0 4.7 2.56h.08v.08c.11 5.81.25 12.49.39 19.8v.08h-.08c-.85.34-1.71.71-2.56 1.11a20 20 0 0 0-2.49 1.36 3.37 3.37 0 0 0-.55.43 1.21 1.21 0 0 0-.21.25.24.24 0 0 0 0 .2 1.48 1.48 0 0 0 .59.24 5.57 5.57 0 0 0 .71.14 28 28 0 0 0 2.93.29 52.72 52.72 0 0 0 6 0 14.48 14.48 0 0 0 3-.44c.22-.07.5-.2.52-.33a.44.44 0 0 0-.09-.27 1.18 1.18 0 0 0-.22-.28 5.25 5.25 0 0 0-1.24-.88 25.21 25.21 0 0 0-4.37-1.72h-.09v-.1c0-7.12.06-13.94.09-20.16v-.11h.11a8.36 8.36 0 0 0 5.69-3.36 11 11 0 0 0 1.85-6c.08-2.08.14-4.07.15-6a49.24 49.24 0 0 0-.19-5.4l.05.06a18.73 18.73 0 0 0-3.85-1.6c-.63-.21-1.26-.34-1.87-.48s-1.2-.23-1.78-.27a18 18 0 0 0-5.91.33l-1.12.29c-.35.09-.66.24-1 .34l-.82.31c-.24.09-.45.22-.64.31l-.87.43Z" style="fill:#263238"/><path d="M382.54 422.46s-.24.12-.68.31c-.22.09-.49.2-.81.31s-.68.25-1.1.36a24.07 24.07 0 0 1-2.93.66 24.19 24.19 0 0 1-7.34 0 24.55 24.55 0 0 1-2.94-.64c-.41-.11-.77-.24-1.1-.35s-.59-.21-.81-.31a4 4 0 0 1-.68-.31 5.26 5.26 0 0 1 .72.21c.22.08.5.17.82.26s.69.22 1.1.31a25.72 25.72 0 0 0 2.93.58 25.47 25.47 0 0 0 7.26 0 25.19 25.19 0 0 0 2.92-.6c.41-.1.78-.22 1.1-.31l.83-.27a3.71 3.71 0 0 1 .71-.21Z" style="fill:#263238"/><path d="M365 430.66a22.6 22.6 0 0 0 1.91 6.78 7.93 7.93 0 0 0 5.3 4.32 7.18 7.18 0 0 0 7-3.33 12.58 12.58 0 0 0 2.07-8.2.6.6 0 0 0-.48-.57 3.69 3.69 0 0 0-1.73-.23 7.33 7.33 0 0 0-1.35.66c-2 1-4.38.62-6.57.19s-3.88-1.12-6.17.38" style="fill:#fdd535"/><g style="opacity:.2"><path d="M380.57 425.82a20 20 0 0 1-.31 7.86 10.79 10.79 0 0 1-2.78 6c-1.61 1.56-4.23 2.23-6.15 1.08a2.75 2.75 0 0 1-1.29-1.54 1.69 1.69 0 0 1 .58-1.84c.75-.51 1.76-.17 2.67-.17a4.42 4.42 0 0 0 3.79-2.76 8.7 8.7 0 0 0 .4-4.88 10.5 10.5 0 0 1-.24-2.55 2.54 2.54 0 0 1 1.29-2.09 1.47 1.47 0 0 1 2 .9" style="fill:#fff"/></g></svg>