<svg xmlns="http://www.w3.org/2000/svg" viewBox="0 0 500 500"><g id="freepik--background-complete--inject-201"><path d="M292.38,140.57H369s-3.81-5-8-5.58c0,0-8.17-24.33-21.85-24.5-12.72-.16-17.82,15-17.82,15s-5.89-6.78-11.52-3.68-8.82,12-8.82,12S294.68,137.16,292.38,140.57Z" style="fill:#ebebeb"></path><path d="M113.32,119.33h52.06s-2.59-3.37-5.45-3.79c0,0-5.55-16.52-14.84-16.64-8.64-.11-12.1,10.16-12.1,10.16s-4-4.61-7.82-2.5-6,8.14-6,8.14S114.88,117,113.32,119.33Z" style="fill:#ebebeb"></path><path d="M141.9,161H45s0-6.19,13.35-7.4c0,0,12.19-27.07,30.81-23.44,11.59,2.27,17.51,18.18,17.51,18.18s8.76-12.52,15.77-10.1S133.58,154,133.58,154,140.8,157.45,141.9,161Z" style="fill:#ebebeb"></path><path d="M437.88,67.68H372s6.22-5.79,9-5.79,10.83-19.43,21.14-18.6,15.78,15.3,15.78,15.3S430.4,54.66,437.88,67.68Z" style="fill:#ebebeb"></path><path d="M455,172.09H420.72s3.24-3,4.68-3,5.64-10.11,11-9.68,8.22,8,8.22,8S451.14,165.31,455,172.09Z" style="fill:#ebebeb"></path><path d="M292.38,202.57H236s2.8-3.65,5.89-4.1c0,0,6-17.89,16.07-18,9.35-.12,13.1,11,13.1,11s4.33-5,8.47-2.71,6.49,8.81,6.49,8.81S290.69,200.06,292.38,202.57Z" style="fill:#ebebeb"></path><path d="M40,261.51s79.79-35.83,138.07-35.83c57,0,134.43,18.1,155.46,22.16,55.23,10.65,126.33,13.67,126.33,13.67Z" style="fill:#dbdbdb"></path><path d="M459.88,261.51s-43.5-24-92.63-24c-34.3,0-83.53,9.67-129.89,15.11-17.66,2.07-109.55,8.91-109.55,8.91Z" style="fill:#c7c7c7"></path><path d="M328.7,239.08s6.06,13.49-3.86,13.49-3.49-13.95-3.49-13.95-2.3-1,.37-8.54,3.85-7.53,4.95-7.53c1.4,0,2.7,3.26,1.75,8.26C328.42,230.81,331.91,237.06,328.7,239.08Z" style="fill:#dbdbdb"></path><polygon points="323.96 261.52 324.92 241.19 325.87 261.52 323.96 261.52" style="fill:#a6a6a6"></polygon><polygon points="324.53 249.72 328.13 245.51 325.3 250.27 324.53 249.72" style="fill:#a6a6a6"></polygon><path d="M51.2,237.25s6.55,14.6-4.17,14.6-3.78-15.1-3.78-15.1-2.48-1.09.4-9.23,4.17-8.14,5.36-8.14c1.51,0,2.92,3.52,1.89,8.94C50.9,228.32,54.67,235.07,51.2,237.25Z" style="fill:#c7c7c7"></path><polygon points="46.08 261.52 47.11 239.54 48.14 261.52 46.08 261.52" style="fill:#a6a6a6"></polygon><polygon points="46.69 248.76 50.59 244.21 47.53 249.36 46.69 248.76" style="fill:#a6a6a6"></polygon><path d="M192.66,238.45s3.1-1.23,5.57,3.06-.64,7.3-3.16,5.57c0,0-2,4.14-5.91,3.16a5.92,5.92,0,0,1-4.59-4.15s-3.5.25-3.6-2.36,2.46-4.94,2.46-4.94.15-6.51,4.39-6.46S192.66,238.45,192.66,238.45Z" style="fill:#ebebeb"></path><polygon points="189.77 261.52 188.88 242.15 188 261.52 189.77 261.52" style="fill:#a6a6a6"></polygon><polygon points="189.26 249.19 191.87 243.99 188.5 248.74 189.26 249.19" style="fill:#a6a6a6"></polygon><path d="M448.18,239.08s-6.07,13.49,3.85,13.49,3.49-13.95,3.49-13.95,2.3-1-.37-8.54-3.85-7.53-4.95-7.53c-1.4,0-2.7,3.26-1.75,8.26C448.45,230.81,445,237.06,448.18,239.08Z" style="fill:#dbdbdb"></path><polygon points="452.91 261.52 451.96 241.19 451 261.52 452.91 261.52" style="fill:#a6a6a6"></polygon><polygon points="452.35 249.72 448.74 245.51 451.57 250.27 452.35 249.72" style="fill:#a6a6a6"></polygon><path d="M442.68,238.45s3.11-1.23,5.58,3.06-.64,7.3-3.16,5.57c0,0-2,4.14-5.92,3.16a5.91,5.91,0,0,1-4.58-4.15s-3.51.25-3.6-2.36,2.46-4.94,2.46-4.94.15-6.51,4.39-6.46S442.68,238.45,442.68,238.45Z" style="fill:#ebebeb"></path><polygon points="439.8 261.52 438.91 242.15 438.02 261.52 439.8 261.52" style="fill:#a6a6a6"></polygon><polygon points="439.29 249.19 441.9 243.99 438.53 248.74 439.29 249.19" style="fill:#a6a6a6"></polygon><path d="M64.85,231.45s4-1.6,7.24,4-.83,9.48-4.1,7.24c0,0-2.56,5.38-7.69,4.1s-6-5.38-6-5.38-4.54.32-4.67-3.08,3.2-6.4,3.2-6.4.19-8.46,5.7-8.4S64.85,231.45,64.85,231.45Z" style="fill:#ebebeb"></path><polygon points="61.1 261.41 59.95 236.25 58.8 261.41 61.1 261.41" style="fill:#a6a6a6"></polygon><polygon points="60.44 245.41 63.83 238.65 59.46 244.81 60.44 245.41" style="fill:#a6a6a6"></polygon></g><g id="freepik--Shadow--inject-201"><ellipse cx="394.01" cy="433.88" rx="65.88" ry="10.14" style="fill:#ebebeb"></ellipse></g><g id="freepik--Floor--inject-201"><polygon points="40.02 261.52 92.51 261.28 145.01 261.19 250 261.03 354.99 261.19 407.49 261.28 459.98 261.52 407.49 261.77 354.99 261.86 250 262.02 145.01 261.86 92.51 261.77 40.02 261.52" style="fill:#263238"></polygon></g><g id="freepik--Road--inject-201"><path d="M444.28,311,305.77,330.52a17.88,17.88,0,0,0-13.4,25.5l65.14,144H122.62l46.77-106.1a17.88,17.88,0,0,0-13-25.43L55.72,348.94V334.71l131.86-1.1a17.87,17.87,0,0,0,15.95-10.08l30.32-53h12.42l14.18,19.69c4.38,5.71,9.41,10.19,16.36,10.08l167.47-2.41Z" style="fill:#455a64"></path><polygon points="240.74 278.8 239.37 278.8 239.71 270.52 240.41 270.52 240.74 278.8" style="fill:#ebebeb"></polygon><polygon points="242.21 315.06 237.89 315.06 239.1 285.58 241.02 285.58 242.21 315.06" style="fill:#ebebeb"></polygon><polygon points="244.7 376.93 235.36 376.93 235.48 374.05 237.39 327.36 242.7 327.36 244.58 374.05 244.7 376.93" style="fill:#ebebeb"></polygon><polygon points="247.84 454.81 232.19 454.81 232.43 448.82 234.56 396.58 245.49 396.58 247.6 448.82 247.84 454.81" style="fill:#ebebeb"></polygon><polygon points="249.66 500 230.34 500 231 483.92 249.01 483.92 249.66 500" style="fill:#ebebeb"></polygon><polygon points="55.72 340.06 64.1 340.41 63.29 342.07 55.72 341.55 55.72 340.06" style="fill:#ebebeb"></polygon><polygon points="70.23 340.67 91.51 341.57 90.36 343.94 69.42 342.5 70.23 340.67" style="fill:#ebebeb"></polygon><polygon points="99.47 341.91 126.34 343.05 124.75 346.32 98.34 344.49 99.47 341.91" style="fill:#ebebeb"></polygon><polygon points="167.39 344.78 165.48 349.13 137.9 347.23 139.49 343.6 167.39 344.78" style="fill:#ebebeb"></polygon><polygon points="324.06 307.98 325.94 311.06 294.19 312.7 292.04 309.17 324.06 307.98" style="fill:#ebebeb"></polygon><polygon points="372.87 306.15 374.34 308.56 340.55 310.3 338.61 307.43 372.86 306.15 372.87 306.15" style="fill:#ebebeb"></polygon><polygon points="413.34 304.64 414.46 306.48 384.5 308.03 382.98 305.78 413.33 304.64 413.34 304.64" style="fill:#ebebeb"></polygon><polygon points="444.28 303.49 444.28 304.94 422.45 306.07 421.3 304.35 444.28 303.49" style="fill:#ebebeb"></polygon><polygon points="224.8 270.52 255.2 270.52 240 261.73 224.8 270.52" style="fill:#455a64"></polygon><polygon points="55.72 357.76 55.72 327.36 40.02 339.56 55.72 357.76" style="fill:#455a64"></polygon><polygon points="444.28 320.15 444.28 289.75 459.98 301.95 444.28 320.15" style="fill:#455a64"></polygon></g><g id="freepik--Sign--inject-201"><polygon points="201.59 60.91 190.81 73.79 157.27 83.54 157.27 62.32 190.81 51.73 201.59 60.91" style="fill:#455a64"></polygon><polygon points="190.81 51.73 187.52 51.18 154.91 61.38 155.29 83.54 157.27 83.54 157.27 62.32 190.81 51.73" style="fill:#37474f"></polygon><polygon points="228.47 103.39 217.18 113.45 156.73 110.44 157.79 89.25 218.24 92.25 228.47 103.39" style="fill:#4CBEB3"></polygon><polygon points="218.24 92.25 221.22 94.02 230.86 104.33 218.24 115.47 157.16 112.27 156.73 110.44 217.18 113.45 228.47 103.39 218.24 92.25" style="fill:#4CBEB3"></polygon><polygon points="218.24 92.25 221.22 94.02 230.86 104.33 218.24 115.47 157.16 112.27 156.73 110.44 217.18 113.45 228.47 103.39 218.24 92.25" style="opacity:0.1"></polygon><polygon points="82.99 89.19 94.59 98.9 154.91 94.08 153.21 72.93 92.88 77.75 82.99 89.19" style="fill:#263238"></polygon><polygon points="82.99 89.19 94.59 98.9 154.91 94.08 154.68 97.74 95.63 102.39 84.43 93.19 82.99 89.19" style="fill:#37474f"></polygon><path d="M162.64,309.87H146.09l3.85-267.5c.05-3.38,1.93-6.09,4.23-6.09h.38c2.31,0,4.19,2.71,4.23,6.09Z" style="fill:#4CBEB3"></path><path d="M162.64,309.87H146.09l3.85-267.5c.05-3.38,1.93-6.09,4.23-6.09h.38c2.31,0,4.19,2.71,4.23,6.09Z" style="opacity:0.4"></path><g style="opacity:0.30000000000000004;mix-blend-mode:multiply"><path d="M152.88,46.57q-.51,14.72-.8,29.44c-.22,9.82-.39,19.64-.43,29.46s0,19.63.25,29.44l.26,7.36.4,7.35c.17,2.44.4,4.88.6,7.33s.41,4.9.49,7.36a286.71,286.71,0,0,1-.81,29.46c-.65,9.8-1.46,19.58-2.08,29.38-1.25,19.58-1.72,39.27.16,58.84a292,292,0,0,1-1.48-29.42c0-9.82.4-19.64,1-29.44s1.37-19.59,2-29.39a285.84,285.84,0,0,0,.72-29.41c-.08-2.45-.27-4.89-.49-7.33s-.42-4.9-.59-7.35l-.37-7.36-.24-7.36c-.23-9.83-.24-19.65-.16-29.47C151.46,85.82,152,66.19,152.88,46.57Z"></path><path d="M153.54,40.91c.28,3.91.52,7.82.75,11.73l.56,11.74q.51,11.75.78,23.49c.11,7.84.15,15.68,0,23.51s-.44,15.68-1.27,23.47l.4-5.86.25-5.87c.11-2,.12-3.91.18-5.87s.09-3.91.1-5.87c.11-7.83,0-15.67-.16-23.5s-.33-15.66-.61-23.49l-.47-11.74C153.9,48.74,153.74,44.82,153.54,40.91Z"></path><path d="M151.55,253.44c.61-3.8,1.14-7.62,1.65-11.44s1-7.64,1.46-11.47c.91-7.65,1.64-15.32,2.13-23,.31-3.84.46-7.69.66-11.54s.23-7.7.14-11.55l0-2.89c0-1-.08-1.92-.13-2.88l-.14-2.89c0-1-.09-1.92-.21-2.88-.2-1.91-.35-3.83-.58-5.74l-1-5.7a111.43,111.43,0,0,1,2.39,23c.12,3.85,0,7.71,0,11.57s-.29,7.71-.58,11.55c-.55,7.7-1.34,15.37-2.3,23S152.93,245.86,151.55,253.44Z"></path><path d="M157.47,122.23q-.75,6.81-1.32,13.64c-.37,4.56-.7,9.12-.73,13.68a33.2,33.2,0,0,0,.49,6.77,4.37,4.37,0,0,0,.54,1.51c.18.2.22.22.39.06a2.23,2.23,0,0,0,.4-.66,15.34,15.34,0,0,0,.81-3.27,37.74,37.74,0,0,0,.33-6.81,32.33,32.33,0,0,0-.91-6.77,35,35,0,0,1,.95,13.64,13.83,13.83,0,0,1-.79,3.38,2.4,2.4,0,0,1-.48.8.67.67,0,0,1-.56.23.83.83,0,0,1-.49-.33,4.79,4.79,0,0,1-.63-1.68,33.21,33.21,0,0,1-.54-6.88c0-4.58.39-9.15.83-13.7S156.78,126.75,157.47,122.23Z"></path><path d="M158.61,220.42c-.85,9.21-1.78,18.41-3,27.59-.31,2.29-.62,4.59-1,6.87s-.87,4.55-1.2,6.83a74.07,74.07,0,0,0-.84,13.79,36.14,36.14,0,0,0,.85,6.82,8.59,8.59,0,0,0,1.32,3.08,2,2,0,0,0,1.28.83c.48.13.8-.34,1-.84a12.94,12.94,0,0,0,.85-3.29c.17-1.14.28-2.29.35-3.43.15-2.3.18-4.62.11-6.92a49.45,49.45,0,0,0-.65-6.88,13.53,13.53,0,0,0-.4-1.67,2.55,2.55,0,0,0-.79-1.38.52.52,0,0,0-.61.19,2.33,2.33,0,0,0-.42.7,9.05,9.05,0,0,0-.46,1.64,35.24,35.24,0,0,0-.5,6.89c0,1.15.07,2.31.19,3.46a16.82,16.82,0,0,0,.26,1.71,3.81,3.81,0,0,0,.61,1.6,3.76,3.76,0,0,1-.64-1.59,16.68,16.68,0,0,1-.29-1.72c-.15-1.14-.22-2.3-.26-3.46a35.1,35.1,0,0,1,.38-6.94,9.23,9.23,0,0,1,.47-1.69,2.59,2.59,0,0,1,.46-.78.81.81,0,0,1,.94-.26,2.74,2.74,0,0,1,.93,1.55,12.06,12.06,0,0,1,.42,1.7,48.58,48.58,0,0,1,.7,6.92c.09,2.31.08,4.63-.06,6.95-.07,1.16-.17,2.32-.34,3.47a13.22,13.22,0,0,1-.85,3.41,2.64,2.64,0,0,1-.52.79,1.08,1.08,0,0,1-.45.28,1.18,1.18,0,0,1-.52,0,2.49,2.49,0,0,1-1.58-1,9,9,0,0,1-1.42-3.25,32.36,32.36,0,0,1-.86-6.92,75.75,75.75,0,0,1,.92-13.87c.36-2.29.9-4.54,1.24-6.82s.71-4.57,1-6.86C156.53,238.8,157.6,229.61,158.61,220.42Z"></path><path d="M150.55,309.87q-.45-4.94-.82-9.88l-.68-9.9-.57-9.9q-.27-5-.43-9.91.45,4.94.81,9.89l.69,9.89.57,9.9C150.29,303.26,150.43,306.57,150.55,309.87Z"></path><path d="M154.91,309.87a23.94,23.94,0,0,0,.78-8.12,19.9,19.9,0,0,0-2.17-7.78,29.36,29.36,0,0,1-2.73-7.81,62.4,62.4,0,0,1-1.24-8.15,76.19,76.19,0,0,0,1.53,8.08,31.2,31.2,0,0,0,2.84,7.66,18.6,18.6,0,0,1,2.21,8A20.6,20.6,0,0,1,154.91,309.87Z"></path><path d="M158.61,229.52c-.42,6.72-.51,13.46-.28,20.18a93.53,93.53,0,0,0,.85,10c.56,3.31,1.08,6.65,1.43,10a97.43,97.43,0,0,1,.62,10.1,41.7,41.7,0,0,1-1,10.08,49.53,49.53,0,0,0-1.88,9.88,89.05,89.05,0,0,0-.41,10.07,62.1,62.1,0,0,1,1.93-20,41.76,41.76,0,0,0,.87-10c-.07-3.35-.24-6.71-.57-10s-.79-6.67-1.33-10a94.64,94.64,0,0,1-.81-10.08A188.86,188.86,0,0,1,158.61,229.52Z"></path><path d="M155.53,36.45q.56,6.07,1,12.15c.27,4.06.49,8.11.7,12.17s.32,8.12.39,12.18.06,8.14-.29,12.19c.09-2,.09-4.06,0-6.09S157.27,75,157.2,73q-.21-6.09-.5-12.17Z"></path></g></g><g id="freepik--Plants--inject-201"><path d="M110.78,261.53H70.57s.1-6,4.05-7.58a5.39,5.39,0,0,1,6.3,1.51s1.61-11,9-11S100.79,254,100.79,254a5.64,5.64,0,0,1,5.74-2.33C110.62,252.15,110.78,261.53,110.78,261.53Z" style="fill:#37474f"></path><path d="M160,312.93h-40.2s.09-6,4-7.57a5.39,5.39,0,0,1,6.31,1.51s1.61-11,9-11S150,305.36,150,305.36a5.64,5.64,0,0,1,5.74-2.33C159.86,303.56,160,312.93,160,312.93Z" style="fill:#37474f"></path><path d="M460,261.53s-1.23-5.76-3.69-6.64-4,1.69-4,1.69-.58-5.49-4.07-7.14-6.11,1.73-6.11,1.73-2.68-7-7.46-7-7.2,10.21-7.2,10.21-2.83-3-5.72-1.33-2.9,8.46-2.9,8.46Z" style="fill:#37474f"></path><path d="M77.78,261.53H40.71s1.22-5.23,3.68-5.6A3.62,3.62,0,0,1,48,258s-.11-7.29,4.48-8.53,8.44,5.2,8.44,5.2,2.88-3.67,6.8-3.44,4.92,6.31,4.92,6.31S76.2,255.41,77.78,261.53Z" style="fill:#455a64"></path><path d="M190.06,312.93H153s1.22-5.22,3.68-5.59a3.62,3.62,0,0,1,3.6,2.05s-.11-7.29,4.48-8.53,8.44,5.2,8.44,5.2,2.88-3.67,6.8-3.44,4.92,6.3,4.92,6.3S188.48,306.82,190.06,312.93Z" style="fill:#455a64"></path><path d="M421.53,261.53H398.75s.06-3.39,2.3-4.29a3.06,3.06,0,0,1,3.57.85s.91-6.23,5.08-6.23,6.17,5.38,6.17,5.38a3.21,3.21,0,0,1,3.25-1.33C421.44,256.22,421.53,261.53,421.53,261.53Z" style="fill:#455a64"></path><path d="M111.17,261.53H134s0-3.39-2.29-4.29a3,3,0,0,0-3.57.85s-.91-6.23-5.09-6.23-6.17,5.38-6.17,5.38a3.19,3.19,0,0,0-3.25-1.33C111.27,256.22,111.17,261.53,111.17,261.53Z" style="fill:#455a64"></path></g><g id="freepik--Character--inject-201"><path d="M409.35,174.58c2.79.34,5.46-4.23,6.44-7.51.08-.26-.52-2.64-1.14-5.59-.37-1.79-.74-3.79-.95-5.64L402.41,160a29.73,29.73,0,0,1,1.91,7,3.89,3.89,0,0,1,0,.76s0,.08,0,.13C404.25,169.29,406.65,174.24,409.35,174.58Z" style="fill:#ad6359"></path><path d="M404.32,167.7v.12a6.25,6.25,0,0,0,1.19-.07c6.28-.84,7.39-8.68,7.58-11.69L402.41,160a29.73,29.73,0,0,1,1.91,7A4,4,0,0,1,404.32,167.7Z" style="fill:#263238"></path><path d="M418.29,140.74c1.24,5-1.44,17.21-5.11,20.2-5.32,4.32-13.66,4.32-17.23-2-3.47-6.12.11-21.52,4.17-24.19C406.11,130.82,416.46,133.35,418.29,140.74Z" style="fill:#ad6359"></path><path d="M396.77,141.79s-.36,3,1.54,3.94c.15.08,5.94,14.69,16.44,13.89,0,0,8.14-8.68,6.37-16.87-1.14-5.3-4.69-6.9-4.69-6.9S409.24,129,400.57,132,393.58,141.3,396.77,141.79Z" style="fill:#263238"></path><path d="M421.16,168.79c13.57,8.61,37.77,33.94,35.57,40.53-4.44,13.29-22.26,31-26.94,34.45-2.72,2-22.75-16-20.16-18.52,3-2.92,21.69-18.65,21.82-20.28.09-1.25-9.41-15.13-16.34-26.89C407.07,164.45,414.69,164.69,421.16,168.79Z" style="fill:#ad6359"></path><path d="M412.48,223.6s-8.89,5.11-14.55,8.72c-3.16,2-8.27,6-9.91,8.5-2.45,3.8-10.3,21.27-6.11,23.26,3.8,1.8,8.64-14.06,8.64-14.06s-6.3,15.58-1.33,16.91,8-17.32,8-17.32-6.1,16.15-.76,16.71c4,.43,7.78-16.31,7.78-16.31s-5.16,13.92-1,14.54c4.57.68,9-14.55,9-14.55,10.77-.2,17.38-4.15,19.65-9.54C432.36,239.38,412.48,223.6,412.48,223.6Z" style="fill:#ad6359"></path><path d="M392.38,244.49c-.81,1.81-1.64,3.63-2.28,5.49s-1.22,3.77-1.68,5.68a33.12,33.12,0,0,0-1.1,7.65c.46-4.57,2.66-11.3,3.3-13.17s1.19-3.76,1.83-5.62C392.47,244.47,392.4,244.45,392.38,244.49Z" style="fill:#263238"></path><path d="M399.17,246.69c-.93,2.35-1.94,4.64-2.77,7s-1.39,4.71-2,7.13c-.05.19.07.15.13,0,.75-2.4,1.63-4.56,2.41-6.95s1.47-4.81,2.33-7.16C399.24,246.67,399.18,246.66,399.17,246.69Z" style="fill:#263238"></path><path d="M405.33,247.53a56.24,56.24,0,0,0-3.4,11.07c0,.19.1.13.16-.06,1.06-3.7,1.87-6.61,3.36-11C405.48,247.52,405.36,247.46,405.33,247.53Z" style="fill:#263238"></path><path d="M414.11,220.8l19.76,22.51s24.92-26.62,23.93-35.61-22.9-31.18-35.09-38.77-13.63-.52-8.52,9.16,16.5,26.88,16.24,27.33S414.11,220.8,414.11,220.8Z" style="fill:#4CBEB3"></path><path d="M420.3,215.16a5.1,5.1,0,0,0-1.15,1.64,5.33,5.33,0,0,0,1.64-1.15,5.69,5.69,0,0,0,1.15-1.64A5.1,5.1,0,0,0,420.3,215.16Zm25.56-13.23a5.43,5.43,0,0,0-1.15,1.64,5.1,5.1,0,0,0,1.64-1.15,5.53,5.53,0,0,0,1.16-1.64A5.26,5.26,0,0,0,445.86,201.93Zm-11.81-24.26a4.59,4.59,0,0,0-.5.87,4.38,4.38,0,0,0,.9-.51Zm1.14,15a5.26,5.26,0,0,0-1.64-1.15,5.43,5.43,0,0,0,1.15,1.64,5.33,5.33,0,0,0,1.64,1.15A5.33,5.33,0,0,0,435.19,192.66Zm10.12,22.5a5.26,5.26,0,0,0-1.65-1.15,5.43,5.43,0,0,0,1.15,1.64,5.26,5.26,0,0,0,1.65,1.15A5.43,5.43,0,0,0,445.31,215.16Zm-21.84-45.52a5.26,5.26,0,0,0-1.65-1.15,5.53,5.53,0,0,0,1.16,1.64,5.26,5.26,0,0,0,1.64,1.15A5.43,5.43,0,0,0,423.47,169.64Zm11.16,68.67a5.5,5.5,0,0,0-1.64-1.15,5.79,5.79,0,0,0,2.79,2.79A5.69,5.69,0,0,0,434.63,238.31Zm-.25-16.38a5.26,5.26,0,0,0-2,.35,5.91,5.91,0,0,0,3.95,0A5.31,5.31,0,0,0,434.38,221.93Zm23.37-14.61a5.25,5.25,0,0,0-1.89-.32,5.52,5.52,0,0,0-2,.35,5.52,5.52,0,0,0,2,.35,5.73,5.73,0,0,0,1.89-.32h0l.07,0Zm-15.41-21.75-.18.06.36.13Zm-8.89,19.8a5.12,5.12,0,0,0-.35,2,5.26,5.26,0,0,0,.35,2,5.91,5.91,0,0,0,0-3.95Zm-10.23-22.59a5.75,5.75,0,0,0,0,3.95,5.52,5.52,0,0,0,.35-2A5.26,5.26,0,0,0,423.22,182.78Z" style="fill:#fff"></path><path d="M414.11,220.8l19.76,22.51s24.92-26.62,23.93-35.61-22.9-31.18-35.09-38.77-13.63-.52-8.52,9.16,16.5,26.88,16.24,27.33S414.11,220.8,414.11,220.8Z" style="opacity:0.1"></path><path d="M427.93,228c-1.42-1.48-2.81-3-4.19-4.49-.67-.72-1.34-1.44-2-2.19s-1.46-1.57-2.09-2.41a.06.06,0,0,1,.08-.09c.82.67,1.55,1.48,2.33,2.2s1.4,1.37,2.1,2.06c1.45,1.45,2.9,2.9,4.31,4.38,2.84,3,5.58,6,8.29,9.07.06.08,0,.18-.11.11C433.69,233.84,430.78,231,427.93,228Z" style="fill:#263238"></path><path d="M443.94,372.53s1,37.72,1,37.74c0,7-.17,13.08-.54,16.24v.05a4.93,4.93,0,0,1-.52,2.15l0,0c-2.07,1.4-57.78,2.85-59.74,2.24s-.4-6.23,1.72-8S409,411.1,409,411.1l-.61-37.69Z" style="fill:#ad6359"></path><path d="M445,402.79s-.06,7.46-.06,7.48c0,7-.17,13.08-.54,16.24v.05a10.4,10.4,0,0,1-.52,2.15l0,0c-2.07,1.4-57.78,2.85-59.74,2.24s-.4-6.23,1.72-8S409,411.1,409,411.1l0-7.59Z" style="fill:#fff"></path><path d="M405.56,411.12c3.71-.61,8.22.05,11,2.75.11.1,0,.25-.16.21a51.34,51.34,0,0,0-10.82-2.49A.24.24,0,0,1,405.56,411.12Z" style="fill:#263238"></path><path d="M402.86,412.67c3.71-.61,8.22.05,11,2.75.11.1,0,.25-.16.21a52.76,52.76,0,0,0-10.82-2.49A.24.24,0,0,1,402.86,412.67Z" style="fill:#263238"></path><path d="M400.16,414.22c3.71-.61,8.22.06,11,2.75.1.1,0,.25-.17.21a52.67,52.67,0,0,0-10.81-2.49A.24.24,0,0,1,400.16,414.22Z" style="fill:#263238"></path><path d="M384.05,431c2,.61,57.66-.84,59.75-2.24.8-.52,1.06-8.65,1.1-18.48,0-.1,0-.2,0-.31l-35.94.53,0,.61S387.9,421.19,385.77,423,382.08,430.4,384.05,431Z" style="fill:#37474f"></path><path d="M444.9,410v.32c0,9.82-.3,18-1.1,18.47s-13,1.28-26.07,1.75c-15.61.55-32.62.83-33.69.5-2-.6-.38-6.24,1.73-8S409,411.1,409,411.1l0-.6,12-.18Z" style="fill:#4CBEB3"></path><path d="M384.62,428.82c9.38-.48,47.28-1.5,56.59-1.26.08,0,.08.05,0,.06-9.29.67-47.19,1.39-56.59,1.35C384.43,429,384.42,428.83,384.62,428.82Z" style="fill:#263238"></path><path d="M420.93,410.32c-.88,6-2.21,14.89-3.2,20.18-15.61.55-32.62.83-33.69.5-2-.6-.38-6.24,1.73-8S409,411.1,409,411.1l0-.6Z" style="opacity:0.1"></path><path d="M448.14,410.48l-40.31.38s-2.29-65.64-2.46-87.52c-.2-25,1.21-100,1.21-100h30.14s8.09,16.53,3.47,35.13l-1.28,66.9Z" style="fill:#263238"></path><path d="M445.15,403.42a31.1,31.1,0,0,0-3.21-.26c-1.19-.08-2.38-.17-3.57-.22-2.3-.1-4.59-.14-6.88-.15-4.63,0-9.26,0-13.89.17-2.63.08-5.26.18-7.89.33a.09.09,0,0,0,0,.17c4.59.16,9.18.24,13.77.32s9.18.18,13.76.09c1.32,0,2.64,0,3.95-.11s2.66,0,3.94-.19C445.21,403.56,445.24,403.43,445.15,403.42Z" style="fill:#37474f"></path><path d="M410.73,367.19c-.47-10.85-.82-21.72-1.11-32.57q-.9-32.58-.47-65.18c.15-12.19.48-24.37.84-36.56,0-.14-.21-.13-.22,0-1.15,21.81-1.59,43.67-1.61,65.51s.42,43.46,1.5,65.16c.6,12.18,1.34,24.37,2.49,36.51,0,.1.17.1.16,0C411.82,389.1,411.2,378.15,410.73,367.19Z" style="fill:#37474f"></path><path d="M400.82,378.53s-.31,36.44-.31,36.47c0,7-.16,13.08-.53,16.23a.13.13,0,0,1,0,.06,4.93,4.93,0,0,1-.52,2.15s0,0,0,0c-2.08,1.4-57.79,2.85-59.75,2.24s-.39-6.23,1.72-8,23.21-11.87,23.21-11.87l.65-36.43Z" style="fill:#ad6359"></path><path d="M400.58,407.52s-.07,7.45-.07,7.48c0,7-.16,13.08-.53,16.23a.13.13,0,0,1,0,.06,9.73,9.73,0,0,1-.52,2.15s0,0,0,0c-2.08,1.4-57.79,2.85-59.75,2.24s-.39-6.23,1.72-8,23.21-11.87,23.21-11.87l0-7.6Z" style="fill:#fff"></path><path d="M361.18,415.85c3.71-.61,8.22,0,11,2.75.11.1,0,.25-.16.21a51.34,51.34,0,0,0-10.82-2.49A.24.24,0,0,1,361.18,415.85Z" style="fill:#263238"></path><path d="M358.48,417.4c3.71-.61,8.21.05,11,2.75.11.1,0,.25-.16.21a51.34,51.34,0,0,0-10.82-2.49A.24.24,0,0,1,358.48,417.4Z" style="fill:#263238"></path><path d="M355.77,419c3.71-.61,8.22.05,11,2.75.11.1,0,.25-.16.21a52.61,52.61,0,0,0-10.82-2.49A.24.24,0,0,1,355.77,419Z" style="fill:#263238"></path><path d="M339.66,435.72c2,.61,57.67-.84,59.75-2.24.8-.52,1.06-8.65,1.1-18.48v-.31l-35.95.53,0,.61s-21.08,10.09-23.21,11.88S337.7,435.13,339.66,435.72Z" style="fill:#4CBEB3"></path><path d="M340.23,433.55c9.39-.48,47.28-1.5,56.59-1.26.08,0,.08,0,0,.06-9.3.67-47.2,1.39-56.59,1.35C340,433.7,340,433.56,340.23,433.55Z" style="fill:#263238"></path><path d="M419.24,261.92s-16.54,52.13-16.84,61.71c-.25,8.16.79,92,.79,92l-41.86.25s3.53-85.47,4.19-94c1.22-15.91,15.16-59.61,25.13-98.53h45.14s-.4,20.38-9.67,35.13C426.12,258.47,421.93,260.41,419.24,261.92Z" style="fill:#263238"></path><path d="M401,407.88c-4.84-.14-9.85-.28-14.69-.16s-9.61.19-14.4.48c-2.72.16-5.43.25-8.14.52a.08.08,0,0,0,0,.15c4.84.28,9.69.22,14.53.18s9.6-.1,14.4-.32c2.72-.12,5.43-.26,8.14-.45C401.1,408.26,401.26,407.89,401,407.88Z" style="fill:#37474f"></path><path d="M391.81,247.9c-1.49,5-2.75,10-4.08,15.06s-2.69,10.13-4,15.2c-2.58,9.8-5.13,19.62-7.06,29.58a178.55,178.55,0,0,0-3.35,30.32c-.22,10.38,0,20.77.07,31.15s.15,20.87.33,31.3c0,1.3.06,2.6.1,3.89a.1.1,0,0,0,.2,0c.27-10.38.13-20.78.09-31.16s-.17-20.77-.08-31.15a187.48,187.48,0,0,1,2.66-30.75c1.75-10,4.21-19.84,6.77-29.65,1.45-5.59,2.92-11.19,4.37-16.78s3-11.26,4.31-16.94C392.16,247.78,391.87,247.71,391.81,247.9Z" style="fill:#37474f"></path><path d="M408.88,262.93a37,37,0,0,0,6.22-.57,57.09,57.09,0,0,0,6-1.67,47.25,47.25,0,0,1,5.91-1,20.58,20.58,0,0,0,5.79-1.73c.08,0,.16.09.07.13a35,35,0,0,1-5.55,2.41c-2,.63-4.06.71-6.07,1.2a50.62,50.62,0,0,1-6.2,1.43,22.66,22.66,0,0,1-6.21-.1C408.78,263.05,408.81,262.93,408.88,262.93Z" style="fill:#37474f"></path><path d="M406.24,304.39c.4-1.54.77-3.09,1.19-4.63.85-3.11,1.71-6.22,2.65-9.31,1.87-6.13,3.63-12.3,5.61-18.4,1.12-3.45,2.13-7,3.44-10.35,0-.08.15,0,.14,0-.67,3.16-1.6,6.26-2.44,9.38s-1.73,6.21-2.63,9.31c-1.79,6.16-3.54,12.33-5.49,18.44-.54,1.71-1.1,3.42-1.7,5.11s-1.07,3.53-1.8,5.22c0,.09-.16.05-.15-.05C405.34,307.54,405.84,306,406.24,304.39Z" style="fill:#37474f"></path><path d="M388.19,207.84l-4.07,21.8s48.26.67,59.6-.13c0,0-11.85-46.16-24-59.39-6.1-6.62-13.25-6.12-17.82-1.49C400.71,169.8,386.94,188,385.49,195,384.22,201.09,388.19,207.84,388.19,207.84Z" style="fill:#4CBEB3"></path><path d="M428.65,184.82c1.16,2.54,2.26,5.11,3.33,7.69-.17-.78-.36-1.56-.57-2.32,0-.12.13-.15.17-.05a16.39,16.39,0,0,1,.87,3.51,230.74,230.74,0,0,1,8.75,25.7c.45,1.65.91,3.3,1.29,5s.91,3.45,1.14,5.21a.08.08,0,0,1-.15,0c-.56-1.46-.94-3-1.37-4.52s-.85-2.89-1.28-4.33c-.88-3-1.77-5.89-2.69-8.83-1.83-5.8-3.84-11.54-5.88-17.26-1.17-3.28-2.46-6.51-3.73-9.75C428.51,184.8,428.62,184.76,428.65,184.82Z" style="fill:#263238"></path><path d="M420.3,215.16a5.1,5.1,0,0,0-1.15,1.64,5.33,5.33,0,0,0,1.64-1.15,5.69,5.69,0,0,0,1.15-1.64A5.1,5.1,0,0,0,420.3,215.16Zm-14.8-46.31a5.1,5.1,0,0,0-1.15,1.64,5.79,5.79,0,0,0,2.79-2.79A5.1,5.1,0,0,0,405.5,168.85Zm-14,40.91a5.1,5.1,0,0,0-1.15,1.64,5.1,5.1,0,0,0,1.64-1.15,5.33,5.33,0,0,0,1.15-1.64A5.1,5.1,0,0,0,391.48,209.76ZM394.77,222a5.43,5.43,0,0,0-1.65-1.15,5.43,5.43,0,0,0,1.15,1.64,5.26,5.26,0,0,0,1.65,1.15A5.69,5.69,0,0,0,394.77,222Zm15.79-30.13a5.26,5.26,0,0,0-1.64-1.15,5.26,5.26,0,0,0,1.15,1.64,5.33,5.33,0,0,0,1.64,1.15A5.33,5.33,0,0,0,410.56,191.9Zm23.82,30a5.26,5.26,0,0,0-2,.35,5.91,5.91,0,0,0,3.95,0A5.31,5.31,0,0,0,434.38,221.93Zm-11.86-23.44a5.52,5.52,0,0,0-2,.35,5.52,5.52,0,0,0,2,.35,5.29,5.29,0,0,0,2-.35A5.5,5.5,0,0,0,422.52,198.49Zm-25.74-2.84a5.5,5.5,0,0,0-2,.35,5.75,5.75,0,0,0,3.95,0A5.31,5.31,0,0,0,396.78,195.65Zm12.14,25.93a5.47,5.47,0,0,0-2,.35,5.47,5.47,0,0,0,2,.35,5.31,5.31,0,0,0,2-.35A5.52,5.52,0,0,0,408.92,221.58Zm2-44a5.52,5.52,0,0,0-2,.35,5.75,5.75,0,0,0,3.95,0A5.5,5.5,0,0,0,410.9,177.61Zm-13.1,1.76a5.75,5.75,0,0,0,0,3.95,5.52,5.52,0,0,0,.35-2A5.29,5.29,0,0,0,397.8,179.37Zm23.09,49.54a4.56,4.56,0,0,0-.27,1h.54A4.56,4.56,0,0,0,420.89,228.91Zm-13.27-23.54a5.91,5.91,0,0,0,0,3.95,5.26,5.26,0,0,0,.35-2A5.12,5.12,0,0,0,407.62,205.37Zm25.83,0a5.12,5.12,0,0,0-.35,2,5.26,5.26,0,0,0,.35,2,5.91,5.91,0,0,0,0-3.95Zm-10.23-22.59a5.75,5.75,0,0,0,0,3.95,5.52,5.52,0,0,0,.35-2A5.26,5.26,0,0,0,423.22,182.78Z" style="fill:#fff"></path><path d="M396.5,176.39c-7.16,10.51-13.76,23.79-22.43,38.65-9.67,16.58-17.91,33.75-19.92,37.36-2.59,4.63,26.17,7.29,27.45,3.88.83-2.18,7.54-18.7,13.63-33.79s9.41-32,11.82-42.84C409.84,167.15,401.77,168.65,396.5,176.39Z" style="fill:#ad6359"></path><path d="M358,244.84s-1,1.59-5.3,9.72c-2.95,5.62-6.56,21.21,5.13,34.7,4.48,5.17,10.06,4.29,6.36-1.91-2.6-4.36-4.78-7.16-5.23-8.83,0,0,7.28,2.75,11,.23a84,84,0,0,0,9.3-7.28,16.89,16.89,0,0,0-1.2-1.86s4.84-7.09,3.48-13.33Z" style="fill:#ad6359"></path><path d="M350.78,260.38c.77,3.23,2.52,10.07,5.9,15.17,3.75,5.66,12.5,15.55,16.64,12.74,3.05-2.06,0-6.13,0-6.13s4.48,3.32,6.82.86c2.13-2.24-.38-5.25-.38-5.25s3.06,1.55,4.7-1c2-3.08-4.77-5.82-5.47-10.66C378.87,265,350.78,260.38,350.78,260.38Z" style="fill:#ad6359"></path><path d="M362,270.59a27,27,0,0,0,11.22,11.58c.12.06.24,0,.13-.08a66.43,66.43,0,0,1-11.3-11.54S362,270.56,362,270.59Z" style="fill:#263238"></path><path d="M367.82,267c1.31,2.42,6.21,8.33,11.89,10.89.13.06.24,0,.13-.09a71.51,71.51,0,0,1-12-10.84S367.8,266.94,367.82,267Z" style="fill:#263238"></path><path d="M356.18,243.92l28.68,11.57s10.92-27.32,14.37-36.77,7.7-33.14,8.78-41.8S403,167.65,397,175,376.46,210,375.81,210.71,356.18,243.92,356.18,243.92Z" style="fill:#4CBEB3"></path><path d="M397.8,179.37a5.75,5.75,0,0,0,0,3.95,5.52,5.52,0,0,0,.35-2A5.29,5.29,0,0,0,397.8,179.37ZM381.58,215.8a5.12,5.12,0,0,0-.35,2,5.29,5.29,0,0,0,.35,2,5.91,5.91,0,0,0,0-3.95Zm15.2-20.15a5.5,5.5,0,0,0-2,.35,5.75,5.75,0,0,0,3.95,0A5.31,5.31,0,0,0,396.78,195.65Zm-15.2,34.54a5.3,5.3,0,0,0-2,.34,5.31,5.31,0,0,0,2,.35,5.1,5.1,0,0,0,2-.35A5.28,5.28,0,0,0,381.58,230.19Zm3.76,21.17a4.54,4.54,0,0,0,1.05.28c.08-.19.16-.38.23-.58A4.18,4.18,0,0,0,385.34,251.36Zm-18.51-4.21a5.32,5.32,0,0,0-1.87.31l-.11,0a3.35,3.35,0,0,0,.73.21h0a6.31,6.31,0,0,0,1.22.12,5.25,5.25,0,0,0,2-.34A5.07,5.07,0,0,0,366.83,247.15Zm15-43.83a5.93,5.93,0,0,0-1.31-1l-.14.24a5.63,5.63,0,0,0,1,1.24A5.53,5.53,0,0,0,383,205,5.26,5.26,0,0,0,381.82,203.32ZM394.77,222a5.43,5.43,0,0,0-1.65-1.15,5.43,5.43,0,0,0,1.15,1.64,5.26,5.26,0,0,0,1.65,1.15A5.69,5.69,0,0,0,394.77,222ZM370,235.52a5.1,5.1,0,0,0-1.64-1.15,5.1,5.1,0,0,0,1.15,1.64,5.33,5.33,0,0,0,1.64,1.15A5.33,5.33,0,0,0,370,235.52Zm21.45-25.76a5.1,5.1,0,0,0-1.15,1.64,5.1,5.1,0,0,0,1.64-1.15,5.33,5.33,0,0,0,1.15-1.64A5.1,5.1,0,0,0,391.48,209.76Zm-10.92,32.47a5.1,5.1,0,0,0-1.15,1.64,5.79,5.79,0,0,0,2.79-2.79A5.1,5.1,0,0,0,380.56,242.23Zm-21.83-1.94a5.43,5.43,0,0,0-1.15,1.64,5.1,5.1,0,0,0,1.64-1.15,5.53,5.53,0,0,0,1.16-1.64A5.26,5.26,0,0,0,358.73,240.29ZM370,222a5.69,5.69,0,0,0-1.15,1.64,5.1,5.1,0,0,0,1.64-1.15,5.29,5.29,0,0,0,1.16-1.64A5.61,5.61,0,0,0,370,222Zm34.69-52.11a3.81,3.81,0,0,0-.29.57,4.22,4.22,0,0,0,.88-.51A2.88,2.88,0,0,0,404.64,169.92Z" style="fill:#fff"></path><path d="M373,244.35c-1.89-.78-3.77-1.6-5.65-2.43-.9-.39-1.8-.78-2.69-1.2s-2-.85-2.89-1.37c-.06,0,0-.13,0-.11,1,.28,2,.72,3,1.07s1.84.69,2.75,1.05c1.91.74,3.82,1.48,5.71,2.27,3.79,1.58,7.51,3.25,11.23,5,.09,0,0,.18-.05.14C380.66,247.35,376.83,245.91,373,244.35Z" style="fill:#263238"></path><path d="M392.67,235.76c1.29-4,2.67-7.89,4.08-11.81.68-2,1.43-3.91,2.15-5.86a43.92,43.92,0,0,0,1.84-5.91c1.09-4,1.94-8.08,2.85-12.13l2.72-12.2c-.53,4.14-1.21,8.25-2,12.35s-1.62,8.18-2.64,12.23a45.93,45.93,0,0,1-2,6c-.76,1.94-1.49,3.89-2.29,5.81C395.91,228.09,394.34,232,392.67,235.76Z" style="fill:#263238"></path><path d="M404.62,197.83a18.58,18.58,0,0,1,2.33-5.68,17.26,17.26,0,0,1-.94,2.93A16.12,16.12,0,0,1,404.62,197.83Z" style="fill:#263238"></path><path d="M412.83,133.67c1,.1,5.11-.47,8,3.25,2.7,3.53,3.85,14.39,4.46,16.74s3.73,2.65,4.52,5.39c.68,2.35-1,3.26-1.17,5-.11,1.35,1.29,3.34.1,5.36-1.07,1.84-3.05,1.49-4.22,2.09s-1.86,3.35-4,4.14-4.17-1.18-5.34-1.14-2.47,3.64-6.28,3.41-5-3.43-6.56-4-5.51.57-7.35-1.35-2.21-4.54-3-5.49-2.52-.75-3.58-3,1-3.67,1.25-5.61c.17-1.36-1.05-2.57-.25-4.65,1.1-2.86,4.58-2.32,5.84-5.26,1-2.3,2.92-12.27,8.87-14.84C408.11,131.93,412.83,133.67,412.83,133.67Z" style="fill:#263238"></path><path d="M425.12,153.1a3.42,3.42,0,0,0,1.05,1.25l1.26,1a10.47,10.47,0,0,1,2.24,2.27,3.29,3.29,0,0,1,.42,2.88,4.86,4.86,0,0,1-.76,1.34,5.67,5.67,0,0,0-.91,1.46,2.8,2.8,0,0,0,.19,1.79c.19.53.39,1,.55,1.53a3.89,3.89,0,0,1,0,3,2.3,2.3,0,0,1-1,1.05,4.46,4.46,0,0,1-1.51.36c-.54,0-1.08,0-1.63.06a2.72,2.72,0,0,0-1.58.39,2.93,2.93,0,0,1,1.58-.22c.54,0,1.08.08,1.64.07a4.18,4.18,0,0,0,1.66-.31,2.62,2.62,0,0,0,1.28-1.18,4.17,4.17,0,0,0,.15-3.37c-.15-.54-.36-1.05-.53-1.55a2.28,2.28,0,0,1-.16-1.4c.31-.88,1.27-1.68,1.62-2.81a3.68,3.68,0,0,0-.57-3.34,10.61,10.61,0,0,0-2.45-2.24l-1.34-.93A3.84,3.84,0,0,1,425.12,153.1Z" style="fill:#263238"></path><path d="M398.57,139.42a48.22,48.22,0,0,0-2.39,5.35c-.39.89-.75,1.79-1.2,2.63a6.18,6.18,0,0,1-.75,1.17.92.92,0,0,1-.22.22,1.32,1.32,0,0,1-.26.18c-.2.11-.42.21-.64.31a29.42,29.42,0,0,0-2.65,1.3,5.05,5.05,0,0,0-2.1,2.19,3.23,3.23,0,0,0-.27,1.53,4.13,4.13,0,0,0,.48,1.45,6.32,6.32,0,0,1,1,2.71,6,6,0,0,0-.69-2.84,3.67,3.67,0,0,1-.36-1.34,2.6,2.6,0,0,1,.31-1.3,4.85,4.85,0,0,1,1.95-1.91,25.38,25.38,0,0,1,2.63-1.22c.22-.11.45-.22.67-.35a2.32,2.32,0,0,0,.63-.54,6.85,6.85,0,0,0,.81-1.3,23,23,0,0,0,1.14-2.72l.95-2.77A26.47,26.47,0,0,1,398.57,139.42Z" style="fill:#263238"></path><path d="M390.93,166.4a5,5,0,0,1,.67,1.95c.16.68.32,1.36.52,2a10.18,10.18,0,0,0,.77,2,4.53,4.53,0,0,0,1.43,1.69,5.83,5.83,0,0,0,4.28.42c.7-.15,1.37-.33,2-.45a4.44,4.44,0,0,1,2.05,0,4,4,0,0,0-2.09-.26c-.71.06-1.4.19-2.08.27a5.88,5.88,0,0,1-3.87-.46,4.15,4.15,0,0,1-1.25-1.46,13,13,0,0,1-.84-1.86c-.25-.65-.46-1.31-.68-2-.12-.33-.24-.66-.38-1A2,2,0,0,0,390.93,166.4Z" style="fill:#263238"></path><path d="M424.69,175.57c.43-.36-1.32-6.25-2.86-7.31s-11.27-1.16-12.41.7.38,7.81,1.08,7.92,2.56,0,2.92-.46-.7-4.14-.15-4.81c.71-.88,6.22-.78,6.74-.21s1.11,3.89,1.21,4.1S424,176.15,424.69,175.57Z" style="fill:#4CBEB3"></path><path d="M396.19,228.32c2,4.09,9.21,9.47,13.49,10.27s32.65,4.91,37.28-1c4.22-5.38-3.41-44.38-11.37-56.82a13.15,13.15,0,0,0-2.17-2.68l-.17-.15c-7.62-6.4-23-3.2-24.9-2.68a14.46,14.46,0,0,0-9.45,9C396.68,190,394.14,224.24,396.19,228.32Z" style="fill:#455a64"></path><path d="M412.37,226c.41,2.86,4.85,9.65,10.14,11.4s24.45.2,28.78-3.51a4.29,4.29,0,0,0,1-2.47c1.51-8.59-3.57-34.7-9.57-42.67a7.09,7.09,0,0,0-2-1.92,16.62,16.62,0,0,0-2.79-1.27,32.33,32.33,0,0,0-16.67-.93c-3.35.76-6.09,2.15-7.36,4.2C410.73,194,412,223.12,412.37,226Z" style="fill:#4CBEB3"></path><path d="M412.37,226c.41,2.86,4.85,9.65,10.14,11.4s24.45.2,28.78-3.51a4.29,4.29,0,0,0,1-2.47,26.14,26.14,0,0,1-11.22,3.35,48.21,48.21,0,0,1-8.58-.12,15.3,15.3,0,0,1-8-2.72c-4.35-3.4-5.81-9.81-6.35-15.16a91.36,91.36,0,0,1,.42-17.65,69.7,69.7,0,0,1,2.75-14.49c-3.35.76-6.09,2.15-7.36,4.2C410.73,194,412,223.12,412.37,226Z" style="opacity:0.1"></path><path d="M416.08,214.54l1.3,0c-.27-6-.29-22.33,2.73-25.46s14.3-3.39,19-1.86a22,22,0,0,1,3.67,1.56,7,7,0,0,0-2-1.92,16.15,16.15,0,0,0-2.78-1.27c-5.7-1.21-15.77-.58-18.83,2.59C415.15,192.29,416,213.64,416.08,214.54Z" style="fill:#263238"></path><path d="M400.78,209.21l1.3.06c1.15-24.21,2.31-25.08,7.17-28.76l.17-.13c4.74-3.59,15.82-3,20.14-2.15a16.11,16.11,0,0,1,6,2.52,13.15,13.15,0,0,0-2.17-2.68,17.22,17.22,0,0,0-3.6-1.11c-3-.59-15.55-1.89-21.18,2.38l-.17.13C403.34,183.35,402,184.4,400.78,209.21Z" style="fill:#263238"></path><path d="M392.72,227.55c.67,3.17,8,9.57,11.58,11,.73.29,6.86,1.62,7.18-.85,0-.16,0-.33,0-.5.62-6.48-1.87-20.58-2.5-22.48-.74-2.24-7.63-6.56-11.76-7.49a4.43,4.43,0,0,0-2.24-.07C392,208.13,392.3,225.55,392.72,227.55Z" style="fill:#37474f"></path></g></svg>