<svg xmlns="http://www.w3.org/2000/svg" viewBox="0 0 500 500"><path d="M292.38 140.57H369s-3.81-5-8-5.58c0 0-8.17-24.33-21.85-24.5-12.72-.16-17.82 15-17.82 15s-5.89-6.78-11.52-3.68-8.82 12-8.82 12-6.31 3.35-8.61 6.76ZM113.32 119.33h52.06s-2.59-3.37-5.45-3.79c0 0-5.55-16.52-14.84-16.64-8.64-.11-12.1 10.16-12.1 10.16s-4-4.61-7.82-2.5-6 8.14-6 8.14-4.29 2.3-5.85 4.63ZM141.9 161H45s0-6.19 13.35-7.4c0 0 12.19-27.07 30.81-23.44 11.59 2.27 17.51 18.18 17.51 18.18s8.76-12.52 15.77-10.1S133.58 154 133.58 154s7.22 3.45 8.32 7ZM437.88 67.68H372s6.22-5.79 9-5.79 10.83-19.43 21.14-18.6 15.78 15.3 15.78 15.3 12.48-3.93 19.96 9.09ZM455 172.09h-34.28s3.24-3 4.68-3 5.64-10.11 11-9.68 8.22 8 8.22 8 6.52-2.1 10.38 4.68ZM292.38 202.57H236s2.8-3.65 5.89-4.1c0 0 6-17.89 16.07-18 9.35-.12 13.1 11 13.1 11s4.33-5 8.47-2.71 6.49 8.81 6.49 8.81 4.67 2.49 6.36 5Z" style="fill:#ebebeb"/><path d="M40 261.51s79.79-35.83 138.07-35.83c57 0 134.43 18.1 155.46 22.16 55.23 10.65 126.33 13.67 126.33 13.67Z" style="fill:#dbdbdb"/><path d="M459.88 261.51s-43.5-24-92.63-24c-34.3 0-83.53 9.67-129.89 15.11-17.66 2.07-109.55 8.91-109.55 8.91Z" style="fill:#c7c7c7"/><path d="M328.7 239.08s6.06 13.49-3.86 13.49-3.49-13.95-3.49-13.95-2.3-1 .37-8.54 3.85-7.53 4.95-7.53c1.4 0 2.7 3.26 1.75 8.26 0 0 3.49 6.25.28 8.27Z" style="fill:#dbdbdb"/><path d="m323.96 261.52.96-20.33.95 20.33h-1.91z" style="fill:#a6a6a6"/><path d="m324.53 249.72 3.6-4.21-2.83 4.76-.77-.55z" style="fill:#a6a6a6"/><path d="M51.2 237.25s6.55 14.6-4.17 14.6-3.78-15.1-3.78-15.1-2.48-1.09.4-9.23 4.17-8.14 5.36-8.14c1.51 0 2.92 3.52 1.89 8.94 0 0 3.77 6.75.3 8.93Z" style="fill:#c7c7c7"/><path d="m46.08 261.52 1.03-21.98 1.03 21.98h-2.06z" style="fill:#a6a6a6"/><path d="m46.69 248.76 3.9-4.55-3.06 5.15-.84-.6z" style="fill:#a6a6a6"/><path d="M192.66 238.45s3.1-1.23 5.57 3.06-.64 7.3-3.16 5.57c0 0-2 4.14-5.91 3.16a5.92 5.92 0 0 1-4.59-4.15s-3.5.25-3.6-2.36 2.46-4.94 2.46-4.94.15-6.51 4.39-6.46 4.84 6.12 4.84 6.12Z" style="fill:#ebebeb"/><path d="m189.77 261.52-.89-19.37-.88 19.37h1.77z" style="fill:#a6a6a6"/><path d="m189.26 249.19 2.61-5.2-3.37 4.75.76.45z" style="fill:#a6a6a6"/><path d="M448.18 239.08s-6.07 13.49 3.85 13.49 3.49-13.95 3.49-13.95 2.3-1-.37-8.54-3.85-7.53-4.95-7.53c-1.4 0-2.7 3.26-1.75 8.26 0 0-3.45 6.25-.27 8.27Z" style="fill:#dbdbdb"/><path d="m452.91 261.52-.95-20.33-.96 20.33h1.91z" style="fill:#a6a6a6"/><path d="m452.35 249.72-3.61-4.21 2.83 4.76.78-.55z" style="fill:#a6a6a6"/><path d="M442.68 238.45s3.11-1.23 5.58 3.06-.64 7.3-3.16 5.57c0 0-2 4.14-5.92 3.16a5.91 5.91 0 0 1-4.58-4.15s-3.51.25-3.6-2.36 2.46-4.94 2.46-4.94.15-6.51 4.39-6.46 4.83 6.12 4.83 6.12Z" style="fill:#ebebeb"/><path d="m439.8 261.52-.89-19.37-.89 19.37h1.78z" style="fill:#a6a6a6"/><path d="m439.29 249.19 2.61-5.2-3.37 4.75.76.45z" style="fill:#a6a6a6"/><path d="M64.85 231.45s4-1.6 7.24 4-.83 9.48-4.1 7.24c0 0-2.56 5.38-7.69 4.1s-6-5.38-6-5.38-4.54.32-4.67-3.08 3.2-6.4 3.2-6.4.19-8.46 5.7-8.4 6.32 7.92 6.32 7.92Z" style="fill:#ebebeb"/><path d="m61.1 261.41-1.15-25.16-1.15 25.16h2.3z" style="fill:#a6a6a6"/><path d="m60.44 245.41 3.39-6.76-4.37 6.16.98.6z" style="fill:#a6a6a6"/><ellipse cx="394.01" cy="433.88" rx="65.88" ry="10.14" style="fill:#ebebeb"/><path d="m40.02 261.52 52.49-.24 52.5-.09 104.99-.16 104.99.16 52.5.09 52.49.24-52.49.25-52.5.09-104.99.16-104.99-.16-52.5-.09-52.49-.25z" style="fill:#263238"/><path d="m444.28 311-138.51 19.52a17.88 17.88 0 0 0-13.4 25.5l65.14 144H122.62l46.77-106.1a17.88 17.88 0 0 0-13-25.43L55.72 348.94v-14.23l131.86-1.1a17.87 17.87 0 0 0 15.95-10.08l30.32-53h12.42l14.18 19.69c4.38 5.71 9.41 10.19 16.36 10.08l167.47-2.41Z" style="fill:#455a64"/><path d="M240.74 278.8h-1.37l.34-8.28h.7l.33 8.28zM242.21 315.06h-4.32l1.21-29.48h1.92l1.19 29.48zM244.7 376.93h-9.34l.12-2.88 1.91-46.69h5.31l1.88 46.69.12 2.88zM247.84 454.81h-15.65l.24-5.99 2.13-52.24h10.93l2.11 52.24.24 5.99zM249.66 500h-19.32l.66-16.08h18.01l.65 16.08zM55.72 340.06l8.38.35-.81 1.66-7.57-.52v-1.49zM70.23 340.67l21.28.9-1.15 2.37-20.94-1.44.81-1.83zM99.47 341.91l26.87 1.14-1.59 3.27-26.41-1.83 1.13-2.58zM167.39 344.78l-1.91 4.35-27.58-1.9 1.59-3.63 27.9 1.18zM324.06 307.98l1.88 3.08-31.75 1.64-2.15-3.53 32.02-1.19zM372.87 306.15l1.47 2.41-33.79 1.74-1.94-2.87 34.25-1.28h.01zM413.34 304.64l1.12 1.84-29.96 1.55-1.52-2.25 30.35-1.14h.01zM444.28 303.49v1.45l-21.83 1.13-1.15-1.72 22.98-.86z" style="fill:#ebebeb"/><path d="M224.8 270.52h30.4l-15.2-8.79-15.2 8.79zM55.72 357.76v-30.4l-15.7 12.2 15.7 18.2zM444.28 320.15v-30.4l15.7 12.2-15.7 18.2zM201.59 60.91l-10.78 12.88-33.54 9.75V62.32l33.54-10.59 10.78 9.18z" style="fill:#455a64"/><path d="m190.81 51.73-3.29-.55-32.61 10.2.38 22.16h1.98V62.32l33.54-10.59z" style="fill:#37474f"/><path d="m228.47 103.39-11.29 10.06-60.45-3.01 1.06-21.19 60.45 3 10.23 11.14z" style="fill:#4cbeb3"/><path d="m218.24 92.25 2.98 1.77 9.64 10.31-12.62 11.14-61.08-3.2-.43-1.83 60.45 3.01 11.29-10.06-10.23-11.14z" style="fill:#4cbeb3"/><path d="m218.24 92.25 2.98 1.77 9.64 10.31-12.62 11.14-61.08-3.2-.43-1.83 60.45 3.01 11.29-10.06-10.23-11.14z" style="opacity:.1"/><path d="m82.99 89.19 11.6 9.71 60.32-4.82-1.7-21.15-60.33 4.82-9.89 11.44z" style="fill:#263238"/><path d="m82.99 89.19 11.6 9.71 60.32-4.82-.23 3.66-59.05 4.65-11.2-9.2-1.44-4z" style="fill:#37474f"/><path d="M162.64 309.87h-16.55l3.85-267.5c.05-3.38 1.93-6.09 4.23-6.09h.38c2.31 0 4.19 2.71 4.23 6.09Z" style="fill:#4cbeb3"/><path d="M162.64 309.87h-16.55l3.85-267.5c.05-3.38 1.93-6.09 4.23-6.09h.38c2.31 0 4.19 2.71 4.23 6.09Z" style="opacity:.4"/><g style="opacity:.30000000000000004;mix-blend-mode:multiply"><path d="M152.88 46.57q-.51 14.72-.8 29.44c-.22 9.82-.39 19.64-.43 29.46s0 19.63.25 29.44l.26 7.36.4 7.35c.17 2.44.4 4.88.6 7.33s.41 4.9.49 7.36a286.71 286.71 0 0 1-.81 29.46c-.65 9.8-1.46 19.58-2.08 29.38-1.25 19.58-1.72 39.27.16 58.84a292 292 0 0 1-1.48-29.42c0-9.82.4-19.64 1-29.44s1.37-19.59 2-29.39a285.84 285.84 0 0 0 .72-29.41c-.08-2.45-.27-4.89-.49-7.33s-.42-4.9-.59-7.35l-.37-7.36-.24-7.36c-.23-9.83-.24-19.65-.16-29.47.15-19.64.69-39.27 1.57-58.89ZM153.54 40.91c.28 3.91.52 7.82.75 11.73l.56 11.74q.51 11.75.78 23.49c.11 7.84.15 15.68 0 23.51s-.44 15.68-1.27 23.47l.4-5.86.25-5.87c.11-2 .12-3.91.18-5.87s.09-3.91.1-5.87c.11-7.83 0-15.67-.16-23.5s-.33-15.66-.61-23.49l-.47-11.74c-.15-3.91-.31-7.83-.51-11.74Z"/><path d="M151.55 253.44c.61-3.8 1.14-7.62 1.65-11.44s1-7.64 1.46-11.47c.91-7.65 1.64-15.32 2.13-23 .31-3.84.46-7.69.66-11.54s.23-7.7.14-11.55v-2.89c0-1-.08-1.92-.13-2.88l-.14-2.89c0-1-.09-1.92-.21-2.88-.2-1.91-.35-3.83-.58-5.74l-1-5.7a111.43 111.43 0 0 1 2.39 23c.12 3.85 0 7.71 0 11.57s-.29 7.71-.58 11.55c-.55 7.7-1.34 15.37-2.3 23s-2.11 15.28-3.49 22.86ZM157.47 122.23q-.75 6.81-1.32 13.64c-.37 4.56-.7 9.12-.73 13.68a33.2 33.2 0 0 0 .49 6.77 4.37 4.37 0 0 0 .54 1.51c.18.2.22.22.39.06a2.23 2.23 0 0 0 .4-.66 15.34 15.34 0 0 0 .81-3.27 37.74 37.74 0 0 0 .33-6.81 32.33 32.33 0 0 0-.91-6.77 35 35 0 0 1 .95 13.64 13.83 13.83 0 0 1-.79 3.38 2.4 2.4 0 0 1-.48.8.67.67 0 0 1-.56.23.83.83 0 0 1-.49-.33 4.79 4.79 0 0 1-.63-1.68 33.21 33.21 0 0 1-.54-6.88c0-4.58.39-9.15.83-13.7s1.02-9.09 1.71-13.61ZM158.61 220.42c-.85 9.21-1.78 18.41-3 27.59-.31 2.29-.62 4.59-1 6.87s-.87 4.55-1.2 6.83a74.07 74.07 0 0 0-.84 13.79 36.14 36.14 0 0 0 .85 6.82 8.59 8.59 0 0 0 1.32 3.08 2 2 0 0 0 1.28.83c.48.13.8-.34 1-.84a12.94 12.94 0 0 0 .85-3.29c.17-1.14.28-2.29.35-3.43.15-2.3.18-4.62.11-6.92a49.45 49.45 0 0 0-.65-6.88 13.53 13.53 0 0 0-.4-1.67 2.55 2.55 0 0 0-.79-1.38.52.52 0 0 0-.61.19 2.33 2.33 0 0 0-.42.7 9.05 9.05 0 0 0-.46 1.64 35.24 35.24 0 0 0-.5 6.89c0 1.15.07 2.31.19 3.46a16.82 16.82 0 0 0 .26 1.71 3.81 3.81 0 0 0 .61 1.6 3.76 3.76 0 0 1-.64-1.59 16.68 16.68 0 0 1-.29-1.72c-.15-1.14-.22-2.3-.26-3.46a35.1 35.1 0 0 1 .38-6.94 9.23 9.23 0 0 1 .47-1.69 2.59 2.59 0 0 1 .46-.78.81.81 0 0 1 .94-.26 2.74 2.74 0 0 1 .93 1.55 12.06 12.06 0 0 1 .42 1.7 48.58 48.58 0 0 1 .7 6.92c.09 2.31.08 4.63-.06 6.95a40.34 40.34 0 0 1-.34 3.47 13.22 13.22 0 0 1-.85 3.41 2.64 2.64 0 0 1-.52.79 1.08 1.08 0 0 1-.45.28 1.18 1.18 0 0 1-.52 0 2.49 2.49 0 0 1-1.58-1 9 9 0 0 1-1.42-3.25 32.36 32.36 0 0 1-.86-6.92 75.75 75.75 0 0 1 .92-13.87c.36-2.29.9-4.54 1.24-6.82s.71-4.57 1-6.86c1.3-9.12 2.37-18.31 3.38-27.5ZM150.55 309.87q-.45-4.94-.82-9.88l-.68-9.9-.57-9.9q-.27-5-.43-9.91.45 4.94.81 9.89l.69 9.89.57 9.9c.17 3.3.31 6.61.43 9.91ZM154.91 309.87a23.94 23.94 0 0 0 .78-8.12 19.9 19.9 0 0 0-2.17-7.78 29.36 29.36 0 0 1-2.73-7.81 62.4 62.4 0 0 1-1.24-8.15 76.19 76.19 0 0 0 1.53 8.08 31.2 31.2 0 0 0 2.84 7.66 18.6 18.6 0 0 1 2.21 8 20.6 20.6 0 0 1-1.22 8.12Z"/><path d="M158.61 229.52c-.42 6.72-.51 13.46-.28 20.18a93.53 93.53 0 0 0 .85 10c.56 3.31 1.08 6.65 1.43 10a97.43 97.43 0 0 1 .62 10.1 41.7 41.7 0 0 1-1 10.08 49.53 49.53 0 0 0-1.88 9.88 89.05 89.05 0 0 0-.41 10.07 62.1 62.1 0 0 1 1.93-20 41.76 41.76 0 0 0 .87-10c-.07-3.35-.24-6.71-.57-10s-.79-6.67-1.33-10a94.64 94.64 0 0 1-.81-10.08 188.86 188.86 0 0 1 .58-20.23ZM155.53 36.45q.56 6.07 1 12.15c.27 4.06.49 8.11.7 12.17s.32 8.12.39 12.18.06 8.14-.29 12.19c.09-2 .09-4.06 0-6.09s-.06-4.05-.13-6.05q-.21-6.09-.5-12.17Z"/></g><path d="M110.78 261.53H70.57s.1-6 4.05-7.58a5.39 5.39 0 0 1 6.3 1.51s1.61-11 9-11 10.87 9.54 10.87 9.54a5.64 5.64 0 0 1 5.74-2.33c4.09.48 4.25 9.86 4.25 9.86ZM160 312.93h-40.2s.09-6 4-7.57a5.39 5.39 0 0 1 6.31 1.51s1.61-11 9-11 10.89 9.49 10.89 9.49a5.64 5.64 0 0 1 5.74-2.33c4.12.53 4.26 9.9 4.26 9.9ZM460 261.53s-1.23-5.76-3.69-6.64-4 1.69-4 1.69-.58-5.49-4.07-7.14-6.11 1.73-6.11 1.73-2.68-7-7.46-7-7.2 10.21-7.2 10.21-2.83-3-5.72-1.33-2.9 8.46-2.9 8.46Z" style="fill:#37474f"/><path d="M77.78 261.53H40.71s1.22-5.23 3.68-5.6A3.62 3.62 0 0 1 48 258s-.11-7.29 4.48-8.53 8.44 5.2 8.44 5.2 2.88-3.67 6.8-3.44 4.92 6.31 4.92 6.31 3.56-2.13 5.14 3.99ZM190.06 312.93H153s1.22-5.22 3.68-5.59a3.62 3.62 0 0 1 3.6 2.05s-.11-7.29 4.48-8.53 8.44 5.2 8.44 5.2 2.88-3.67 6.8-3.44 4.92 6.3 4.92 6.3 3.56-2.1 5.14 4.01ZM421.53 261.53h-22.78s.06-3.39 2.3-4.29a3.06 3.06 0 0 1 3.57.85s.91-6.23 5.08-6.23 6.17 5.38 6.17 5.38a3.21 3.21 0 0 1 3.25-1.33c2.32.31 2.41 5.62 2.41 5.62ZM111.17 261.53H134s0-3.39-2.29-4.29a3 3 0 0 0-3.57.85s-.91-6.23-5.09-6.23-6.17 5.38-6.17 5.38a3.19 3.19 0 0 0-3.25-1.33c-2.36.31-2.46 5.62-2.46 5.62Z" style="fill:#455a64"/><path d="M409.35 174.58c2.79.34 5.46-4.23 6.44-7.51.08-.26-.52-2.64-1.14-5.59-.37-1.79-.74-3.79-.95-5.64L402.41 160a29.73 29.73 0 0 1 1.91 7 3.89 3.89 0 0 1 0 .76v.13c-.07 1.4 2.33 6.35 5.03 6.69Z" style="fill:#ad6359"/><path d="M404.32 167.7v.12a6.25 6.25 0 0 0 1.19-.07c6.28-.84 7.39-8.68 7.58-11.69L402.41 160a29.73 29.73 0 0 1 1.91 7 4 4 0 0 1 0 .7Z" style="fill:#263238"/><path d="M418.29 140.74c1.24 5-1.44 17.21-5.11 20.2-5.32 4.32-13.66 4.32-17.23-2-3.47-6.12.11-21.52 4.17-24.19 5.99-3.93 16.34-1.4 18.17 5.99Z" style="fill:#ad6359"/><path d="M396.77 141.79s-.36 3 1.54 3.94c.15.08 5.94 14.69 16.44 13.89 0 0 8.14-8.68 6.37-16.87-1.14-5.3-4.69-6.9-4.69-6.9s-7.19-6.85-15.86-3.85-6.99 9.3-3.8 9.79Z" style="fill:#263238"/><path d="M421.16 168.79c13.57 8.61 37.77 33.94 35.57 40.53-4.44 13.29-22.26 31-26.94 34.45-2.72 2-22.75-16-20.16-18.52 3-2.92 21.69-18.65 21.82-20.28.09-1.25-9.41-15.13-16.34-26.89-8.04-13.63-.42-13.39 6.05-9.29Z" style="fill:#ad6359"/><path d="M412.48 223.6s-8.89 5.11-14.55 8.72c-3.16 2-8.27 6-9.91 8.5-2.45 3.8-10.3 21.27-6.11 23.26 3.8 1.8 8.64-14.06 8.64-14.06s-6.3 15.58-1.33 16.91 8-17.32 8-17.32-6.1 16.15-.76 16.71c4 .43 7.78-16.31 7.78-16.31s-5.16 13.92-1 14.54c4.57.68 9-14.55 9-14.55 10.77-.2 17.38-4.15 19.65-9.54.47-1.08-19.41-16.86-19.41-16.86Z" style="fill:#ad6359"/><path d="M392.38 244.49c-.81 1.81-1.64 3.63-2.28 5.49s-1.22 3.77-1.68 5.68a33.12 33.12 0 0 0-1.1 7.65c.46-4.57 2.66-11.3 3.3-13.17s1.19-3.76 1.83-5.62c.02-.05-.05-.07-.07-.03ZM399.17 246.69c-.93 2.35-1.94 4.64-2.77 7s-1.39 4.71-2 7.13c-.05.19.07.15.13 0 .75-2.4 1.63-4.56 2.41-6.95s1.47-4.81 2.33-7.16c-.03-.04-.09-.05-.1-.02ZM405.33 247.53a56.24 56.24 0 0 0-3.4 11.07c0 .19.1.13.16-.06 1.06-3.7 1.87-6.61 3.36-11 .03-.02-.09-.08-.12-.01Z" style="fill:#263238"/><path d="m414.11 220.8 19.76 22.51s24.92-26.62 23.93-35.61-22.9-31.18-35.09-38.77-13.63-.52-8.52 9.16 16.5 26.88 16.24 27.33-16.32 15.38-16.32 15.38Z" style="fill:#4cbeb3"/><path d="M420.3 215.16a5.1 5.1 0 0 0-1.15 1.64 5.33 5.33 0 0 0 1.64-1.15 5.69 5.69 0 0 0 1.15-1.64 5.1 5.1 0 0 0-1.64 1.15Zm25.56-13.23a5.43 5.43 0 0 0-1.15 1.64 5.1 5.1 0 0 0 1.64-1.15 5.53 5.53 0 0 0 1.16-1.64 5.26 5.26 0 0 0-1.65 1.15Zm-11.81-24.26a4.59 4.59 0 0 0-.5.87 4.38 4.38 0 0 0 .9-.51Zm1.14 15a5.26 5.26 0 0 0-1.64-1.15 5.43 5.43 0 0 0 1.15 1.64 5.33 5.33 0 0 0 1.64 1.15 5.33 5.33 0 0 0-1.15-1.65Zm10.12 22.5a5.26 5.26 0 0 0-1.65-1.15 5.43 5.43 0 0 0 1.15 1.64 5.26 5.26 0 0 0 1.65 1.15 5.43 5.43 0 0 0-1.15-1.65Zm-21.84-45.52a5.26 5.26 0 0 0-1.65-1.15 5.53 5.53 0 0 0 1.16 1.64 5.26 5.26 0 0 0 1.64 1.15 5.43 5.43 0 0 0-1.15-1.65Zm11.16 68.67a5.5 5.5 0 0 0-1.64-1.15 5.79 5.79 0 0 0 2.79 2.79 5.69 5.69 0 0 0-1.15-1.65Zm-.25-16.38a5.26 5.26 0 0 0-2 .35 5.91 5.91 0 0 0 3.95 0 5.31 5.31 0 0 0-1.95-.36Zm23.37-14.61a5.25 5.25 0 0 0-1.89-.32 5.52 5.52 0 0 0-2 .35 5.52 5.52 0 0 0 2 .35 5.73 5.73 0 0 0 1.89-.32h.07Zm-15.41-21.75-.18.06.36.13Zm-8.89 19.8a5.12 5.12 0 0 0-.35 2 5.26 5.26 0 0 0 .35 2 5.91 5.91 0 0 0 0-3.95Zm-10.23-22.59a5.75 5.75 0 0 0 0 3.95 5.52 5.52 0 0 0 .35-2 5.26 5.26 0 0 0-.35-1.96Z" style="fill:#fff"/><path d="m414.11 220.8 19.76 22.51s24.92-26.62 23.93-35.61-22.9-31.18-35.09-38.77-13.63-.52-8.52 9.16 16.5 26.88 16.24 27.33-16.32 15.38-16.32 15.38Z" style="opacity:.1"/><path d="M427.93 228c-1.42-1.48-2.81-3-4.19-4.49-.67-.72-1.34-1.44-2-2.19s-1.46-1.57-2.09-2.41a.06.06 0 0 1 .08-.09c.82.67 1.55 1.48 2.33 2.2s1.4 1.37 2.1 2.06c1.45 1.45 2.9 2.9 4.31 4.38 2.84 3 5.58 6 8.29 9.07.06.08 0 .18-.11.11-2.96-2.8-5.87-5.64-8.72-8.64Z" style="fill:#263238"/><path d="m443.94 372.53 1 37.74c0 7-.17 13.08-.54 16.24v.05a4.93 4.93 0 0 1-.52 2.15c-2.07 1.4-57.78 2.85-59.74 2.24s-.4-6.23 1.72-8S409 411.1 409 411.1l-.61-37.69Z" style="fill:#ad6359"/><path d="m445 402.79-.06 7.48c0 7-.17 13.08-.54 16.24v.05a10.4 10.4 0 0 1-.52 2.15c-2.07 1.4-57.78 2.85-59.74 2.24s-.4-6.23 1.72-8S409 411.1 409 411.1v-7.59Z" style="fill:#fff"/><path d="M405.56 411.12c3.71-.61 8.22.05 11 2.75.11.1 0 .25-.16.21a51.34 51.34 0 0 0-10.82-2.49.24.24 0 0 1-.02-.47ZM402.86 412.67c3.71-.61 8.22.05 11 2.75.11.1 0 .25-.16.21a52.76 52.76 0 0 0-10.82-2.49.24.24 0 0 1-.02-.47ZM400.16 414.22c3.71-.61 8.22.06 11 2.75.1.1 0 .25-.17.21a52.67 52.67 0 0 0-10.81-2.49.24.24 0 0 1-.02-.47Z" style="fill:#263238"/><path d="M384.05 431c2 .61 57.66-.84 59.75-2.24.8-.52 1.06-8.65 1.1-18.48v-.31l-35.94.53v.61S387.9 421.19 385.77 423s-3.69 7.4-1.72 8Z" style="fill:#37474f"/><path d="M444.9 410v.32c0 9.82-.3 18-1.1 18.47s-13 1.28-26.07 1.75c-15.61.55-32.62.83-33.69.5-2-.6-.38-6.24 1.73-8S409 411.1 409 411.1v-.6l12-.18Z" style="fill:#4cbeb3"/><path d="M384.62 428.82c9.38-.48 47.28-1.5 56.59-1.26.08 0 .08.05 0 .06-9.29.67-47.19 1.39-56.59 1.35-.19.03-.2-.14 0-.15Z" style="fill:#263238"/><path d="M420.93 410.32c-.88 6-2.21 14.89-3.2 20.18-15.61.55-32.62.83-33.69.5-2-.6-.38-6.24 1.73-8S409 411.1 409 411.1v-.6Z" style="opacity:.1"/><path d="m448.14 410.48-40.31.38s-2.29-65.64-2.46-87.52c-.2-25 1.21-100 1.21-100h30.14s8.09 16.53 3.47 35.13l-1.28 66.9Z" style="fill:#263238"/><path d="M445.15 403.42a31.1 31.1 0 0 0-3.21-.26c-1.19-.08-2.38-.17-3.57-.22-2.3-.1-4.59-.14-6.88-.15-4.63 0-9.26 0-13.89.17-2.63.08-5.26.18-7.89.33a.09.09 0 0 0 0 .17c4.59.16 9.18.24 13.77.32s9.18.18 13.76.09c1.32 0 2.64 0 3.95-.11s2.66 0 3.94-.19c.08-.01.11-.14.02-.15ZM410.73 367.19c-.47-10.85-.82-21.72-1.11-32.57q-.9-32.58-.47-65.18c.15-12.19.48-24.37.84-36.56 0-.14-.21-.13-.22 0-1.15 21.81-1.59 43.67-1.61 65.51s.42 43.46 1.5 65.16c.6 12.18 1.34 24.37 2.49 36.51 0 .1.17.1.16 0-.49-10.96-1.11-21.91-1.58-32.87Z" style="fill:#37474f"/><path d="m400.82 378.53-.31 36.47c0 7-.16 13.08-.53 16.23a.13.13 0 0 1 0 .06 4.93 4.93 0 0 1-.52 2.15c-2.08 1.4-57.79 2.85-59.75 2.24s-.39-6.23 1.72-8 23.21-11.87 23.21-11.87l.65-36.43Z" style="fill:#ad6359"/><path d="m400.58 407.52-.07 7.48c0 7-.16 13.08-.53 16.23a.13.13 0 0 1 0 .06 9.73 9.73 0 0 1-.52 2.15c-2.08 1.4-57.79 2.85-59.75 2.24s-.39-6.23 1.72-8 23.21-11.87 23.21-11.87v-7.6Z" style="fill:#fff"/><path d="M361.18 415.85c3.71-.61 8.22 0 11 2.75.11.1 0 .25-.16.21a51.34 51.34 0 0 0-10.82-2.49.24.24 0 0 1-.02-.47ZM358.48 417.4c3.71-.61 8.21.05 11 2.75.11.1 0 .25-.16.21a51.34 51.34 0 0 0-10.82-2.49.24.24 0 0 1-.02-.47ZM355.77 419c3.71-.61 8.22.05 11 2.75.11.1 0 .25-.16.21a52.61 52.61 0 0 0-10.82-2.49.24.24 0 0 1-.02-.47Z" style="fill:#263238"/><path d="M339.66 435.72c2 .61 57.67-.84 59.75-2.24.8-.52 1.06-8.65 1.1-18.48v-.31l-35.95.53v.61s-21.08 10.09-23.21 11.88-3.65 7.42-1.69 8.01Z" style="fill:#4cbeb3"/><path d="M340.23 433.55c9.39-.48 47.28-1.5 56.59-1.26.08 0 .08 0 0 .06-9.3.67-47.2 1.39-56.59 1.35-.23 0-.23-.14 0-.15ZM419.24 261.92s-16.54 52.13-16.84 61.71c-.25 8.16.79 92 .79 92l-41.86.25s3.53-85.47 4.19-94c1.22-15.91 15.16-59.61 25.13-98.53h45.14s-.4 20.38-9.67 35.13c0-.01-4.19 1.93-6.88 3.44Z" style="fill:#263238"/><path d="M401 407.88c-4.84-.14-9.85-.28-14.69-.16s-9.61.19-14.4.48c-2.72.16-5.43.25-8.14.52a.08.08 0 0 0 0 .15c4.84.28 9.69.22 14.53.18s9.6-.1 14.4-.32c2.72-.12 5.43-.26 8.14-.45.26-.02.42-.39.16-.4ZM391.81 247.9c-1.49 5-2.75 10-4.08 15.06s-2.69 10.13-4 15.2c-2.58 9.8-5.13 19.62-7.06 29.58a178.55 178.55 0 0 0-3.35 30.32c-.22 10.38 0 20.77.07 31.15s.15 20.87.33 31.3c0 1.3.06 2.6.1 3.89a.1.1 0 0 0 .2 0c.27-10.38.13-20.78.09-31.16s-.17-20.77-.08-31.15a187.48 187.48 0 0 1 2.66-30.75c1.75-10 4.21-19.84 6.77-29.65 1.45-5.59 2.92-11.19 4.37-16.78s3-11.26 4.31-16.94c.02-.19-.27-.26-.33-.07ZM408.88 262.93a37 37 0 0 0 6.22-.57 57.09 57.09 0 0 0 6-1.67 47.25 47.25 0 0 1 5.91-1 20.58 20.58 0 0 0 5.79-1.73c.08 0 .16.09.07.13a35 35 0 0 1-5.55 2.41c-2 .63-4.06.71-6.07 1.2a50.62 50.62 0 0 1-6.2 1.43 22.66 22.66 0 0 1-6.21-.1c-.06.02-.03-.1.04-.1Z" style="fill:#37474f"/><path d="M406.24 304.39c.4-1.54.77-3.09 1.19-4.63.85-3.11 1.71-6.22 2.65-9.31 1.87-6.13 3.63-12.3 5.61-18.4 1.12-3.45 2.13-7 3.44-10.35 0-.08.15 0 .14 0-.67 3.16-1.6 6.26-2.44 9.38s-1.73 6.21-2.63 9.31c-1.79 6.16-3.54 12.33-5.49 18.44-.54 1.71-1.1 3.42-1.7 5.11s-1.07 3.53-1.8 5.22c0 .09-.16.05-.15-.05.28-1.57.78-3.11 1.18-4.72Z" style="fill:#37474f"/><path d="m388.19 207.84-4.07 21.8s48.26.67 59.6-.13c0 0-11.85-46.16-24-59.39-6.1-6.62-13.25-6.12-17.82-1.49-1.19 1.17-14.96 19.37-16.41 26.37-1.27 6.09 2.7 12.84 2.7 12.84Z" style="fill:#4cbeb3"/><path d="M428.65 184.82c1.16 2.54 2.26 5.11 3.33 7.69-.17-.78-.36-1.56-.57-2.32 0-.12.13-.15.17-.05a16.39 16.39 0 0 1 .87 3.51 230.74 230.74 0 0 1 8.75 25.7c.45 1.65.91 3.3 1.29 5s.91 3.45 1.14 5.21a.08.08 0 0 1-.15 0c-.56-1.46-.94-3-1.37-4.52s-.85-2.89-1.28-4.33c-.88-3-1.77-5.89-2.69-8.83-1.83-5.8-3.84-11.54-5.88-17.26-1.17-3.28-2.46-6.51-3.73-9.75-.02-.07.09-.11.12-.05Z" style="fill:#263238"/><path d="M420.3 215.16a5.1 5.1 0 0 0-1.15 1.64 5.33 5.33 0 0 0 1.64-1.15 5.69 5.69 0 0 0 1.15-1.64 5.1 5.1 0 0 0-1.64 1.15Zm-14.8-46.31a5.1 5.1 0 0 0-1.15 1.64 5.79 5.79 0 0 0 2.79-2.79 5.1 5.1 0 0 0-1.64 1.15Zm-14 40.91a5.1 5.1 0 0 0-1.15 1.64 5.1 5.1 0 0 0 1.64-1.15 5.33 5.33 0 0 0 1.15-1.64 5.1 5.1 0 0 0-1.66 1.15Zm3.27 12.24a5.43 5.43 0 0 0-1.65-1.15 5.43 5.43 0 0 0 1.15 1.64 5.26 5.26 0 0 0 1.65 1.15 5.69 5.69 0 0 0-1.15-1.64Zm15.79-30.13a5.26 5.26 0 0 0-1.64-1.15 5.26 5.26 0 0 0 1.15 1.64 5.33 5.33 0 0 0 1.64 1.15 5.33 5.33 0 0 0-1.15-1.61Zm23.82 30a5.26 5.26 0 0 0-2 .35 5.91 5.91 0 0 0 3.95 0 5.31 5.31 0 0 0-1.95-.29Zm-11.86-23.44a5.52 5.52 0 0 0-2 .35 5.52 5.52 0 0 0 2 .35 5.29 5.29 0 0 0 2-.35 5.5 5.5 0 0 0-2-.29Zm-25.74-2.84a5.5 5.5 0 0 0-2 .35 5.75 5.75 0 0 0 3.95 0 5.31 5.31 0 0 0-1.95-.29Zm12.14 25.93a5.47 5.47 0 0 0-2 .35 5.47 5.47 0 0 0 2 .35 5.31 5.31 0 0 0 2-.35 5.52 5.52 0 0 0-2-.29Zm2-44a5.52 5.52 0 0 0-2 .35 5.75 5.75 0 0 0 3.95 0 5.5 5.5 0 0 0-1.97-.26Zm-13.1 1.76a5.75 5.75 0 0 0 0 3.95 5.52 5.52 0 0 0 .35-2 5.29 5.29 0 0 0-.37-1.86Zm23.09 49.54a4.56 4.56 0 0 0-.27 1h.54a4.56 4.56 0 0 0-.29-.91Zm-13.27-23.54a5.91 5.91 0 0 0 0 3.95 5.26 5.26 0 0 0 .35-2 5.12 5.12 0 0 0-.37-1.86Zm25.83 0a5.12 5.12 0 0 0-.35 2 5.26 5.26 0 0 0 .35 2 5.91 5.91 0 0 0 0-3.95Zm-10.23-22.59a5.75 5.75 0 0 0 0 3.95 5.52 5.52 0 0 0 .35-2 5.26 5.26 0 0 0-.37-1.86Z" style="fill:#fff"/><path d="M396.5 176.39c-7.16 10.51-13.76 23.79-22.43 38.65-9.67 16.58-17.91 33.75-19.92 37.36-2.59 4.63 26.17 7.29 27.45 3.88.83-2.18 7.54-18.7 13.63-33.79s9.41-32 11.82-42.84c2.79-12.5-5.28-11-10.55-3.26Z" style="fill:#ad6359"/><path d="M358 244.84s-1 1.59-5.3 9.72c-2.95 5.62-6.56 21.21 5.13 34.7 4.48 5.17 10.06 4.29 6.36-1.91-2.6-4.36-4.78-7.16-5.23-8.83 0 0 7.28 2.75 11 .23a84 84 0 0 0 9.3-7.28 16.89 16.89 0 0 0-1.2-1.86s4.84-7.09 3.48-13.33Z" style="fill:#ad6359"/><path d="M350.78 260.38c.77 3.23 2.52 10.07 5.9 15.17 3.75 5.66 12.5 15.55 16.64 12.74 3.05-2.06 0-6.13 0-6.13s4.48 3.32 6.82.86c2.13-2.24-.38-5.25-.38-5.25s3.06 1.55 4.7-1c2-3.08-4.77-5.82-5.47-10.66-.12-1.11-28.21-5.73-28.21-5.73Z" style="fill:#ad6359"/><path d="M362 270.59a27 27 0 0 0 11.22 11.58c.12.06.24 0 .13-.08a66.43 66.43 0 0 1-11.3-11.54s-.05.01-.05.04ZM367.82 267c1.31 2.42 6.21 8.33 11.89 10.89.13.06.24 0 .13-.09a71.51 71.51 0 0 1-12-10.84s-.04-.02-.02.04Z" style="fill:#263238"/><path d="m356.18 243.92 28.68 11.57s10.92-27.32 14.37-36.77 7.7-33.14 8.78-41.8S403 167.65 397 175s-20.54 35-21.19 35.71-19.63 33.21-19.63 33.21Z" style="fill:#4cbeb3"/><path d="M397.8 179.37a5.75 5.75 0 0 0 0 3.95 5.52 5.52 0 0 0 .35-2 5.29 5.29 0 0 0-.35-1.95Zm-16.22 36.43a5.12 5.12 0 0 0-.35 2 5.29 5.29 0 0 0 .35 2 5.91 5.91 0 0 0 0-3.95Zm15.2-20.15a5.5 5.5 0 0 0-2 .35 5.75 5.75 0 0 0 3.95 0 5.31 5.31 0 0 0-1.95-.35Zm-15.2 34.54a5.3 5.3 0 0 0-2 .34 5.31 5.31 0 0 0 2 .35 5.1 5.1 0 0 0 2-.35 5.28 5.28 0 0 0-2-.34Zm3.76 21.17a4.54 4.54 0 0 0 1.05.28c.08-.19.16-.38.23-.58a4.18 4.18 0 0 0-1.28.3Zm-18.51-4.21a5.32 5.32 0 0 0-1.87.31h-.11a3.35 3.35 0 0 0 .73.21 6.31 6.31 0 0 0 1.22.12 5.25 5.25 0 0 0 2-.34 5.07 5.07 0 0 0-1.97-.3Zm15-43.83a5.93 5.93 0 0 0-1.31-1l-.14.24a5.63 5.63 0 0 0 1 1.24A5.53 5.53 0 0 0 383 205a5.26 5.26 0 0 0-1.18-1.68ZM394.77 222a5.43 5.43 0 0 0-1.65-1.15 5.43 5.43 0 0 0 1.15 1.64 5.26 5.26 0 0 0 1.65 1.15 5.69 5.69 0 0 0-1.15-1.64ZM370 235.52a5.1 5.1 0 0 0-1.64-1.15 5.1 5.1 0 0 0 1.15 1.64 5.33 5.33 0 0 0 1.64 1.15 5.33 5.33 0 0 0-1.15-1.64Zm21.45-25.76a5.1 5.1 0 0 0-1.15 1.64 5.1 5.1 0 0 0 1.64-1.15 5.33 5.33 0 0 0 1.15-1.64 5.1 5.1 0 0 0-1.61 1.15Zm-10.92 32.47a5.1 5.1 0 0 0-1.15 1.64 5.79 5.79 0 0 0 2.79-2.79 5.1 5.1 0 0 0-1.61 1.15Zm-21.83-1.94a5.43 5.43 0 0 0-1.15 1.64 5.1 5.1 0 0 0 1.64-1.15 5.53 5.53 0 0 0 1.16-1.64 5.26 5.26 0 0 0-1.62 1.15ZM370 222a5.69 5.69 0 0 0-1.15 1.64 5.1 5.1 0 0 0 1.64-1.15 5.29 5.29 0 0 0 1.16-1.64A5.61 5.61 0 0 0 370 222Zm34.69-52.11a3.81 3.81 0 0 0-.29.57 4.22 4.22 0 0 0 .88-.51 2.88 2.88 0 0 0-.64-.03Z" style="fill:#fff"/><path d="M373 244.35c-1.89-.78-3.77-1.6-5.65-2.43-.9-.39-1.8-.78-2.69-1.2s-2-.85-2.89-1.37c-.06 0 0-.13 0-.11 1 .28 2 .72 3 1.07s1.84.69 2.75 1.05c1.91.74 3.82 1.48 5.71 2.27 3.79 1.58 7.51 3.25 11.23 5 .09 0 0 .18-.05.14-3.75-1.42-7.58-2.86-11.41-4.42ZM392.67 235.76c1.29-4 2.67-7.89 4.08-11.81.68-2 1.43-3.91 2.15-5.86a43.92 43.92 0 0 0 1.84-5.91c1.09-4 1.94-8.08 2.85-12.13l2.72-12.2c-.53 4.14-1.21 8.25-2 12.35s-1.62 8.18-2.64 12.23a45.93 45.93 0 0 1-2 6c-.76 1.94-1.49 3.89-2.29 5.81-1.47 3.85-3.04 7.76-4.71 11.52Z" style="fill:#263238"/><path d="M404.62 197.83a18.58 18.58 0 0 1 2.33-5.68 17.26 17.26 0 0 1-.94 2.93 16.12 16.12 0 0 1-1.39 2.75ZM412.83 133.67c1 .1 5.11-.47 8 3.25 2.7 3.53 3.85 14.39 4.46 16.74s3.73 2.65 4.52 5.39c.68 2.35-1 3.26-1.17 5-.11 1.35 1.29 3.34.1 5.36-1.07 1.84-3.05 1.49-4.22 2.09s-1.86 3.35-4 4.14-4.17-1.18-5.34-1.14-2.47 3.64-6.28 3.41-5-3.43-6.56-4-5.51.57-7.35-1.35-2.21-4.54-3-5.49-2.52-.75-3.58-3 1-3.67 1.25-5.61c.17-1.36-1.05-2.57-.25-4.65 1.1-2.86 4.58-2.32 5.84-5.26 1-2.3 2.92-12.27 8.87-14.84 3.99-1.78 8.71-.04 8.71-.04Z" style="fill:#263238"/><path d="M425.12 153.1a3.42 3.42 0 0 0 1.05 1.25l1.26 1a10.47 10.47 0 0 1 2.24 2.27 3.29 3.29 0 0 1 .42 2.88 4.86 4.86 0 0 1-.76 1.34 5.67 5.67 0 0 0-.91 1.46 2.8 2.8 0 0 0 .19 1.79c.19.53.39 1 .55 1.53a3.89 3.89 0 0 1 0 3 2.3 2.3 0 0 1-1 1.05 4.46 4.46 0 0 1-1.51.36c-.54 0-1.08 0-1.63.06a2.72 2.72 0 0 0-1.58.39 2.93 2.93 0 0 1 1.58-.22c.54 0 1.08.08 1.64.07a4.18 4.18 0 0 0 1.66-.31 2.62 2.62 0 0 0 1.28-1.18 4.17 4.17 0 0 0 .15-3.37c-.15-.54-.36-1.05-.53-1.55a2.28 2.28 0 0 1-.16-1.4c.31-.88 1.27-1.68 1.62-2.81a3.68 3.68 0 0 0-.57-3.34 10.61 10.61 0 0 0-2.45-2.24l-1.34-.93a3.84 3.84 0 0 1-1.2-1.1ZM398.57 139.42a48.22 48.22 0 0 0-2.39 5.35c-.39.89-.75 1.79-1.2 2.63a6.18 6.18 0 0 1-.75 1.17.92.92 0 0 1-.22.22 1.32 1.32 0 0 1-.26.18c-.2.11-.42.21-.64.31a29.42 29.42 0 0 0-2.65 1.3 5.05 5.05 0 0 0-2.1 2.19 3.23 3.23 0 0 0-.27 1.53 4.13 4.13 0 0 0 .48 1.45 6.32 6.32 0 0 1 1 2.71 6 6 0 0 0-.69-2.84 3.67 3.67 0 0 1-.36-1.34 2.6 2.6 0 0 1 .31-1.3 4.85 4.85 0 0 1 1.95-1.91 25.38 25.38 0 0 1 2.63-1.22c.22-.11.45-.22.67-.35a2.32 2.32 0 0 0 .63-.54 6.85 6.85 0 0 0 .81-1.3 23 23 0 0 0 1.14-2.72l.95-2.77a26.47 26.47 0 0 1 .96-2.75ZM390.93 166.4a5 5 0 0 1 .67 1.95c.16.68.32 1.36.52 2a10.18 10.18 0 0 0 .77 2 4.53 4.53 0 0 0 1.43 1.69 5.83 5.83 0 0 0 4.28.42c.7-.15 1.37-.33 2-.45a4.44 4.44 0 0 1 2.05 0 4 4 0 0 0-2.09-.26c-.71.06-1.4.19-2.08.27a5.88 5.88 0 0 1-3.87-.46 4.15 4.15 0 0 1-1.25-1.46 13 13 0 0 1-.84-1.86c-.25-.65-.46-1.31-.68-2-.12-.33-.24-.66-.38-1a2 2 0 0 0-.53-.84Z" style="fill:#263238"/><path d="M424.69 175.57c.43-.36-1.32-6.25-2.86-7.31s-11.27-1.16-12.41.7.38 7.81 1.08 7.92 2.56 0 2.92-.46-.7-4.14-.15-4.81c.71-.88 6.22-.78 6.74-.21s1.11 3.89 1.21 4.1 2.78.65 3.47.07Z" style="fill:#4cbeb3"/><path d="M396.19 228.32c2 4.09 9.21 9.47 13.49 10.27s32.65 4.91 37.28-1c4.22-5.38-3.41-44.38-11.37-56.82a13.15 13.15 0 0 0-2.17-2.68l-.17-.15c-7.62-6.4-23-3.2-24.9-2.68a14.46 14.46 0 0 0-9.45 9c-2.22 5.74-4.76 39.98-2.71 44.06Z" style="fill:#455a64"/><path d="M412.37 226c.41 2.86 4.85 9.65 10.14 11.4s24.45.2 28.78-3.51a4.29 4.29 0 0 0 1-2.47c1.51-8.59-3.57-34.7-9.57-42.67a7.09 7.09 0 0 0-2-1.92 16.62 16.62 0 0 0-2.79-1.27 32.33 32.33 0 0 0-16.67-.93c-3.35.76-6.09 2.15-7.36 4.2-3.17 5.17-1.9 34.29-1.53 37.17Z" style="fill:#4cbeb3"/><path d="M412.37 226c.41 2.86 4.85 9.65 10.14 11.4s24.45.2 28.78-3.51a4.29 4.29 0 0 0 1-2.47 26.14 26.14 0 0 1-11.22 3.35 48.21 48.21 0 0 1-8.58-.12 15.3 15.3 0 0 1-8-2.72c-4.35-3.4-5.81-9.81-6.35-15.16a91.36 91.36 0 0 1 .42-17.65 69.7 69.7 0 0 1 2.75-14.49c-3.35.76-6.09 2.15-7.36 4.2-3.22 5.17-1.95 34.29-1.58 37.17Z" style="opacity:.1"/><path d="M416.08 214.54h1.3c-.27-6-.29-22.33 2.73-25.46s14.3-3.39 19-1.86a22 22 0 0 1 3.67 1.56 7 7 0 0 0-2-1.92 16.15 16.15 0 0 0-2.78-1.27c-5.7-1.21-15.77-.58-18.83 2.59-4.02 4.11-3.17 25.46-3.09 26.36Z" style="fill:#263238"/><path d="m400.78 209.21 1.3.06c1.15-24.21 2.31-25.08 7.17-28.76l.17-.13c4.74-3.59 15.82-3 20.14-2.15a16.11 16.11 0 0 1 6 2.52 13.15 13.15 0 0 0-2.17-2.68 17.22 17.22 0 0 0-3.6-1.11c-3-.59-15.55-1.89-21.18 2.38l-.17.13c-5.1 3.88-6.44 4.93-7.66 29.74Z" style="fill:#263238"/><path d="M392.72 227.55c.67 3.17 8 9.57 11.58 11 .73.29 6.86 1.62 7.18-.85v-.5c.62-6.48-1.87-20.58-2.5-22.48-.74-2.24-7.63-6.56-11.76-7.49a4.43 4.43 0 0 0-2.24-.07c-2.98.97-2.68 18.39-2.26 20.39Z" style="fill:#37474f"/></svg>