<svg xmlns="http://www.w3.org/2000/svg" width="1625" height="1034" fill="none"><g fill="#F8D948" opacity=".4"><path d="M1346.94 521.312c17.55 0 34.77 1.872 51.57 7.205 41.95 13.322 73.52 39.839 97.37 76.196 8.69 13.228 15.34 27.375 18.8 42.882 3.89 17.452 4.29 35.081 1.28 52.638-8.54 49.992-33.77 89.842-74.13 120.312-20.37 15.371-42.9 26.078-68 31.108-16.25 3.262-32.6 3.659-49.09 2.06-28.28-2.74-54.65-11.471-79.28-25.42-23.34-13.217-42.8-30.7-57.14-53.558-10.97-17.462-17.1-36.545-19.07-57.019-2.85-29.707.81-58.535 12.38-86.109 17.36-41.345 46.7-71.449 86.94-91.023 12.5-6.075 25.38-11.084 39.17-13.5 6.99-1.223 13.87-3.168 20.88-4.234 6.03-.921 12.2-1.057 18.32-1.538Zm-60.24 19.387c-6.44 2.969-12.9 5.636-19.09 8.846-37.53 19.491-64.61 48.633-80.22 88.033-9.87 24.938-13.06 50.933-10.76 77.628 1.72 20.004 7.5 38.679 18.24 55.723 12.74 20.223 29.81 36.054 50.17 48.319 24.29 14.639 50.55 23.715 78.8 26.758 17.32 1.861 34.56 1.37 51.61-2.457 25.03-5.615 47.24-16.981 67-33.137 40.7-33.262 64.45-75.547 67.55-128.509 1.14-19.533-2.28-38.396-10.96-56.068-11.28-23.014-26.96-42.568-46.59-59.079-34.39-28.922-74.01-40.78-118.58-36.942-.7.062-1.39.334-2.02.491-.82 4.664-1.77 5.301-6.16 4.224-.24-.062-.46-.167-.7-.219-4.87-1.025-9.83-1.6-14.53.23-4.32 1.673-8.41 3.952-12.54 6.075-1.74.889-3.28 2.165-5 3.106-2.19 1.202-3.54.847-5.07-1.14-.35-.481-.62-1.014-1.15-1.882Z"/><path d="M1346.88 802.811c-4.86.177-10-.732-14.93-2.876-6.6-2.875-11.23-7.738-14.38-14.116-1.84-3.744-1.93-7.623-.42-11.429 2.87-7.267 6.6-13.959 13.3-18.529 1.07-.721 2.1-1.558 3.25-.47 1.32 1.254.48 2.457-.43 3.534-.39.46-.82.93-1.32 1.276-5.21 3.565-7.79 9.013-10.32 14.482-1.79 3.858-1.37 7.539.82 11.209 4.51 7.55 11.29 11.439 19.82 12.38 7.02.774 13.94-.167 20.77-1.944 5.61-1.464 9.08-5.009 10.91-10.415 3.27-9.651 1.53-18.633-3.55-27.145-3.13-5.228-7.36-9.494-12.29-13.039-3.94-2.844-8.19-4.496-13.08-2.342-1.2.533-2.43.345-2.61-.962-.12-.826.58-2.207 1.33-2.615 3.04-1.683 6.4-1.547 9.68-.794 1.65.376 3.32 1.025 4.75 1.934 12.11 7.696 20.18 18.153 21.64 32.834.6 6.106-.7 11.972-3.5 17.441-2.5 4.893-6.66 7.779-11.85 9.191-5.6 1.506-11.29 2.405-17.59 2.395ZM1218.46 735.273c.23-6.891 2.62-12.694 6.82-17.734 4.12-4.925 9.46-4.675 14.81-3.012.65.199.99 1.422 1.47 2.165-.76.46-1.49 1.254-2.27 1.317-1.19.094-2.41-.345-3.61-.533-2.59-.387-5.02.115-6.71 2.133-4.61 5.479-7.2 11.701-5.78 18.968 1.26 6.441 5.99 9.212 12.29 7.413 4.32-1.233 7.68-3.753 9.66-7.873.74-1.548 1.4-3.127 1.99-4.737.6-1.6 1.1-3.179.2-4.956-.28-.565.19-1.893.76-2.384.39-.356 1.66-.136 2.28.24 1.49.899 2.09 2.457 1.82 4.13-1.46 8.857-5.96 17.327-16.05 19.889-8.73 2.216-16.01-2.709-17.35-11.638-.19-1.203-.24-2.437-.33-3.388ZM1230.26 610.088c-1.72.073-2.68-1.161-2.12-2.478.48-1.098 1.26-2.091 2.01-3.043 7.01-8.752 15.12-16.385 23.84-23.38 5.64-4.518 11.46-8.826 17.23-13.155 1.16-.878 2.47-1.641 3.83-2.122.59-.209 1.8.219 2.14.732.31.502.05 1.61-.32 2.237-.33.575-1.16.847-1.76 1.276-14.01 9.986-27.29 20.798-38.75 33.691-1.47 1.652-2.86 3.367-4.36 4.977-.55.585-1.33.972-1.74 1.265ZM1243.48 671.928c.67-1.14 1.03-2.102 1.69-2.75.43-.429 1.39-.69 1.94-.513.55.178 1.12.962 1.25 1.579.65 3.263-2.47 6.462-5.76 5.762-1.5-.324-3.01-1.088-4.27-2.008-5.13-3.754-9.16-8.574-11.97-14.231-4.25-8.585 1.47-20.327 10.86-22.46 2.06-.461 4.36-.021 6.5.292.85.126 1.78.921 2.29 1.673.39.565.51 1.768.15 2.28-.33.491-1.7.878-2.15.585-4.78-3.042-8.2-.501-11.3 2.74-3.38 3.545-4.89 7.821-2.68 12.475 2.6 5.5 6.45 10.101 11.47 13.635.49.345 1.08.523 1.98.941ZM1273.96 750.308c.37-4.831 3.31-9.097 8.22-12.087.59-.366 1.42-.638 2.08-.544.62.084 1.45.575 1.66 1.108.21.523-.09 1.402-.45 1.945-.3.46-1.06.586-1.51.983-1.21 1.035-2.53 1.987-3.48 3.221-3.87 4.998-3.36 9.233 1.74 12.893 2.26 1.62 4.81 2.938 7.41 3.942 2.84 1.098 4.11.23 4.76-2.709.26-1.192.08-2.509.49-3.618.28-.742 1.18-1.516 1.95-1.704.43-.105 1.51.889 1.66 1.537.73 3.242.36 6.431-1.85 9.014-2.05 2.394-4.84 2.624-7.77 1.798-4.98-1.412-9.13-4.141-12.54-7.978-1.75-1.976-2.38-4.11-2.37-7.801ZM1423.31 801.274c-.64-.377-1.41-.555-1.6-.994-.25-.585-.31-1.495-.01-2.007.41-.701 1.23-1.151 1.88-1.705 6.78-5.803 13.72-11.45 20.28-17.483 3.48-3.2 6.34-7.089 9.46-10.686.87-1.015 1.63-2.144 2.51-3.148.81-.941 2.02-1.328 2.89-.408.49.523.35 1.726.31 2.604-.02.429-.42.868-.72 1.255-2.72 3.45-5.07 7.319-8.26 10.258-7.55 6.953-15.5 13.478-23.31 20.128-1.03.847-2.25 1.433-3.43 2.186Z"/><path d="M1360.94 760.054c-.5 6.42-2.65 13.394-6.5 19.762-2.66 4.392-7.84 6.149-12.06 4.528-3.83-1.464-5.84-4.925-5-8.7.15-.69.4-1.495.88-1.945.45-.407 1.32-.606 1.94-.502.42.074.84.795 1.04 1.308.15.418-.01.951-.02 1.443-.11 3.816 2.63 5.824 6.21 4.517 1.94-.711 3.23-2.133 4.14-3.953 2.37-4.737 4.09-9.693 4.86-14.932.3-2.028.56-4.088-.78-6.012-.33-.46-.07-1.935.36-2.185.69-.387 1.87-.44 2.63-.115 1.73.752 2.33 2.551 2.3 6.786ZM1194.98 688.187c1.09-7.017 2-14.064 3.32-21.039 1.22-6.493 2.87-12.903 4.38-19.334.31-1.296.71-2.656 1.44-3.743.41-.638 1.56-.795 2.37-1.161.36.816 1.07 1.663 1 2.437-.12 1.307-.87 2.551-1.12 3.858a8605.691 8605.691 0 0 0-6.01 32.112c-.47 2.53-.84 5.071-1.3 7.602-.23 1.275-.7 2.426-2.26 2.436-1.16 0-1.69-1.077-1.82-3.168ZM1356.5 828.941c-6.81-.785-13.62-1.485-20.41-2.384-2.79-.366-4.01-1.538-3.46-2.813.9-2.05 2.74-1.203 4.2-.973 8.62 1.36 17.29 1.903 26.01 1.412 4.14-.23 7.96-1.328 11.41-3.639 1.3-.868 2.66-2.175 4.14-.397.86 1.024.16 2.394-1.81 3.879-3.75 2.823-8.09 4.036-12.68 4.35-2.44.167-4.9.031-7.34.031-.03.168-.04.345-.06.534ZM1195.83 723.321c-.08-.973-.21-1.945-.24-2.928-.04-1.36-.15-2.949 1.67-3.137 1.84-.188 2.06 1.359 2.21 2.739.3 2.918.46 5.856.89 8.752.84 5.553 1.77 11.105 2.77 16.626.79 4.298 2.48 8.177 5.7 11.283.42.418.94.93 1.02 1.464.11.637.01 1.558-.4 1.965-.39.408-1.4.617-1.94.408-.88-.334-1.68-1.004-2.38-1.662-2.94-2.782-4.81-6.232-5.53-10.154-1.55-8.407-2.87-16.855-4.29-25.283.19-.021.36-.042.52-.073ZM1285.81 695.913c-7.13-.031-10.15-4.621-7.13-10.362 1.22-2.3 3.22-4.287 5.17-6.065.99-.899 2.66-1.244 4.07-1.39.69-.073 1.5.899 2.24 1.401-.5.732-.89 1.945-1.53 2.102-3.03.742-4.89 2.718-6.21 5.322-1.68 3.304-.6 4.925 3.09 4.705.83-.052 1.71-.24 2.48-.585 1.94-.868 2.38-1.788 1.81-4.016-.32-1.192-.48-2.436.85-2.718.86-.188 2.16.293 2.86.92 1.59 1.422 1.67 4.005.39 6.107-1.99 3.22-5.06 4.485-8.09 4.579ZM1251.62 796.852c.63.366 1.21.606 1.67.982 7.6 6.065 16.11 10.687 24.7 15.141.86.45 1.81.91 2.41 1.632.45.543.8 1.829.49 2.185-.51.596-1.56.816-2.43.993-.39.074-.9-.313-1.34-.543-8.61-4.434-17.06-9.139-24.7-15.152-.86-.679-1.75-1.401-2.35-2.29-.31-.47-.22-1.432.05-2.018.21-.429.96-.606 1.5-.93ZM1388.43 743.596c2.76-1.056 3.67-3.043 4.07-5.228.37-2.008-1.39-3.942-3.68-4.277-.96-.136-2.01.199-2.91-.063-.81-.23-1.45-.993-2.17-1.526.54-.711.94-1.767 1.66-2.071 4.43-1.882 10.14 1.401 11.04 6.222.66 3.545-1.79 8.668-4.95 10.373-2.29 1.234-5.14.888-6.61-1.203-1.01-1.453-1.71-3.241-2.1-4.988-.17-.773.55-2.195 1.27-2.614 1.2-.679 1.96.44 2.47 1.496.61 1.265 1.24 2.52 1.91 3.879ZM1235.54 735.011c1.23-1.276 2.6-2.468 3.68-3.88 1.2-1.547 1.58-3.304.3-5.082-.79-1.087-1.25-2.31.03-3.22 1.36-.962 2.57-.188 3.51.92 1.56 1.819 1.92 3.973 1.3 6.211-1.03 3.733-3.51 6.462-6.76 8.355-2.93 1.694-6.78-.335-7.77-3.817-.87-3.043.92-7.821 3.69-9.317.69-.376 1.77-.041 2.67-.041-.03.888.2 1.882-.14 2.624-.48 1.088-1.49 1.935-2.04 3.001-.88 1.746-.69 2.123 1.53 4.246ZM1293.63 614.763c-.75-3.618-2.61-6.567-4.96-9.233-1.62-1.83-3.57-1.809-5.69-.889-1.29.564-2.76 1.579-3.76-.377-.63-1.223.32-2.405 2.57-3.325 3.01-1.223 6.1-1.38 8.65.816 3.89 3.346 6.51 7.623 7.38 12.725.62 3.639-1.67 5.73-5.14 4.998-1.24-.261-2.45-.731-2.53-2.206-.09-1.579 1-2.049 2.38-2.122.32-.032.65-.231 1.1-.387ZM1493.99 676.036c-.15-2.928-.31-5.856-.44-8.783-.04-.847-.1-1.736.1-2.531.13-.481.76-1.119 1.2-1.14.63-.031 1.58.262 1.84.722.46.805.65 1.84.68 2.781.22 7.069.38 14.148.54 21.217.03 1.296-.17 2.561-1.81 2.645-1.38.073-1.88-.972-2.03-2.144-.19-1.443-.37-2.906-.41-4.36-.06-2.802-.02-5.615-.02-8.417.11.01.22.01.35.01ZM1460.03 706.914c1.66-3.42.93-6.347-.77-9.526-.57.481-1 .826-1.39 1.213-.82.773-1.84 1.119-2.55.177-.49-.658-.76-1.861-.52-2.624.91-2.855 5.09-3.681 7.28-1.569 3.03 2.897 3.89 11.032 1.54 14.472-1.16 1.694-3.43 2.614-5.46 2.144-1.09-.251-2.2-.617-2.26-2.008-.06-1.401.89-1.882 2.08-2.06.61-.084 1.21-.125 2.05-.219ZM1471.19 743.104c-1.5.063-2.4-.941-2.06-2.143.15-.555.49-1.14.92-1.527 4.92-4.486 7.59-10.467 10.87-16.051.55-.941 1.06-1.976 1.83-2.708.4-.376 1.49-.471 1.99-.199.48.262.78 1.151.84 1.799.05.554-.29 1.181-.58 1.704-2.68 4.674-5.27 9.401-8.14 13.96-1.08 1.715-2.8 3.042-4.29 4.485-.41.387-1.07.534-1.38.68ZM1597.92 137.622c.17-7.519-.2-15.016-2.03-22.335-.64-2.552-1.79-5.009-2.97-7.383-1.93-3.827-5.33-5.447-9.46-5.092-3.66.314-7.28 1.098-10.91 1.694-.36.063-.71.272-1.08.345-1.26.251-2.51-.042-2.78-1.317-.17-.785.39-1.872.91-2.615.4-.564 1.28-.773 1.93-1.181 3.23-2.018 6.55-3.921 9.67-6.117 5.9-4.162 9.43-9.944 10.58-17.034.36-2.31.08-4.789-.31-7.131-.49-3.001-1.37-5.94-2.12-8.899-.4-1.578-.08-2.77 1.58-3.356 1.83-.648 3.33-.105 3.87 1.882.79 2.928 1.55 5.929 1.75 8.94.2 3.085.96 5.825 3.08 7.979 4.01 4.078 8.04 8.156 12.33 11.92 1.85 1.631 4.37 2.52 6.62 3.68 1.02.524 2.14.816 3.19 1.297 1.54.711 3 1.61 3.01 3.556.01 1.86-1.52 2.446-2.91 3.136-6.05 3.033-10.28 7.78-13.02 13.918-2.57 5.762-3.53 11.92-4.48 18.079-.69 4.517-1.14 9.076-1.67 13.625-.37 3.116-1.22 4.433-2.91 4.026-2.46-.607-1.81-2.688-1.84-4.382-.06-2.405-.03-4.82-.03-7.235ZM1197.57 912.538a230.09 230.09 0 0 1-10.52 4.047c-3.12 1.014-6.49 1.328-9.66.596-3.18-.659-6.07-2.279-8.39-4.35-2.37-2.154-3.91-4.684-5.08-7.717a237.206 237.206 0 0 0-4.14-9.076 2.438 2.438 0 0 0-4.52 1.799l.04.136c1.28 3.973 2.83 8.25 3.96 11.941.98 3.565.74 7.403-.5 10.895a17.66 17.66 0 0 1-6.92 8.585l-11.01 6.169-.1.063c-.82.46-1.2 1.464-.85 2.353a1.903 1.903 0 0 0 2.47 1.087c3.93-1.526 7.95-3.356 11.76-4.768 3.79-1.234 8.07-1.255 11.9.23 3.84 1.412 7.18 4.183 9.21 7.738 1.91 3.66 3.56 7.706 5.32 11.554a1.461 1.461 0 0 0 1.74.795c.77-.23 1.21-1.035.99-1.809l-.04-.146-3.56-12.119c-.84-3.712-.64-7.602.66-11.189 1.33-3.555 3.65-6.807 6.85-9.17 3.39-2.248 7.23-4.433 10.83-6.661l.06-.042a.546.546 0 0 0 .21-.669.548.548 0 0 0-.71-.272ZM1244.21 936.776c2.64.105 4.22-.857 5.03-2.719.94-2.195.73-4.025-1.08-5.531-1.77-1.485-3.73-2.802-5.71-3.974-1.78-1.045-4.55-.261-6.07 1.433-1.43 1.579-1.66 3.482-.41 5.396 2.05 3.157 5.15 4.726 8.24 5.395ZM1298.62 992.96c.52-.021 1.05 0 1.58-.052 3.26-.356 5.72-2.447 6.31-5.365.31-1.579.01-3.001-1.35-3.963-1.1-.784-2.24-1.6-3.49-2.091-.9-.356-2.09-.46-3.02-.199-2.26.628-3.79 2.238-4.92 4.256-1.11 1.956-.86 3.723.43 5.406 1.09 1.454 2.65 1.997 4.46 2.008ZM1104.55 837.137c1.96.095 3.54-.418 4.56-1.526 3.15-3.378 1.89-7.1-1.22-8.982-2.75-1.673-7.35-.22-9.17 2.405-1.12 1.62-1.16 3.126.05 4.695 1.56 2.018 3.68 3.147 5.78 3.408ZM1622.21 464.785c-2.23-2.364-4.64-2.688-7.25-1.255-2.3 1.265-3.51 4.067-2.81 6.493 1.11 3.817 5.48 6.18 9.25 4.988 1.79-.565 2.83-1.83 2.94-3.723.15-2.582-.44-4.935-2.13-6.503ZM1353.17 476.462c2.2-1.443 2.95-3.137 2.52-5.123-.5-2.343-1.73-3.702-4.08-3.89-2.31-.188-4.66-.136-6.96.063-2.05.177-3.86 2.415-4.12 4.674-.26 2.112.66 3.795 2.79 4.642 3.49 1.381 6.93.868 9.85-.366ZM1168.12 446.266c-2.71 1.808-3.43 4.119-2.45 6.932.87 2.478 3.42 4.151 5.93 3.859 3.96-.45 7.02-4.371 6.48-8.271-.26-1.862-1.33-3.106-3.17-3.524-2.54-.575-4.96-.387-6.79 1.004ZM1045.53 700.054c2.59.544 4.31-.136 5.41-1.84 1.3-2.008 1.4-3.838-.12-5.636-1.5-1.767-3.2-3.388-4.97-4.873-1.58-1.328-4.44-1.014-6.22.398-1.67 1.317-2.2 3.157-1.3 5.259 1.47 3.451 4.26 5.511 7.2 6.692ZM936.03 547.965c-3.192-.627-5.347.492-6.645 3.168-1.141 2.364-.513 5.354 1.465 6.923 3.118 2.467 8.047 1.871 10.433-1.276 1.13-1.495 1.255-3.137.251-4.737-1.371-2.196-3.223-3.775-5.504-4.078ZM1026.75 963.661c1.96.094 3.54-.418 4.56-1.527 3.15-3.388 1.89-7.1-1.22-8.982-2.75-1.673-7.35-.22-9.17 2.405-1.12 1.621-1.16 3.127.05 4.695 1.57 2.029 3.68 3.158 5.78 3.409Z"/></g><g opacity=".4"><path fill="#F8D948" d="M307.704 617.868c3.721.02 11.141-.014 18.566.151 3.416.077 6.757.791 10.236-.012 1.823-.424 4.218.256 6.017 1.185 14.282 7.513 27.849 16.078 36.906 30.839 7.192 11.84 11.642 24.464 11.732 38.439.046 6.269-.951 12.213-2.909 17.906-9.319 27.211-26.99 44.295-53.019 51.61-11.743 3.242-23.697 5.35-36.436 2.593-22.554-4.735-40.753-16.268-52.53-37.133-1.787-3.142-3.128-6.546-4.347-9.899-1.749-4.793-3.46-9.627-4.693-14.518-.944-3.762-2.512-7.791.982-11.121.871-.833.634-2.798.833-4.256 4.3-32.322 31.654-59.882 68.662-65.784Zm-15.91 10.516c-1.272.381-2.119.478-2.799.863-5.461 3.106-10.936 6.18-16.303 9.384-5.967 3.551-8.776 9.543-11.482 15.466-.812 1.772-1.092 3.879-1.243 5.87-.399 5.424 1.771 9.238 6.921 11.673 2.981 1.415 6.195 2.376 9.366 3.283 7.186 2.091 12.986 6.183 17.151 12.515a64.505 64.505 0 0 1 5.029 9.304c4.857 11.047 8.737 13.096 19.695 10.517 5.835-1.38 11.73-2.709 17.723-3.408 13.723-1.601 26.384 7.131 31.315 21.221.633 1.825.994 3.693-.919 4.6-1.873.885-3.202-.379-4.229-2.108-1.864-3.13-3.663-6.297-5.621-9.36-2.482-3.861-5.908-6.008-10.155-7.287-6.292-1.882-12.139-.753-18.036.402-4.747.932-9.413 2.217-14.209 2.886-7.591 1.062-14.261-2.58-18.294-9.629-.882-1.525-1.615-3.152-2.245-4.794-3.984-10.417-10.679-17.511-21.887-20.159-9.366-2.17-16.245-7.373-17.644-17.574-.015-.094-.236-.172-.723-.505-.666 1.035-1.437 2.008-1.988 3.104-4.878 9.753-7.078 20.15-6.68 31.186.291 8.007 2.246 10.661 10.123 13.664 2.277.872 4.642 1.521 6.991 2.069 3.198.746 6.424 1.34 9.649 1.925 6.202 1.139 11.445 4.056 15.665 9.064 1.937 2.318 4.022 4.526 6.046 6.787 3.355 3.76 7.315 5.318 12.065 4.961 4.663-.353 9.391-.403 14.11-.399 6.357.018 10.934 4.022 15.055 8.785 1.19 1.381 1.369 3.033.139 4.244-1.262 1.232-2.746.759-4.095-.467-.933-.847-1.828-1.734-2.74-2.611-2.716-2.623-5.738-4.136-9.371-3.935-4.006.215-8.069.118-12.053.417-6.685.503-12.403-1.774-17.195-7.102-2.271-2.51-4.559-5.008-6.776-7.561-2.554-2.918-5.617-5.035-9.26-5.842-8.228-1.798-16.553-2.989-24.951-7.268.48 1.571.658 2.378.977 3.138 7.62 18.162 21.65 29.475 39.847 36.187 13.765 5.208 27.072 4.517 40.23 1.307 23.294-5.757 41.084-18.786 50.873-42.37 5.33-12.879 5.758-10.134-2.955-23.243-.101-.149-.211-.297-.313-.447-1.841-2.759-4.372-4.645-7.388-4.671-4.201-.033-8.393.438-12.538.989-3.506.46-6.909 1.469-10.409 1.972-5.772.83-10.604-1.628-13.933-6.619-1.94-2.892-3.26-6.386-4.134-9.758-3.41-13.213-8.615-16.614-17.645-17.521-4.853-.479-9.485-2.211-13.473-5.402-4.342-3.449-6.556-7.761-5.731-13.304.183-1.282.266-2.592.447-4.439Zm6.203-2.151c-.249 2.032-.33 3.576-.628 5.076-1.265 6.23.225 9.645 6.222 12.096 3.508 1.446 7.336 2.216 11.071 2.774 6.499.979 11.488 4.284 14.704 10.111 1.873 3.416 3.394 7.139 4.397 10.891 2.976 11.096 6.155 13.394 16.598 11.252 4.292-.887 8.517-2.207 12.883-2.627 7.54-.715 14.27 1.465 18.931 8.912.58.928 1.498 1.62 2.903 3.099-.071-2.409-.012-3.82-.16-5.216-1.139-10.372-4.792-19.839-10.152-28.752-8.401-13.845-21.137-21.721-34.389-28.882-1.359-.728-2.987-1.179-4.502-1.238a428.505 428.505 0 0 0-18.031-.348c-6.732.04-13.481.135-19.847 2.852ZM205.253 902.393c8.584-1.33 13.617-7.139 16.981-14.754 2.809-6.363 3.244-13.149 3.065-19.989-.289-11.208-2.512-22.15-4.685-33.105-1.754-8.858-3.194-17.776-4.75-26.662-.122-.698-.264-1.471-.065-2.106.218-.694.778-1.705 1.285-1.774.734-.087 1.76.361 2.283.93.575.626.831 1.618 1.03 2.499.735 3.269 1.554 6.522 2.039 9.824 2.038 13.982 4.682 27.832 9.244 41.231 2.513 7.373 6.261 14.055 11.926 19.564 4.247 4.127 9.197 6.47 15.138 6.977 5.008.426 9.917.041 14.817-.957 1.09-.221 2.211-.522 3.3-.458.663.04 1.525.578 1.861 1.146.22.376-.154 1.541-.574 1.765-1.019.54-1.109 1.119-.977 2.179.183 1.404-.588 2.037-2.119 2.309-5.25.925-9.71 3.319-13.006 7.666-3.772 4.979-6.209 10.525-6.41 16.801-.232 7.39-.377 14.801-.11 22.188.323 8.914 1.122 17.804 1.711 26.708.031.5.215 1.101.01 1.488-.289.57-.805 1.284-1.337 1.395-.531.112-1.409-.288-1.767-.742-.47-.602-.615-1.481-.847-2.256-2.642-8.746-5.112-17.549-7.965-26.219-1.738-5.284-3.86-10.47-6.165-15.544-4.084-8.99-11.356-13.439-21.135-13.947-5.171-.274-10.334-.515-15.445.72a11.46 11.46 0 0 1-3.32.32c-.589-.033-1.375-.485-1.673-.983-.531-.888 1.383-4.549 2.429-4.866.874-.259 1.776-.419 2.659-.646.817-.208 1.594-.432 2.572-.702Zm6.189 1.92.136.489c2.224.072 4.452.125 6.675.224 10.456.472 18.421 5.007 23.428 14.366 3.46 6.476 5.891 13.362 8.055 20.349.581 1.874 1.056 3.786 1.581 5.684l.775-.134c-.038-1.364-.101-2.72-.103-4.085-.018-8.615-.511-17.269.092-25.833.84-11.806 5.956-21.315 16.881-26.505-3.538-.11-7.382-.136-11.207-.381-6.005-.382-11.122-2.849-15.575-6.847-4.522-4.058-7.958-8.899-10.66-14.31-.742-1.49-1.478-2.991-2.215-4.491-.477 1.372-.45 2.632-.406 3.887.228 7.665-.268 15.227-3.359 22.381-2.34 5.413-5.731 10.027-10.72 13.317-1.08.709-2.256 1.266-3.378 1.889ZM500.106 496.703c-3.291-.226-6.573-.567-9.846-.954-2.844-.427-5.605-1.502-7.814-3.325-2.234-1.767-3.863-4.176-4.878-6.716-1.009-2.62-1.23-5.214-.951-8.052.155-2.914.266-5.83.317-8.745a2.128 2.128 0 0 0-1.806-2.147 2.127 2.127 0 0 0-2.439 1.781l-.015.125c-.568 3.614-1.028 7.585-1.595 10.929-.634 3.189-2.322 6.099-4.677 8.355a15.5 15.5 0 0 1-8.8 4.027l-11.054.514-.112.009a1.677 1.677 0 0 0-1.591 1.519 1.687 1.687 0 0 0 1.513 1.827c3.684.348 7.563.492 11.105.88 3.451.523 6.827 2.19 9.236 4.853 2.455 2.62 3.982 6.108 4.184 9.689.068 3.619-.231 7.452-.366 11.164a1.278 1.278 0 0 0 2.533.275l.023-.134 1.97-10.918a17.609 17.609 0 0 1 4.912-8.531c2.44-2.27 5.536-3.91 8.977-4.508 3.537-.43 7.412-.642 11.112-.976h.061a.468.468 0 0 0 .428-.441.45.45 0 0 0-.427-.5ZM439.426 898.736a17.575 17.575 0 0 1 1.174-9.776c1.354-3.04 3.557-5.769 6.481-7.67 3.091-1.788 6.567-3.496 9.837-5.251l.057-.026c.2-.11.302-.352.223-.575a.465.465 0 0 0-.602-.289c-3.112 1.086-6.269 2.057-9.432 2.986-2.778.72-5.749.818-8.486.009-2.746-.747-5.194-2.324-7.115-4.261-1.959-2.01-3.18-4.309-4.031-7.032a260.642 260.642 0 0 0-3.137-8.172 2.133 2.133 0 0 0-2.504-1.263 2.135 2.135 0 0 0-1.545 2.6l.029.126c.902 3.55 2.03 7.378 2.823 10.676.669 3.177.259 6.522-1.022 9.525a15.521 15.521 0 0 1-6.519 7.154l-9.965 4.818-.096.05a1.675 1.675 0 0 0-.868 2.024 1.674 1.674 0 0 0 2.109 1.082c3.524-1.133 7.147-2.517 10.563-3.554 3.38-.876 7.14-.661 10.403.841 3.289 1.437 6.056 4.052 7.654 7.267M443.631 572.808c2.301-.263 3.539-1.309 3.983-3.041.519-2.031.094-3.584-1.684-4.656-1.74-1.051-3.608-1.926-5.491-2.669-1.688-.659-3.978.394-5.068 2.062-1.017 1.568-.956 3.248.374 4.738 2.22 2.456 5.117 3.397 7.886 3.566ZM585.726 999.018c1.703-.187 3.003-.842 3.754-1.943 2.27-3.357.672-6.407-2.268-7.62-2.605-1.074-6.395.806-7.622 3.321-.758 1.555-.588 2.869.678 4.064 1.617 1.55 3.605 2.241 5.458 2.178ZM310.109 476.745c-2.834.364-4.309 1.899-4.636 4.492-.296 2.292 1.065 4.596 3.15 5.35 3.284 1.185 7.213-.69 8.321-3.97.522-1.562.165-2.96-1.114-4.014-1.765-1.439-3.736-2.246-5.721-1.858ZM326.653 1023.6c-2.266-1.75-4.392-1.7-6.459-.11-1.825 1.42-2.501 4-1.56 6.02 1.476 3.15 5.594 4.61 8.689 3.07 1.478-.73 2.208-1.97 2.045-3.62-.212-2.26-1.041-4.23-2.715-5.36ZM347.115 441.36c1.703-.187 3.002-.843 3.753-1.943 2.271-3.358.673-6.407-2.267-7.62-2.605-1.074-6.395.806-7.622 3.321-.758 1.555-.588 2.869.678 4.064 1.624 1.54 3.605 2.241 5.458 2.178ZM114.535 628.277c1.818 1.44 3.431 1.571 4.971.67 1.809-1.066 2.599-2.478 2.104-4.481-.49-1.969-1.185-3.915-1.997-5.773-.721-1.663-3.085-2.531-5.041-2.121-1.828.389-2.976 1.622-3.083 3.615-.183 3.292 1.207 6.009 3.046 8.09ZM88.041 465.941c-2.265-1.745-4.391-1.701-6.458-.107-1.825 1.416-2.501 4.002-1.56 6.014 1.475 3.156 5.594 4.612 8.688 3.076 1.479-.736 2.208-1.972 2.046-3.627-.214-2.265-1.042-4.225-2.716-5.356ZM635.505 593.084c1.082-2.049.918-3.66-.25-5.01-1.378-1.578-2.905-2.106-4.791-1.246-1.845.836-3.632 1.881-5.309 3.022-1.495 1.016-1.927 3.495-1.16 5.343.713 1.725 2.133 2.627 4.122 2.369 3.275-.433 5.684-2.288 7.388-4.478ZM658.316 431.169c2.306-.168 3.596-1.161 4.113-2.87.61-2.01.243-3.581-1.476-4.723-1.689-1.12-3.519-2.08-5.38-2.904-1.655-.734-3.987.222-5.144 1.847-1.086 1.519-1.094 3.2.175 4.752 2.096 2.554 4.951 3.615 7.712 3.898ZM521.4 222.819c-2.843.243-4.39 1.711-4.824 4.286-.386 2.271.872 4.643 2.918 5.482 3.227 1.324 7.244-.382 8.481-3.613.588-1.536.297-2.953-.946-4.056-1.69-1.513-3.63-2.402-5.629-2.099Z"/><path fill="#939597" d="M695.44 673.243c-.266-.1-.528-.008-.61.208-.081.216.073.463.322.557.266.1.528.009.609-.207.098-.21-.055-.458-.321-.558ZM677.737 694.211c.03-.027.042-.061.071-.088.029-.027.058-.054.065-.07l.035-.044.029-.027c.023-.01.052-.037.075-.048a.446.446 0 0 0 .121-.068l.114-.052c.04-.004.069-.031.108-.035l.085-.025a.523.523 0 0 1 .158-.017.14.14 0 0 1-.008-.079 2.263 2.263 0 0 1-.02-.804c-1.11-.076-1.376.128-1.405.155-.125.332-.076.654.124 1.033.078.143.191.299.319.462.038-.1.082-.217.129-.293ZM679.304 693.018c-.032.235-.03.482.012.725.168.006.313.023.459.04.307.039.614.079.916.135.602.113 1.175.253 1.765.398l.583.163a23.805 23.805 0 0 1-.068-.727 43.49 43.49 0 0 0-1.991-.502 16.022 16.022 0 0 0-1.651-.299l-.025.067ZM693.737 698.348c.695.318 1.391.637 2.074.988.226.104.446.225.666.346a8.06 8.06 0 0 0 .597-.478 63.15 63.15 0 0 0-2.88-1.367c-.1.115-.193.212-.293.326-.048.077-.106.131-.164.185ZM697.408 700.183c.153.096.324.198.494.3a5.13 5.13 0 0 0 .603-.494 33.41 33.41 0 0 0-.61-.344 5.148 5.148 0 0 1-.604.495c.04-.005.067.025.117.043ZM698.236 700.703c.241.167.498.339.754.568.071.065.141.129.206.21.07.065.135.146.203.266.27-.164.507-.34.74-.556.007-.017.03-.027.036-.044-.283-.258-.715-.572-1.346-.961-.094.098-.181.179-.275.276-.131.046-.225.143-.318.241ZM699.555 702.186c-.006.017.004.039.004.039l-.002.057c-.006.016.004.039-.002.056.004.039-.008.072-.01.129-.013.033-.015.089-.027.122l-.038.1c.017.006.027.029.027.029.996-.176 1.194-.652 1.269-.851-.011-.023-.044-.187-.341-.508a3.468 3.468 0 0 1-.653.628 3.437 3.437 0 0 1-.227.199Z"/><path fill="#939597" d="M723.594 703.144c-.077-1.811-1.527-4.005-4.325-6.498-1.292-2.666-3.963-5.698-7.516-8.55a49.704 49.704 0 0 0-3.592-2.602c-.163-1.331-.544-2.384-1.893-3.536-.157-1.045-.516-1.957-1.441-2.874-.054-.058-.114-.1-.152-.152-.015-1.219-.759-3.982-6.44-6.117-5.681-2.136-8.054-.563-8.875.36-.079.009-.152 0-.214.015-1.277.069-2.165.513-2.977 1.212-1.774-.022-2.755.52-3.755 1.414a48.519 48.519 0 0 0-4.415-.409c-4.553-.194-8.559.328-11.288 1.483-3.73.038-6.26.718-7.528 2.023-.081.064-.308.264-.401.513-.4 1.063.967 2.62 4.166 4.751 2.882 1.917 7.115 4.172 12.22 6.527a4.435 4.435 0 0 0 1.102 1.912l-.006.017c-.912 2.425 2.602 4.978 11.406 8.288 8.92 3.353 13.117 3.736 14.042 1.278l.006-.017a4.423 4.423 0 0 0 2.088-.713c5.393 1.591 10.063 2.683 13.494 3.139 3.804.52 5.859.25 6.265-.83.068-.183.041-.515.029-.634Zm-24.762-28.285c.043-.116.197-.172.33-.122.133.05.212.193.168.309-.044.117-.197.173-.33.123-.133-.05-.212-.194-.168-.31Zm19.928 23.795a292.58 292.58 0 0 1-.741-.449l-.01-.023c-.268-.347-.552-.7-.826-1.031a42.353 42.353 0 0 0-1.808-1.949 42.359 42.359 0 0 1 1.983 1.788c.319.309.633.636.929.956.227.255.453.511.666.8a.71.71 0 0 1-.193-.092Zm-5.034-6.176c-.19-.3-.404-.589-.641-.867-.508-.665-1.068-1.293-1.629-1.921.619.574 1.237 1.148 1.804 1.759.28.314.56.628.834.958.156.191.305.399.455.607-.258-.173-.549-.358-.823-.536Zm4.16 3.004c-.338-.26-.66-.513-.998-.773-.139-.185-.261-.364-.407-.532a27.14 27.14 0 0 0-1.166-1.387 47.865 47.865 0 0 0-1.253-1.305c-1.673-1.653-3.51-3.12-5.447-4.474.106.172.212.345.311.534.216.384.425.785.635 1.186.193.395.396.813.543 1.228a11.93 11.93 0 0 0-.716-1.122c-.261-.363-.506-.721-.79-1.074a24.414 24.414 0 0 0-.849-1.021c-.27-.291-.523-.575-.805-.833a40.306 40.306 0 0 0-1.372-.838c1.152 1.02 2.076 2.998 2.524 4.077-.17-.102-.363-.194-.533-.296-.424-.235-.854-.453-1.283-.671-.118-1.201-.97-2.867-1.73-3.722a71.09 71.09 0 0 0-2.41-1.304c-.347-.187-.716-.364-1.069-.535.01.023.027.03.054.059a10.307 10.307 0 0 0-.692-.279 81.044 81.044 0 0 0-2.003-.772c.639.316 1.272.649 1.906.981.456.248.913.496 1.347.753.075.104.139.185.197.283-.392-.166-.785-.333-1.183-.483a89.172 89.172 0 0 0-2.004-.772c.639.316 1.273.649 1.906.982.556.285 1.106.587 1.634.898l.093.206c-.459-.191-.907-.36-1.35-.545-.664-.25-1.322-.516-1.987-.766.64.316 1.256.643 1.89.976a66.06 66.06 0 0 1 1.656.888c.015.062.046.131.06.193l-3.332-1.272 3.432 1.764c.014.063.012.119.02.198l-3.172-1.193 3.184 1.614a.233.233 0 0 1-.004.112l-.662-.305a14.06 14.06 0 0 0-.802-.34l-.409-.172-.386-.183-.795-.356-1.59-.712c-1.078-.462-2.139-.917-3.242-1.313.542.223 1.072.479 1.591.712.529.256 1.048.489 1.572.761l1.571.762.783.389.403.189.38.2 3.108 1.566c1.029.539 2.059 1.078 3.076 1.65 1.018.572 2.012 1.154 3 1.753s1.97 1.214 2.94 1.863a73.078 73.078 0 0 1 2.85 2 39.596 39.596 0 0 1 2.692 2.169c1.787 1.601 3.034 3.074 3.665 4.373a2.258 2.258 0 0 0-.239-.223c-.212-.193-.413-.363-.625-.557a11.98 11.98 0 0 0-.79-1.074c-.93-1.108-2.009-2.12-3.147-3.079a59.47 59.47 0 0 0-3.559-2.684c-.646-.451-1.304-.869-1.973-1.31.181.276.355.569.529.862.237.431.473.861.703 1.307.193.395.386.79.556 1.195l-.033-.012c-.222-.368-.444-.736-.678-1.071a14.403 14.403 0 0 0-.866-1.178 27.625 27.625 0 0 0-.923-1.124c-.307-.343-.614-.686-.957-.986-.043-.035-.093-.054-.137-.089-.527-.312-1.071-.63-1.598-.942 1.116 1.064 2.018 2.901 2.53 4.06-.639-.316-1.301-.622-1.947-.921-.155-1.253-.976-2.851-1.771-3.813a101.532 101.532 0 0 0-5.105-2.658 42.114 42.114 0 0 0-1.449-.583c.616.326 1.227.67 1.814 1.023.418.252.829.52 1.246.772l.081.087a65.143 65.143 0 0 0-2.942-1.201c1.206.624 2.371 1.309 3.529 2.009-.442-.185-.868-.364-1.316-.532-.675-.273-1.356-.529-2.037-.785.649.339 1.283.672 1.926 1.028.6.32 1.194.657 1.765 1.004-.476-.198-.941-.372-1.422-.553l-2.077-.781 1.983 1.03c.633.333 1.266.665 1.893 1.015a50.367 50.367 0 0 0-1.551-.564 95.392 95.392 0 0 1-2.132-.783c.666.345 1.356.68 2.022 1.026.623.31 1.246.62 1.862.946l.011.023c-.522-.177-1.02-.364-1.524-.535a98.16 98.16 0 0 1-2.189-.785c.683.352 1.389.693 2.078 1.028.58.275 1.159.549 1.732.84.01.023.004.04.008.079a141.09 141.09 0 0 0-4.35-1.843c-1.333-.539-2.649-1.072-3.995-1.578l-2.01-.755c-.67-.234-1.351-.49-2.028-.706a347.295 347.295 0 0 0 7.921 3.338l.492.204.486.22.978.425c.652.283 1.297.582 1.96.888 1.291.599 2.599 1.205 3.878 1.837 2.558 1.265 5.103 2.563 7.57 4.021.62.366 1.218.742 1.816 1.119.598.376 1.19.769 1.769 1.195.562.42 1.119.857 1.64 1.337.249.246.498.491.707.74.21.25.384.543.459.798.006.135.016.31-.003.359-.081.216-.54.783-3.243.658.401-.057.779-.105 1.164-.169.203-.037.384-.064.588-.101a2.69 2.69 0 0 0 .272-.069c.085-.024.187-.043.255-.074.171-.05.331-.122.451-.191.052-.037.104-.075.133-.102a.195.195 0 0 0 .048-.076l.006-.017.006-.017.007-.016.006-.017.006-.016s.006-.017-.01-.023c.006-.017-.004-.04-.015-.063-.004-.039-.025-.085-.045-.131a1.945 1.945 0 0 0-.121-.234 5.38 5.38 0 0 0-.709-.836c-.558-.532-1.208-1.023-1.881-1.503-1.335-.938-2.757-1.795-4.191-2.618a89.64 89.64 0 0 0-4.404-2.357c-.749-.376-1.482-.747-2.238-1.107-.755-.36-1.505-.736-2.25-1.073a158.366 158.366 0 0 0-4.566-2.077c-3.06-1.34-6.158-2.58-9.292-3.777a209.04 209.04 0 0 0-9.472-3.295 239.074 239.074 0 0 0-4.797-1.462l-2.417-.681c-.806-.227-1.618-.438-2.413-.642a118.72 118.72 0 0 0-4.859-1.144c-.808-.171-1.622-.325-2.436-.48a36.462 36.462 0 0 0-2.44-.367c-.816-.098-1.622-.174-2.42-.17-.399.002-.781.01-1.148.08a2.55 2.55 0 0 0-.499.116c-.062.014-.114.052-.177.066a.58.58 0 0 0-.149.096c-.007.016-.029.027-.029.027-.007.016-.023.01-.007.016l-.018.05c-.007.017-.002.056.012.118-.002.056.029.125.044.187.101.285.319.613.543.925.241.318.481.636.755.966a.149.149 0 0 0 .054.059c-1.818-1.518-1.809-2.197-1.728-2.413.031-.083.154-.208.212-.262.081-.064.172-.105.287-.157.108-.035.222-.087.347-.116.249-.058.492-.1.752-.135.513-.053 1.057-.038 1.584-.03 1.066.041 2.14.16 3.201.312 1.061.153 2.126.345 3.186.553 1.059.209 2.111.434 3.175.682 2.11.49 4.194 1.046 6.29 1.625 2.089.596 4.155 1.202 6.231 1.831a158.462 158.462 0 0 0-6.161-2.07 134.043 134.043 0 0 0-6.267-1.787c-.089-.014-.188-.052-.278-.066.006-.017.029-.027.042-.061l5.952 1.214-5.564-1.541.023-.011c.52.082 1.049.186 1.562.284l1.728.346c1.148.223 2.29.463 3.439.686-1.14-.296-2.257-.602-3.398-.898l-1.69-.446c-.278-.066-.55-.15-.812-.21.542.071 1.072.175 1.624.269.602.113 1.221.232 1.824.344l3.64.705-3.599-.916c-.606-.153-1.196-.298-1.802-.451-.245-.054-.49-.108-.746-.185.509.059 1.028.14 1.541.238.642.109 1.284.217 1.942.332 1.277.233 2.571.473 3.865.713-1.263-.323-2.532-.629-3.817-.942-.64-.164-1.269-.306-1.915-.454l-.685-.144c.492.053.995.128 1.481.197.681.104 1.356.225 2.037.329 1.35.242 2.716.491 4.066.733-1.335-.332-2.677-.646-4.018-.961-.54-.127-1.08-.254-1.626-.365-.056-.002-.106-.021-.139-.033a74.38 74.38 0 0 0-4.434-.662c-.129-.011-.274-.027-.403-.038-1.13.182-2.954.444-4.292 1.079a66.084 66.084 0 0 0-1.952-.355c1.683-.543 3.594-.734 4.697-.794a38.673 38.673 0 0 0-2.544-.141c-1.488-.028-2.966.023-4.396.244-.463.072-.922.184-1.364.302a24.18 24.18 0 0 0-1.141.008c1.336-.579 3.268-.876 5.684-.897 1.825-.016 3.634.115 5.464.291l.677.064.688.088.687.088.681.104.681.105.681.104.682.105.675.121.674.121.675.121c.441.089.904.169 1.344.258l1.354.282c.457.096.897.185 1.348.298 1.781.404 3.567.848 5.341 1.325a95.009 95.009 0 0 0-5.281-1.587c-.444-.129-.901-.225-1.329-.348l-1.335-.331c-.451-.113-.891-.202-1.348-.298l-.669-.138-.195-.035c.013-.033.036-.044.065-.071.139.034.268.044.407.077l1.429.234c.949.148 1.891.313 2.851.484-.928-.254-1.869-.475-2.804-.712l-1.407-.34c-.034-.012-.09-.015-.123-.027.023-.01.046-.021.052-.037.285.05.575.083.883.123l1.368.192c.916.136 1.838.255 2.742.424-.895-.242-1.803-.45-2.71-.659l-1.365-.304a1.995 1.995 0 0 1-.311-.079l.023-.011c.38.049.743.09 1.123.138l1.325.157c.889.107 1.761.207 2.648.37a43.129 43.129 0 0 0-2.6-.598l-1.304-.263c-.073-.008-.139-.033-.212-.042.347.036.694.072 1.024.101l1.281.121c.839.088 1.701.166 2.538.31a39.064 39.064 0 0 0-2.506-.544l-1.132-.217c.017.006.039-.004.056.002.218.025.426.027.65.036l1.221.08c.812.058 1.624.117 2.438.272-.789-.221-1.592-.353-2.413-.49l-.145-.017c.017.006.023-.011.039-.004a40.499 40.499 0 0 0-2.056-.28c-.581-.067-1.169-.117-1.757-.168-1.161.114-3.227.417-4.782 1.122l-.413-.06-.681-.105-.681-.104-.033-.013c1.819-.605 3.828-.854 5-.945a37.881 37.881 0 0 0-3.916.026c-.602.039-1.211.095-1.803.156-.598.079-1.196.157-1.79.275-.26.035-.509.093-.758.151-.426-.027-.852-.054-1.261-.075 5.401-1.61 14.862-1.409 25.736 2.394.15.056.299.112.438.146l.266.1.731.274.731.275.266.1c.149.056.299.112.425.179 10.66 4.272 17.894 10.347 20.92 15.106-.072-.008-.089-.015-.106-.021Zm-10.84 5.689c-.002.056.029.124.06.193a.341.341 0 0 1-.139-.185.16.16 0 0 1-.006-.135c.019-.05.031-.083.083-.121a.433.433 0 0 1 .229-.103c.079-.008.164-.033.237-.025.151 0 .297.017.459.04.139.033.294.073.427.123s.277.123.397.206c.12.083.257.172.371.272a.736.736 0 0 1 .139.185c.032.069.073.16.058.249a1.82 1.82 0 0 1-.025.067c-.006.016-.018.05-.041.06-.029.027-.075.048-.104.075-.069.031-.141.022-.22.031a1.19 1.19 0 0 0 .199-.077c.052-.037.088-.081.073-.143-.019-.102-.116-.196-.22-.273-.224-.16-.467-.27-.727-.386a3.135 3.135 0 0 0-.795-.205c-.129-.01-.28-.01-.372.031-.062.015-.097.058-.083.121Zm-2.884-.952c-.013.033-.035.044-.048.077-.006.017-.012.033-.035.044-.013.033-.036.043-.048.076-.006.017-.029.027-.035.044-.029.027-.042.06-.065.071-.006.016-.029.027-.035.043-.071.087-.152.152-.239.233-.006.016-.023.01-.029.027a3.52 3.52 0 0 1-1.91.742 1.405 1.405 0 0 0-.166-.366c.293-.023.599-.079.877-.163.324-.106.628-.258.894-.461.133-.102.249-.209.343-.307.064-.071.106-.131.147-.191l-.016-.006c-.038-.052-.092-.11-.146-.169-.054-.058-.124-.122-.178-.18-.06-.042-.098-.094-.158-.136-.736.748-1.621.984-2.186 1.075l-.081-.088c-.016-.006-.027-.029-.043-.035-.017-.006-.027-.029-.044-.035-.027-.029-.054-.059-.087-.071l-.017-.006c1.103-.363 1.648-1.106 1.779-1.303-.033-.013-.043-.036-.077-.048a19.42 19.42 0 0 0-1.015-.628 16.737 16.737 0 0 0-.814-.458 4.85 4.85 0 0 1-.98.542 2.994 2.994 0 0 1-.563.186 4.588 4.588 0 0 1-.572.108c.194-.06.354-.133.52-.222.166-.089.322-.201.472-.297.236-.176.457-.359.644-.554-.204-.114-.43-.218-.633-.333-.393.44-1.22.926-1.97 1.004-.033-.012-.067-.025-.077-.048a.22.22 0 0 1-.093-.054c-.05-.019-.077-.048-.127-.066-.033-.013-.066-.025-.093-.055-.034-.012-.077-.047-.11-.06l-.034-.012c.779-.257 1.384-.959 1.524-1.229a74.867 74.867 0 0 0-3.627-1.648l-1.294-.543a1.288 1.288 0 0 1-.066-.025c.242.111.473.254.71.381.236.127.467.27.703.397.324.198.638.373.962.57a1.308 1.308 0 0 0-.025.067c-.343-.148-.692-.279-1.034-.427-.25-.094-.493-.204-.742-.298-.249-.093-.498-.187-.753-.264.242.11.473.254.693.374.237.127.45.265.687.391.314.175.604.36.918.535-.006.017-.036.044-.042.06-.326-.141-.641-.26-.974-.385-.249-.094-.481-.181-.724-.291a11.277 11.277 0 0 0-.737-.258c.226.104.456.247.676.368.22.12.451.264.671.385l.791.468c-.029.026-.052.037-.064.07-.283-.106-.542-.223-.825-.329l-.697-.262c-.233-.087-.466-.175-.704-.246.226.104.446.225.66.362.22.121.44.242.654.379.22.12.417.251.637.372-.029.027-.052.037-.075.048a61.664 61.664 0 0 0-1.812-.776c-.1-.038-.183-.069-.276-.123l-.017-.006-.282-.106-.034-.013-.265-.1-.034-.012a25.239 25.239 0 0 0-.249-.094l-.05-.019-.249-.093-.066-.025-.233-.088-.099-.037a50.52 50.52 0 0 1-.216-.081l-.117-.044-.199-.075-.133-.05-.183-.069-.182-.068-.15-.057-.332-.125-.332-.124-.15-.057-.183-.068-.182-.069-.133-.05-.199-.075a50.52 50.52 0 0 0-.333-.125l-.099-.037-.233-.088a68.022 68.022 0 0 0-.316-.118l-.049-.019a40.711 40.711 0 0 1-.25-.094l-.033-.012-.266-.1-.033-.013-.282-.106-.017-.006c-.099-.037-.182-.069-.288-.089a88.103 88.103 0 0 0-3.464-1.075l-.033-.012c-.05-.019-.123-.028-.173-.046a2.034 2.034 0 0 0-.083-.031c-.049-.019-.089-.015-.139-.034-.033-.012-.066-.025-.106-.021-.033-.012-.083-.031-.122-.027-.033-.012-.089-.014-.123-.027-.033-.012-.066-.025-.106-.021-.049-.018-.089-.014-.139-.033a.22.22 0 0 0-.106-.021c-.049-.019-.089-.015-.139-.033-.033-.013-.066-.025-.089-.015-.033-.012-.089-.014-.123-.027-.033-.012-.066-.025-.105-.021-.034-.012-.09-.014-.123-.027-.033-.012-.073-.008-.106-.021l-.017-.006c-.01-.023-.02-.046-.037-.052.397.054.787.125 1.184.18l.804.131c.267.044.529.104.807.171a6.332 6.332 0 0 0-.77-.271c-.255-.077-.521-.177-.777-.254-.477-.141-.955-.283-1.416-.418l-.01-.023 1.458.207.803.131c.268.044.536.088.808.171a6.327 6.327 0 0 0-.77-.27 178.94 178.94 0 0 0-.783-.238c-.511-.154-1.038-.314-1.555-.452.525.065 1.067.136 1.586.217l.804.132c.268.044.536.088.808.171a6.332 6.332 0 0 0-.77-.271l-.783-.237a40.933 40.933 0 0 0-1.472-.421l.006-.016c.492.052.995.127 1.497.202l.804.132c.268.044.536.087.791.164a5.347 5.347 0 0 0-.721-.251 50.881 50.881 0 0 0-2.267-.625 54.358 54.358 0 0 0-2.355-.544 3.638 3.638 0 0 0-.446-.073c-.194.666.374 1.676.656 2.085-.162-.023-.313-.023-.459-.039-.469-.366-1.079-1.164-1.024-2.168-.347-.035-.694-.071-1.014-.077-.095.002-.174.01-.253.018-.079.009-.158.017-.22.031l-.017-.006c-.008.073-.023.162-.014.241-.001.152.016.309.055.457.073.312.195.642.369.935.147.264.34.507.552.7a1.47 1.47 0 0 0-.366.166 3.64 3.64 0 0 1-.937-1.793c-.01-.023-.004-.039-.014-.062-.005-.04-.009-.079-.019-.102-.004-.04-.008-.079-.006-.135-.011-.023.002-.056-.008-.079-.005-.04.002-.056-.002-.096.006-.016-.005-.039.002-.056a.165.165 0 0 1 .014-.089c.007-.017-.004-.039.002-.056.013-.033.003-.056.009-.073.006-.016.012-.033.002-.056.006-.016.019-.05.008-.073l.032-.083.012-.033s.158-.168 1.078-.144c.617.023 1.522.136 2.87.434l.017.006a1.61 1.61 0 0 1 .311.079c.073.009.156.04.245.055.034.012.05.018.09.014.016.006.049.019.072.009.067.025.123.027.189.052.017.006.05.018.073.008.066.025.139.033.189.052.017.006.05.019.073.008.066.025.139.034.205.059l.067.025c.066.025.139.033.205.058l.067.025c.066.025.139.033.222.065l.066.025c.067.025.156.039.222.064l.05.019c.083.031.156.039.239.071l.05.018c.083.032.172.046.255.077l.034.013c.083.031.172.046.272.083a.743.743 0 0 1 .033.013c.083.031.189.052.272.083l.016.006c.1.038.206.059.289.09 1.761.51 3.663 1.149 5.652 1.859l.083.031.266.1.066.025.283.106.099.038.25.093a314957053958.798 314957053958.798 0 0 1 .697.263l.249.093.1.038.283.106.066.025.266.1.083.031c1.947.77 3.816 1.548 5.477 2.324.1.038.177.086.276.123l.017.006c.083.032.176.086.259.117l.034.012c.083.032.159.079.243.111l.033.012c.083.031.16.079.243.11l.049.019c.084.031.144.073.227.104l.05.019c.066.025.143.073.209.098l.067.025c.066.025.126.066.193.091l.066.025c.067.025.127.067.193.092l.067.025c.066.025.126.066.176.085.034.013.05.019.077.048.067.025.11.06.177.085.033.013.049.019.076.048.067.025.11.06.177.085.033.013.05.019.077.048.033.013.05.019.077.048.076.048.143.073.22.121l.033.012c.093.054.17.102.253.133l.017.006c1.127.633 1.872 1.121 2.358 1.494.764.59.799.85.809.873l-.043.116c.031-.083.008-.073.008-.073Zm-30.898-11.861c-.019-.102-.117-.195-.22-.272a4.1 4.1 0 0 0-.727-.387 3.102 3.102 0 0 0-.795-.204c-.129-.011-.281-.011-.372.03a.138.138 0 0 0-.083.121c-.002.056.029.124.06.193a.341.341 0 0 1-.139-.185.16.16 0 0 1-.006-.135c.018-.05.031-.083.083-.12a.423.423 0 0 1 .228-.104c.079-.008.165-.033.237-.025.152 0 .297.017.459.04.139.033.295.073.428.123s.276.123.396.206c.121.083.258.172.372.272a.736.736 0 0 1 .139.185c.031.069.073.16.058.25l-.025.066c-.006.017-.019.05-.042.06-.029.027-.074.048-.103.075-.069.031-.142.023-.221.031.063-.015.131-.046.2-.077.041-.06.077-.104.073-.143Zm-4.82-4.428c.005-.112-.07-.216-.145-.32-.074-.104-.178-.181-.276-.274-.425-.331-.922-.574-1.42-.762-.515-.193-1.042-.354-1.574-.402-.129-.01-.264-.004-.399.002a.77.77 0 0 0-.357.093.551.551 0 0 0-.116.108.352.352 0 0 0-.03.179c.013.118.075.255.143.376-.097-.094-.205-.21-.244-.358a.329.329 0 0 1-.002-.247.568.568 0 0 1 .137-.214.97.97 0 0 1 .428-.18c.147-.039.299-.039.434-.045a3.38 3.38 0 0 1 .856.094c.284.05.556.133.816.25.266.1.519.233.766.382.247.15.488.317.693.526.114.1.206.21.291.337.031.069.079.144.11.212a.478.478 0 0 1 .024.237.382.382 0 0 1-.104.226.788.788 0 0 1-.201.133c-.137.062-.289.062-.424.068a.884.884 0 0 0 .515-.261c.075-.048.094-.098.079-.16Zm-1.169-.269.025-.066c.044.035.077.048.121.083l-.025.066c-.244.497-.772.791-1.307.703.477-.01.966-.3 1.186-.786Zm-1.962-.681c-.04.156-.056.302-.056.453.058-.054.153-.056.236-.025.133.05.195.188.145.32-.043.117-.18.179-.303.152a.853.853 0 0 0 .453.511 1.249 1.249 0 0 1-.747-1.494l.008-.073c.09.015.202.019.308.04l-.044.116Zm24.452 5.912a.554.554 0 0 1-.064-.232.385.385 0 0 1 .071-.239c.047-.077.122-.125.174-.162.069-.031.137-.062.222-.087.148-.039.289-.062.441-.062.293-.023.583.011.868.061.284.05.556.133.828.217.266.099.526.216.779.349.247.15.494.3.706.493.114.1.205.21.297.32.085.127.17.254.203.418.008.079.01.174-.038.251a.373.373 0 0 1-.164.185c-.127.085-.285.101-.42.107.131-.045.268-.108.356-.188a.623.623 0 0 0 .095-.154c.019-.05.005-.112-.016-.158a.76.76 0 0 0-.208-.305 3.166 3.166 0 0 0-.298-.264c-.432-.314-.935-.541-1.45-.735-.515-.193-1.048-.337-1.57-.362a1.263 1.263 0 0 0-.388.024c-.125.029-.249.058-.32.145-.035.044-.071.088-.073.144a.362.362 0 0 0 .027.18c.046.131.114.252.189.356a1.342 1.342 0 0 1-.247-.302Zm27.806 13.581c.019-.05.005-.112-.016-.158a.76.76 0 0 0-.208-.305 3.166 3.166 0 0 0-.298-.264c-.432-.314-.935-.541-1.45-.735-.515-.193-1.048-.337-1.57-.362a1.263 1.263 0 0 0-.388.024c-.125.029-.249.058-.32.145-.035.044-.071.088-.073.144a.362.362 0 0 0 .027.18c.046.131.114.252.189.356-.098-.094-.212-.194-.274-.331a.554.554 0 0 1-.064-.232.385.385 0 0 1 .071-.239c.047-.077.122-.125.174-.162.069-.031.137-.062.222-.087.148-.04.289-.062.441-.062.293-.023.583.011.868.061.284.05.556.133.828.216.266.1.526.217.779.35.247.15.494.299.706.493.114.1.205.21.297.32.085.127.17.253.203.418.008.078.01.174-.038.251a.373.373 0 0 1-.164.185c-.127.085-.285.101-.42.107a1.05 1.05 0 0 0 .356-.189.214.214 0 0 0 .122-.124Zm-.955-.283-.041.06c-.269.563-.942.84-1.546.632.216.081.459.04.677-.087-.116-.043-.179-.18-.129-.313a.242.242 0 0 1 .32-.145c.083.031.131.106.162.174.1-.114.183-.234.256-.378l.067-.126c.07.064.164.118.234.183Zm-2.207-.887-.025.067c-.154.51.016 1.067.391 1.379-.454-.304-.68-.862-.52-1.39l.025-.066a.341.341 0 0 1 .129.01Zm-8.162-1.286c-.033-.012-.056-.002-.089-.014-.039.004-.073-.009-.112-.005-.017-.006-.056-.002-.073-.008-.039.004-.072-.008-.112-.004-.016-.006-.056-.002-.073-.009-.039.005-.072-.008-.128-.01-.017-.006-.056-.002-.073-.008-.039.004-.089-.015-.129-.011-.016-.006-.039.004-.072-.008-.057-.002-.09-.015-.146-.017-.016-.006-.033-.012-.056-.002-.129-.011-.268-.044-.39-.071-.042-.091-.077-.199-.141-.281l.027-.122c.98.217 2.016.284 3.03.21.253-.018.507-.037.733-.085.119-.012.227-.047.335-.082-.011-.023-.021-.046-.054-.059-.065-.081-.146-.168-.21-.249a7.118 7.118 0 0 0-.799-.698c-1.411.626-3.085.489-3.689.433-.054-.058-.131-.106-.191-.148-.017-.006-.027-.029-.044-.035l-.033-.013c1.921-.017 2.917-.647 3.125-.797a83.51 83.51 0 0 0-.856-.549 48.543 48.543 0 0 0-2.485-1.408l.058.098a7.08 7.08 0 0 1-1.373.526c-.233.064-.465.129-.708.17-.243.041-.486.083-.717.091.226-.048.465-.129.688-.216.222-.087.428-.18.656-.284a7.084 7.084 0 0 0 1-.591c-.254-.133-.49-.26-.75-.376.011.022.038.052.048.074-.578.428-1.679.886-2.597.958-.05-.019-.077-.048-.127-.067l-.016-.006a50.271 50.271 0 0 0-.463-.231c1.065-.263 2.038-1.035 2.163-1.215a98.987 98.987 0 0 0-2.191-1.032l-.006.016c-.729-.33-1.441-.655-2.176-.969-.911-.4-1.819-.76-2.749-1.109.889.41 1.782.859 2.651 1.319.694.374 1.371.742 2.064 1.117-.006.016-.029.027-.035.043a54.898 54.898 0 0 0-1.616-.645 47.003 47.003 0 0 0-2.093-.787c.679.312 1.329.651 1.996.997.446.224.869.459 1.316.684-.029.027-.069.031-.114.052l-1.826-.743a42.614 42.614 0 0 0-1.993-.749 39.53 39.53 0 0 1 1.896.959c.456.247.903.472 1.36.719-.04.005-.086.025-.125.029l-1.858-.755a39.177 39.177 0 0 0-1.911-.718c.613.287 1.213.607 1.813.928.43.218.836.447 1.26.682-.096.002-.181.027-.276.029a105.978 105.978 0 0 0-4.572-1.908l-.034-.013a64.932 64.932 0 0 1-.382-.144l-.282-.106-.149-.056-.2-.075-.365-.137-.366-.138-.199-.075-.15-.056-.282-.106-.066-.025-.316-.118-.033-.013c-2.737-.991-5.362-1.826-7.625-2.411-.054-.058-.125-.123-.178-.181.267.044.552.094.814.154.585.107 1.175.253 1.765.398-.565-.212-1.13-.424-1.701-.62a35.048 35.048 0 0 0-1.327-.404c-.054-.058-.091-.11-.145-.168.413.06.82.138 1.244.221.602.113 1.198.242 1.788.388a58.706 58.706 0 0 0-1.723-.61 17.236 17.236 0 0 0-1.589-.465c-.021-.045-.025-.085-.046-.131.47.063.933.142 1.413.228.602.113 1.198.242 1.81.377a32.061 32.061 0 0 0-1.746-.599 20.579 20.579 0 0 0-1.416-.419c.012-.033.035-.043.064-.07.285.05.569.1.871.156.423.083.863.173 1.287.257l2.573.569c-.826-.273-1.676-.536-2.508-.792-.428-.123-.833-.256-1.261-.379-.066-.025-.122-.027-.189-.052.023-.01.056.002.079-.008a61.615 61.615 0 0 0-2.519-.662c-.212-.042-.434-.107-.646-.148-.016-.007-.016-.007-.039.004-1.674.015-.195 1.728.318 2.28-.251-.037-.48-.085-.698-.11-.894-.697-2.277-2.012-1.57-2.581-.179-.029-.341-.052-.496-.092-.519-.081-1.039-.163-1.554-.205a5.947 5.947 0 0 0-.633-.029 6.611 6.611 0 0 0-1.043.101c.091.11.193.243.284.353.156.191.334.372.519.536a11.847 11.847 0 0 0 2.431 1.805 1.38 1.38 0 0 0-.517.166c-.11-.06-.231-.144-.341-.204-.016-.006-.033-.012-.043-.035-.044-.036-.077-.048-.121-.083-.016-.007-.027-.03-.06-.042-.027-.029-.077-.048-.104-.077-.016-.006-.043-.035-.06-.042-.027-.029-.06-.041-.104-.076-.016-.007-.043-.036-.06-.042-.027-.029-.06-.042-.087-.071-.017-.006-.044-.035-.06-.041-.027-.029-.061-.042-.088-.071-.033-.013-.043-.035-.06-.042-.027-.029-.06-.041-.087-.07-.017-.007-.044-.036-.06-.042-.027-.029-.06-.041-.087-.071a.128.128 0 0 1-.054-.058c-.027-.029-.06-.041-.071-.064-.01-.023-.043-.036-.054-.058-.027-.03-.043-.036-.07-.065-.011-.023-.044-.035-.054-.058-.027-.029-.044-.035-.071-.065-.01-.022-.043-.035-.054-.058-.027-.029-.043-.035-.07-.064-.011-.023-.044-.035-.054-.058-.027-.029-.044-.036-.071-.065-.01-.023-.044-.035-.054-.058-.027-.029-.043-.035-.07-.064-.011-.023-.044-.036-.054-.059-.011-.022-.044-.035-.054-.058-.011-.023-.027-.029-.054-.058-.011-.023-.044-.035-.054-.058-.011-.023-.027-.029-.038-.052-.01-.023-.043-.036-.054-.058-.01-.023-.027-.029-.037-.052-.01-.023-.044-.036-.054-.059-.01-.022-.027-.029-.037-.051-.011-.023-.027-.03-.054-.059-.011-.023-.027-.029-.038-.052-.01-.022-.027-.029-.053-.058-.011-.023-.027-.029-.038-.052-.01-.023-.027-.029-.037-.052-.011-.023-.027-.029-.038-.052-.01-.023-.026-.029-.037-.052-.016-.006-.027-.029-.027-.029-.01-.023-.027-.029-.037-.052-.017-.006-.011-.023-.027-.029-.011-.023-.027-.029-.038-.052-.016-.006-.01-.023-.026-.029-.011-.023-.027-.029-.021-.046-.017-.006-.011-.022-.027-.029l-.021-.045-.01-.023-.021-.046-.01-.023-.021-.046-.01-.022c.006-.017-.011-.023-.005-.04l-.01-.023c-.01-.023-.01-.023-.004-.039l.006-.017c.071-.087.343-.307 1.494-.291l.016.006.169.006c.128.011.263.005.409.021.056.002.128.011.185.013.128.01.24.015.38.048l.016.006c.274.027.582.067.922.119.017.007.034.013.056.002.123.028.235.032.358.059.151.152.355.266.57.347.399.15.837.144 1.213.001.034.013.073.009.106.021 1.984.423 4.284 1.061 6.743 1.833.149.056.289.09.438.146l2.23.724c.943.317 1.896.656 2.882 1.008a1.701 1.701 0 0 0 2.658.999c4.483 1.742 8.563 3.598 11.594 5.268.033.013.06.042.093.054.189.356.498.642.913.799.216.081.434.106.659.114.11.061.23.144.34.204l.017.006c.263.156.488.316.701.454.044.035.088.07.154.095a.515.515 0 0 0 .137.09c.147.112.284.201.415.307l.017.007c1.189.921 1.274 1.351 1.253 1.457-.006.016-.023.01-.029.027 0 0-.006.016-.023.01l-.023.01-.022.011-.023.01-.023.011c-.017-.007-.023.01-.04.004 0 0-.022.01-.039.004l-.046.02c-.016-.006-.023.011-.039.005l-.046.02c-.017-.006-.023.011-.039.004-.023.011-.04.005-.046.021-.017-.006-.04.004-.04.004-.022.011-.039.004-.062.015-.023.01-.039.004-.046.021-.023.01-.039.004-.062.014s-.039.004-.062.015c-.023.01-.04.004-.063.014-.022.01-.039.004-.062.015-.023.01-.039.004-.062.014s-.04.004-.063.014c-.022.011-.039.005-.062.015-.023.01-.039.004-.062.014-.023.011-.04.005-.079.009-.023.01-.04.004-.062.014-.023.011-.057-.002-.079.008-.023.011-.04.005-.079.009-.023.01-.056-.002-.079.008s-.056-.002-.079.008c-.023.011-.056-.002-.079.008-.023.011-.056-.002-.079.009-.023.01-.056-.002-.079.008s-.056-.002-.079.008c-.039.004-.056-.002-.095.002-.023.011-.057-.002-.079.008-.04.005-.056-.002-.096.002-.023.011-.056-.002-.079.009-.039.004-.056-.002-.095.002-.023.01-.057-.002-.079.008-.04.004-.056-.002-.096.002-.023.01-.056-.002-.079.008-.039.004-.073-.008-.095.002-.023.011-.056-.002-.079.008-.04.005-.073-.008-.096.002-.033-.012-.056-.002-.089-.014-.181.027-.214.014-.254.018Zm-1.196-5.037.025-.067c.039-.004.089.015.145.017l-.025.066c-.154.511.016 1.068.392 1.38a1.225 1.225 0 0 1-.537-1.396Zm2.361.83-.042.06a1.264 1.264 0 0 1-1.546.633c.216.081.459.04.678-.087-.117-.044-.179-.181-.129-.314a.242.242 0 0 1 .32-.145c.083.031.131.106.162.175.1-.114.183-.235.256-.378l.066-.127c.071.065.164.119.235.183Zm-14.215-5.912-.041.06a1.264 1.264 0 0 1-1.546.633c.216.081.459.039.677-.087-.116-.044-.178-.181-.128-.314a.242.242 0 0 1 .32-.145c.083.031.13.106.162.175.099-.114.182-.235.255-.378l.067-.127c.081.088.158.135.234.183Zm-2.19-.88-.025.066c-.154.511.016 1.068.391 1.38-.454-.304-.68-.863-.52-1.39l.025-.067c.04-.004.073.009.129.011Zm-14.832-4.874.008-.073c.089.015.202.019.307.04l-.033.139a1.824 1.824 0 0 0-.056.453c.058-.054.153-.056.237-.025.132.05.195.187.145.32-.044.116-.181.178-.304.151a.855.855 0 0 0 .453.512c-.602-.265-.926-.917-.757-1.517Zm2.363.774-.025.067c-.244.496-.771.791-1.307.703.488.013.966-.3 1.203-.78l.025-.067c.027.03.071.065.104.077Zm28.777 9.737c.247.15.494.3.706.493.114.1.205.21.297.32.085.127.17.254.203.418.008.079.01.174-.038.251a.373.373 0 0 1-.164.185c-.127.085-.285.101-.42.108.131-.046.268-.108.356-.189a.623.623 0 0 0 .095-.154c.019-.05.005-.112-.016-.158a.76.76 0 0 0-.208-.305 3.166 3.166 0 0 0-.298-.264c-.432-.314-.935-.541-1.45-.734-.515-.194-1.048-.338-1.57-.363a1.295 1.295 0 0 0-.388.024c-.125.029-.249.058-.32.146-.035.043-.071.087-.073.143a.367.367 0 0 0 .027.181c.046.13.114.251.189.355-.098-.094-.212-.193-.274-.331a.554.554 0 0 1-.064-.232.391.391 0 0 1 .071-.239c.047-.077.122-.125.174-.162.069-.031.137-.062.222-.087.148-.039.289-.062.441-.062.293-.023.583.011.868.061.284.05.557.133.829.217.282.106.558.229.805.378Zm-27.685-9.212a.773.773 0 0 1-.202.132c-.137.063-.288.063-.423.069a.897.897 0 0 0 .376-.143c.052-.038.103-.075.139-.119.035-.043.037-.099.039-.155.005-.113-.07-.216-.145-.32-.074-.104-.178-.181-.276-.275-.425-.33-.921-.574-1.42-.761-.515-.194-1.042-.354-1.574-.402a2.956 2.956 0 0 0-.399.002.77.77 0 0 0-.357.093.504.504 0 0 0-.116.108c-.019.05-.038.099-.03.178.013.119.075.256.143.376-.097-.093-.205-.21-.244-.357a.339.339 0 0 1-.002-.247.568.568 0 0 1 .137-.214.948.948 0 0 1 .428-.18c.148-.04.299-.04.434-.046a3.42 3.42 0 0 1 .856.094c.284.05.556.134.816.25.266.1.519.233.766.383s.488.316.693.526c.114.1.206.21.291.337.031.068.079.143.11.212a.474.474 0 0 1 .024.236c.032.069 0 .152-.064.223Zm-7.717 3.128a.654.654 0 0 1-.392-.773l.013-.033c.056.002.106.02.162.023l-.025.066a.486.486 0 0 0-.031.235c.029-.027.068-.031.118-.013a.122.122 0 0 1 .073.16.121.121 0 0 1-.16.073.402.402 0 0 0 .242.262Zm.761-.359.012-.033c.017.006.044.035.061.041l-.013.034c-.116.259-.397.4-.688.367a.698.698 0 0 0 .628-.409Zm35.219 13.884a.653.653 0 0 1-.392-.773l.012-.034c.056.003.106.021.162.023l-.025.067c-.031.083-.039.156-.031.235.029-.027.069-.032.118-.013a.121.121 0 0 1 .073.16.121.121 0 0 1-.16.073.406.406 0 0 0 .243.262Zm.76-.359.013-.033c.016.006.043.035.06.041l-.012.033a.66.66 0 0 1-.688.368.698.698 0 0 0 .627-.409Zm-2.594-17.659-.299-.567a2.88 2.88 0 0 0-.367-.536c.158.135.297.32.425.482l.367.536c.085.127.17.254.233.391-.11-.06-.198-.131-.308-.191l-.051-.115Zm.957.682a2.56 2.56 0 0 0-.22-.575 4.016 4.016 0 0 0-.396-.661 4.64 4.64 0 0 0-.556-.588c-.407-.381-.872-.707-1.377-1.029-.06-.042-.126-.067-.17-.102.079.143.147.264.21.401.12.234.234.486.331.731.104.229.185.468.272.69l-.017-.006a7.031 7.031 0 0 0-.369-.632c-.143-.225-.293-.432-.436-.657a9.046 9.046 0 0 0-.886-1.072c-.16-.079-.313-.175-.473-.254-.067-.025-.11-.06-.177-.085.55.605 1.036 1.432 1.39 2.153a38.197 38.197 0 0 0-1.283-.672 6.712 6.712 0 0 0-.972-1.902l-.58-.274a58.018 58.018 0 0 0-1.679-.726c-.243-.111-.492-.204-.742-.298a8.135 8.135 0 0 0-.166-.062c-.265-.1-.531-.2-.82-.29-.266-.1-.538-.183-.826-.272.259.116.519.233.772.366l.76.399 1.32.724.011.023-1.063-.4c-.532-.2-1.08-.406-1.618-.589.513.25 1.013.533 1.52.799l1.403.755-1.129-.425c-.532-.2-1.08-.406-1.605-.622.5.283 1.007.549 1.507.832l1.47.78a87.684 87.684 0 0 0-2.834-1.236l-.133-.05-.332-.125-.416-.156-.249-.094-.697-.262-.698-.262-.249-.094-.416-.156-.332-.125-.133-.05a66.45 66.45 0 0 0-5.197-1.555l.006-.017c.324.046.665.098.989.144.357.059.72.1 1.067.136a21.653 21.653 0 0 1-1.019-.364l-.698-.263c.34.053.664.099 1.005.151l1.072.175c-.326-.141-.675-.272-1.007-.397l-.681-.256c.33.029.67.081.994.127l.536.088c.179.029.351.075.523.121a5.426 5.426 0 0 0-.485-.221l-.515-.193-.549-.207c-.222-.064-.467-.118-.689-.183-.521.126-1.035.483-1.457.95-.417-.1-.834-.2-1.258-.283.31-.471.933-.768 1.506-.932-.195-.035-.373-.064-.569-.1a11.893 11.893 0 0 0-1.713-.132 9.17 9.17 0 0 0-.806.076 3.294 3.294 0 0 0-.733.236 5.078 5.078 0 0 0-.545.289l-.535-.088c.804-.627 1.631-.96 3.049-.901.056.002.129.011.185.013.017.006.04-.004.056.002.056.002.096-.002.146.016.016.007.039-.004.056.003.056.002.089.014.145.016.017.007.039-.004.056.002.056.003.106.021.145.017.017.006.034.013.057.002a.538.538 0 0 1 .195.036c.072.008.129.01.195.035l.017.006.218.026c1.746.296 4.074.962 7.226 2.109a.743.743 0 0 0 .033.013l.382.143.05.019.365.138.084.031.448.168.449.169.083.031.365.138.05.018.382.144.033.012c3.127 1.214 5.324 2.229 6.827 3.173l.18.125.017.006c.06.042.104.077.17.102l.033.013c.044.035.088.07.137.089.017.006.034.012.044.035.044.036.093.054.12.084.017.006.027.029.044.035.044.035.077.048.12.083.017.006.027.029.061.042.043.035.07.064.12.083.017.006.027.029.044.035.043.035.103.077.147.112 1.1.907 1.509 1.686 1.701 2.687-.087-.07-.241-.166-.394-.262Zm-3.307-4.617a6.085 6.085 0 0 0-.239-.374c-.085-.127-.17-.254-.261-.364.114.1.205.21.319.31.108.116.199.226.291.336.091.11.193.243.278.37.037.052.058.098.095.15-.127-.067-.253-.133-.374-.216a1.586 1.586 0 0 0-.109-.212Zm1.822 1.253a6.426 6.426 0 0 0-.531-.351l-.021-.046a3.963 3.963 0 0 0-.664-1.008 5.642 5.642 0 0 0-.99-.846 10.804 10.804 0 0 0-1.162-.74l-.38-.2c.068.121.12.235.188.356.089.166.172.349.255.532.083.182.15.359.21.552a7.312 7.312 0 0 0-.291-.488c-.112-.156-.218-.328-.33-.484a8.72 8.72 0 0 0-.655-.778c-.077-.047-.16-.079-.237-.127-.093-.054-.21-.097-.303-.151.402.492.726 1.145.927 1.618a155.13 155.13 0 0 0-.928-.405c-.066-.48-.325-1.052-.618-1.484-.133-.05-.259-.116-.392-.166a34.956 34.956 0 0 0-1.809-.737l-.432-.162c-.265-.1-.531-.2-.82-.29-.266-.1-.538-.183-.826-.273.259.117.519.234.772.367l.76.399c.38.2.777.406 1.15.622l-.88-.331c-.532-.2-1.086-.389-1.624-.572.513.249 1.019.515 1.526.782l1.14.599-2.465-.908 2.56 1.361-.149-.057a2.95 2.95 0 0 1-.1-.037l-.266-.1-.149-.056-.233-.088a16.031 16.031 0 0 1-.415-.156l-.249-.093-.167-.063-.431-.162-.432-.162-.166-.063-.25-.094a42.746 42.746 0 0 0-.647-.243l-.15-.056-.266-.1-.099-.038-.299-.112-.05-.019a60.59 60.59 0 0 0-2.612-.868l.641.109 1.072.175c-.332-.125-.665-.25-1.007-.398l-.359-.154.641.109c.358.058.715.117 1.066.192a21.73 21.73 0 0 0-1.001-.414l-.365-.138c.218.025.429.067.641.109.179.029.357.058.53.104.178.029.351.075.523.121-.16-.079-.32-.158-.486-.22-.166-.063-.326-.142-.508-.211l-.582-.218c-.245-.054-.484-.125-.735-.163a3.44 3.44 0 0 0-1.056.741 7.764 7.764 0 0 0-.656-.171c.233-.367.611-.567.987-.71l-.704-.094a8.365 8.365 0 0 0-1.302-.015 3.293 3.293 0 0 0-1.163.321l-.046.021c-.218-.025-.43-.067-.631-.086.552-.361 1.203-.628 2.181-.659l.224.009c.989-.008 2.233.213 3.844.667l.017.007c.066.025.139.033.222.064l.05.019c.066.025.122.027.189.052l.066.025c.05.019.117.044.173.046l.099.037.083.031c.117.044.239.071.355.115l.067.025.183.069.083.031.182.069.083.031.183.068.1.038.183.069.116.043.166.063.116.043.166.063.15.056.149.056a33.09 33.09 0 0 1 .299.113l.316.118a40.611 40.611 0 0 0 .615.231 23.743 23.743 0 0 0 .299.113l.166.062.116.044.166.062.116.044.183.069.1.037.182.069.083.031.183.069.083.031.183.069.066.025c.117.043.243.11.36.154l.066.025.1.037c.05.019.099.038.16.079l.066.025a.751.751 0 0 1 .176.085l.05.019c.067.025.127.067.21.098l.017.006c1.495.714 2.593 1.373 3.332 2.03l.174.141c.712.628 1.025 1.258 1.203 1.893Zm-2.188-3.457a5.627 5.627 0 0 0-.564-1.122 7.555 7.555 0 0 0-1.495-1.32c.083.182.104.38.008.533-.162.281-.613.32-.98.087-.368-.233-.538-.638-.376-.919.102-.17.302-.246.526-.238a18.002 18.002 0 0 0-2.3-1.092c-1.651-.299-2.044.293-2.099.841a43.17 43.17 0 0 0-2.23-.724c.42-.714 1.129-1.036 1.129-1.036l-.017-.006a7.055 7.055 0 0 0-.664-.098c-.433.141-1.021.545-1.32.888l-.451-.113c.215-.317.647-.61 1.11-.834-1.132-.065-2.087.107-2.788.507-.218-.025-.413-.061-.598-.073 1.515-1.156 4.355-1.094 7.776.193 3.439 1.292 5.6 3.109 5.978 4.977-.191-.148-.421-.291-.645-.451Zm-26.521 14.923c.038-.1.185-.291.767-.376 1.151-.136 3.584.248 7.729 1.579l.15.056.099.037c.083.032.166.063.256.077a112.128 112.128 0 0 1 2.516.871l.249.093.117.044.216.081.182.069.167.062.365.138.365.137.167.062.182.069.216.081.116.044.25.094.049.018c.841.335 1.649.658 2.417.985.083.031.166.062.243.11l.1.037.166.063c3.995 1.729 6.079 3.043 6.855 3.904.382.447.367.688.33.787-.75 1.994-4.953 1.475-13.258-1.647-8.123-3.053-11.754-5.499-11.011-7.475Z"/><path fill="#939597" d="M685.613 699.027a37.385 37.385 0 0 1-2.526-1.348c-.825-.48-1.636-.994-2.448-1.507-1.524-.839-1.912-1.269-2.007-1.418.062-.015.203-.038.467-.033a1.596 1.596 0 0 0 .438.449c.208.154.405.285.602.416.417.251.824.48 1.254.698.843.431 1.698.828 2.56 1.209-.808-.474-1.632-.954-2.404-1.472a16.728 16.728 0 0 1-1.138-.807c-.157-.135-.321-.254-.473-.405.179.029.374.064.609.096a.68.68 0 0 0 .118.139c.07.064.124.123.185.164a8.249 8.249 0 0 0 1.179.747c.533.295 1.079.557 1.632.803a27.51 27.51 0 0 1-1.46-1.061 11.247 11.247 0 0 1-.674-.576c-.017-.006-.011-.022-.027-.029l.417.1c.123.027.245.055.378.105.353.473 3.023 1.742 6.378 3.004 3.356 1.261 6.217 2.071 6.778 1.941.11.06.22.121.353.171.11.06.203.114.303.151-.016-.006-.039.004-.062.015-.287.006-.59.006-.887-.011a27.568 27.568 0 0 1-1.797-.164c.578.179 1.167.325 1.757.471.295.073.596.129.904.169.162.023.307.04.475.046.079-.008.168.007.247-.002a.479.479 0 0 0 .204-.037c.203.114.39.223.538.335a6.387 6.387 0 0 1-.663-.003c-.465-.023-.935-.086-1.387-.142a37.728 37.728 0 0 1-2.779-.476c.899.281 1.805.546 2.722.777.468.119.924.215 1.404.3.235.032.486.069.727.084.129.01.264.004.399-.002.079-.008.141-.023.226-.047l.023-.011c.251.189.353.322.401.397-.171.05-.723.108-2.322-.228-.966-.154-1.938-.292-2.891-.48a39.91 39.91 0 0 1-2.855-.675c.907.36 1.844.693 2.782.97.932.293 1.9.543 2.835.781l.033.012c2.423.513 2.895.217 3.032-.149.15-.398-.063-.991-2.8-2.436-1.866-.986-4.407-2.093-7.165-3.13-2.757-1.036-5.399-1.877-7.452-2.365-3.011-.715-3.562-.41-3.712-.011-.137.365.039.905 2.327 2.182.865.421 1.731.841 2.603 1.244.845.375 1.736.729 2.639 1.049Z"/></g></svg>