<svg xmlns="http://www.w3.org/2000/svg" viewBox="0 0 500 500"><path d="M95.77 40.41c-51.82 0-51.9 73.69 0 73.69s51.9-73.69 0-73.69Z" style="fill:#ebebeb"/><path d="M127.28 84.16c-2.76 12.68-13.27 23.67-31.52 23.67-43.06 0-43-61.15 0-61.15h.85c-40.47.74-40.27 58.66.79 58.66 16.75.01 26.74-9.68 29.88-21.18Z" style="fill:#dbdbdb"/><path d="M96.08 54.74A1.3 1.3 0 0 1 97.42 56v2a19.27 19.27 0 0 1 10 3.59c.51.36.79.67.79 1.18a1.39 1.39 0 0 1-1.46 1.28 1.46 1.46 0 0 1-1-.35 16.81 16.81 0 0 0-8.41-3.34v14.38c8.52 1.65 12.11 4.57 12.11 9.6 0 5.43-5 9.28-12 9.49v4a1.35 1.35 0 0 1-2.69 0v-4.06a22.13 22.13 0 0 1-12.61-5 1.33 1.33 0 0 1-.62-1.08 1.41 1.41 0 0 1 1.4-1.28 1.43 1.43 0 0 1 1 .36 18.86 18.86 0 0 0 10.94 4.67V76.85C86.44 75.15 83 72.33 83 67.2s4.93-9.13 11.77-9.28V56a1.31 1.31 0 0 1 1.31-1.26Zm-1.23 19.49v-14c-5.44.1-9 3.08-9 6.77-.03 3.49 1.76 5.64 9 7.23Zm2.46 3.13v14.16c5.61-.11 9.25-3.08 9.25-7 0-3.52-1.96-5.67-9.25-7.16Z" style="fill:#dbdbdb"/><path d="M411.72 139.94c-41.83 0-41.9 59.49 0 59.49s41.9-59.49 0-59.49Z" style="fill:#ebebeb"/><path d="M437.16 175.26c-2.23 10.24-10.72 19.11-25.44 19.11-34.77 0-34.72-49.37 0-49.37h.68c-32.67.6-32.51 47.36.64 47.36 13.52.01 21.58-7.82 24.12-17.1Z" style="fill:#dbdbdb"/><path d="M412 151.51a1.06 1.06 0 0 1 1.09 1v1.66a15.5 15.5 0 0 1 8.05 2.9c.41.29.64.54.64.95a1.13 1.13 0 0 1-1.18 1 1.19 1.19 0 0 1-.81-.29 13.52 13.52 0 0 0-6.79-2.7v11.6c6.88 1.32 9.77 3.68 9.77 7.74 0 4.39-4 7.5-9.68 7.66v3.23a1.09 1.09 0 0 1-2.17 0V183a17.86 17.86 0 0 1-10.19-4 1.08 1.08 0 0 1-.5-.87 1.14 1.14 0 0 1 1.14-1 1.23 1.23 0 0 1 .81.29 15.28 15.28 0 0 0 8.83 3.77v-11.8c-6.79-1.37-9.6-3.65-9.6-7.79s4-7.37 9.51-7.49v-1.61a1 1 0 0 1 1.08-.99Zm-1 15.74v-11.31c-4.39.08-7.29 2.48-7.29 5.47-.02 2.81 1.43 4.59 7.29 5.84Zm2 2.52v11.43c4.52-.08 7.47-2.48 7.47-5.63-.03-2.86-1.62-4.57-7.47-5.8ZM300.36 197.29c-46.66 8.37-34.33 77.49 12.4 69.1s34.33-77.48-12.4-69.1Z" style="fill:#dbdbdb"/><path d="M304.74 196.5c-44.46 8-32.14 77.1 12.4 69.11s32.14-77.1-12.4-69.11Z" style="fill:#ebebeb"/><path d="M339.14 232.68c-.24 12.32-7.4 24.25-23.06 27.06-37 6.63-47.19-50.74-10.29-57.36.24 0 .48-.09.73-.12-34.61 6.93-24.69 61.22 10.55 54.89 14.37-2.57 21.31-13.15 22.07-24.47Z" style="fill:#dbdbdb"/><path d="M313.62 209.86a1.19 1.19 0 0 1 1 1.31l-.22 1.94a15.94 15.94 0 0 1 8.24 4.41 1.39 1.39 0 0 1 .55 1.2 1.25 1.25 0 0 1-1.41 1.06 1.16 1.16 0 0 1-.83-.44 13.93 13.93 0 0 0-6.91-4l-1.6 13.59c7.19 2.42 10 5.55 9.42 10.31-.61 5.15-5.36 8.28-11.45 7.76l-.44 3.78a1.17 1.17 0 1 1-2.33-.27l.45-3.83a18.36 18.36 0 0 1-10.37-6 1.23 1.23 0 0 1-.41-1.08 1.27 1.27 0 0 1 1.35-1.07 1.25 1.25 0 0 1 .84.44 15.72 15.72 0 0 0 8.94 5.53l1.63-13.83c-7.09-2.46-9.79-5.48-9.22-10.34s5.29-8.13 11.23-7.58l.22-1.85a1.19 1.19 0 0 1 1.32-1.04Zm-3.24 18.32 1.56-13.25c-4.72-.45-8.16 2-8.57 5.49-.37 3.3.93 5.52 7.01 7.76Zm1.79 3.22-1.58 13.39c4.87.48 8.35-2 8.79-5.66.39-3.35-1.07-5.58-7.21-7.73Z" style="fill:#dbdbdb"/><path d="M411.72 115.88C377.13 126.57 342.54 79.94 308 90.63a278.47 278.47 0 0 1 18.2-30.43c28.16 4.78 56.31 34.21 84.47 26.46q.51 14.63 1.05 29.22Z" style="fill:#ebebeb"/><path d="M377.21 97.34c-1.1 5.13-8.32 6.32-16.12 2.18s-12.43-10.8-10.32-15.29 9.32-5.21 16.12-1.75 11.41 9.79 10.32 14.86ZM342.28 79.66c-.56 1-2.62 1.19-4.59.47S334.61 78 335.24 77s2.68-1.38 4.59-.61 3.02 2.24 2.45 3.27ZM393.13 101.72c-.11 1.25-1.81 2-3.79 1.48s-3.44-2-3.26-3.21 1.87-1.72 3.78-1.26 3.38 1.73 3.27 2.99ZM328.7 60.7a293 293 0 0 0-17.61 29.11c-1 .22-2.1.49-3.15.82a280 280 0 0 1 18.21-30.43c.85.15 1.7.32 2.55.5ZM411.72 115.88c-1.05.32-2.09.59-3.14.82q-.27-14.72-.52-29.43c.85-.17 1.71-.37 2.56-.61q.56 14.63 1.1 29.22Z" style="fill:#dbdbdb"/><path d="M411.65 114c0 .61.05 1.23.07 1.84-34.59 10.69-69.18-35.95-103.78-25.25l1.15-2.19c34.19-9.29 68.38 36.13 102.56 25.6ZM410.62 86.66c0 .61.05 1.23.07 1.84C382.13 96.42 353.57 66 325 61.87l1.15-1.67c28.16 4.8 56.31 34.21 84.47 26.46Z" style="fill:#dbdbdb"/><path d="M319.06 87.17a37 37 0 0 0-6.86.57q1.21-2.26 2.45-4.45c3.69-.36 5.67 1.71 4.41 3.88ZM408.48 110.75c0 1.37 0 2.73.07 4.1a36.62 36.62 0 0 1-6.88.77c.06-2.28 3.11-4.09 6.81-4.87ZM402.35 89.78a36.19 36.19 0 0 0 5.74-.66c0 1.36.05 2.72.08 4.09-3.28.65-5.88-1.21-5.82-3.43ZM325.15 66c.81-1.25 1.63-2.47 2.45-3.68 1.91.38 3.82.87 5.73 1.45-1.26 1.87-4.91 2.69-8.18 2.23Z" style="fill:#dbdbdb"/><path d="M366.32 84.65c.33.16.55.47.49.66s-.13.39-.2.59a16.88 16.88 0 0 1 4.22 3.29c.2.22.3.37.26.52s-.42.23-.78.06a1.27 1.27 0 0 1-.43-.33 14.72 14.72 0 0 0-3.55-2.89c-.45 1.38-.91 2.76-1.37 4.13 3.87 2.53 5.33 4.2 4.92 5.69s-3.22 1.55-6.69-.18l-.39 1.15c-.06.19-.42.19-.78 0s-.62-.51-.55-.7c.13-.39.26-.77.4-1.16a20.18 20.18 0 0 1-5.65-4.6c-.16-.18-.23-.33-.18-.45s.47-.19.82 0a1.34 1.34 0 0 1 .45.35 16.82 16.82 0 0 0 4.84 4.08l1.44-4.17c-3.8-2.53-5.13-4.18-4.55-5.6s3.25-1.38 6.36.16c.07-.18.13-.37.19-.56s.41-.21.73-.04Zm-2.47 5.29 1.38-4c-2.49-1.24-4.45-1.26-4.85-.22s.23 2.02 3.47 4.22Zm.86 1.5-1.36 4.06c2.76 1.39 4.8 1.4 5.13.26s-.48-2.13-3.77-4.32ZM197.74 319.45c-26.38 24.8-77.94-1.9-104.32 22.9a279.54 279.54 0 0 1 3-35.33c27.39-8.08 65.62 6 87.51-13.34q6.91 12.9 13.81 25.77Z" style="fill:#ebebeb"/><path d="M158.59 318c1.27 5.08-4.69 9.32-13.52 9s-15.91-4.24-16-9.2 6.08-8.77 13.7-8.65 14.58 3.77 15.82 8.85ZM119.45 317.41c0 1.17-1.83 2.22-3.92 2.44s-3.68-.52-3.59-1.76 1.8-2.42 3.86-2.57 3.71.72 3.65 1.89ZM174.82 314.89c.45 1.17-.75 2.58-2.75 3s-4-.29-4.35-1.45.93-2.37 2.85-2.8 3.8.08 4.25 1.25ZM98.93 306.35a291.79 291.79 0 0 0-3.05 33.89c-.84.66-1.66 1.36-2.46 2.11a279.7 279.7 0 0 1 3-35.33c.82-.24 1.66-.47 2.51-.67ZM197.74 319.45c-.8.75-1.62 1.45-2.47 2.11l-13.39-26.21c.7-.52 1.37-1.08 2-1.67q6.96 12.9 13.86 25.77Z" style="fill:#dbdbdb"/><path d="m196.87 317.83.87 1.62c-26.38 24.8-77.94-1.9-104.32 22.9 0-.83 0-1.65.07-2.47 26.61-23.4 77.28 2.39 103.38-22.05ZM183.92 293.68l.87 1.63C162.61 315 123.6 300.21 96.12 309c.09-.68.19-1.35.29-2 27.39-8.06 65.59 6 87.51-13.32Z" style="fill:#dbdbdb"/><path d="M101.89 334.36a37.15 37.15 0 0 0-5.89 3.53c.07-1.72.15-3.41.25-5.08 3.13-1.95 5.8-.98 5.64 1.55ZM192.57 316.27l1.86 3.64a36.62 36.62 0 0 1-5.83 3.72c-.95-2.08.99-5.04 3.97-7.36ZM177.86 300.12a37.16 37.16 0 0 0 4.87-3.12l1.86 3.64c-2.65 2.03-5.8 1.54-6.73-.52ZM98.06 312.67c.18-1.48.38-2.94.58-4.38 1.89-.5 3.82-.9 5.79-1.22-.31 2.23-3.24 4.57-6.37 5.6Z" style="fill:#dbdbdb"/><path d="M143.24 311.33c.36 0 .7.18.72.38l.09.62a16.61 16.61 0 0 1 5.23 1.11c.28.1.43.19.46.35s-.27.39-.67.39a1.16 1.16 0 0 1-.54-.11 14.39 14.39 0 0 0-4.44-1l.57 4.31c4.6.57 6.64 1.43 6.92 3s-2.21 2.8-6.09 2.77c0 .4.11.8.16 1.2 0 .2-.29.36-.7.35s-.78-.18-.8-.38L144 323a20.4 20.4 0 0 1-7.1-1.65c-.22-.1-.35-.19-.36-.33s.34-.38.74-.37a1.42 1.42 0 0 1 .56.12 16.83 16.83 0 0 0 6.14 1.54l-.54-4.38c-4.53-.6-6.44-1.5-6.55-3s2.31-2.66 5.79-2.65c0-.2-.05-.39-.08-.59s.27-.36.64-.36Zm.1 5.85c-.17-1.4-.35-2.8-.52-4.21-2.78 0-4.54.83-4.45 1.93s1.1 1.72 4.97 2.28Zm1.43 1 .57 4.25c3.08 0 4.92-.85 4.72-2s-1.34-1.78-5.29-2.29ZM356.69 128.92c-27.49-12.36-55 22.34-82.46 10q3.21-9.78 6.41-20.36c22.37 4.55 44.74-17.22 67.1-14.58 2.98 7.83 5.96 16.11 8.95 24.94Z" style="fill:#ebebeb"/><path d="M325.33 119.1c.64 4-3.87 9-10.08 11.55s-11.09.88-10.92-3.4S309 118 314.4 115.77s10.29-.68 10.93 3.33ZM297.41 128.81c-.1 1-1.45 2.11-3 2.4s-2.72-.37-2.57-1.35 1.5-1.94 3-2.23 2.67.19 2.57 1.18ZM337.8 115.25c.26.93-.8 1.86-2.38 2.18s-3-.08-3.22-1 .85-2 2.38-2.33 2.96.22 3.22 1.15ZM282.67 118.88c-2 7.21-4 14.23-5.94 21-.83-.29-1.67-.62-2.5-1q3.21-9.78 6.41-20.36c.68.16 1.36.27 2.03.36ZM356.69 128.92c-.84-.37-1.67-.7-2.5-1-2.83-8.48-5.66-16.5-8.48-24.14.67 0 1.35.09 2 .17 3.01 7.86 5.99 16.14 8.98 24.97Z" style="fill:#dbdbdb"/><path d="M356.12 127.26c.19.55.38 1.11.56 1.66-27.48-12.36-55 22.34-82.45 10 .14-.42.27-.83.4-1.24 27.17 11.74 54.37-22 81.49-10.42ZM347.74 104c.19.49.37 1 .56 1.49-22.68-3.1-45.37 19.35-68.06 14.41.13-.44.27-.88.4-1.32 22.36 4.51 44.73-17.25 67.1-14.58Z" style="fill:#dbdbdb"/><path d="M282.56 139.89a30.82 30.82 0 0 1-5.46-1.28c.28-1 .55-1.9.83-2.86 2.94.88 5.01 2.44 4.63 4.14ZM352.48 122.84l1.17 3.49a30.57 30.57 0 0 0-5.45-1.24c-.58-1.78 1.34-3.09 4.28-2.25ZM341.67 105.22a36.67 36.67 0 0 1 4.57 0c.39 1.07.79 2.15 1.18 3.23-2.6-.28-5.17-1.54-5.75-3.23ZM281.47 123.23c.28-1 .55-2 .83-3a33.29 33.29 0 0 0 4.55.34c-.37 1.73-2.78 3.12-5.38 2.66Z" style="fill:#dbdbdb"/><path d="M314.62 117.55c.26-.11.48-.06.5.11v.51a8.84 8.84 0 0 1 3.68-.57c.19 0 .3.05.31.18s-.21.41-.5.52a.65.65 0 0 1-.37.06 7.55 7.55 0 0 0-3.12.42c.07 1.19.15 2.39.22 3.58 3.23-.89 4.66-.71 4.79.53s-1.7 3-4.44 4.22l.06 1c0 .17-.22.41-.51.53s-.54.07-.55-.09l-.06-1a10.48 10.48 0 0 1-4.94.71c-.15 0-.24-.07-.24-.19s.25-.42.53-.53a.76.76 0 0 1 .39-.07 8.47 8.47 0 0 0 4.28-.52c-.07-1.22-.14-2.44-.2-3.66-3.18.86-4.49.64-4.5-.66s1.74-3 4.2-4.06v-.49c-.01-.2.21-.43.47-.53Zm-.18 5.06-.19-3.51c-2 .83-3.25 2.09-3.22 3s.7 1.2 3.41.51Zm1 .4c.08 1.18.15 2.36.23 3.54 2.18-.92 3.53-2.22 3.43-3.18s-.91-1.11-3.69-.37ZM135.44 284c-19.13-21.52-53.57-11.53-72.7-33 5.1-4.2 10.36-8.74 15.74-13.54 17.89 12.75 43.82 8.94 61.29 22.53q-2.03 11.66-4.33 24.01Z" style="fill:#ebebeb"/><path d="M114.21 260.47c-1.51 3.66-7.56 5.4-13.62 4.13s-9-5.31-6.72-8.79 8.36-5.27 13.63-4.17 8.24 5.14 6.71 8.83ZM87.59 253.51c-.58.77-2.23 1-3.66.47s-2.05-1.65-1.44-2.38 2.22-.87 3.61-.36 2.07 1.5 1.49 2.27ZM126 264c-.25.9-1.58 1.11-3 .55s-2.36-1.66-2.07-2.53 1.68-1.19 3.06-.66 2.26 1.71 2.01 2.64ZM80.13 238.5c-5.32 5-10.54 9.8-15.61 14.3-.61-.6-1.2-1.22-1.78-1.87 5.09-4.2 10.35-8.74 15.74-13.54q.81.61 1.65 1.11ZM135.44 284c-.58-.65-1.17-1.28-1.78-1.87q2.37-11.94 4.5-23.37c.54.38 1.08.78 1.61 1.19q-2.03 11.7-4.33 24.05Z" style="fill:#dbdbdb"/><path d="M135.73 282.42c-.09.51-.19 1-.29 1.55-19.13-21.52-53.57-11.53-72.7-33l1-.8c19.06 20.83 52.93 11.31 71.99 32.25ZM139.77 259.92c-.09.49-.17 1-.26 1.48-17.61-14-44-9.9-62-23.11l1-.9c17.86 12.75 43.79 8.94 61.26 22.53Z" style="fill:#dbdbdb"/><path d="M69.67 255.41a38.73 38.73 0 0 1-4.19-3.47l2.13-1.9c2.2 1.96 3.22 4.18 2.06 5.37ZM134.61 277.3c-.22 1.09-.43 2.2-.65 3.3a37.89 37.89 0 0 0-4.19-3.48c.39-1.7 2.65-1.82 4.84.18ZM134.13 257.79a40.23 40.23 0 0 1 3.76 2.38l-.6 3.2c-2.05-1.54-3.53-3.91-3.16-5.58ZM76.92 241.51l2.21-2.06a44.05 44.05 0 0 0 3.81 2.23c-1.18 1.25-3.94 1.32-6.02-.17Z" style="fill:#dbdbdb"/><path d="M106.77 253.25c.25.06.4.23.32.37s-.15.3-.23.45a7.82 7.82 0 0 1 3.11 1.55c.14.12.21.21.15.32s-.37.23-.65.17a.57.57 0 0 1-.32-.16 6.63 6.63 0 0 0-2.6-1.37l-1.65 3.13c2.93 1 3.93 2 3.41 3.08s-2.86 1.62-5.56 1.09l-.46.87c-.07.15-.38.22-.66.16s-.45-.23-.37-.38l.47-.88a9.43 9.43 0 0 1-4.17-2.12c-.1-.1-.15-.18-.09-.28a.72.72 0 0 1 .69-.16.58.58 0 0 1 .33.16 7.77 7.77 0 0 0 3.55 1.91l1.71-3.19c-2.87-1-3.78-1.91-3.13-3s2.89-1.58 5.31-1.11c.07-.14.15-.28.23-.42a.6.6 0 0 1 .61-.19Zm-2.71 4.15 1.64-3c-1.93-.39-3.57 0-4 .77s-.08 1.32 2.36 2.23Zm.54.88c-.54 1-1.08 2.06-1.63 3.09 2.14.43 3.84.09 4.25-.77s-.11-1.42-2.62-2.32ZM374.64 440.06h64.05v14.15h-64.05z" style="fill:#ebebeb"/><g style="opacity:.1"><path d="M377.28 441.36a31.21 31.21 0 0 1 0 11.32 31.44 31.44 0 0 1 0-11.32ZM382.05 441.36a31.21 31.21 0 0 1 0 11.32 31.44 31.44 0 0 1 0-11.32ZM384.38 441.36a31.21 31.21 0 0 1 0 11.32 31.44 31.44 0 0 1 0-11.32ZM397.17 441.36a31.21 31.21 0 0 1 0 11.32 31.44 31.44 0 0 1 0-11.32ZM400.63 441.36a31.21 31.21 0 0 1 0 11.32 31.44 31.44 0 0 1 0-11.32ZM414.94 441.36a31.21 31.21 0 0 1 0 11.32 31.44 31.44 0 0 1 0-11.32ZM418.25 441.36a31.44 31.44 0 0 1 0 11.32 31.21 31.21 0 0 1 0-11.32ZM424.32 441.36a31.44 31.44 0 0 1 0 11.32 31.21 31.21 0 0 1 0-11.32ZM412.18 441.36a31.44 31.44 0 0 1 0 11.32 31.21 31.21 0 0 1 0-11.32ZM388.61 441.36a31.44 31.44 0 0 1 0 11.32 31.21 31.21 0 0 1 0-11.32ZM405.19 441.36a31.44 31.44 0 0 1 0 11.32 31.21 31.21 0 0 1 0-11.32ZM407.57 441.36a31.21 31.21 0 0 1 0 11.32 31.44 31.44 0 0 1 0-11.32ZM432.23 441.36a31.21 31.21 0 0 1 0 11.32 31.44 31.44 0 0 1 0-11.32ZM435.81 441.36a31.44 31.44 0 0 1 0 11.32 31.21 31.21 0 0 1 0-11.32ZM427.14 441.36a31.44 31.44 0 0 1 0 11.32 31.21 31.21 0 0 1 0-11.32ZM394.41 441.36a31.44 31.44 0 0 1 0 11.32 31.21 31.21 0 0 1 0-11.32Z"/></g><path d="M438.68 440.06v3.01l-64.04 2.02v-5.03h64.04z" style="opacity:.1"/><path d="M370.26 425.91h64.05v14.15h-64.05z" style="fill:#ebebeb"/><g style="opacity:.1"><path d="M372.9 427.21a31.21 31.21 0 0 1 0 11.32 31.44 31.44 0 0 1 0-11.32ZM377.67 427.21a31.21 31.21 0 0 1 0 11.32 31.44 31.44 0 0 1 0-11.32ZM380 427.21a31.21 31.21 0 0 1 0 11.32 31.44 31.44 0 0 1 0-11.32ZM392.79 427.21a31.21 31.21 0 0 1 0 11.32 31.44 31.44 0 0 1 0-11.32ZM396.25 427.21a31.21 31.21 0 0 1 0 11.32 31.44 31.44 0 0 1 0-11.32ZM410.56 427.21a31.21 31.21 0 0 1 0 11.32 31.44 31.44 0 0 1 0-11.32ZM413.87 427.21a31.44 31.44 0 0 1 0 11.32 31.21 31.21 0 0 1 0-11.32ZM419.94 427.21a31.44 31.44 0 0 1 0 11.32 31.21 31.21 0 0 1 0-11.32ZM407.8 427.21a31.44 31.44 0 0 1 0 11.32 31.21 31.21 0 0 1 0-11.32ZM384.23 427.21a31.44 31.44 0 0 1 0 11.32 31.21 31.21 0 0 1 0-11.32ZM400.81 427.21a31.44 31.44 0 0 1 0 11.32 31.21 31.21 0 0 1 0-11.32ZM403.19 427.21a31.44 31.44 0 0 1 0 11.32 31.44 31.44 0 0 1 0-11.32ZM427.85 427.21a31.21 31.21 0 0 1 0 11.32 31.44 31.44 0 0 1 0-11.32ZM431.43 427.21a31.44 31.44 0 0 1 0 11.32 31.21 31.21 0 0 1 0-11.32ZM422.76 427.21a31.44 31.44 0 0 1 0 11.32 31.21 31.21 0 0 1 0-11.32ZM390 427.21a31.44 31.44 0 0 1 0 11.32 31.21 31.21 0 0 1 0-11.32Z"/></g><path d="M434.3 425.91v3.01l-64.04 2.02v-5.03h64.04z" style="opacity:.1"/><path d="M380.16 397.72h64.05v14.15h-64.05z" style="fill:#ebebeb"/><g style="opacity:.1"><path d="M382.8 399a31.44 31.44 0 0 1 0 11.32 31.21 31.21 0 0 1 0-11.32ZM387.56 399a31.21 31.21 0 0 1 0 11.32 31.44 31.44 0 0 1 0-11.32ZM389.9 399a31.44 31.44 0 0 1 0 11.32 31.21 31.21 0 0 1 0-11.32ZM402.69 399a31.44 31.44 0 0 1 0 11.32 31.21 31.21 0 0 1 0-11.32ZM406.15 399a31.44 31.44 0 0 1 0 11.32 31.21 31.21 0 0 1 0-11.32ZM420.46 399a31.44 31.44 0 0 1 0 11.32 31.21 31.21 0 0 1 0-11.32ZM423.76 399a31.21 31.21 0 0 1 0 11.32 31.44 31.44 0 0 1 0-11.32ZM429.83 399a31.21 31.21 0 0 1 0 11.32 31.44 31.44 0 0 1 0-11.32ZM417.69 399a31.21 31.21 0 0 1 0 11.32 31.44 31.44 0 0 1 0-11.32ZM394.12 399a31.21 31.21 0 0 1 0 11.32 31.44 31.44 0 0 1 0-11.32ZM410.7 399a31.44 31.44 0 0 1 0 11.32 31.21 31.21 0 0 1 0-11.32ZM413.08 399a31.21 31.21 0 0 1 0 11.32 31.44 31.44 0 0 1 0-11.32ZM437.74 399a31.21 31.21 0 0 1 0 11.32 31.21 31.21 0 0 1 0-11.32ZM441.32 399a31.21 31.21 0 0 1 0 11.32 31.44 31.44 0 0 1 0-11.32ZM432.65 399a31.21 31.21 0 0 1 0 11.32 31.44 31.44 0 0 1 0-11.32ZM399.92 399a31.21 31.21 0 0 1 0 11.32 31.44 31.44 0 0 1 0-11.32Z"/></g><path d="M444.2 397.72v3.01l-64.05 2.02v-5.03h64.05z" style="opacity:.1"/><path d="M378.54 383.57h64.05v14.15h-64.05z" style="fill:#ebebeb"/><g style="opacity:.1"><path d="M439.71 396.19a31.21 31.21 0 0 1 0-11.32 31.44 31.44 0 0 1 0 11.32ZM434.94 396.19a31.21 31.21 0 0 1 0-11.32 31.44 31.44 0 0 1 0 11.32ZM432.61 396.19a31.21 31.21 0 0 1 0-11.32 31.44 31.44 0 0 1 0 11.32ZM419.81 396.19a31.44 31.44 0 0 1 0-11.32 31.21 31.21 0 0 1 0 11.32ZM416.35 396.19a31.44 31.44 0 0 1 0-11.32 31.21 31.21 0 0 1 0 11.32ZM402.05 396.19a31.21 31.21 0 0 1 0-11.32 31.21 31.21 0 0 1 0 11.32ZM398.74 396.19a31.21 31.21 0 0 1 0-11.32 31.44 31.44 0 0 1 0 11.32ZM392.67 396.19a31.21 31.21 0 0 1 0-11.32 31.44 31.44 0 0 1 0 11.32ZM404.81 396.19a31.21 31.21 0 0 1 0-11.32 31.44 31.44 0 0 1 0 11.32ZM428.38 396.19a31.21 31.21 0 0 1 0-11.32 31.44 31.44 0 0 1 0 11.32ZM411.8 396.19a31.44 31.44 0 0 1 0-11.32 31.21 31.21 0 0 1 0 11.32ZM409.42 396.19a31.21 31.21 0 0 1 0-11.32 31.44 31.44 0 0 1 0 11.32ZM384.76 396.19a31.21 31.21 0 0 1 0-11.32 31.44 31.44 0 0 1 0 11.32ZM381.18 396.19a31.21 31.21 0 0 1 0-11.32 31.44 31.44 0 0 1 0 11.32ZM389.85 396.19a31.44 31.44 0 0 1 0-11.32 31.21 31.21 0 0 1 0 11.32ZM422.58 396.19a31.21 31.21 0 0 1 0-11.32 31.44 31.44 0 0 1 0 11.32Z"/></g><path d="M442.58 383.57v3.01l-64.04 2.02v-5.03h64.04z" style="opacity:.1"/><path d="M374.64 369.42h64.05v14.15h-64.05z" style="fill:#ebebeb"/><g style="opacity:.1"><path d="M377.28 370.72a31.21 31.21 0 0 1 0 11.32 31.44 31.44 0 0 1 0-11.32ZM382.05 370.72a31.21 31.21 0 0 1 0 11.32 31.44 31.44 0 0 1 0-11.32ZM384.38 370.72a31.21 31.21 0 0 1 0 11.32 31.44 31.44 0 0 1 0-11.32ZM397.17 370.72a31.21 31.21 0 0 1 0 11.32 31.44 31.44 0 0 1 0-11.32ZM400.63 370.72a31.21 31.21 0 0 1 0 11.32 31.44 31.44 0 0 1 0-11.32ZM414.94 370.72a31.21 31.21 0 0 1 0 11.32 31.44 31.44 0 0 1 0-11.32ZM418.25 370.72a31.44 31.44 0 0 1 0 11.32 31.21 31.21 0 0 1 0-11.32ZM424.32 370.72a31.44 31.44 0 0 1 0 11.32 31.21 31.21 0 0 1 0-11.32ZM412.18 370.72a31.44 31.44 0 0 1 0 11.32 31.21 31.21 0 0 1 0-11.32ZM388.61 370.72a31.44 31.44 0 0 1 0 11.32 31.44 31.44 0 0 1 0-11.32ZM405.19 370.72a31.44 31.44 0 0 1 0 11.32 31.21 31.21 0 0 1 0-11.32ZM407.57 370.72a31.21 31.21 0 0 1 0 11.32 31.44 31.44 0 0 1 0-11.32ZM432.23 370.72a31.21 31.21 0 0 1 0 11.32 31.44 31.44 0 0 1 0-11.32ZM435.81 370.72a31.44 31.44 0 0 1 0 11.32 31.21 31.21 0 0 1 0-11.32ZM427.14 370.72a31.44 31.44 0 0 1 0 11.32 31.21 31.21 0 0 1 0-11.32ZM394.41 370.72a31.44 31.44 0 0 1 0 11.32 31.21 31.21 0 0 1 0-11.32Z"/></g><path d="M438.69 369.42v3.01l-64.05 2.02v-5.03h64.05z" style="opacity:.1"/><path d="M374.64 411.87h64.05v14.15h-64.05z" style="fill:#ebebeb"/><g style="opacity:.1"><path d="M435.81 424.49a31.21 31.21 0 0 1 0-11.32 31.44 31.44 0 0 1 0 11.32ZM431 424.49a31.21 31.21 0 0 1 0-11.32 31.44 31.44 0 0 1 0 11.32ZM428.71 424.49a31.21 31.21 0 0 1 0-11.32 31.44 31.44 0 0 1 0 11.32ZM415.92 424.49a31.21 31.21 0 0 1 0-11.32 31.44 31.44 0 0 1 0 11.32ZM412.46 424.49a31.21 31.21 0 0 1 0-11.32 31.44 31.44 0 0 1 0 11.32ZM398.15 424.49a31.21 31.21 0 0 1 0-11.32 31.44 31.44 0 0 1 0 11.32ZM394.84 424.49a31.44 31.44 0 0 1 0-11.32 31.21 31.21 0 0 1 0 11.32ZM388.77 424.49a31.44 31.44 0 0 1 0-11.32 31.21 31.21 0 0 1 0 11.32ZM400.91 424.49a31.44 31.44 0 0 1 0-11.32 31.21 31.21 0 0 1 0 11.32ZM424.48 424.49a31.44 31.44 0 0 1 0-11.32 31.21 31.21 0 0 1 0 11.32ZM407.9 424.49a31.44 31.44 0 0 1 0-11.32 31.21 31.21 0 0 1 0 11.32ZM405.52 424.49a31.21 31.21 0 0 1 0-11.32 31.44 31.44 0 0 1 0 11.32ZM380.86 424.49a31.21 31.21 0 0 1 0-11.32 31.44 31.44 0 0 1 0 11.32ZM377.28 424.49a31.44 31.44 0 0 1 0-11.32 31.21 31.21 0 0 1 0 11.32ZM386 424.49a31.44 31.44 0 0 1 0-11.32 31.21 31.21 0 0 1 0 11.32ZM418.68 424.49a31.44 31.44 0 0 1 0-11.32 31.21 31.21 0 0 1 0 11.32Z"/></g><path d="M438.68 411.88v3l-64.04 2.02v-5.02h64.04z" style="opacity:.1"/><path d="M369.3 391.14c42.16 7.56 31 70-11.21 62.44s-31.02-70.02 11.21-62.44Z" style="fill:#ebebeb"/><path d="M369.3 391.14c42.16 7.56 31 70-11.21 62.44s-31.02-70.02 11.21-62.44Z" style="opacity:.1"/><path d="M365.34 390.42c40.18 7.21 29 69.67-11.2 62.45s-29.04-69.67 11.2-62.45Z" style="fill:#ebebeb"/><path d="M334.26 423.11c.21 11.13 6.69 21.91 20.83 24.45 33.4 6 42.65-45.84 9.3-51.83l-.65-.1c31.26 6.26 22.3 55.31-9.54 49.6-12.99-2.33-19.2-11.94-19.94-22.12Z" style="opacity:.1"/><path d="M363.21 402.21a1.07 1.07 0 0 1 .77 1.28l-.42 1.72a14.38 14.38 0 0 1 6.87 4.9 1.26 1.26 0 0 1 .36 1.14 1.13 1.13 0 0 1-1.38.79 1.11 1.11 0 0 1-.7-.49 12.54 12.54 0 0 0-5.73-4.39l-3 12c6.18 3 8.31 6.12 7.26 10.32-1.13 4.54-5.75 6.8-11.15 5.64l-.83 3.34a1.06 1.06 0 0 1-2.06-.51l.85-3.39a16.58 16.58 0 0 1-8.61-6.56 1.12 1.12 0 0 1 1.1-1.82 1.1 1.1 0 0 1 .69.49 14.26 14.26 0 0 0 7.38 6l3.05-12.21c-6.07-3-8.14-6-7.07-10.32s5.67-6.69 10.93-5.51l.41-1.63a1.06 1.06 0 0 1 1.28-.79Zm-5 16.05 2.91-11.7c-4.17-.95-7.54.85-8.3 3.93-.73 2.92.18 5.06 5.39 7.77Zm1.23 3.08-2.95 11.83c4.31 1 7.71-.81 8.52-4.07.74-2.95-.31-5.1-5.57-7.76Z" style="opacity:.1"/><path d="M56.11 454.19c124.22-.61 263.56-.62 387.78 0-124.22.62-263.56.61-387.78 0Z" style="fill:#263238"/><path d="M342.11 182.78H442.8v156.54H342.11z" style="fill:#263238" transform="rotate(8.37 392.548 261.113)"/><path d="M334.89 181.72h100.69v156.54H334.89z" style="fill:#37474f" transform="rotate(8.37 385.326 260.06)"/><path d="M347.17 217.17h19.36v19.36h-19.36z" style="fill:#dbdbdb" transform="rotate(8.37 356.932 226.897)"/><path d="M368.87 220.37h19.36v19.36h-19.36z" style="fill:#dbdbdb" transform="rotate(8.37 378.67 230.115)"/><path d="M390.58 223.56h19.36v19.36h-19.36z" style="fill:#74b26e" transform="rotate(8.37 400.339 233.338)"/><path d="M412.29 226.76h19.36v19.36h-19.36z" style="fill:#74b26e" transform="rotate(8.37 422.004 236.493)"/><path d="M343.93 239.14h19.36v19.36h-19.36z" style="fill:#a6a6a6" transform="rotate(8.37 353.733 248.908)"/><path d="M365.64 242.34H385v19.36h-19.36z" style="fill:#a6a6a6" transform="rotate(8.37 375.403 252.131)"/><path d="M387.35 245.53h19.36v19.36h-19.36z" style="fill:#a6a6a6" transform="rotate(8.37 397.136 255.281)"/><path d="M409.03 248.86h19.36v19.36h-19.36z" style="fill:#dbdbdb" transform="rotate(8.37 418.815 258.64)"/><path d="M340.7 261.11h19.36v19.36H340.7z" style="fill:#a6a6a6" transform="rotate(8.37 350.462 270.856)"/><path d="M362.41 264.31h19.36v19.36h-19.36z" style="fill:#a6a6a6" transform="rotate(8.37 372.2 274.074)"/><path d="M384.11 267.5h19.36v19.36h-19.36z" style="fill:#a6a6a6" transform="rotate(8.37 393.87 277.297)"/><path d="M405.82 270.7h19.36v19.36h-19.36z" style="fill:#dbdbdb" transform="rotate(8.37 415.602 280.447)"/><path d="M337.47 283.08h19.36v19.36h-19.36z" style="fill:#a6a6a6" transform="rotate(8.37 347.19 292.804)"/><path d="M359.17 286.28h19.36v19.36h-19.36z" style="fill:#a6a6a6" transform="rotate(8.37 368.928 296.022)"/><path d="M380.88 289.47h19.36v19.36h-19.36z" style="fill:#a6a6a6" transform="rotate(8.37 390.666 299.24)"/><path d="M402.59 292.67h19.36v19.36h-19.36z" style="fill:#dbdbdb" transform="rotate(8.37 412.404 302.458)"/><path d="M334.23 305.05h19.36v19.36h-19.36z" style="fill:#a6a6a6" transform="rotate(8.37 343.992 314.815)"/><path d="M355.94 308.25h19.36v19.36h-19.36z" style="fill:#a6a6a6" transform="rotate(8.37 365.73 318.033)"/><path d="M377.65 311.44h19.36v19.36h-19.36z" style="fill:#dbdbdb" transform="rotate(8.37 387.394 321.188)"/><path d="M399.35 314.64h19.36V334h-19.36z" style="fill:#dbdbdb" transform="rotate(8.37 409.132 324.406)"/><path d="M354.28 224.57a1.33 1.33 0 1 1 2.63.37 1.35 1.35 0 0 1-1.53 1.23 1.33 1.33 0 0 1-1.1-1.6Zm1.92.28a.74.74 0 0 0-.49-.91c-.38-.05-.66.28-.72.71-.07.45.13.85.49.9s.65-.27.72-.7Zm-1.56 3.58L359 224a.32.32 0 0 1 .29-.11.33.33 0 0 1 .28.36.43.43 0 0 1-.11.2l-4.39 4.46a.31.31 0 0 1-.3.1.31.31 0 0 1-.27-.35.42.42 0 0 1 .14-.23Zm2.59-.51a1.34 1.34 0 1 1 2.64.37 1.33 1.33 0 1 1-2.63-.37Zm1.92.29c.07-.45-.13-.85-.49-.9s-.65.27-.72.7c-.07.46.14.85.5.9s.65-.27.71-.7ZM395.48 232a3 3 0 0 1 5.1-1.55.46.46 0 0 1-.66.64 2.06 2.06 0 0 0-1.22-.63 2.11 2.11 0 0 0-1.52.37 2 2 0 0 0-.79 1.3 1.94 1.94 0 0 0 .38 1.47 2.11 2.11 0 0 0 1.35.79 2.06 2.06 0 0 0 1.35-.25.49.49 0 0 1 .62.18.48.48 0 0 1-.17.63 3.07 3.07 0 0 1-1.93.35 3 3 0 0 1-2.51-3.3ZM401.52 235.37l.69-4.71a.44.44 0 0 1 .5-.37l2.58.38a.45.45 0 0 1-.13.89l-2.16-.32-.21 1.46 1.85.27a.47.47 0 0 1 .38.51.46.46 0 0 1-.51.38l-1.85-.27-.22 1.46 2.16.32a.45.45 0 0 1 .37.51.45.45 0 0 1-.5.38l-2.58-.38a.43.43 0 0 1-.37-.51ZM419.55 235.54a3 3 0 0 1 3.35-2.44 3 3 0 0 1 1.75.89.48.48 0 0 1 0 .65.46.46 0 0 1-.65 0 2.05 2.05 0 0 0-1.22-.62 2.11 2.11 0 0 0-1.52.36 2 2 0 0 0-.41 2.78 2.14 2.14 0 0 0 1.35.78 2 2 0 0 0 1.35-.25.49.49 0 0 1 .62.18.48.48 0 0 1-.17.63 3 3 0 0 1-1.93.35 3 3 0 0 1-2.52-3.31Z" style="fill:#37474f"/><path d="M355.69 246.88 353 251.3a.48.48 0 0 1-.61.15.47.47 0 0 1-.15-.61l2.32-3.84-2.05-.3a.46.46 0 0 1-.38-.51.46.46 0 0 1 .51-.38l2.73.41h.08l.16.09a.13.13 0 0 0 0 .05.57.57 0 0 1 0 .18ZM376.93 253.15a1.93 1.93 0 1 1-2.73-2 1.29 1.29 0 0 1-.14-.83 1.33 1.33 0 0 1 2.63.39 1.29 1.29 0 0 1-.38.75 1.93 1.93 0 0 1 .62 1.69Zm-.87-.13a1 1 0 1 0-1.18.88 1 1 0 0 0 1.18-.9Zm-1.13-2.59a.45.45 0 1 0 .89.13.43.43 0 0 0-.37-.5.44.44 0 0 0-.52.37ZM395.12 254a2 2 0 0 1 2.22-1.65 2 2 0 0 1 1.67 2v.46a4.87 4.87 0 0 1-.52 1.59 2.84 2.84 0 0 1-1.23 1.22 2.27 2.27 0 0 1-1.25.19.44.44 0 0 1-.4-.49.46.46 0 0 1 .49-.4 1.44 1.44 0 0 0 .79-.11 1.54 1.54 0 0 0 .58-.48l.14-.19a1.9 1.9 0 0 1-.79 0 2 2 0 0 1-1.7-2.14Zm.89.13a1.06 1.06 0 1 0 2.09.31 1 1 0 0 0-.89-1.2 1 1 0 0 0-1.21.93Z" style="fill:#fff"/><path d="M417 258.3a.47.47 0 0 1 .54-.41l2.48.36a.48.48 0 0 1 .4.55.46.46 0 0 1-.53.4l-2.49-.36a.48.48 0 0 1-.4-.54Z" style="fill:#37474f"/><path d="M352.35 272.26a.46.46 0 0 1-.51.38h-.08l-.09.61a.44.44 0 0 1-.88-.13l.09-.61-2.5-.36a.38.38 0 0 1-.26-.13.44.44 0 0 1 0-.63l3.49-3.23h.31a.13.13 0 0 0 0 .05l-.47 3.23h.55a.45.45 0 0 1 .35.82Zm-1.05-2.61-1.88 1.73 1.59.24ZM373.25 273.4a2 2 0 0 1 .37 1.49 2 2 0 0 1-.79 1.31 2 2 0 0 1-1.48.37 2 2 0 0 1-1.31-.78.45.45 0 0 1 .1-.64.46.46 0 0 1 .64.09 1 1 0 0 0 .71.43 1.08 1.08 0 0 0 .81-.2 1.1 1.1 0 0 0 .43-.71 1.06 1.06 0 0 0-.21-.82 1 1 0 0 0-.71-.42 1 1 0 0 0-.81.2.45.45 0 0 1-.64-.1l-.07-.11v-.13a.59.59 0 0 1 0-.14l.54-2a.55.55 0 0 1 .25-.29h.06a.49.49 0 0 1 .21 0l2.36.35a.44.44 0 0 1 .38.52.45.45 0 0 1-.52.38l-2-.29-.21.77a2.53 2.53 0 0 1 .55 0 2 2 0 0 1 1.34.72ZM395.52 278.16a2 2 0 0 1-3.89-.37s0-.3.05-.45a4.69 4.69 0 0 1 .52-1.6 2.87 2.87 0 0 1 1.23-1.21 2.35 2.35 0 0 1 1.25-.2.45.45 0 0 1 .4.49.47.47 0 0 1-.5.4 1.52 1.52 0 0 0-.78.12 1.65 1.65 0 0 0-.59.48c0 .06-.09.12-.13.19a1.9 1.9 0 0 1 .79 0 1.94 1.94 0 0 1 1.65 2.15Zm-.88-.13a1.06 1.06 0 1 0-2.1-.31 1.06 1.06 0 0 0 2.1.31Z" style="fill:#fff"/><path d="M413.92 280.39a.41.41 0 1 1 .12-.82l3.22.47a.41.41 0 0 1 .35.48.42.42 0 0 1-.47.35Zm2.47-1.77a.56.56 0 0 1-1.1-.17.54.54 0 0 1 .62-.44.55.55 0 0 1 .48.61Zm-.49 3.32a.54.54 0 0 1-.63.45.55.55 0 0 1-.47-.61.54.54 0 0 1 .63-.45.55.55 0 0 1 .47.61Z" style="fill:#37474f"/><path d="m348.36 290.38-.69 4.71a.47.47 0 0 1-.52.37.44.44 0 0 1-.37-.5l.58-3.93-.35.14a.38.38 0 0 1-.23 0 .46.46 0 0 1-.11-.86l1.07-.43h.31a.09.09 0 0 1 0 .05.13.13 0 0 0 0 .06ZM370.3 298.42a.43.43 0 0 1-.5.37l-2.83-.41a.42.42 0 0 1-.31-.19.45.45 0 0 1 .12-.62l2.67-1.79a1 1 0 0 0 .45-.71 1 1 0 0 0-.88-1.18 1 1 0 0 0-.73.16l-.28.19a.44.44 0 0 1-.62-.13.45.45 0 0 1 .13-.62l.28-.18a1.92 1.92 0 0 1 2.68.53 1.93 1.93 0 0 1-.53 2.69l-1.71 1.14 1.7.25a.43.43 0 0 1 .36.5ZM391.78 298.56a2 2 0 0 1-1.9 3.18 2 2 0 0 1-1.31-.79.45.45 0 1 1 .73-.54 1.06 1.06 0 0 0 .71.42 1.08 1.08 0 0 0 .81-.2 1.06 1.06 0 0 0 .43-.72 1 1 0 0 0-.2-.8 1.1 1.1 0 0 0-.71-.43.43.43 0 0 1-.31-.19.47.47 0 0 1 .08-.64l.94-.71-1.29-.19a.45.45 0 0 1-.38-.52.44.44 0 0 1 .51-.38l2.35.34a.47.47 0 0 1 .21.82l-1.16.89a2 2 0 0 1 .49.46Z" style="fill:#fff"/><path d="m413.71 301.9-1.14 1.17.75 1.45a.42.42 0 0 1-.16.56.38.38 0 0 1-.27.05.47.47 0 0 1-.32-.22l-.64-1.21-1 1a.43.43 0 0 1-.35.13.38.38 0 0 1-.24-.13.4.4 0 0 1 0-.58l1.15-1.18-.76-1.45a.41.41 0 0 1 .17-.55.43.43 0 0 1 .57.17l.64 1.19.95-.95a.45.45 0 0 1 .62 0 .42.42 0 0 1 .03.55Z" style="fill:#37474f"/><path d="M344 316.29a.6.6 0 0 1 .51.68.62.62 0 0 1-.69.51.6.6 0 0 1 .18-1.19ZM363.33 317.43a3.52 3.52 0 0 1 .82-1.82 1.84 1.84 0 0 1 1.62-.67 1.82 1.82 0 0 1 1.34 1.1 3.69 3.69 0 0 1-.56 3.82 1.7 1.7 0 0 1-3-.44 3.52 3.52 0 0 1-.22-1.99Zm3.15.47a2.76 2.76 0 0 0-.17-1.48c-.19-.37-.43-.57-.67-.59a1 1 0 0 0-.83.37 2.59 2.59 0 0 0-.59 1.36 2.63 2.63 0 0 0 .17 1.47 1 1 0 0 0 .69.61 1 1 0 0 0 .81-.39 2.64 2.64 0 0 0 .59-1.35Z" style="fill:#fff"/><path d="M385.74 320.13a.48.48 0 0 1 .55-.39l2.44.36a.47.47 0 0 1 .4.53.46.46 0 0 1-.53.39l-2.45-.36a.48.48 0 0 1-.41-.53Zm-.21 1.47a.47.47 0 0 1 .54-.4l2.45.36a.47.47 0 0 1 .39.54.47.47 0 0 1-.53.41l-2.45-.36a.48.48 0 0 1-.4-.55ZM408.6 324.53l-1.13-.17a.43.43 0 0 1-.37-.5.45.45 0 0 1 .5-.38l1.13.17.16-1.11a.46.46 0 0 1 .53-.38.45.45 0 0 1 .38.52l-.16 1.11 1.13.16a.46.46 0 0 1 .38.51.46.46 0 0 1-.51.37l-1.13-.17-.16 1.11a.46.46 0 0 1-.52.39.45.45 0 0 1-.39-.52ZM381.69 227.74a.35.35 0 0 1-.39.3l-1-.15c-.59 1.1-2.09 4-2.46 4.8a.63.63 0 0 1-.21.24.37.37 0 0 1-.25.06.41.41 0 0 1-.29-.19s-.92-1.2-1.19-1.61c-.4-.6-.16-.82-.08-.85a.36.36 0 0 1 .2 0 .54.54 0 0 1 .28.16l.29.41.25.33.23.31.26.35c.37-.77 2-3.78 2.38-4.53a.52.52 0 0 1 .11-.1.36.36 0 0 1 .27-.08l1.31.19a.35.35 0 0 1 .29.36Z" style="fill:#37474f"/><path d="M351.35 190.64h85.18v20.38h-85.18z" style="fill:#fff" transform="rotate(8.37 394.05 200.892)"/><path d="M80.18 59.26h138.63v177.25H80.18z" style="fill:#fff" transform="rotate(-5.32 149.619 148.024)"/><path d="M226.74 229.7c-.06.05-138.08 12.94-138.13 13S72.05 66.13 72 66.1v-.25h.24c.11 0 138.08-12.72 138.19-12.76s16.29 176.55 16.32 176.64Zm0 0L210.15 53.22c1 .16-138.14 13.1-137.87 13.1l.23-.27 16.3 176.5c-.72-.12 138.1-12.85 137.93-12.85Z" style="fill:#263238"/><path d="M97.86 130.38c31.71-3.44 67.35-6.77 99.16-9.24-31.72 3.45-67.36 6.77-99.16 9.24ZM98.45 136.72c31.71-3.44 67.35-6.77 99.16-9.24-31.72 3.45-67.36 6.77-99.16 9.24ZM99 143.06c31.71-3.45 67.35-6.77 99.16-9.24-31.72 3.45-67.36 6.76-99.16 9.24ZM99.63 149.39c31.71-3.44 67.35-6.77 99.16-9.24-31.72 3.45-67.36 6.77-99.16 9.24ZM157.29 190.69c15-1.9 30.74-3.36 45.81-4.26-15 1.89-30.75 3.37-45.81 4.26ZM157.89 197c15-1.9 30.73-3.36 45.8-4.27-15 1.9-30.75 3.37-45.8 4.27ZM158.48 203.37c15-1.9 30.73-3.36 45.8-4.27-15 1.89-30.75 3.37-45.8 4.27ZM159.07 209.7c15-1.9 30.73-3.36 45.8-4.26-15 1.89-30.74 3.37-45.8 4.26ZM159.66 216c15-1.9 30.73-3.36 45.8-4.27-15 1.9-30.74 3.37-45.8 4.27ZM100.22 155.73c18.56-2.22 39-4.14 57.7-5.38-18.56 2.23-39 4.14-57.7 5.38ZM101.4 168.4c31.72-3.44 67.35-6.77 99.16-9.24-31.72 3.45-67.35 6.77-99.16 9.24ZM102 174.74c31.72-3.45 67.35-6.77 99.16-9.24-31.72 3.45-67.35 6.76-99.16 9.24ZM102.58 181.07c31.72-3.44 67.35-6.77 99.16-9.24-31.72 3.45-67.35 6.77-99.16 9.24Z" style="fill:#263238"/><path d="M138.55 192.84h.5v9.25h-.5z" style="fill:#263238" transform="rotate(-5.33 138.622 197.32)"/><path d="M138.27 193.12a1.26 1.26 0 0 1-.12-2.52 1.27 1.27 0 0 1 1.38 1.14 1.27 1.27 0 0 1-1.14 1.37Zm0-2h-.07a.76.76 0 0 0-.68.83.74.74 0 0 0 .82.68.75.75 0 0 0 .69-.82.76.76 0 0 0-.76-.71Z" style="fill:#263238"/><path d="M141.23 190.05h11.2v.51h-11.2z" style="fill:#263238" transform="rotate(-5.32 146.895 190.392)"/><path d="M141.33 191.28h6.34v.51h-6.34z" style="fill:#263238" transform="rotate(-5.32 144.57 191.686)"/><path d="M94.75 82.91 143 78.33c16.09-1.47 32.18-3 48.27-4.42C175.21 75.49 159.12 77 143 78.5ZM95 85.45l48.26-4.58c16.1-1.47 32.18-3 48.28-4.41-16.09 1.54-32.18 3.05-48.27 4.54ZM95.23 88l48.26-4.58c16.09-1.47 32.18-3 48.28-4.41-16.09 1.57-32.18 3-48.26 4.58ZM95.46 90.53 143.73 86c16.09-1.47 32.18-3 48.27-4.41-16.08 1.57-32.17 3-48.26 4.58ZM95.7 93.07l48.3-4.58c16.1-1.47 32.18-3 48.28-4.41-16.08 1.57-32.17 3-48.26 4.58ZM95.94 95.62 144.2 91c16.09-1.47 32.18-3 48.28-4.41-16.09 1.57-32.18 3-48.26 4.58ZM96.17 98.16l48.27-4.58c16.09-1.47 32.18-3 48.27-4.42-16.08 1.57-32.17 3-48.26 4.58ZM96.41 100.7l48.26-4.58c16.1-1.47 32.18-3 48.28-4.42-16.08 1.57-32.17 3-48.26 4.58ZM96.65 103.24l48.26-4.58c16.09-1.47 32.18-3 48.28-4.42-16.09 1.57-32.18 3.05-48.26 4.58ZM96.88 105.78l48.27-4.58c16.09-1.47 32.18-3 48.27-4.42-16.08 1.57-32.17 3-48.26 4.58ZM97.12 108.32l48.26-4.58c16.1-1.47 32.18-3 48.28-4.42-16.08 1.57-32.17 3.06-48.26 4.58ZM97.36 110.86l48.26-4.58c16.09-1.47 32.18-3 48.28-4.42-16.09 1.58-32.18 3.06-48.26 4.58ZM97.6 113.4l48.26-4.58c16.09-1.47 32.18-3 48.28-4.42-16.09 1.6-32.14 3.06-48.27 4.6ZM97.83 115.94l48.26-4.58c16.1-1.47 32.19-3 48.28-4.41-16.08 1.57-32.17 3-48.26 4.58ZM98.07 118.48l48.26-4.58c16.09-1.47 32.18-3 48.28-4.41-16.08 1.57-32.18 3.05-48.26 4.58Z" style="fill:#c7c7c7"/><path d="M107.57 99.36h7.35v20.84h-7.35z" style="fill:#74b26e" transform="rotate(-5.32 111.376 109.9)"/><path d="M120.74 89.3h7.35v29.65h-7.35z" style="fill:#455a64" transform="rotate(-5.32 124.478 104.146)"/><path d="M134.62 94.37h7.35v23.3h-7.35z" style="fill:#a6a6a6" transform="rotate(-5.32 138.409 106.087)"/><path d="M147.84 85.38h7.35v31.05h-7.35z" style="fill:#74b26e" transform="rotate(-5.32 151.588 100.983)"/><path d="M161.61 88.27h7.35v26.88h-7.35z" style="fill:#455a64" transform="rotate(-5.32 165.359 101.73)"/><path d="M175.9 102.2h7.35v11.65h-7.35z" style="fill:#a6a6a6" transform="rotate(-5.32 179.73 108.115)"/><path d="m97.21 80.88 1.14 10.06L99.42 101c.72 6.71 1.38 13.43 2 20.15l-.5-.27 23.47-2.2 23.49-2.15 23.49-2.09 23.49-2-23.46 2.37-23.4 2.3-23.48 2.22-23.52 2.18h-.47v-.31c-.61-6.72-1.21-13.44-1.74-20.17L98 91Z" style="fill:#c7c7c7"/><path d="M108.76 122.28h7.35v.43h-7.35z" style="fill:#c7c7c7" transform="rotate(-5.32 112.513 122.572)"/><path d="M122.34 121.02h7.35v.43h-7.35z" style="fill:#c7c7c7" transform="rotate(-5.32 126.158 121.373)"/><path d="M135.92 119.75h7.35v.43h-7.35z" style="fill:#c7c7c7" transform="rotate(-5.32 139.701 120.06)"/><path d="M149.5 118.49h7.35v.43h-7.35z" style="fill:#c7c7c7" transform="rotate(-5.32 153.244 118.748)"/><path d="M163.08 117.22h7.35v.43h-7.35z" style="fill:#c7c7c7" transform="rotate(-5.32 166.89 117.549)"/><path d="M176.66 115.95h7.35v.43h-7.35z" style="fill:#c7c7c7" transform="rotate(-5.32 180.432 116.236)"/><path d="M145.25 210.19h-.1l-.89-.23-.51-.12h-.06l-.81-.2h-.07l-.5-.12h-.07l-.93-.23h-.08l-.56-.14h-.09l-.69-.17h-.1l-.61-.15h-.1l-.85-.21h-.08l-.65-.16h-.08l-.62-.15h-.07l-.71-.17h-.07l-.61-.15h-.06l-.86-.21h-.06l-.9-.23-.7-.17-.9-.22-.75-.19-.79-.19.71-.31.82-.35.7-.31.9-.38.6-.25h.05l1.32-.56h.06l.33-.14h.07l1.29-.55h.08l.28-.12h.08l1.33-.56h.1l.29-.12.1-.05 1.39-.59h.1l.16-.07h.1l1.53-.66h.31l1.52-.65a.5.5 0 0 1 .05.13v.24a16.4 16.4 0 0 1 .89 3.36v.13c.07.52.12 1 .14 1.58v.31a17.09 17.09 0 0 1-.37 3.33Z" style="fill:#c7c7c7"/><path d="m130.84 206.13.09.52-.08-.5Zm.82-.35v1.06-1.08Zm.77-.33.23 1.61Zm.9-.38v2.18-2.22Zm.7-.31h-.05l.33 2.7h.06Zm1.26 1.22-.06 1.73h.06l.06-1.75.06-1.81h-.06Zm.52-2h-.07l.16 3.85h.07Zm.87 4.07h.07l.43-4.67h-.08Zm.78-4.77-.09 4.94h.08l.09-5Zm1.41-.6-.77 5.72h.08l.79-5.79h-.1Zm.39-.17-.23 6.12h.1l.23-6.2Zm1.49-.64-1 6.94h.1l1-7Zm.26-.11-.48 7.24h.09l.49-7.3Zm1.63-.7-1.46 8.1h.08l1.47-8.15Zm.23-.09-.68 8.44h.07L143 201Zm1.7-.45v-.11l-1.76 9.14h.07l1.74-9.05Zm0 0-.94 9.22h.06l.93-9.11s-.02-.01-.04-.06Zm1 3.63v-.13l-1.31 5.86 1.29-5.73Zm.14 1.59-.54 4.38.5-4.08c.03-.04.02-.14.02-.25Z" style="fill:#dbdbdb"/><path d="m145.25 210.19-1.26-.02-15.15-3.74 1.26.02 15.15 3.74z" style="fill:#a6a6a6"/><path d="m130.1 206.45-1.26-.02 14.38-6.15 1.25.02-14.37 6.15z" style="fill:#a6a6a6"/><path d="m120.41 191.24 1.38 16 14.55-6.24a15.56 15.56 0 0 0-15.93-9.76Z" style="fill:#37474f"/><path d="m120.87 191.2-.39.83v-.09l.35-.73Zm.48 0-.76 2.2v.12l.8-2.32Zm1.74 0-2.28 4.67v.13l2.34-4.78Zm.39 0-2.48 6.93v.16l2.52-7Zm1.64 1.74.72-1.32h-.08l-.71 1.3-2.12 3.88-1.76 3.2v.14l1.82-3.31Zm.83-1.29-4.62 10.18v.17l4.67-10.27Zm2 .67-6.5 10.42v.14l6.55-10.46Zm.18.08-6.51 12.33v.18l6.58-12.47Zm1.72.88-8.19 11.93v.16l8.26-12Zm.2.13-7.43 13.42.18-.08 7.35-13.28Zm1.52 1.07L123 206.71l.21-.09 8.42-12Zm.18.14-6.57 11.11.16-.06 6.49-11Zm1.36 1.27-7.17 9.52.19-.08 7-9.37Zm.22.23-5 8.28.14-.06 5-8.15Zm1.13 1.38-4.92 6.37.15-.07 4.81-6.24Zm.17.24-3.49 5.44.12-.05 3.41-5.33Zm1 1.58-2.47 3h.12l2.38-2.9Zm.17.32-1.44 2.17.09-.05 1.38-2.06s-.08.02-.09 0Z" style="fill:#263238"/><path d="m121.79 207.23-14.55 6.24a15.85 15.85 0 0 0 15.93 9.76A15.68 15.68 0 0 0 128 222a15.47 15.47 0 0 0 9.22-11.15Z" style="fill:#74b26e"/><path d="m107.24 213.47-1.25.11a15.82 15.82 0 0 0 15.93 9.75l1.25-.1a15.85 15.85 0 0 1-15.93-9.76Z" style="fill:#74b26e"/><path d="m107.24 213.47-1.25.11a15.82 15.82 0 0 0 15.93 9.75l1.25-.1a15.85 15.85 0 0 1-15.93-9.76Z" style="opacity:.1"/><path d="M107.91 213.18v1.64-1.62Zm1.64-.7-.93 3.6.93-3.62Zm.59-.25-.26 5.53.25-5.56Zm1-.45-1 6.29 1-6.32Zm.41-.17-.13 7.74.12-7.78Zm1.23-.53-1.09 8.51 1.09-8.55Zm.3-.13.14 9.77-.16-9.82Zm.39 9.93.79-10.48Zm1.18-10.61 1 11.73h.06l-1-11.77Zm1.13 11.81h.06l.22-12.43H116Zm.57-12.54h-.06l1.33 13.14h.07Zm1.41 13.21h.07l-.14-13.75h-.08Zm.12-13.86h-.08l1.76 14.2h.09Zm1.84 14.25h.09l-.37-14.93h-.1Zm2 .12-2.09-15.13h-.1l2.08 15.11h.21l-.93-15.7h-.11Zm2-.2-2.6-15.58-.11.05 2.62 15.64h.2l-1.08-15.67h-.11Zm-.72-15.54h-.1l2.86 15.27h.09Zm1.16.28 1.69 14.95h.08l-1.68-14.9Zm.28.06h-.09l3.55 14.2Zm3.14 11.38-.71-4.17-1.18-6.91h-.08l1.19 7 .71 4.17.36 2.08.11.66h.07l-.11-.64Zm-1.64-11h-.07l4.28 12.68h.06Zm1.73.41 2.66 12.13-2.65-12.09Zm.32.07h.01l3.91 11Zm3.84.91 1.82 8.33-1.81-8.29Zm.37.09 2.8 6.5Zm-2.52-.6 2.41 10.37-2.41-10.33Zm1.76 3.76-1.28-3.32-.14-.36H130l.15.38 1.29 3.33 2.05 5.27Zm1.8-2.92 1.87 6-1.87-6Zm.33.08 2.29 4.64Zm1 .24 1.43 4.06-1.42-4Zm.55.13 1.55 2.28Zm1 .24.72 1.49-.71-1.49Zm.94.22a.52.52 0 0 1 .1.11Z" style="opacity:.1"/><path d="M120.41 191.24A15.93 15.93 0 0 0 106 208.59a15.74 15.74 0 0 0 1.2 4.88l14.55-6.24Z" style="fill:#455a64"/><path d="M121.5 203.91v.09l-14.26-3.13v-.11Zm-14.33-2.83 14.49 4.68v-.12L107.21 201a1 1 0 0 0-.04.08Zm1.09-2.19a.31.31 0 0 0-.05.1l13.15 3.28v-.11Zm-.16.28 13.38 4.47v-.13l-13.32-4.44Zm2.93-3.73-.06.06 10.03 2.9v-.08Zm-.32.31 10.44 4v-.1l-10.37-4Zm-1.16 1.25-.06.08 11.69 3.09v-.1Zm-.27.36 12 4.48v-.11l-12-4.45Zm6.25-4.92h-.06l5.22 2v-.05Zm-.68.32 5.94 2.92v-.06l-5.89-2.89Zm-1.95 1.14h-.06l8 2.48v-.06Zm-.47.34 8.55 3.6v-.07l-8.48-3.58Zm5.71-2.67 2.44 1Zm-1 .29 3.52 2-3.48-1.94Zm2.56-.57.83.5Zm-13.42 18.84 6.41 1h.08l-6.5-1a.07.07 0 0 0-.02.03Zm-.06-.33 8.61.34.11-.05Zm.57 2.35 2.5.42h.06l-2.57-.43-.02.04Zm-.06-.18 3.77.05h.09Zm-.7-4 10 1.68h.1L106 208Zm0-.27v.07l12.78.71.15-.06Zm2.63-1.93-2.16-.46-.37-.08a.22.22 0 0 1 0 .08l.36.08 2.16.46 4.32.93 6.54 1.41h.12l-6.65-1.43Zm-2.51-.65a.19.19 0 0 0 0 .08l15.39 2.12.15-.07Zm.39-2 15.15 4.18.13-.06-15.3-4.24a.29.29 0 0 0-.02.11Zm.06-.23v.09l15.15 3v-.1Z" style="fill:#37474f"/><path d="m120.41 191.24-1.26.11a15.93 15.93 0 0 0-14.36 17.35 15.53 15.53 0 0 0 1.2 4.88l1.25-.11a15.74 15.74 0 0 1-1.2-4.88 15.93 15.93 0 0 1 14.37-17.35Z" style="fill:#37474f"/><path d="M243.43 114.78h10.61v41.72h-10.61z" style="fill:#c7c7c7" transform="rotate(132.68 248.736 135.639)"/><path d="m284.85 179.85 10.87-11.79-31.78-29.3-10.87 11.79 31.78 29.3z" style="fill:#263238"/><path d="m219 54 6.47 69.38-.07.06a41.3 41.3 0 0 1-42.8 4.81l-.8-.38a41 41 0 0 1-8.37-5.5c-.21-.16-.4-.33-.6-.5a41.67 41.67 0 0 1-7.2-8.25c-.11-.15-.21-.31-.31-.47-.57-.88-1.1-1.78-1.61-2.71l-.06-.13c-.44-.8-.86-1.63-1.23-2.46a1.39 1.39 0 0 1-.06-.13q-.55-1.23-1-2.49l-.78.07-.32-3.39c-.17-.66-.35-1.31-.5-2v-.13c-.19-.84-.35-1.69-.48-2.54a.36.36 0 0 1 0-.14c-.14-.86-.24-1.7-.32-2.56v-.13c-.07-.85-.12-1.71-.14-2.57V89.12a.36.36 0 0 1 0-.15c0-.59 0-1.19.1-1.78l-.57-6.19 1.65-.1a1 1 0 0 1 0-.15c.22-.89.47-1.78.76-2.65a1 1 0 0 1 0-.14c.29-.9.62-1.79 1-2.67 0-.06 0-.11.06-.15.37-.92.78-1.81 1.22-2.69 0-.06.05-.1.07-.15a41.4 41.4 0 0 1 55.8-18.3Z" style="fill:#fff"/><path d="m219 54-.12-.07 6.52 69.51.07-.06a.5.5 0 0 0 .08-.07c-2.73-29.59-5.23-56.78-6.4-69.23A.31.31 0 0 0 219 54ZM204.29 119.25c-10 1.07-20.34 2.13-30.83 3.16-.21-.16-.4-.33-.6-.5 10.7-.91 21.25-1.84 31.43-2.66ZM204.91 126c-7.25.77-14.71 1.54-22.28 2.3l-.8-.38c7.84-.68 15.57-1.33 23.08-1.92Z" style="fill:#263238"/><path d="M198.21 69.1q-17.58 1.71-35.21 3.35c0-.06.05-.1.07-.15q17.59-1.62 35.14-3.2ZM198.46 71.8q-18.35 1.78-36.7 3.49c0-.06 0-.11.06-.15C174 74 186.24 72.88 198.46 71.8ZM198.72 74.49c-12.66 1.24-25.31 2.42-38 3.61a1 1 0 0 1 0-.14c12.71-1.17 25.35-2.35 38-3.47ZM199 77.2q-19.51 1.89-39 3.7a1 1 0 0 1 0-.15c13-1.2 26-2.41 39-3.55ZM199.22 79.89q-19.92 2-39.85 3.79l-.79.07v-.14l.83-.08c13.26-1.22 26.52-2.46 39.81-3.64ZM199.47 82.6q-13.11 1.28-26.22 2.49l-7.77.74-6.5.6a.39.39 0 0 1-.15 0v-.14h.18l6.47-.6 7.77-.71c8.75-.81 17.47-1.62 26.22-2.38ZM199.72 85.29q-13.11 1.27-26.22 2.51l-7.77.73-6.95.65a.36.36 0 0 1 0-.15l6.92-.64 7.77-.72c8.76-.8 17.53-1.61 26.25-2.38ZM200 88q-13.11 1.29-26.21 2.5l-7.77.74-6.66.62-.57.05v-.15h.56l6.65-.61 7.77-.71Q186.85 89.15 200 88ZM200.22 90.69Q187.11 92 174 93.19l-7.77.73-6.66.62q-.33 0-.66.06v-.13l.67-.06 6.65-.62q3.89-.37 7.78-.72c8.72-.8 17.47-1.61 26.21-2.38ZM200.48 93.39q-13.12 1.27-26.22 2.5l-7.77.74-7.23.67a.36.36 0 0 1 0-.14l7.24-.68 7.77-.71q13.07-1.21 26.21-2.38ZM200.73 96.08c-8.74.86-17.49 1.68-26.22 2.51l-7.77.73-6.65.62a1.73 1.73 0 0 1-.32 0v-.13a1.93 1.93 0 0 1 .33 0l6.66-.62q3.87-.37 7.77-.72 13.06-1.21 26.2-2.39ZM201 98.79l-11.8 1.13-7.77.73q-3.32.33-6.65.63L167 102l-6.52.6a.3.3 0 0 1-.13 0v-.14h.09l6.56-.61 7.77-.71 6.65-.62 7.77-.71ZM201.23 101.48l-11.8 1.14-7.77.74-6.66.64-7.77.73-6.65.62v-.14l6.65-.62 7.77-.72 6.65-.61 7.78-.71ZM201.48 104.18l-11.79 1.14-7.77.73q-3.33.33-6.66.63l-7.77.74-5 .47a1.39 1.39 0 0 1-.06-.13l5.09-.48 7.77-.71 6.66-.62 7.77-.71q5.86-.54 11.76-1.06ZM201.73 106.88 189.94 108l-7.77.73-6.65.63-7.77.73-4 .37-.06-.13 4-.37q3.89-.37 7.77-.72l6.66-.61c2.58-.24 5.18-.47 7.77-.72Z" style="fill:#c7c7c7"/><path d="m158.9 87.25 1.37 14.7c-.17-.66-.35-1.31-.5-2v-.13c-.19-.84-.35-1.69-.48-2.54a.36.36 0 0 1 0-.14c-.14-.86-.24-1.7-.32-2.56v-.13c-.07-.85-.12-1.71-.14-2.57V89.16a.36.36 0 0 1 0-.15c-.01-.57.02-1.17.07-1.76Z" style="fill:#74b26e"/><path d="M166.69 84.34h7.81v28.55h-7.81z" style="fill:#455a64" transform="rotate(-5.32 170.68 98.635)"/><path d="M181.86 99.14h7.81v12.37h-7.81z" style="fill:#a6a6a6" transform="rotate(-5.32 185.897 105.381)"/><path d="m202 110-24.92 2.51-11.45 1.12c-.11-.15-.21-.31-.31-.47L168 113l7.77-.7 1.29-.11 5.37-.45 7.78-.66Z" style="fill:#c7c7c7"/><path d="M168.25 115.09h7.81v.46h-7.81z" style="fill:#c7c7c7" transform="rotate(-5.32 172.273 115.426)"/><path d="M182.67 113.75h7.81v.46h-7.81z" style="fill:#c7c7c7" transform="rotate(-5.32 186.681 114.046)"/><path d="M195.2 138.89a48.33 48.33 0 1 1 53-43.17 48.39 48.39 0 0 1-53 43.17Zm.56-5.51a42.79 42.79 0 1 0-38.22-46.92 42.85 42.85 0 0 0 38.22 46.92Z" style="fill:#37474f"/><path d="M241.9 76.31a44.26 44.26 0 1 0 2.2 19 43.74 43.74 0 0 0-2.2-19ZM241.24 95a41.39 41.39 0 1 1-9.09-30.31A41.39 41.39 0 0 1 241.24 95Zm.66-18.7a44.26 44.26 0 1 0 2.2 19 43.74 43.74 0 0 0-2.2-18.99Zm-.66 18.7a41.39 41.39 0 1 1-9.09-30.31A41.39 41.39 0 0 1 241.24 95Zm5.9-20.51a49.75 49.75 0 1 0 2.48 21.36 49.75 49.75 0 0 0-2.48-21.35Zm-.38 21.08a46.91 46.91 0 1 1-2.35-20.13 46.62 46.62 0 0 1 2.35 20.14Zm-12.37-32.68a44.21 44.21 0 1 0-55.27 66.87 44.26 44.26 0 0 0 65-34.46 43.74 43.74 0 0 0-2.2-19 44.31 44.31 0 0 0-7.53-13.41ZM241.24 95a41.39 41.39 0 1 1-9.09-30.31A41.39 41.39 0 0 1 241.24 95Z" style="fill:#37474f"/><g style="opacity:.2"><path d="M232.17 64.69a41.41 41.41 0 1 1-27.86-15 41.41 41.41 0 0 1 27.86 15Z" style="fill:#fff"/></g><path d="M172.49 111a31.72 31.72 0 0 1-5.63-11.88 33.76 33.76 0 0 1-1-6.67 35.38 35.38 0 0 1 .38-6.81 33.05 33.05 0 0 1 5-12.71 36.8 36.8 0 0 1 9.32-9.7A65.56 65.56 0 0 0 173.12 74a40.43 40.43 0 0 0-2.53 5.87 33.55 33.55 0 0 0-1.54 6.13 41 41 0 0 0 0 12.61 53.35 53.35 0 0 0 3.44 12.39Z" style="fill:#fff"/><path d="M266.92 257.7c1.19 21.53 2.05 43.69-.07 65.16-1.65 16.73-8.68 30.5-26.07 34.61-16.13 3.8-39.1 3.51-52.74-7.18-6.36-5-8.57-12-8.14-19.9.58-11 9.27-71 11.86-89.69 1.56-11.4 3.09-22.95 6.67-34 7.5-23.11 19-23.54 20.62-24 1.37-.88 10-4.17 22.53-.19a24.36 24.36 0 0 1 14.84 13.21c8.98 18.58 9.37 41.83 10.5 61.98Z" style="fill:#263238"/><path d="M215.38 186.55c-13.75 6.43-17 21.44-20.36 34.9-4.63 18.74-9 37.56-12.35 56.56-1.64 9.14-3.07 18.31-4.23 27.52-1.1 8.82-2.82 18.22-2.23 27.13 1 14.73 14.45 21.42 27.51 23.52a.5.5 0 0 0 .19-1c-7.44-1.48-15-3.54-20.56-9.06-7.09-7.07-6.27-16.3-5.43-25.49 1.43-15.65 3.74-31.2 6.62-46.64s6.3-30.82 10-46.11c3.49-14.56 6-33.72 21-41.12.07-.05-.01-.28-.16-.21ZM262.75 211.47c-2.61-11.25-8.46-22.22-20.31-25.49 15.31 4.88 19 21.62 21.08 35.6q3.23 22.06 4.79 44.32c1 14.26 1.75 28.64 1.48 42.94-.3 15.44-3.1 29.9-12.22 42.62a.26.26 0 0 0 .39.33c9-10.29 12-24.47 12.67-37.74.95-17.48-.18-35.26-1.55-52.69-1.3-16.52-2.57-33.68-6.33-49.89Z" style="fill:#263238"/><path d="M87.22 466.78c.91-3.64 57.84-91.18 62-93.08.48-.25 30 17.74 30 17.74 1.27 1.46 53.87-13.64 53.87-13.64l5.13 64.39-97.43 4.88s-12.59 8.67-24.16 15.82c-7.12 4.43-13.44 8.18-15.27 8.8-4.8 1.61-15.09-1.3-14.14-4.91Z" style="fill:#f7a9a0"/><path d="M101.34 471.7c1.84-.62 8.15-4.37 15.26-8.8h.05c11.56-7.15 24.15-15.82 24.15-15.82l21.69-1.08 30-57.12c-7.35 1.85-12.84 3-13.25 2.56 0 0-29.51-18-30-17.73-4.18 1.9-61.1 89.44-62 93.07s9.32 6.52 14.1 4.92Z" style="fill:#fff"/><path d="M86.65 466.93c1-3.73 58.18-91.24 62.47-93.2 1.63-.75 16 6.76 30.12 17.71l-37 56.37s-36.19 22.62-41.13 24.26-15.44-1.42-14.46-5.14Z" style="fill:#c7c7c7"/><path d="M91 468c10-14.43 48.72-73.59 57.46-88.62.07-.12 0-.17-.09-.06-10.18 14.1-48.47 73.57-57.61 88.52-.22.28 0 .43.24.16ZM108 468.5a14.12 14.12 0 0 0 2.15-11.12c-.8-3.12-2.58-6.51-5.69-8.4-.09-.05-.2.11-.11.18 5.19 4.59 6.82 13.11 3.46 19.22a.11.11 0 0 0 .19.12ZM137.81 451.45c3.92-5.81 6.29-14 3.88-20.76-.1-.27-.47-.13-.49.1a97.66 97.66 0 0 1-4.2 20.29.44.44 0 0 0 .81.37ZM133.08 454.83c3.92-5.82 6.29-14 3.88-20.77-.1-.26-.47-.12-.49.11a97.66 97.66 0 0 1-4.18 20.29.44.44 0 0 0 .79.37ZM128.35 458.21c3.92-5.82 6.29-14 3.88-20.77-.1-.26-.47-.12-.49.11a97.8 97.8 0 0 1-4.18 20.29.44.44 0 0 0 .79.37ZM123.62 461.59c3.92-5.82 6.29-14 3.88-20.77-.1-.26-.47-.13-.49.11a97.93 97.93 0 0 1-4.18 20.29.44.44 0 0 0 .79.37ZM159.92 392.19c4.29-6.6-6-13.28-10.26-6.66s5.96 13.27 10.26 6.66Z" style="fill:#263238"/><path d="M149.33 468c4.4-1.36 4.44-6.68 3.08-10.18a36.69 36.69 0 0 0-11.53-15.15.18.18 0 0 0-.28.07.86.86 0 0 0-1.17.75c.16 6.07-.42 12.58 1.6 18.42 1.17 3.45 4.13 7.42 8.3 6.09Zm-7.77-15.36c-.15-3-.16-6-.42-8.93a110.81 110.81 0 0 1 6.54 9 40.05 40.05 0 0 1 2.56 4.74c1.1 2.54 2.24 11.51-4.53 7.92-3.71-1.95-3.97-9.13-4.15-12.69Z" style="fill:#263238"/><path d="M148.24 426.7c-4.12 4.59-6.11 10.82-8.62 16.35a.85.85 0 0 0 .78 1.14c0 .12.1.22.24.18a36.89 36.89 0 0 0 16.51-9.48c2.61-2.7 4.64-7.62 1.11-10.59-3.34-2.8-7.61-.3-10.02 2.4Zm5.66-1.36c7.64-.69 3.1 7.14 1.1 9.05a40 40 0 0 1-4.2 3.37c-3 2.18-6.31 3.89-9.52 5.75 1.4-2.64 2.56-5.38 3.85-8.07 1.55-3.21 4.56-9.73 8.77-10.1ZM216.76 364.21s81.7-38.06 118.25-37.86c43.49.24 77.62 51.65 24.54 89.21-46.92 33.2-195.49 31.75-195.49 31.75l34.32-62.57s40.93-16.17 94.66-18.2l-74.89 15.71Z" style="fill:#263238"/><path d="M218.35 376.63c6.42-1.68 13-2.82 19.47-4s13.16-2.32 19.76-3.35a395.91 395.91 0 0 1 39.76-4.28c1.25-.07 2.5-.11 3.75-.15a6.8 6.8 0 0 1 .8-.26c.63-.2 1.25-.41 1.89-.58 1.18-.31 2.38-.57 3.57-.85 2.49-.56 5-1 7.46-1.65.15 0 .23.18.08.23-2.48.74-4.9 1.64-7.38 2.37l-2.15.62c4.9-.1 9.79-.07 14.69 0 .15 0 .17.24 0 .24-6.65.08-13.33.51-19.95 1.1s-13.14 1.19-19.69 2c-13.25 1.71-26.45 3.85-39.6 6.19-7.38 1.31-14.77 2.76-22.21 3.61-.7.13-.97-1.06-.25-1.24ZM179.15 444.38c2.1-4 3.84-8.18 5.74-12.26s3.8-8.19 5.72-12.28c3.81-8.15 17.61-35.66 19-37.62.09-.12.3 0 .26.14-.59 2.09-9.14 20.26-11.11 24.32-4 8.11-8.15 16.09-12.27 24.11-1.17 2.3-2.4 4.56-3.6 6.84s-2.48 4.53-3.56 6.86a.12.12 0 1 1-.18-.11Z" style="fill:#37474f"/><path d="M372.76 464.75c-1.09-3.58-62.12-88.31-66.39-90-.49-.23-29.12 19.15-29.12 19.15-1.2 1.52-54.46-11.05-54.46-11.05l-2.06 64.56 97.56.23s13 8.05 24.89 14.64c7.32 4.08 13.8 7.53 15.66 8.06 4.89 1.37 15.04-2.02 13.92-5.59Z" style="fill:#f7a9a0"/><path d="M358.89 470.34c-1.87-.52-8.35-4-15.67-8.06-11.89-6.59-24.89-14.66-24.89-14.66h-21.71L263.9 392c7.43 1.5 13 2.42 13.35 1.93 0 0 28.63-19.37 29.12-19.14 4.26 1.7 65.29 86.42 66.39 90s-9.03 6.93-13.87 5.55Z" style="fill:#fff"/><path d="M373.33 464.88c-1.15-3.68-62.47-88.36-66.85-90.12-1.65-.67-15.63 7.51-29.23 19.13l39.6 54.55s37.23 20.86 42.23 22.27 15.41-2.16 14.25-5.83Z" style="fill:#c7c7c7"/><path d="M369.07 466.11c-10.63-13.94-52.18-71.18-61.62-85.77-.08-.12 0-.18.08-.07 10.84 13.59 51.92 71.17 61.77 85.68.21.3-.01.46-.23.16ZM352.09 467.46a14.1 14.1 0 0 1-2.68-11c.65-3.16 2.27-6.63 5.28-8.66.09-.06.21.1.13.17-5 4.84-6.19 13.42-2.55 19.37a.11.11 0 1 1-.18.12ZM321.49 451.86c-4.19-5.62-6.95-13.66-4.86-20.56.08-.27.46-.15.49.08a96.69 96.69 0 0 0 5.15 20.07.45.45 0 0 1-.78.41ZM326.38 455c-4.19-5.63-7-13.67-4.87-20.56.09-.27.46-.15.5.08a96.67 96.67 0 0 0 5.14 20.07.44.44 0 0 1-.77.41ZM331.27 458.16c-4.2-5.63-7-13.67-4.87-20.56.08-.27.46-.15.49.08a97.49 97.49 0 0 0 5.11 20.07.44.44 0 0 1-.73.41ZM336.15 461.31c-4.19-5.63-6.95-13.67-4.86-20.56.08-.27.46-.15.49.08a97 97 0 0 0 5.14 20.07.44.44 0 0 1-.77.41ZM296.58 393.72c-4.6-6.39 5.32-13.55 9.93-7.15s-5.32 13.55-9.93 7.15Z" style="fill:#263238"/><path d="M308 459.85c5-3.66 8.2-9.35 11.78-14.26a.85.85 0 0 0-.53-1.27.19.19 0 0 0-.2-.23A36.82 36.82 0 0 0 301 450c-3.11 2.11-6.1 6.51-3.25 10.14 2.69 3.43 7.38 1.86 10.25-.29Zm-5.81.17c-7.62-.89-1.58-7.62.78-9.09a40.68 40.68 0 0 1 4.79-2.44c3.41-1.52 7-2.52 10.49-3.69-1.9 2.31-3.6 4.75-5.42 7.12-2.13 2.82-6.42 8.6-10.61 8.08Z" style="fill:#263238"/><path d="M299.77 425.72c-3.39 3.13-1.13 7.94 1.62 10.52a36.87 36.87 0 0 0 16.94 8.68.18.18 0 0 0 .22-.19.86.86 0 0 0 .73-1.18c-2.76-5.4-5-11.53-9.39-15.92-2.54-2.57-6.89-4.88-10.12-1.91Zm13.64 10.49c1.43 2.63 2.71 5.31 4.24 7.88a108.71 108.71 0 0 1-9.79-5.29 39.52 39.52 0 0 1-4.35-3.16c-2.09-1.82-7-9.42.66-9.1 4.22.17 7.54 6.54 9.24 9.67ZM220.31 363s-82.63-24.91-126.71-19.65C50.41 348.5 32.69 402.66 74.8 432c46 32.05 219.11 20.83 219.11 20.83l-37-66.18S198 372.78 144.22 373.31l75.56 12.13Z" style="fill:#263238"/><path d="M259.41 390.92a1.4 1.4 0 0 1-.08-.34l-.06-.27c0-.22-.1-.43-.15-.64a12.12 12.12 0 0 0-.42-1.29c-.15-.42-.33-.84-.51-1.25a9.71 9.71 0 0 0-.69-1.17s-.07 0-.1-.08l-.07-.05h-.19c-6.49-1.37-50.61-8.75-57.18-9.65s-13.26-1.69-19.9-2.41a397.37 397.37 0 0 0-39.92-2.38h-3.74a7.62 7.62 0 0 0-.82-.22c-.63-.17-1.27-.35-1.91-.49-1.2-.26-2.4-.46-3.61-.67-2.51-.45-5-.78-7.53-1.3-.15 0-.22.19-.07.23 2.51.62 5 1.41 7.49 2 .72.17 1.44.35 2.17.51-4.89.14-9.78.4-14.67.73-.15 0-.16.25 0 .24 6.64-.23 13.33-.12 20 .15s13.19.57 19.77 1.1c13.31 1.08 26.61 2.59 39.85 4.29 7.43 1 52.41 8.61 59.89 9.1h.04a5.38 5.38 0 0 0 .2.51c.19.42.39.82.6 1.23s.41.77.64 1.14l.36.55.18.27a1.27 1.27 0 0 1 .18.29c.07.13.33.02.25-.13Z" style="fill:#37474f"/><path d="M280.12 448.54c-2.3-3.88-4.24-8-6.33-12s-4.19-8-6.29-12c-4.2-8-19.3-34.78-20.81-36.67-.1-.12-.3 0-.26.15.7 2.07 10.1 19.81 12.27 23.76 4.33 7.92 8.9 15.68 13.4 23.51 1.28 2.23 2.62 4.43 3.92 6.66s2.69 4.4 3.89 6.68c.09.17.29.04.21-.09Z" style="fill:#37474f"/><path d="M209.7 271.46c11.7 30.48 32 66.11 39.28 71.33 9.18 6.61 58.15 10.89 60.86 10.8 6.7-.27 10.54-45.27 3.36-45.29-10.93 0-41 1.29-43.65-.78s-22.14-20.52-42.36-41.58c-13.96-14.53-24.74-13.38-17.49 5.52Z" style="fill:#eb9481"/><path d="M307.27 353.67c.8.28 12.17 4.11 19 5.08 5.1.73 19.83 2.42 21.18-3.11.93-3.77-7.61-5.79-13.62-7.35-3.17-.82-7.3-3.43-6.69-5.48 1.07-3.58 9.24-1.29 14.72.93 10.6 4.3 25.09 12.7 30.36 6.88 2-2.2-1.11-5.24-5.43-8.05 6.79 3 13.89 5.29 16.19 2.93 1.33-1.34 1.18-2.9.1-4.56 2 .36 3.7 0 4.7-1.43 1.73-2.4.3-5.39-2.37-8.29a2.42 2.42 0 0 0 1.67-1.46c3.36-7.15-20.76-22.88-28.44-23.59-22.57-2.1-45.45 2.13-45.45 2.13-7.6 8.07-5.94 45.36-5.92 45.37Z" style="fill:#eb9481"/><path d="M336.54 329a37.33 37.33 0 0 1 15.36 3.54c6.06 2.87 10.34 6.63 15.59 10.28.14.09 0 .31-.14.22-2.51-1.74-12.77-8.14-15.39-9.55a35.61 35.61 0 0 0-15.43-4.4c-.06.02-.05-.09.01-.09ZM339.3 319.17c6 .76 12.07 1.51 17.78 3.47 6.25 2.15 11.5 6.35 16.65 10.37q4.63 3.63 9.1 7.46c.13.11 0 .32-.14.22q-7.86-6.26-16.07-12a47.41 47.41 0 0 0-16.84-7.55c-3.46-.79-7-1.3-10.49-1.82a.06.06 0 0 1 .01-.15ZM344.28 310.2c5.74.36 10.74.65 16.11 2.93 7.09 3 14.35 8.81 16.9 10.86 2.82 2.26 5.55 4.62 8.25 7 .12.09-.05.29-.17.19A187.3 187.3 0 0 0 366 316.76a37.3 37.3 0 0 0-10.39-4.84 67.28 67.28 0 0 0-11.3-1.68s-.05-.04-.03-.04Z" style="fill:#263238"/><path d="m313 304.94-9.07 54.44s-46.34-6.41-55.72-14-30.82-50.82-38.35-72.16 3.65-22.37 15.82-10 42.34 42.37 43.87 42.9 43.45-1.18 43.45-1.18Z" style="fill:#455a64"/><path d="M296.35 336.83c1.12-6.42 2.29-12.84 3.18-19.31.5-3.68 1-7.35 1.49-11 0-.14-.22-.19-.25-.05-1.38 6.41-2.75 12.83-3.84 19.3s-2.22 12.86-3.22 19.31c-.57 3.67-1 7.34-1.37 11 0 .07.11.1.13 0 1.6-6.33 2.75-12.78 3.88-19.25Z" style="fill:#263238"/><path d="m304.81 354-.91 5.42s-46.34-6.41-55.72-14-30.83-50.82-38.36-72.17c-5.5-15.6-1-20.36 6.57-16.93 22.23 24.04 64.18 69.78 88.42 97.68Z" style="opacity:.1"/><path d="m148.39 362.56 107.47 1.8-5.35-34.36s8.73-7.56 3.64-21.94c-3.33-9.4-18.4-31.44-26-40.6-18.58-22.34-31.45-9.87-36.6-4.12-19.7 21.92-43.16 99.22-43.16 99.22Z" style="fill:#455a64"/><path d="M218 329.69a95.65 95.65 0 0 1 14.06-.24c2.33.17 4.63.44 6.94.76 1.16.16 2.31.29 3.46.4a15.29 15.29 0 0 0 3.64 0 .08.08 0 0 1 0 .16 24.33 24.33 0 0 1-3.4.55 23.27 23.27 0 0 1-3.34 0c-2.36-.14-4.72-.4-7.08-.57-4.76-.34-9.52-.68-14.3-.68-.15.01-.16-.36.02-.38ZM207.41 335.83a101.85 101.85 0 0 1 11.31-2.62c1.91-.33 3.82-.54 5.76-.7l2.76-.18c1-.06 2 0 3.06 0 .11 0 .14.15 0 .16-1 .09-1.9.35-2.85.5l-2.86.44c-1.91.3-3.81.62-5.72.9-3.83.56-7.64 1.16-11.44 1.85-.18 0-.21-.3-.02-.35Z" style="fill:#263238"/><path d="M204.54 258.37c-.07 2 5.72 16.9 14.58 18.84 2.88.62 7-15 7-15l.57-1.08 7.93-15.13L219 228.79l-2.3-2.34s-1.9 4.29-4.21 9.65c-.11.24-.22.49-.33.76s-.27.58-.39.87c-.35.79-.71 1.61-1 2.43-.26.62-.52 1.22-.77 1.89s-.52 1.3-.79 2a110 110 0 0 0-4.67 14.32Z" style="fill:#eb9481"/><path d="M212.45 236.1a34.27 34.27 0 0 0 14.24 25.06l7.93-15.16L219 228.79l-2.3-2.34s-1.94 4.29-4.25 9.65Z" style="fill:#263238"/><path d="M264 225.87c-3.37 29.81-21.61 31.16-28 30.43-5.84-.67-25.62-3.67-25.35-33.67s15.19-37.86 28.62-37 28.06 10.43 24.73 40.24Z" style="fill:#eb9481"/><path d="M260.34 220.25a19.64 19.64 0 0 1-1.95-.69 3.34 3.34 0 0 1-1.85-1.09 1.06 1.06 0 0 1 .17-1.29 2.66 2.66 0 0 1 2.67-.27 3.87 3.87 0 0 1 2.23 1.69 1.14 1.14 0 0 1-1.27 1.65ZM240 216.52a17.85 17.85 0 0 0 2.07-.15 3.37 3.37 0 0 0 2.08-.55 1.07 1.07 0 0 0 .17-1.3 2.65 2.65 0 0 0-2.5-1 3.89 3.89 0 0 0-2.6 1 1.13 1.13 0 0 0 .78 2ZM243.69 225.36c0-.08-.17.08-.18.16-.16 2-.69 4.35-2.6 4.82-.06 0-.07.11 0 .11 2.28-.06 2.95-3.13 2.78-5.09Z" style="fill:#263238"/><path d="M242.11 223c-3.24-.61-4.22 5.91-1.22 6.48s3.94-5.93 1.22-6.48Z" style="fill:#263238"/><path d="M240.78 223.19c-.63.28-1.28.85-2 .81s-1.3-.81-1.72-1.55c0-.07-.11 0-.12.06-.21 1.25.07 2.6 1.39 3s2.24-.62 2.74-1.82c.11-.24-.07-.61-.29-.5ZM255 226.64c0-.08.14.12.13.2-.39 2-.49 4.37 1.23 5.33.05 0 0 .13 0 .11-2.24-.67-2.07-3.8-1.36-5.64Z" style="fill:#263238"/><path d="M257.12 224.82c3.28.27 2.5 6.81-.54 6.56s-2.22-6.79.54-6.56Z" style="fill:#263238"/><path d="M258.43 225.41c.48.41.91 1.1 1.53 1.22s1.32-.52 1.86-1.14c.06-.07.1 0 .09.08-.11 1.26-.68 2.51-1.91 2.61s-1.8-1.08-1.95-2.37c-.05-.23.19-.56.38-.4ZM241 241.91c.38.56.73 1.3 1.45 1.51a5.51 5.51 0 0 0 2.25-.08.07.07 0 0 1 .07.12 2.75 2.75 0 0 1-2.77.54 2.17 2.17 0 0 1-1.22-2.08c-.05-.08.11-.1.22-.01ZM250.42 235.77s0 3.08-.2 4.51c0 .13-.37.15-.86.11h-.05a6.83 6.83 0 0 1-6.23-3.45c-.08-.15.12-.27.24-.16a10.29 10.29 0 0 0 5.94 2.63c.15-.38-.17-5.28.06-5.26a12.79 12.79 0 0 1 3.13 1.18c.19-6.41-.64-12.81-.35-19.19a.19.19 0 0 1 .38 0c1.35 6.64 1.29 14 1.26 20.66.01.77-2.74-.71-3.32-1.03Z" style="fill:#263238"/><path d="M249.25 239.67a8.26 8.26 0 0 1-3.5 2.36 3.7 3.7 0 0 1-2.28 0c-1.61-.54-1.55-2.05-1.17-3.32a9.2 9.2 0 0 1 .87-1.92 10.78 10.78 0 0 0 6.08 2.88Z" style="fill:#263238"/><path d="M245.75 242a3.7 3.7 0 0 1-2.28 0c-1.61-.54-1.55-2.05-1.17-3.32 1.75.32 3.42 1.63 3.45 3.32Z" style="fill:#ff9bbc"/><path d="M210.67 226.27a12.43 12.43 0 0 0 8.6-8.78 32.54 32.54 0 0 0 14.86-8.21c-.31.57-2.52 4.75-3.71 6.84 19.48-.23 27.84-13.65 27.84-13.65 5.05 7.17 5.59 11.29 6.13 13.39 0 0 2.16-11.55-2.44-20.33-5.62-10.76-15.87-10.69-15.87-10.69a27.09 27.09 0 0 0-27.44 3.46c-14.58 11.21-7.97 37.97-7.97 37.97Z" style="fill:#263238"/><path d="M245.3 215.5a35.57 35.57 0 0 1-10.3 1.86 30 30 0 0 0 15.3-6 28.12 28.12 0 0 0 5.07-5 19.7 19.7 0 0 0 3.76-6.75.15.15 0 0 1 .29.08 23.18 23.18 0 0 1-2.8 7.17 21 21 0 0 1-5.28 5.51 24.07 24.07 0 0 1-6 3.11Z" style="fill:#263238"/><path d="M208.81 232.75a6.92 6.92 0 0 0 1.29.63 4.61 4.61 0 0 0 1.38.31 4.23 4.23 0 0 0 1.81-.2 5.11 5.11 0 0 0 1.28-.64 5.92 5.92 0 0 0 1.45-1.42l-.05-8.19s-4.57-10.47-9.19-9-2.5 15.76 2.03 18.51Z" style="fill:#eb9481"/><path d="M207.49 218.29c-.08 0-.11.08-.05.13 3.15 2.08 4.31 5.62 4.91 9.17-.76-1.47-2-2.45-4-1.58-.1.05 0 .21.06.2a3.13 3.13 0 0 1 3.19 1.79 14.69 14.69 0 0 1 1.06 3c.1.34.69.29.64-.09v-.09c.96-4.34-1.2-11.14-5.81-12.53Z" style="fill:#263238"/><path d="M189.32 268.87c-12.59 20-38.76 91.66-24.31 101.06s79.18-19.35 96.48-32.06c5.15-3.78-23.12-35-29.93-34.51-5.67.37-31.51 18.74-32.64 17.27-1.28-1.66.62-16.12 2.73-42 2.43-29.9-6.77-18.58-12.33-9.76ZM249.73 288.56c12.49-6.64 16.71-6.43 24.27-17.63 5-7.36 11.79-7.34 10.77 1.82-1.65 15-16 27-22.11 29.67Z" style="fill:#eb9481"/><path d="M309.34 267.11c39.48 7.09 29.05 65.58-10.5 58.49s-29.06-65.6 10.5-58.49Z" style="fill:#74b26e"/><path d="M309.34 267.11c39.48 7.09 29.05 65.58-10.5 58.49s-29.06-65.6 10.5-58.49Z" style="opacity:.1"/><path d="M305.63 266.45c37.63 6.75 27.2 65.25-10.5 58.48s-27.2-65.25 10.5-58.48Z" style="fill:#74b26e"/><path d="M276.51 297.07c.21 10.42 6.27 20.52 19.52 22.89 31.28 5.61 39.94-42.94 8.71-48.54l-.61-.1c29.28 5.87 20.89 51.81-8.94 46.46-12.19-2.19-18.03-11.18-18.68-20.71Z" style="opacity:.1"/><path d="M296.09 276.62a1 1 0 0 1 1.13.83l.25 1.64a13.5 13.5 0 0 1 7.71 1.76 1.17 1.17 0 0 1 .72.85 1.07 1.07 0 0 1-.91 1.19 1.05 1.05 0 0 1-.78-.18 11.83 11.83 0 0 0-6.54-1.73l1.73 11.45c6.41.37 9.38 2.31 10 6.32.65 4.33-2.52 7.95-7.61 8.88l.48 3.19a1 1 0 0 1-2 .3l-.49-3.23a15.54 15.54 0 0 1-9.8-2.58 1 1 0 0 1-.58-.79 1.08 1.08 0 0 1 .87-1.18 1.11 1.11 0 0 1 .78.18 13.37 13.37 0 0 0 8.53 2.52l-1.76-11.66c-6.34-.42-9.21-2.29-9.83-6.38s2.5-7.82 7.47-8.7l-.23-1.55a1 1 0 0 1 .86-1.13Zm1.45 15.67-1.69-11.16c-4 .68-6.21 3.45-5.77 6.39.42 2.78 1.99 4.3 7.46 4.77Zm2.17 2.23 1.71 11.29c4.08-.7 6.38-3.48 5.91-6.59-.43-2.82-2.12-4.32-7.62-4.7Z" style="opacity:.1"/><path d="M219.42 314s11.78-13.62 24.38-22c8.72-5.81 29.09-16.33 57.24-2.73 6.68 3.23 13.9 12.56 1.09 11.25-9.11-.93-14.6-4.27-20-3.84 0 0 7.78 13 4.29 19.52a137 137 0 0 1-10.35 16.5 29.75 29.75 0 0 1-3.26-1.66s-3.84 5.82-14.1 8.5Z" style="fill:#eb9481"/><path d="M253 287.78c5.44.72 16.95 2.42 25.88 7.08 9.93 5.19 27.64 17.85 23.74 25.13-2.86 5.34-10.05 1.11-10.05 1.11s6.22 6.77 2.58 11c-3.32 3.88-8.68.27-8.68.27s3.06 4.76-.85 7.88c-4.71 3.76-10.37-6.83-18.42-7.15-1.8-.04-14.2-45.32-14.2-45.32Z" style="fill:#eb9481"/><path d="M271.67 304.43c5 1.51 15.51 7.86 20.9 16.43.13.2.05.39-.1.24a109.79 109.79 0 0 0-20.85-16.57c-.05-.03-.01-.11.05-.1ZM266.73 314.6c4.18 1.75 14.71 8.77 19.88 17.65.12.2 0 .39-.12.23a117.24 117.24 0 0 0-19.82-17.79c-.05-.03 0-.11.06-.09ZM282.1 296.59c4.75-.31 8.31.78 12.85 2a60.55 60.55 0 0 0 6.8 1.48c2.09.31 5.19.79 6.51-1.37.73-1.2.17-2.69-.49-3.79a18.33 18.33 0 0 0-4.14-4c-.06-.05 0-.15.07-.11a26.17 26.17 0 0 1 4.16 3.4 6 6 0 0 1 1.62 3.21c.23 2.59-2.44 3.92-4.66 4a19.66 19.66 0 0 1-4-.4c-1.26-.21-2.5-.49-3.74-.8-2.54-.63-5-1.41-7.58-2.07a62 62 0 0 0-7.44-1.33c-.06-.07-.06-.22.04-.22Z" style="fill:#263238"/><path d="M296.6 308.39c-2-2-11.74-10-14.55-11.67a.06.06 0 1 1 .06-.11c4.5 1.94 12.95 8.39 15.19 10.63s4.88 5.09 6 8.06c1.64 4.48-1 6.42-2 7a6.18 6.18 0 0 1-4 .77 12.41 12.41 0 0 1-4.64-2c-.07-.05 0-.16.06-.12 2.2 1.2 5.41 2 7.73.78a4.31 4.31 0 0 0 2.22-2.5 5.63 5.63 0 0 0-.6-3.87 26 26 0 0 0-5.47-6.97Z" style="fill:#263238"/><path d="m223.5 306.82 30.41 41.48s-81.19 35.27-91.33 21.9 11.75-77.45 23.38-97.12c13.47-22.79 16.94-16.58 16.45 1.43-.51 18.86-3.16 46.5-3.16 46.5Z" style="fill:#455a64"/><path d="M175.79 338.09a100.59 100.59 0 0 1 11-9.64 99 99 0 0 1 12.14-7.79c2.41-1.34 4.87-2.56 7.32-3.79.08 0 .13.08.06.11A126.18 126.18 0 0 0 194 324.7q-5.93 4.13-11.69 8.45c-2.17 1.64-4.27 3.38-6.39 5.08a.09.09 0 1 1-.13-.14Z" style="fill:#263238"/><path d="M223.24 306.73c-.4.2-22.13 12.29-22.83 12.79 0-.37 1.83-13.5 2.11-15.42 0-.19 0-.39.08-.58.26-.88.54-1.77.77-2.67.3-1.15.59-2.3.88-3.45h-.05c-.34 1.14-.69 2.27-1 3.41-.16.52-.29 1-.43 1.59.16-1.36.31-2.71.46-4.07.23-2.17.39-4.34.55-6.51 0-.07-.1-.08-.11 0-.54 3.83-1.2 7.65-1.76 11.48s-2.79 18-2.76 18S223 307.33 223.4 307a.17.17 0 0 0-.16-.27ZM230.5 336.19c-3.36-4.63-6.69-9.3-10.22-13.81-2-2.56-4-5.13-6-7.68-.08-.09-.26 0-.19.13 3.19 4.78 6.4 9.58 9.81 14.21s6.74 9.27 10.19 13.84c2 2.6 4 5.13 6.12 7.61a.06.06 0 0 0 .09-.07c-3.06-4.89-6.42-9.56-9.8-14.23Z" style="fill:#263238"/><path d="M255.14 348.8c-1.12-1.24-2.58-3.06-3.75-4.25-.31-.32-.57-.19-.31.15.89 1.15 1.7 2.48 2.59 3.67-1.14.46-2.3.9-3.44 1.38l-4 1.66q-3.89 1.6-7.8 3.13-7.92 3.09-16 5.84a327.24 327.24 0 0 1-32.77 9.51c-3.1.71-6.22 1.37-9.35 1.92a92.76 92.76 0 0 1-9.31 1.32.08.08 0 0 0 0 .15 52.65 52.65 0 0 0 8.23-.49c2.85-.4 5.7-.88 8.52-1.45 5.63-1.15 11.19-2.59 16.71-4.18q16.4-4.73 32.37-10.83c3-1.13 5.95-2.3 8.91-3.5 1.49-.61 3-1.22 4.45-1.86s5.14-1.97 4.95-2.17Z" style="fill:#263238"/><path d="M242.84 370.09c.33-1.69.53-3.2.7-4.82a48.26 48.26 0 0 0 .24-4.84 27.31 27.31 0 0 0-.44-5 12 12 0 0 0-2.25-5.31 7 7 0 0 0-2.74-2.07 7.14 7.14 0 0 0-1.65-.46 8.4 8.4 0 0 0-1.58-.07 9.58 9.58 0 0 0-5.36 2.16 15 15 0 0 0-3.43 3.92 13.61 13.61 0 0 0-1.88 4.86 5.87 5.87 0 0 0 .24 3.08 3.39 3.39 0 0 0 1.24 1.57 3.64 3.64 0 0 0 1.8.6 3.4 3.4 0 0 0 1.89-.46 3.91 3.91 0 0 0 1.22-1.21 7 7 0 0 0 1-2.58 14.19 14.19 0 0 0 0-4.91A11.93 11.93 0 0 0 230 350a5.43 5.43 0 0 0-1.89-1.76 4 4 0 0 0-2.58-.43 7.79 7.79 0 0 0-4.11 2.41 25.83 25.83 0 0 0-4.85 7.72 25.41 25.41 0 0 1 5.35-7.19 6.83 6.83 0 0 1 3.73-1.84 3.21 3.21 0 0 1 3 1.92 10 10 0 0 1 1.07 4 11.92 11.92 0 0 1-.34 4.11 4.71 4.71 0 0 1-.75 1.59 1.12 1.12 0 0 1-.42.34.48.48 0 0 1-.29 0 .59.59 0 0 1-.32-.15.81.81 0 0 1-.09-.23 3.09 3.09 0 0 1 .11-1.39 11.33 11.33 0 0 1 4.51-6.05 5.17 5.17 0 0 1 3-.94 3.61 3.61 0 0 1 .67.1 2.26 2.26 0 0 1 .52.21 2.14 2.14 0 0 1 .76.74 7.36 7.36 0 0 1 .9 3.11 22.48 22.48 0 0 1 0 4 40.87 40.87 0 0 1-.57 4.19c-.26 1.38-.59 2.85-1 4.11Z" style="fill:#74b26e"/><path d="M242.84 370.09c.33-1.69.53-3.2.7-4.82a48.26 48.26 0 0 0 .24-4.84 27.31 27.31 0 0 0-.44-5 12 12 0 0 0-2.25-5.31 7 7 0 0 0-2.74-2.07 7.14 7.14 0 0 0-1.65-.46 8.4 8.4 0 0 0-1.58-.07 9.58 9.58 0 0 0-5.36 2.16 15 15 0 0 0-3.43 3.92 13.61 13.61 0 0 0-1.88 4.86 5.87 5.87 0 0 0 .24 3.08 3.39 3.39 0 0 0 1.24 1.57 3.64 3.64 0 0 0 1.8.6 3.4 3.4 0 0 0 1.89-.46 3.91 3.91 0 0 0 1.22-1.21 7 7 0 0 0 1-2.58 14.19 14.19 0 0 0 0-4.91A11.93 11.93 0 0 0 230 350a5.43 5.43 0 0 0-1.89-1.76 4 4 0 0 0-2.58-.43 7.79 7.79 0 0 0-4.11 2.41 25.83 25.83 0 0 0-4.85 7.72 25.41 25.41 0 0 1 5.35-7.19 6.83 6.83 0 0 1 3.73-1.84 3.21 3.21 0 0 1 3 1.92 10 10 0 0 1 1.07 4 11.92 11.92 0 0 1-.34 4.11 4.71 4.71 0 0 1-.75 1.59 1.12 1.12 0 0 1-.42.34.48.48 0 0 1-.29 0 .59.59 0 0 1-.32-.15.81.81 0 0 1-.09-.23 3.09 3.09 0 0 1 .11-1.39 11.33 11.33 0 0 1 4.51-6.05 5.17 5.17 0 0 1 3-.94 3.61 3.61 0 0 1 .67.1 2.26 2.26 0 0 1 .52.21 2.14 2.14 0 0 1 .76.74 7.36 7.36 0 0 1 .9 3.11 22.48 22.48 0 0 1 0 4 40.87 40.87 0 0 1-.57 4.19c-.26 1.38-.59 2.85-1 4.11Z" style="opacity:.1"/><path d="M249.32 442.68c4.38 6.2 3.49 25.11 6.14 27.76s29.86 2.38 31.7.82 1-8.25 3-9.35c.84-.43-40.84-19.23-40.84-19.23Z" style="fill:#74b26e"/><path d="M290.18 461.92a3 3 0 0 0-1.17 2 129.27 129.27 0 0 1-36.44-9.8c-.62-4.61-1.53-9-3.25-11.44 0 .01 41.68 18.81 40.86 19.24Z" style="opacity:.1"/><path d="M379.72 443c-5.47 7.91-2.51 24.81-5.17 27.46s-29.86 2.38-31.69.82-1-8.61-2.08-9.95c-.57-.73 38.94-18.33 38.94-18.33Z" style="fill:#74b26e"/><path d="M379.72 443c-2 2.95-2.91 7.16-3.33 11.4a124.08 124.08 0 0 1-35 9.68 6.07 6.07 0 0 0-.61-2.75c-.57-.73 38.94-18.33 38.94-18.33Z" style="opacity:.1"/><path d="M313 329.61c-61.11 0-84.5 42.84-84.5 67.91 0 24.74 17.76 66.78 84.5 66.78s88.88-35.61 88.88-67.35-27.17-67.34-88.88-67.34Z" style="fill:#74b26e"/><path d="M335.42 332.71s25-19.18 52.07-16.89c9.32.79-6.16 21-6.44 36.76Z" style="fill:#74b26e"/><path d="M370.61 344.86c-.16 1 8.47 4.69 9.36 4.13s1.79-13 8.83-26.24c1.04-1.95-16.52 11.43-18.19 22.11Z" style="opacity:.1"/><path d="M376 394.09a4.45 4.45 0 0 0 3.59-3.13 6.61 6.61 0 0 1-2.91 5c-.12.08-.06.31.1.26 4.78-1.8 4.26-8.55 2.58-12.85-.09-.24-.18-.48-.29-.71-1.07-2.5-2.94-4.31-5.29-4-7.69 1.11-4.91 16.47 2.22 15.43Z" style="opacity:.30000000000000004"/><path d="M394.45 372.22c1.19 3.59 12.05.67 14.78 2.95 4.31 3.57 3.12 47.91-.82 51.48-2.21 2-14.52-.11-18 2.33s4.04-56.76 4.04-56.76Z" style="fill:#74b26e"/><path d="M409.81 399.83c0 10.8-.9 19.55-2 19.55s-2-8.75-2-19.55.9-19.55 2-19.55 2 8.72 2 19.55Z" style="opacity:.1"/><path d="M283.45 344.66c.28-.07 28.19-7.41 54.18-1.67l2.59-7.65c-28.92-6.38-58.62 1.46-59.87 1.8l3.11 7.52-1.56-3.76Z" style="opacity:.30000000000000004"/><path d="M257.31 438c-24.65-28.32-9.56-61.22-8.88-62.63a4.05 4.05 0 0 0-7.28-3.57 68.51 68.51 0 0 0-5.81 23.62c-1.19 18 4.77 34.56 18.87 45.82 4.26 3.35 6.27.35 3.1-3.24ZM246.59 362.75a4.41 4.41 0 1 0 4.4-4.41 4.41 4.41 0 0 0-4.4 4.41Z" style="fill:#fff"/></svg>