<svg xmlns="http://www.w3.org/2000/svg" viewBox="0 0 500 500"><path d="M0 382.4h500v.25H0zM416.78 398.49h18.89v.25h-18.89zM293.05 396.75h29.47v.25h-29.47zM368.67 389.21h47.11v.25h-47.11zM52.46 390.89h10.97v.25H52.46zM72.33 390.89h38.56v.25H72.33zM171 395.11h54.15v.25H171zM237 337.8H43.91a5.71 5.71 0 0 1-5.7-5.71V60.66a5.71 5.71 0 0 1 5.7-5.66H237a5.71 5.71 0 0 1 5.71 5.71v271.38a5.71 5.71 0 0 1-5.71 5.71ZM43.91 55.2a5.46 5.46 0 0 0-5.45 5.46v271.43a5.46 5.46 0 0 0 5.45 5.46H237a5.47 5.47 0 0 0 5.46-5.46V60.66A5.47 5.47 0 0 0 237 55.2ZM453.31 337.8h-193.1a5.72 5.72 0 0 1-5.71-5.71V60.66a5.72 5.72 0 0 1 5.71-5.66h193.1a5.71 5.71 0 0 1 5.69 5.66v271.43a5.71 5.71 0 0 1-5.69 5.71ZM260.21 55.2a5.47 5.47 0 0 0-5.46 5.46v271.43a5.47 5.47 0 0 0 5.46 5.46h193.1a5.47 5.47 0 0 0 5.46-5.46V60.66a5.47 5.47 0 0 0-5.46-5.46Z" style="fill:#ebebeb"/><path d="M62.79 80.24h74.59v186.4H62.79z" style="fill:#e6e6e6" transform="rotate(180 100.09 173.445)"/><path d="M51.99 80.24h83.48v186.4H51.99z" style="fill:#f5f5f5" transform="rotate(180 93.735 173.445)"/><path d="M9.14 140.31h169.18v66.26H9.14z" style="fill:#fff" transform="rotate(90 93.735 173.445)"/><path d="M154.34 80.24h74.59v186.4h-74.59z" style="fill:#e6e6e6" transform="rotate(180 191.635 173.445)"/><path d="M143.54 80.24h83.48v186.4h-83.48z" style="fill:#f5f5f5" transform="rotate(180 185.28 173.445)"/><path d="M100.69 140.31h169.18v66.26H100.69z" style="fill:#fff" transform="rotate(90 185.28 173.44)"/><path d="M218.94 309.14h61.14v73.26h-61.14zM280.08 309.14h-61.14l-13.76-14.01h61.14l13.76 14.01z" style="fill:#e0e0e0"/><path d="M183.16 295.13h-61.13l-11.55 14.01h61.14l11.54-14.01z" style="fill:#f5f5f5"/><path d="M110.48 309.14h108.46v73.26H110.48z" style="fill:#f5f5f5" transform="rotate(180 164.715 345.77)"/><path d="M211.08 328.71h7.86v34.13h-7.86z" style="fill:#f0f0f0" transform="rotate(180 215.015 345.77)"/><path d="M147.37 321.73h29.69v29.69h-29.69z" style="fill:#f0f0f0" transform="rotate(-90 162.21 336.57)"/><path d="M110.61 321.73h29.69v29.69h-29.69z" style="fill:#f0f0f0" transform="rotate(-90 125.45 336.57)"/><path d="M161 339.62h2.42v29.69H161z" style="fill:#f0f0f0" transform="rotate(-90 162.21 354.46)"/><path d="M124.24 339.62h2.42v29.69h-2.42z" style="fill:#f0f0f0" transform="rotate(-90 125.45 354.46)"/><path d="M161 346.7h2.42v29.69H161z" style="fill:#f0f0f0" transform="rotate(-90 162.21 361.55)"/><path d="M124.24 346.7h2.42v29.69h-2.42z" style="fill:#f0f0f0" transform="rotate(-90 125.455 361.545)"/><path d="M161 353.79h2.42v29.69H161z" style="fill:#f0f0f0" transform="rotate(-90 162.21 368.63)"/><path d="M124.24 353.79h2.42v29.69h-2.42z" style="fill:#f0f0f0" transform="rotate(-90 125.455 368.635)"/><path d="M218.94 328.71h17.61v34.13h-17.61z" style="fill:#e6e6e6"/><path d="M303.22 217.67h29.36V382.4h-29.36z" style="fill:#e6e6e6" transform="rotate(180 317.905 300.035)"/><path d="M311.06 382.4h-7.84v-28.47h16.06l-8.22 28.47z" style="fill:#f5f5f5"/><path d="M387.42 217.67h29.36V382.4h-29.36z" style="fill:#e6e6e6" transform="rotate(180 402.095 300.035)"/><path d="M303.22 217.67h91.04V372.6h-91.04z" style="fill:#f5f5f5" transform="rotate(180 348.74 295.135)"/><path d="M386.42 382.4h7.84v-28.47H378.2l8.22 28.47z" style="fill:#f5f5f5"/><path d="M309.3 298.51h78.87v67.65H309.3z" style="fill:#f0f0f0" transform="rotate(180 348.74 332.34)"/><path d="M334.34 298.51h53.84v67.65h-53.84z" style="fill:#e6e6e6" transform="rotate(180 361.255 332.34)"/><path d="M309.3 224.85h78.87v67.65H309.3z" style="fill:#f0f0f0" transform="rotate(180 348.74 258.675)"/><path d="M334.34 224.85h53.84v67.65h-53.84z" style="fill:#e6e6e6" transform="rotate(180 361.255 258.675)"/><path d="M361.26 276.62c0 8.73-7.43 15.88-16.51 15.88h-8.19c-9.08 0-16.5-7.15-16.5-15.88Z" style="fill:#fff"/><path d="M361.26 265.51c0 8.73-7.43 15.88-16.51 15.88h-8.19c-9.08 0-16.5-7.15-16.5-15.88Z" style="fill:#fff"/><path d="M353 320.33h24.28s-4.22 10.23-4.22 16.24 18.47 29.6-7.92 29.6-7.93-23.58-7.93-29.6-4.21-16.24-4.21-16.24Z" style="fill:#f5f5f5"/><path d="M361.26 254.39c0 8.74-7.43 15.89-16.51 15.89h-8.19c-9.08 0-16.5-7.15-16.5-15.89Z" style="fill:#fff"/><path d="M354 205.73c-.92-26.06-1.91-73.84.11-86.9l3.29-2.55s-.72 23.93-1.1 63.84-.85 19.68-.44 25.61Z" style="fill:#e6e6e6"/><path d="M346.47 136.46c-7.63-5.51-23.7-9.43-40.34-9.41-6.54 0 19.45 6.41 30 13.47 8.18 5.49 17.19 14.72 20.13 19.84-1.44-10.78-2.15-18.36-9.79-23.9Z" style="fill:#e6e6e6"/><path d="M361.79 150.81c7-5.73 22.63-10.15 39.24-10.64 6.53-.2-18.71 7-28.44 14.38-7.55 5.73-15.54 15.22-17.9 20.42.22-10.8.08-18.42 7.1-24.16Z" style="fill:#e6e6e6"/><path d="M355.27 217.67a12.11 12.11 0 0 1-12.09-11.42l-1.07-8.79h26.32l-1.07 8.79a12.11 12.11 0 0 1-12.09 11.42Z" style="fill:#f0f0f0"/><path d="M370.13 201.67h-29.72l-.85-7.71h31.43l-.86 7.71z" style="fill:#f0f0f0"/><ellipse cx="250" cy="416.24" rx="193.89" ry="11.32" style="fill:#f5f5f5"/><path d="m354.3 397.88-7.19 1.52-4.87-16.36 7.19-1.52 4.87 16.36z" style="fill:#7f3e3b"/><path d="m346.66 398.62 7.85-1.65a.66.66 0 0 1 .72.36l2.76 6.09a1.07 1.07 0 0 1-.76 1.5c-2.85.55-7 1.24-10.53 2-4.16.88-4.74 1.77-9.69 2.4-3 .38-4.2-2.54-3-3 5.55-2 6.8-2.77 11-6.79a3.37 3.37 0 0 1 1.65-.91Z" style="fill:#263238"/><path d="m342.24 383.04 2.51 8.44 7.19-1.52-2.51-8.43-7.19 1.51z" style="opacity:.2"/><path d="M302.22 163.84c-1.47 4.87-3.08 9.61-4.83 14.37s-3.63 9.45-5.85 14.2l-.87 1.79-.95 1.83c-.32.61-.7 1.18-1.05 1.78s-.7 1.17-1.1 1.73a54.45 54.45 0 0 1-5 6.4 55.86 55.86 0 0 1-5.75 5.56c-1 .86-2.06 1.67-3.15 2.44s-2.14 1.49-3.42 2.23l-3.54-4.71c.69-.8 1.53-1.73 2.27-2.63s1.47-1.86 2.2-2.79c1.43-1.88 2.78-3.81 4-5.76a65.16 65.16 0 0 0 3.41-6c.52-1 1-2 1.44-3.07l.66-1.55.64-1.63c1.69-4.43 3.27-9.1 4.82-13.77l4.68-14Z" style="fill:#803e3c"/><path d="M307.47 155.91c2.53 6.73-10.92 30.67-10.92 30.67l-15.12-11.66a116.2 116.2 0 0 1 9.39-18.24c5.32-7.93 13.87-8.15 16.65-.77Z" style="fill:#8b7ab0"/><path d="M304.51 162.56c-4.78 2-11.27 9.72-13.3 19.9l5.34 4.12s8-14.16 10.47-23.76a2.31 2.31 0 0 0-2.51-.26Z" style="opacity:.2"/><path d="M298.54 150.77s-8.87 16.78-.44 59.06h40.21c.27-6.18-3.61-30.37 2.35-59.45a105.49 105.49 0 0 0-13.46-1.7 147.52 147.52 0 0 0-17.09 0 74.77 74.77 0 0 0-11.57 2.09Z" style="fill:#8b7ab0"/><path d="m253.81 216.58 4.09 3.7 6.06-1.61-4.11-7.31-6.04 5.22zM268.72 211.78l-8.87-.42 4.11 7.31s6.59.7 7.22-4.17ZM325.5 129.43c-1.07 5.5-2.15 15.58 1.7 19.25 0 0-1.73 3.69-11.95 3.69-9.34 0-5.14-3.69-5.14-3.69 6.13-1.46 6-6 4.9-10.29Z" style="fill:#7f3e3b"/><path d="m321.23 133.09-6.21 5.3a18 18 0 0 1 .52 3c1.5 2.33 5.59-1.09 6.34-4.67a8.33 8.33 0 0 0-.65-3.63Z" style="opacity:.2"/><path d="M300.83 117.35c-2.05 3.45 2.46 13 7.68 12.13s-3.78-18.66-7.68-12.13Z" style="fill:#263238"/><path d="M323 120.79c1.09 7.38 2.1 11.64-.79 16.16-4.34 6.79-14 5.35-17.32-1.55-2.95-6.22-4.24-17.24 2.28-21.65a10.18 10.18 0 0 1 15.83 7.04Z" style="fill:#7f3e3b"/><path d="m323.65 111.06-6.37 4.64c3.84 4.57-.52 14.56 5.53 12.29 2.77-.99 9.92-11.89.84-16.93Z" style="fill:#263238"/><path d="M316 105.37c-9.67 2.34-10.53-.45-9.88-4.07-7.23 1.19-12.64 6.89-8.44 13.78 4.66 7.65 18.88 1.44 21.39 1.39l3.61-.88c8.2-2.39 5.4-13.13-6.68-10.22Z" style="fill:#263238"/><path d="M324.62 124.65h-7.55a.16.16 0 0 1-.16-.16.15.15 0 0 1 .16-.16h7.55a.16.16 0 0 1 .16.16.16.16 0 0 1-.16.16Z" style="fill:#fff"/><path d="M328 128.12a7.12 7.12 0 0 1-3.67 4c-2.27 1-3.78-.91-3.46-3.25.28-2.1 1.8-5.17 4.23-5.21a3.18 3.18 0 0 1 2.9 4.46ZM313.78 407.14h-7.34l-.25-17.02h7.35l.24 17.02z" style="fill:#7f3e3b"/><path d="M306.14 406.29h8a.62.62 0 0 1 .62.5l1.45 6.53a1.06 1.06 0 0 1-1.05 1.3c-2.9-.05-7.08-.22-10.72-.22-4.25 0-7.92.24-12.91.24-3 0-3.85-3.05-2.59-3.33 5.75-1.26 10.44-1.39 15.4-4.45a3.35 3.35 0 0 1 1.8-.57Z" style="fill:#263238"/><path d="m306.19 390.13.13 8.77h7.35l-.13-8.77h-7.35z" style="opacity:.2"/><path d="M303.11 407.41a2.27 2.27 0 0 1-1.49-.15 1.09 1.09 0 0 1-.51-.87.57.57 0 0 1 .23-.55c.74-.55 3.38.54 3.68.67a.18.18 0 0 1 .1.17.17.17 0 0 1-.11.16 9.12 9.12 0 0 1-1.9.57Zm-1.34-1.36a.41.41 0 0 0-.22.08.19.19 0 0 0-.08.22.68.68 0 0 0 .34.6 3.6 3.6 0 0 0 2.65-.28 7.18 7.18 0 0 0-2.69-.62Z" style="fill:#8b7ab0"/><path d="M305 406.85h-.08c-.84-.29-2.58-1.69-2.55-2.54a.57.57 0 0 1 .48-.55 1 1 0 0 1 .79.11c1 .57 1.49 2.68 1.51 2.77a.2.2 0 0 1-.06.18.19.19 0 0 1-.09.03Zm-2-2.77h-.08c-.22.07-.23.18-.23.22 0 .51 1.13 1.59 2 2a4.24 4.24 0 0 0-1.24-2.18.58.58 0 0 0-.45-.04Z" style="fill:#8b7ab0"/><path d="M298.1 209.83s-5.4 68.91-6.41 91.83c-1.06 23.83 12.24 95.13 12.24 95.13h11.95s-3.94-66.13-1.88-89.46c2.24-25.44 10.53-97.5 10.53-97.5Z" style="fill:#263238"/><path d="M310.15 264a149.49 149.49 0 0 0 5.4 27.43c1.84-18.09 4.54-42.4 6.5-59.77-4.6 3.01-13.72 11.72-11.9 32.34Z" style="opacity:.2"/><path d="M312 209.83s3.07 68.68 7.76 90.2c5.12 23.57 20.42 90.26 20.42 90.26l13.47-2.84s-9.08-63.23-12-86.56c-3.17-25.33-3.7-91.06-3.7-91.06Z" style="fill:#263238"/><path d="m354.58 387.56-14.51 3.05-2.42-5.21 15.97-3.83.96 5.99zM318.19 397.09h-14.83l-1.3-5.6 16.38.29-.25 5.31z" style="fill:#8b7ab0"/><path d="M312.85 125.06c.13.59-.08 1.14-.47 1.22s-.81-.33-.93-.92.09-1.14.47-1.22.81.33.93.92ZM306.15 126.48c.12.59-.09 1.14-.48 1.22s-.8-.33-.93-.92.09-1.15.48-1.23.78.34.93.93Z" style="fill:#263238"/><path d="M307.89 126.42a21.45 21.45 0 0 1-1.76 5.67 3.49 3.49 0 0 0 2.95-.07Z" style="fill:#630f0f"/><path d="M310.5 134.37a.18.18 0 1 1-.06-.35 4.81 4.81 0 0 0 3.55-2.5.18.18 0 0 1 .23-.1.18.18 0 0 1 .09.24 5.06 5.06 0 0 1-3.81 2.71ZM316 119.85a.35.35 0 0 1-.31-.06 2.84 2.84 0 0 0-2.53-.46.36.36 0 0 1-.26-.67 3.55 3.55 0 0 1 3.21.56.35.35 0 0 1 .08.49.43.43 0 0 1-.19.14ZM302.09 122a.3.3 0 0 1-.15-.05.36.36 0 0 1-.1-.49 3.5 3.5 0 0 1 2.78-1.68.36.36 0 0 1 0 .71 2.82 2.82 0 0 0-2.19 1.35.34.34 0 0 1-.34.16ZM334.7 149l-1.9-.17a.39.39 0 0 0-.4.31c-5.28 28.36-2.32 58.48-2.32 58.48h2.1a270.14 270.14 0 0 1 2.85-58.2.36.36 0 0 0-.33-.42Z" style="fill:#263238"/><path d="M332.48 207.64a.68.68 0 0 0-.67-.68h-1.45a.69.69 0 0 0-.68.68.66.66 0 0 0 .52.64v1.8a.89.89 0 0 0 1.77 0v-1.8a.66.66 0 0 0 .51-.64Z" style="fill:#fff"/><path d="m302.87 149.4-1.88.35a.37.37 0 0 0-.3.32c-4 28.38.38 57.57.38 57.57h2.09c-3.12-30.89-.35-54.16.14-57.83a.37.37 0 0 0-.43-.41Z" style="fill:#263238"/><path d="M303.47 207.64a.73.73 0 0 0-.71-.68h-1.45a.64.64 0 0 0-.64.68.69.69 0 0 0 .54.64l.09 1.8a.93.93 0 0 0 .92.88.84.84 0 0 0 .85-.88l-.09-1.8a.63.63 0 0 0 .49-.64Z" style="fill:#fff"/><path d="M343.93 400.35a2.35 2.35 0 0 1-1.49.16 1.07 1.07 0 0 1-.68-.75.58.58 0 0 1 .1-.58c.62-.69 3.42-.17 3.74-.1a.16.16 0 0 1 .14.14.17.17 0 0 1-.07.18 9.71 9.71 0 0 1-1.74.95Zm-1.6-1.05a.43.43 0 0 0-.2.12s-.07.1 0 .23a.69.69 0 0 0 .45.52 3.64 3.64 0 0 0 2.55-.82 7 7 0 0 0-2.8-.05Z" style="fill:#8b7ab0"/><path d="M345.63 399.42h-.09c-.87-.12-2.87-1.12-3-2a.59.59 0 0 1 .37-.64 1 1 0 0 1 .79-.06c1.07.36 2 2.32 2.05 2.4a.19.19 0 0 1 0 .19Zm-2.5-2.31h-.08c-.2.11-.18.22-.18.26.09.5 1.43 1.32 2.36 1.6-.3-.57-1-1.66-1.67-1.89a.63.63 0 0 0-.43.03Z" style="fill:#8b7ab0"/><path d="M313.92 130.07c-2.37.5-4.81-1.5-5.43-4.45-.55-2.63.67-4.39 3.44-5s4.6.54 5.16 3.16c.62 2.98-.8 5.79-3.17 6.29ZM312 121c-1.81.38-3.84 1.49-3.18 4.59.58 2.78 2.85 4.67 5 4.2s3.51-3.1 2.92-5.88c-.63-3.14-2.93-3.34-4.74-2.91ZM304.21 132.12c-2 .42-4.12-1.64-4.74-4.59-.75-3.55 1.4-4.55 2.75-4.84s3.72-.23 4.47 3.31c.62 3-.49 5.7-2.48 6.12Zm-1.92-9.12c-1.51.32-3.16 1.35-2.51 4.45.59 2.78 2.55 4.73 4.36 4.34s2.82-3 2.23-5.73c-.65-3.06-2.58-3.37-4.08-3.06Z" style="fill:#fff"/><path d="M308.64 123.78h-.08a2.6 2.6 0 0 0-2.62.55.15.15 0 0 1-.22 0 .16.16 0 0 1 0-.23 2.9 2.9 0 0 1 2.92-.61.16.16 0 0 1 .11.19.18.18 0 0 1-.11.1Z" style="fill:#fff"/><path d="m315.87 152.36 1.46-1.06 3.13 3-4.59-1.94z" style="fill:#263238"/><path d="M317.33 151.3s2.58 3.61 3.08 6.22c3.09-1.28 8.91-4.48 9.69-9a13.48 13.48 0 0 1-3.19-1.5s-3.11 2.64-9.58 4.28Z" style="fill:#fff"/><path d="m315.87 152.36-.61-1.23-4.04 3.17 4.65-1.94z" style="fill:#263238"/><path d="M315.26 151.14a10 10 0 0 0-3 5.75c-3.08-1.28-4.29-5.45-3.49-8.23a18.46 18.46 0 0 1 3.66-1.2 3.56 3.56 0 0 0 2.83 3.68Z" style="fill:#fff"/><path d="m310.38 214.19 5.23 5.51 5.24-2.46-4.43-8.28-6.04 5.23z" style="fill:#7f3e3b"/><path d="m325.29 209.38-8.87-.42 4.43 8.28s6.27-.27 6.9-5.13Z" style="fill:#7f3e3b"/><path d="M348 160.73c1.31 5.43 2.47 10.86 3.51 16.35q.78 4.11 1.46 8.26c.47 2.77.88 5.55 1.22 8.45a13.06 13.06 0 0 1 .13 1.65 10.06 10.06 0 0 1-.12 1.9 11.9 11.9 0 0 1-1.07 3.45 16 16 0 0 1-3.66 4.76 31.34 31.34 0 0 1-8.2 5.17 66.49 66.49 0 0 1-16.86 4.84l-1.47-5.7c2.4-1 4.92-2.1 7.29-3.29a69.35 69.35 0 0 0 6.82-3.77 25 25 0 0 0 5.38-4.32 5.66 5.66 0 0 0 1.2-1.94 1.36 1.36 0 0 0 .06-.52.43.43 0 0 0 0-.17 1.5 1.5 0 0 1-.1-.42c-1.06-5.18-2.37-10.59-3.58-15.93s-2.45-10.76-3.57-16.14Z" style="fill:#803e3c"/><path d="M340.66 150.38c10 1.79 14.42 26.81 14.42 26.81L339 187.05s-5.11-14.76-4.84-24.05c.28-8.86-1.09-14 6.5-12.62ZM169.9 222.37h102.97v193.86H169.9z" style="fill:#8b7ab0"/><path d="M179.37 220.01h112.61v2.37H179.37z" style="fill:#8b7ab0"/><path d="M179.37 220.01h112.61v2.37H179.37z" style="opacity:.30000000000000004"/><path d="M272.87 222.37h28.58v193.86h-28.58z" style="fill:#8b7ab0" transform="rotate(180 287.165 319.305)"/><path d="M272.87 222.37h28.58v193.86h-28.58z" style="opacity:.2" transform="rotate(180 287.165 319.305)"/><rect width="7.62" height="7.66" x="257.87" y="231.62" rx=".93" style="opacity:.1"/><rect width="7.62" height="7.66" x="242.15" y="231.62" rx=".93" style="opacity:.30000000000000004"/><rect width="7.62" height="7.66" x="226.44" y="231.62" rx=".93" style="opacity:.30000000000000004"/><rect width="7.62" height="7.66" x="210.72" y="231.62" rx=".93" style="opacity:.1"/><rect width="7.62" height="7.66" x="195.01" y="231.62" rx=".93" style="opacity:.30000000000000004"/><rect width="7.62" height="7.66" x="179.29" y="231.62" rx=".93" style="opacity:.30000000000000004"/><path d="M173.26 243.67h96.25v30.35h-96.25z" style="opacity:.1"/><rect width="5.31" height="21.68" x="260.05" y="248.01" rx="1.3" style="fill:#8b7ab0"/><rect width="5.31" height="21.68" x="249.1" y="248.01" rx="1.3" style="opacity:.1"/><rect width="5.31" height="21.68" x="238.14" y="248.01" rx="1.3" style="fill:#8b7ab0"/><rect width="5.31" height="21.68" x="227.18" y="248.01" rx="1.3" style="fill:#8b7ab0"/><path d="M200.83 254a3.5 3.5 0 1 1 3.5 3.5 3.51 3.51 0 0 1-3.5-3.5Z" style="fill:#fff;opacity:.30000000000000004"/><path d="M217.84 263.69a3.5 3.5 0 1 1-3.5-3.51 3.5 3.5 0 0 1 3.5 3.51ZM210.84 254a3.5 3.5 0 1 1 3.5 3.5 3.51 3.51 0 0 1-3.5-3.5ZM207.83 263.69a3.5 3.5 0 1 1-3.5-3.51 3.5 3.5 0 0 1 3.5 3.51Z" style="opacity:.1"/><circle cx="186.88" cy="258.85" r="7.59" style="fill:#fff;opacity:.30000000000000004" transform="rotate(-45 186.88 258.852)"/><path d="M173.26 278.18h96.25v30.35h-96.25z" style="opacity:.1"/><rect width="5.31" height="21.68" x="260.05" y="282.52" rx="1.3" style="fill:#8b7ab0"/><rect width="5.31" height="21.68" x="249.1" y="282.52" rx="1.3" style="opacity:.1"/><rect width="5.31" height="21.68" x="238.14" y="282.52" rx="1.3" style="fill:#8b7ab0"/><rect width="5.31" height="21.68" x="227.18" y="282.52" rx="1.3" style="fill:#8b7ab0"/><path d="M200.83 288.52a3.5 3.5 0 1 1 3.5 3.5 3.5 3.5 0 0 1-3.5-3.5Z" style="fill:#fff;opacity:.30000000000000004"/><circle cx="214.34" cy="298.2" r="3.5" style="fill:#fff;opacity:.30000000000000004"/><path d="M210.84 288.52a3.5 3.5 0 1 1 3.5 3.5 3.5 3.5 0 0 1-3.5-3.5Z" style="opacity:.1"/><circle cx="204.33" cy="298.2" r="3.5" style="opacity:.1"/><circle cx="186.88" cy="293.36" r="7.59" style="fill:#fff;opacity:.30000000000000004"/><path d="M173.26 312.7h96.25v30.35h-96.25z" style="opacity:.1"/><rect width="5.31" height="21.68" x="260.05" y="317.03" rx="1.3" style="fill:#8b7ab0"/><rect width="5.31" height="21.68" x="249.1" y="317.03" rx="1.3" style="opacity:.1"/><rect width="5.31" height="21.68" x="238.14" y="317.03" rx="1.3" style="fill:#8b7ab0"/><rect width="5.31" height="21.68" x="227.18" y="317.03" rx="1.3" style="fill:#8b7ab0"/><path d="M200.83 323a3.5 3.5 0 1 1 3.5 3.51 3.5 3.5 0 0 1-3.5-3.51Z" style="fill:#fff;opacity:.30000000000000004"/><circle cx="214.34" cy="332.71" r="3.5" style="fill:#fff;opacity:.30000000000000004"/><path d="M210.84 323a3.5 3.5 0 1 1 3.5 3.51 3.5 3.5 0 0 1-3.5-3.51Z" style="opacity:.1"/><circle cx="204.33" cy="332.71" r="3.5" style="opacity:.1"/><circle cx="186.88" cy="327.87" r="7.59" style="opacity:.1"/><path d="M173.26 347.21h96.25v30.35h-96.25z" style="opacity:.1"/><rect width="5.31" height="21.68" x="260.05" y="351.55" rx="1.3" style="fill:#8b7ab0"/><rect width="5.31" height="21.68" x="249.1" y="351.55" rx="1.3" style="opacity:.1"/><rect width="5.31" height="21.68" x="238.14" y="351.55" rx="1.3" style="fill:#8b7ab0"/><rect width="5.31" height="21.68" x="227.18" y="351.55" rx="1.3" style="fill:#8b7ab0"/><circle cx="204.33" cy="357.55" r="3.5" style="fill:#fff;opacity:.30000000000000004"/><circle cx="214.34" cy="367.23" r="3.5" style="fill:#fff;opacity:.30000000000000004"/><circle cx="214.34" cy="357.55" r="3.5" style="fill:#fff;opacity:.30000000000000004"/><circle cx="204.33" cy="367.23" r="3.5" style="opacity:.1"/><circle cx="186.88" cy="362.39" r="7.59" style="fill:#fff;opacity:.30000000000000004"/><path d="M173.26 381.72h96.25v30.35h-96.25z" style="opacity:.1"/><rect width="5.31" height="21.68" x="260.05" y="386.06" rx="1.3" style="fill:#8b7ab0"/><rect width="5.31" height="21.68" x="249.1" y="386.06" rx="1.3" style="opacity:.1"/><rect width="5.31" height="21.68" x="238.14" y="386.06" rx="1.3" style="fill:#8b7ab0"/><rect width="5.31" height="21.68" x="227.18" y="386.06" rx="1.3" style="fill:#8b7ab0"/><circle cx="204.33" cy="392.06" r="3.5" style="fill:#fff;opacity:.30000000000000004"/><circle cx="214.34" cy="401.74" r="3.5" style="fill:#fff;opacity:.30000000000000004"/><circle cx="214.34" cy="392.06" r="3.5" style="fill:#fff;opacity:.30000000000000004"/><circle cx="204.33" cy="401.74" r="3.5" style="opacity:.1"/><circle cx="186.88" cy="396.9" r="7.59" style="fill:#fff;opacity:.30000000000000004"/><path d="M172.76 175.09h74.3l10.45 42.56h-74.3l-10.45-42.56zM204.21 217.65l.29 2.35h79.38l-.29-2.35h-79.38z" style="fill:#8b7ab0"/><path d="m244.84 175.09 10.45 42.56h.01l.29 2.35H183.5l-.29-2.35-10.45-42.56h72.08z" style="fill:#8b7ab0"/><path d="m244.84 175.09 10.45 42.56h.01l.29 2.35H183.5l-.29-2.35-10.45-42.56h72.08z" style="fill:#fff;opacity:.6000000000000001"/><path d="m214.9 149.91-.47-.24c-.6-.31-14.63-7.78-16.62-17.59a86.44 86.44 0 0 1-1.46-19.08v-.88l.88-.06c.11 0 10.57-.83 17.32-3l.31-.1.3.1c6.75 2.15 17.21 3 17.32 3l.88.06v.88a86.44 86.44 0 0 1-1.36 19.08c-2 9.81-16 17.28-16.62 17.59ZM198.32 114a85.83 85.83 0 0 0 1.46 17.7c1.6 7.94 12.69 14.6 15.12 16 2.42-1.36 13.51-8 15.11-16a85.1 85.1 0 0 0 1.46-17.7 92.16 92.16 0 0 1-16.57-2.89 92.39 92.39 0 0 1-16.58 2.89Z" style="fill:#8b7ab0;opacity:.30000000000000004"/><path d="M214.9 144.35c-4.19-2.56-11.25-7.86-12.33-13.23a79.84 79.84 0 0 1-1.42-14.56 90.74 90.74 0 0 0 13.75-2.5 90.41 90.41 0 0 0 13.74 2.5 80.51 80.51 0 0 1-1.42 14.56c-1.08 5.37-8.14 10.67-12.32 13.23Z" style="fill:#8b7ab0"/><path d="M143.91 416.24h-2V182.56a21.73 21.73 0 0 1 21.7-21.7h44.6a5.7 5.7 0 0 0 5.68-5.69h2a7.69 7.69 0 0 1-7.68 7.69h-44.6a19.72 19.72 0 0 0-19.7 19.7Z" style="fill:#8b7ab0;opacity:.30000000000000004"/></svg>