<svg width="32" height="73" viewBox="0 0 32 73" fill="none" xmlns="http://www.w3.org/2000/svg">
<mask id="path-1-inside-1_2_17" fill="white">
<path fill-rule="evenodd" clip-rule="evenodd" d="M1 33V15C1 6.71573 7.71573 0 16 0C24.2843 0 31 6.71573 31 15V33C31 41.2843 24.2843 48 16 48C7.71573 48 1 41.2843 1 33Z"/>
</mask>
<path d="M3 33V15H-1V33H3ZM16 -2C6.61116 -2 -1 5.61116 -1 15H3C3 7.8203 8.8203 2 16 2V-2ZM33 15C33 5.61116 25.3888 -2 16 -2V2C23.1797 2 29 7.8203 29 15H33ZM29 15V33H33V15H29ZM16 50C25.3888 50 33 42.3888 33 33H29C29 40.1797 23.1797 46 16 46V50ZM-1 33C-1 42.3888 6.61116 50 16 50V46C8.8203 46 3 40.1797 3 33H-1Z" fill="#B2BFCD" mask="url(#path-1-inside-1_2_17)"/>
<mask id="path-3-inside-2_2_17" fill="white">
<path fill-rule="evenodd" clip-rule="evenodd" d="M18.9934 12.375H19V12.1875V8.8125C19 7.2592 17.6569 6 16 6C14.3431 6 13 7.2592 13 8.8125V12.1875V12.375H13.0066C13.1095 13.8409 14.4104 15 16 15C17.5896 15 18.8905 13.8409 18.9934 12.375Z"/>
</mask>
<path d="M19 12.375V14.375H21V12.375H19ZM18.9934 12.375V10.375H17.1289L16.9983 12.2349L18.9934 12.375ZM13 12.375H11V14.375H13V12.375ZM13.0066 12.375L15.0016 12.2349L14.8711 10.375H13.0066V12.375ZM19 10.375H18.9934V14.375H19V10.375ZM17 12.1875V12.375H21V12.1875H17ZM17 8.8125V12.1875H21V8.8125H17ZM21 8.8125C21 6.035 18.6379 4 16 4V8C16.6758 8 17 8.4834 17 8.8125H21ZM16 4C13.3621 4 11 6.035 11 8.8125H15C15 8.4834 15.3242 8 16 8V4ZM15 12.1875V8.8125H11V12.1875H15ZM15 12.375V12.1875H11V12.375H15ZM13.0066 10.375H13V14.375H13.0066V10.375ZM11.0115 12.5151C11.195 15.129 13.4638 17 16 17V13C15.3569 13 15.024 12.5528 15.0016 12.2349L11.0115 12.5151ZM16 17C18.5362 17 20.805 15.129 20.9885 12.5151L16.9983 12.2349C16.976 12.5528 16.6431 13 16 13V17Z" fill="#B2BFCD" mask="url(#path-3-inside-2_2_17)"/>
<path d="M1 48L15.5 62.5L31 48" stroke="#B2BFCD" stroke-width="2"/>
<path d="M1 57L15.5 71.5L31 57" stroke="#B2BFCD" stroke-width="2"/>
</svg>
