<svg width="347" height="519" viewBox="0 0 347 519" fill="none" xmlns="http://www.w3.org/2000/svg">
<path d="M157.112 517.281C73.6358 511.441 7.2474 444.778 1.41641 361.525C0.997046 355.538 5.90592 350.593 12 350.593H157.044C163.119 350.593 168.044 355.518 168.044 361.593V506.697C168.044 512.791 163.1 517.7 157.112 517.281Z" fill="#4F3D73" stroke="#B2BFCD" stroke-width="2"/>
<path d="M189.306 176.235C272.529 182.07 339.167 248.483 345.003 331.99C345.422 337.978 340.513 342.922 334.419 342.922H189.374C183.299 342.922 178.375 337.998 178.375 331.922V186.818C178.375 180.724 183.319 175.815 189.306 176.235Z" fill="#352359" stroke="#B2BFCD" stroke-width="2"/>
<path d="M345.002 361.525C339.171 444.778 272.783 511.441 189.307 517.281C183.319 517.7 178.375 512.791 178.375 506.697V361.593C178.375 355.518 183.299 350.593 189.375 350.593H334.419C340.513 350.593 345.422 355.538 345.002 361.525Z" fill="#4F3D73" stroke="#B2BFCD" stroke-width="2"/>
<path d="M189.307 1.41591C272.783 7.25642 339.171 73.9191 345.002 157.172C345.422 163.16 340.513 168.104 334.419 168.104H189.375C183.299 168.104 178.375 163.179 178.375 157.104V12C178.375 5.90599 183.319 0.996978 189.307 1.41591Z" fill="#4F3D73" stroke="#B2BFCD" stroke-width="2"/>
<path d="M1.41641 157.172C7.2474 73.9191 73.6358 7.25642 157.112 1.41591C163.1 0.996978 168.044 5.90599 168.044 12V157.104C168.044 163.179 163.119 168.104 157.044 168.104H12C5.90592 168.104 0.997046 163.16 1.41641 157.172Z" fill="#352359" stroke="#B2BFCD" stroke-width="2"/>
<path d="M1.41641 186.932C7.2474 270.185 73.6358 336.848 157.112 342.688C163.1 343.107 168.044 338.198 168.044 332.104V187C168.044 180.925 163.119 176 157.044 176H12C5.90592 176 0.997046 180.944 1.41641 186.932Z" fill="#BDB3D0" stroke="#B2BFCD" stroke-width="2"/>
</svg>
