<svg xmlns="http://www.w3.org/2000/svg" viewBox="0 0 500 500"><ellipse cx="250" cy="410.07" rx="193.89" ry="11.32" style="fill:#f5f5f5"/><path d="M238.4 341.53H45.31a5.72 5.72 0 0 1-5.71-5.71V64.39a5.72 5.72 0 0 1 5.71-5.66H238.4a5.71 5.71 0 0 1 5.7 5.71v271.38a5.71 5.71 0 0 1-5.7 5.71ZM45.31 58.93a5.47 5.47 0 0 0-5.46 5.46v271.43a5.47 5.47 0 0 0 5.46 5.46H238.4a5.46 5.46 0 0 0 5.45-5.46V64.39a5.46 5.46 0 0 0-5.45-5.46ZM454.7 341.53H261.6a5.71 5.71 0 0 1-5.7-5.71V64.39a5.71 5.71 0 0 1 5.7-5.66h193.1a5.71 5.71 0 0 1 5.7 5.66v271.43a5.71 5.71 0 0 1-5.7 5.71ZM261.6 58.93a5.46 5.46 0 0 0-5.45 5.46v271.43a5.46 5.46 0 0 0 5.45 5.46h193.1a5.48 5.48 0 0 0 5.47-5.46V64.39a5.48 5.48 0 0 0-5.47-5.46Z" style="fill:#e6e6e6"/><path d="M53.79 392.21H95v.25H53.79zM137.67 390.21H179v.25h-41.33zM222.78 390.21h10v.25h-10zM86.58 398.75h46.25v.25H86.58zM271.2 392.08h21.6v.25h-21.6zM301.7 392.08h27.93v.25H301.7zM401.89 396.31h62.44v.25h-62.44z" style="fill:#e0e0e0"/><path d="M364.83 114.23h47.61v33.27h-47.61z" style="fill:#e6e6e6"/><path d="M364.83 114.23h21.47v33.27h-21.47z" style="fill:#f0f0f0"/><path d="M375.55 118.74a7.09 7.09 0 1 1-7.09 7.09 7.09 7.09 0 0 1 7.09-7.09Z" style="fill:#e0e0e0;opacity:.4;isolation:isolate"/><path d="M379 139.66a3.46 3.46 0 1 1-3.46-3.46 3.45 3.45 0 0 1 3.46 3.46Z" style="fill:#e0e0e0"/><circle cx="375.5" cy="126.31" r="2.02" style="fill:#fafafa"/><path d="M290.21 102.31h20.59v45.2h-20.59z" style="fill:#f0f0f0"/><path d="M310.23 102.31h27.32v45.2h-27.32z" style="fill:#e6e6e6"/><path d="M300.43 116.66a2.86 2.86 0 1 1-2.85 2.85 2.86 2.86 0 0 1 2.85-2.85ZM300.43 112.21a1.43 1.43 0 1 1-1.43 1.43 1.43 1.43 0 0 1 1.43-1.43ZM300.43 107.89a1.43 1.43 0 1 1-1.43 1.43 1.43 1.43 0 0 1 1.43-1.43Z" style="fill:#fff"/><path d="M290.67 127.66h46.4v.71h-46.4zM290.67 131.67h46.4v.71h-46.4zM290.67 135.68h46.4v.71h-46.4zM290.67 139.69h46.4v.71h-46.4zM290.67 143.7h46.4v.71h-46.4zM298.96 128.88h1.96v1.96h-1.96zM298.96 133.1h1.96v1.96h-1.96zM298.96 136.9h1.96v1.96h-1.96zM298.96 141h1.96v1.96h-1.96zM298.96 144.98h1.96v1.96h-1.96zM250.87 192h-1v-38.29a7.81 7.81 0 0 1 7.8-7.8h33v1h-33a6.81 6.81 0 0 0-6.8 6.8Z" style="fill:#e0e0e0"/><path d="M248.87 192.07h-1v-38.64a9.47 9.47 0 0 1 9.46-9.46h33.34v1h-33.34a8.47 8.47 0 0 0-8.46 8.46Z" style="fill:#e0e0e0"/><path d="M108.06 96h31.31v33.33h-31.31z" style="fill:#e6e6e6"/><path d="M139.37 96h8.02v33.33h-8.02z" style="fill:#f5f5f5"/><path d="M99.85 90.86h23.52v38.47H99.85z" style="fill:#e6e6e6"/><path d="M123.36 90.86h6.8v38.47h-6.8z" style="fill:#f5f5f5"/><path d="M96.61 96h19.83v33.33H96.61z" style="fill:#ebebeb"/><path d="M116.44 96h4.53v33.33h-4.53z" style="fill:#f5f5f5"/><path d="M74.2 101.64h26.01v27.69H74.2z" style="fill:#e6e6e6"/><path d="M100.21 101.64h6.66v27.69h-6.66z" style="fill:#f5f5f5"/><path d="M67.38 97.37h19.54v31.96H67.38z" style="fill:#e6e6e6"/><path d="M86.91 97.37h5.65v31.96h-5.65z" style="fill:#f5f5f5"/><path d="M62.18 101.64h18.98v27.69H62.18z" style="fill:#e6e6e6"/><path d="M81.17 101.64h3.76v27.69h-3.76z" style="fill:#f0f0f0"/><path d="M40 129.31h204v9.65H40z" style="fill:#e6e6e6" transform="rotate(180 142 134.135)"/><path d="M76.61 139.19h11.28l-8.22 12.41h-3.06v-12.41zM74.98 139.19h1.63v12.41h-1.63zM203.31 139.19h11.29l-8.22 12.41h-3.07v-12.41z" style="fill:#e0e0e0"/><path d="M201.69 139.19h1.63v12.41h-1.63z" style="fill:#e0e0e0"/><path d="M256.23 147.51h204v9.65h-204z" style="fill:#e6e6e6"/><path d="M423.63 169.79h-3.07l-8.22-12.41h11.29v12.41zM423.63 157.38h1.63v12.41h-1.63zM296.92 169.79h-3.07l-8.22-12.41h11.29v12.41zM296.92 157.38h1.63v12.41h-1.63z" style="fill:#e0e0e0"/><path d="M197.45 109.89a14.43 14.43 0 0 0-.63-4.23l3.71-3.26-2.33-4.05-4.68 1.59a14.6 14.6 0 0 0-7.33-4.24l-1-4.84h-4.67l-1 4.84a14.57 14.57 0 0 0-7.32 4.24l-4.69-1.59-2.33 4.05 3.71 3.26a14.52 14.52 0 0 0 0 8.46l-3.71 3.26 2.33 4.05 4.69-1.59a14.57 14.57 0 0 0 7.32 4.24l1 4.84h4.67l1-4.84a14.6 14.6 0 0 0 7.33-4.24l4.68 1.59 2.33-4.05-3.71-3.26a14.43 14.43 0 0 0 .63-4.23Zm-14.56 7.86a7.57 7.57 0 1 1 7.57-7.57 7.57 7.57 0 0 1-7.57 7.57ZM222.71 112.34a9.24 9.24 0 0 0-1.8-2.16l1-3.11-2.7-1.47-2.09 2.5a9.51 9.51 0 0 0-5.56.14l-2.21-2.38-2.63 1.6 1.12 3.05a9.67 9.67 0 0 0-2.66 4.9l-3.17.72.08 3.07 3.21.56a9.63 9.63 0 0 0 2.9 4.75l-1 3.11 2.7 1.47 2.09-2.5a9.71 9.71 0 0 0 5.57-.14l2.21 2.38 2.62-1.6-1.12-3.06a9.64 9.64 0 0 0 2.66-4.89l3.17-.72-.08-3.08-3.2-.55a9.22 9.22 0 0 0-1.11-2.59Zm-5.47 9.42a5 5 0 1 1 1.65-6.86 5 5 0 0 1-1.65 6.86Z" style="fill:#f0f0f0"/><path d="M46.56 273.12h407.62v5.13H46.56z" style="fill:#e8504a"/><path d="M70.84 276.8v122.34h3.18l4-122.34h-7.18zM108.38 280.8v113.34h3.18l4-113.34h-7.18z" style="fill:#e8504a"/><path d="M108.38 280.8v113.34h3.18l4-113.34h-7.18z" style="opacity:.5"/><path d="M431.35 276.8v122.34h-3.17l-4.01-122.34h7.18zM393.81 280.8v113.34h-3.18l-4-113.34h7.18z" style="fill:#e8504a"/><path d="M393.81 280.8v113.34h-3.18l-4-113.34h7.18z" style="opacity:.5"/><path d="M438.6 283.74H63.34l-8.3-5.49H446.9l-8.3 5.49z" style="fill:#e8504a"/><path d="M438.6 283.74H63.34l-8.3-5.49H446.9l-8.3 5.49z" style="opacity:.5"/><path d="M73.35 257.39v4a2.51 2.51 0 0 0 .73 1.77l3.17 3.17a2.52 2.52 0 0 0 1 .61 8.14 8.14 0 0 0 7.38 4.71h1.19a8.13 8.13 0 0 0 8.18-8.18v-9.33H77.52v.76h-1.67a2.5 2.5 0 0 0-2.5 2.49Zm2 0a.49.49 0 0 1 .5-.49h1.67v6.84l-2-2a.47.47 0 0 1-.15-.35Z" style="fill:#e8504a"/><path d="M73.35 257.39v4a2.51 2.51 0 0 0 .73 1.77l3.17 3.17a2.52 2.52 0 0 0 1 .61 8.14 8.14 0 0 0 7.38 4.71h1.19a8.13 8.13 0 0 0 8.18-8.18v-9.33H77.52v.76h-1.67a2.5 2.5 0 0 0-2.5 2.49Zm2 0a.49.49 0 0 1 .5-.49h1.67v6.84l-2-2a.47.47 0 0 1-.15-.35Z" style="fill:#fff;opacity:.5"/><path d="M99.14 273H74a4.63 4.63 0 0 1-3-1.48h31.1a4.6 4.6 0 0 1-2.96 1.48Z" style="fill:#e8504a"/><path d="M99.14 273H74a4.63 4.63 0 0 1-3-1.48h31.1a4.6 4.6 0 0 1-2.96 1.48Z" style="fill:#fff;opacity:.5"/><path d="M437.36 260.76c-.13-4-3.15-4.94-7.09-5.39v-1.45a.64.64 0 0 0-.65-.62H416a.64.64 0 0 0-.66.62v18.91h14.94v-2.07c3.94-.44 6.96-6.02 7.08-10Zm-7.09 7.56v-10.5c2.9.42 4.9.82 4.47 3.72-.34 2.32-2.16 6.46-4.47 6.78Z" style="fill:#e8504a"/><g style="opacity:.5"><path d="M437.36 260.76c-.13-4-3.15-4.94-7.09-5.39v-1.45a.64.64 0 0 0-.65-.62H416a.64.64 0 0 0-.66.62v18.91h14.94v-2.07c3.94-.44 6.96-6.02 7.08-10Zm-7.09 7.56v-10.5c2.9.42 4.9.82 4.47 3.72-.34 2.32-2.16 6.46-4.47 6.78Z" style="fill:#fff"/></g><path d="M244.1 248.73h11.79v23.95H244.1z" style="fill:#e8504a"/><path d="M244.1 248.73h11.79v23.95H244.1z" style="fill:#fff;opacity:.5"/><path d="M261.22 273.11h-22.34l5.45-4.79h11.44l5.45 4.79z" style="fill:#e8504a"/><path d="M261.22 273.11h-22.34l5.45-4.79h11.44l5.45 4.79z" style="fill:#fff;opacity:.5"/><path d="M310.33 265.36h-55.84l10.09 7.78h55.83l-10.08-7.78z" style="fill:#e8504a"/><path d="M310.33 265.36h-55.84l10.09 7.78h55.83l-10.08-7.78z" style="fill:#fff;opacity:.4"/><path d="m255.78 273.14-1.29-7.78 10.09 7.78h-8.8z" style="fill:#e8504a"/><path d="m255.78 273.14-1.29-7.78 10.09 7.78h-8.8z" style="opacity:.5"/><rect width="105.49" height="66.18" x="196.97" y="192.04" rx="1.93" style="fill:#e8504a"/><path d="M200.8 196.18h97.72v57.67H200.8z" style="opacity:.5"/><path d="M246.1 208.04h49.31v33.95H246.1z" style="opacity:.4"/><path d="M246.1 208.04h49.31v3.11H246.1z" style="fill:#e8504a"/><path d="m255.14 226.82 8.06 4.46a2.6 2.6 0 0 1 .81.61 1.14 1.14 0 0 1 .2.68 1.27 1.27 0 0 1-.38.91 1.2 1.2 0 0 1-.87.38 2.23 2.23 0 0 1-1-.37l-10.4-5.78a1 1 0 0 1 0-1.79l10.4-5.78a2.27 2.27 0 0 1 1-.35 1.19 1.19 0 0 1 .88.37 1.23 1.23 0 0 1 .38.9 1.12 1.12 0 0 1-.2.68 2.6 2.6 0 0 1-.81.61ZM275.88 218.49l-8 17.19a2.65 2.65 0 0 1-.55.84 1.18 1.18 0 0 1-.76.25 1.21 1.21 0 0 1-.88-.36 1.13 1.13 0 0 1-.38-.83 2.51 2.51 0 0 1 .3-1l8-17.18a2.74 2.74 0 0 1 .53-.83 1.23 1.23 0 0 1 .77-.26 1.19 1.19 0 0 1 .87.36 1.12 1.12 0 0 1 .36.82 2.45 2.45 0 0 1-.26 1ZM285.91 226.82l-8.06-4.47a2.87 2.87 0 0 1-.81-.61 1.12 1.12 0 0 1-.2-.68 1.23 1.23 0 0 1 .38-.9 1.22 1.22 0 0 1 .89-.37 2.32 2.32 0 0 1 1 .35l10.4 5.78a1 1 0 0 1 0 1.79l-10.4 5.78a2.29 2.29 0 0 1-1 .37 1.2 1.2 0 0 1-.9-.39 1.26 1.26 0 0 1-.37-.9 1.14 1.14 0 0 1 .2-.68 2.87 2.87 0 0 1 .81-.61ZM204.81 201.5h3.34v3.34h-3.34zM204.81 210.15h3.34v3.34h-3.34zM204.81 218.79h3.34v3.34h-3.34zM204.81 227.43h3.34v3.34h-3.34zM204.81 236.07h3.34v3.34h-3.34zM204.81 244.71h3.34v3.34h-3.34zM211.32 202.26h13.31v1h-13.31zM214.42 210.92h4.74v1h-4.74zM235.05 220.64h4.74v1h-4.74zM214.42 228.35h4.74v1h-4.74zM221.25 228.35h4.74v1h-4.74zM221.25 220.64h12.11v1h-12.11zM228.31 228.35h7.97v1h-7.97zM228.28 246.88h4.74v1h-4.74zM235.12 246.88h4.74v1h-4.74zM242.17 246.88h2.65v1h-2.65zM221.53 210.92h14.75v1h-14.75zM221.25 237.38h4.74v1h-4.74zM227.58 237.38h2.74v1h-2.74zM232.41 237.38h7.74v1h-7.74z" style="fill:#fff"/><path d="M241.44 164.5c-.25 12.1-12.82 22.25-28.09 22.65a32.37 32.37 0 0 1-13.68-2.53c-1.54 3.8-4.78 7.06-14.07 8.52 9.69-7.49 4.39-13.83 2.18-19.4a17.6 17.6 0 0 1-1.67-7.78c.25-12.11 12.82-22.24 28.09-22.65s27.48 9.09 27.24 21.19Z" style="fill:#e8504a"/><path d="M200.79 151.83h13.31v1h-13.31zM203.89 160.5h4.74v1h-4.74zM224.52 170.22h4.74v1h-4.74zM203.89 177.93h4.74v1h-4.74zM210.73 177.93h4.74v1h-4.74zM210.73 170.22h12.11v1h-12.11zM217.78 177.93h7.97v1h-7.97zM211.01 160.5h14.75v1h-14.75z" style="fill:#fff"/><path d="m299.17 393.75-7.29-2.18 1.7-17.87 7.29 2.18-1.7 17.87z" style="fill:#7f3e3b"/><path d="m301.47 371.84-7.29-2.17-.95 10.01 7.37 1.37.87-9.21z" style="opacity:.2;isolation:isolate"/><path d="M342.32 283.38s-50.13 4.23-48.9 26c1 17.82 3.65 13-1.54 66l12.61.7s12.83-43.34 11.1-60.56c14.13 0 46.48 1.24 51.18-11.51a56.76 56.76 0 0 0 3.35-20.2Z" style="fill:#e8504a"/><path d="m306.49 378.48-16.48-2.82.27-7.29 17.06 3.79-.85 6.32zM291.13 388.57l8.42 1.67a.63.63 0 0 1 .48.7l-.7 8a1.42 1.42 0 0 1-1.54 1.32c-2.92-.64-4.3-1.11-8-1.85-2.28-.45-7.49-1.54-10.66-1.9s-2.79-4.06-1.42-4.25c6.16-.81 9.66-1.81 12.05-3.35a1.87 1.87 0 0 1 1.37-.34Z" style="fill:#263238"/><path d="M287.35 390a9.54 9.54 0 0 0 2 .06.15.15 0 0 0 .15-.11.21.21 0 0 0 0-.19c-.21-.21-2.1-2-3.07-1.8a.62.62 0 0 0-.49.42 1 1 0 0 0 .06 1 2 2 0 0 0 1.35.62Zm1.61-.27c-1.39 0-2.37-.16-2.66-.57a.61.61 0 0 1 0-.64.32.32 0 0 1 .23-.22c.47-.1 1.65.7 2.47 1.44Z" style="fill:#e8504a"/><path d="M289.36 390.07h.08a.2.2 0 0 0 .12-.13c0-.09.55-2.22-.09-3.07a.85.85 0 0 0-.7-.37.67.67 0 0 0-.72.42c-.31.79.55 2.54 1.22 3.11a.11.11 0 0 0 .09.04Zm-.52-3.21a.59.59 0 0 1 .35.22 4 4 0 0 1 .09 2.46 3.55 3.55 0 0 1-.9-2.49c0-.1.11-.21.37-.2Z" style="fill:#e8504a"/><path d="m266.67 396.53-6.94-3.12 4.8-17.12 6.94 3.12-4.8 17.12z" style="fill:#7f3e3b"/><path d="m272.64 375-6.94-3.12-2.47 8.83 6.94 3.12 2.47-8.83z" style="opacity:.2;isolation:isolate"/><path d="M327.4 283.38c-.33 0-56.2 5.75-56.27 24.7-.12 31.34-9.07 67.26-9.07 67.26l11 5.47s19.23-38.94 18.94-63.37c15.37-4.41 55.13 3 59.83-9.74 3.85-10.42 1.77-24.32 1.77-24.32Z" style="fill:#e8504a"/><path d="m274.86 382.4-14.8-6.66 1.19-6.06 15.61 5.39-2 7.33zM260.42 387.66l8.44 1.75a.7.7 0 0 1 .47.78l-.66 8.75c-.12.95-.8 1.6-1.53 1.45-2.92-.67-4.3-1.19-8-2-2.28-.46-8.49-2-11.62-2.79s-2.43-4.8-1-4.83c6.19-.09 10.2-1.1 12.58-2.83a1.68 1.68 0 0 1 1.32-.28Z" style="fill:#263238"/><path d="M257 389.55a9.89 9.89 0 0 0 1.65-1.14.2.2 0 0 0 .06-.19.17.17 0 0 0-.15-.12c-.29 0-2.87-.38-3.54.37a.68.68 0 0 0-.14.63 1 1 0 0 0 .64.77 2.09 2.09 0 0 0 1.48-.32Zm1.13-1.17c-1.09.85-2 1.26-2.47 1.12a.67.67 0 0 1-.39-.53.3.3 0 0 1 .07-.3c.3-.36 1.66-.39 2.74-.29Z" style="fill:#e8504a"/><path d="m258.6 388.41.07-.05a.15.15 0 0 0 0-.17c-.05-.07-.88-2.12-1.89-2.43a.89.89 0 0 0-.78.12.67.67 0 0 0-.33.77c.21.83 1.94 1.72 2.83 1.78Zm-2.33-2.28a.52.52 0 0 1 .42 0 4 4 0 0 1 1.54 1.93 3.56 3.56 0 0 1-2.21-1.47c-.06-.08 0-.24.18-.38Z" style="fill:#e8504a"/><path d="M346.38 222.92c1.47 3.16 2.68 6.2 3.89 9.36s2.28 6.32 3.27 9.56 1.85 6.56 2.54 10a52.16 52.16 0 0 1 1.12 10.87 22.32 22.32 0 0 1-.95 6.33 14.46 14.46 0 0 1-1.67 3.56 12.48 12.48 0 0 1-1.43 1.74l-.43.42c-.24.2-.5.42-.75.59a8.31 8.31 0 0 1-1.34.74 11.8 11.8 0 0 1-2.16.69 15.42 15.42 0 0 1-1.77.26 25.86 25.86 0 0 1-3.05 0 44 44 0 0 1-5.38-.6 102.24 102.24 0 0 1-19.41-5.56l1.45-5.51c6.35.76 12.83 1.57 18.94 1.85 1.52 0 3 .07 4.38 0a14.3 14.3 0 0 0 1.83-.23c.5-.09.93-.27.78-.26a.92.92 0 0 0-.28.14 1.46 1.46 0 0 0-.28.21 1.56 1.56 0 0 0 .09-.17 4.91 4.91 0 0 0 .3-.89 14.4 14.4 0 0 0 .27-3.34 45 45 0 0 0-1.27-8.49c-.68-3-1.56-5.92-2.52-8.89s-2-5.94-3.14-8.9-2.34-5.93-3.52-8.72Z" style="fill:#7f3e3b"/><path d="m323.07 266.87-6.63-3.73-3.33 7.18s7.75 3.23 9.38 1.21ZM311.07 264.5l-3.03 4.8 5.07.97 3.33-7.18-5.37 1.41z" style="fill:#7f3e3b"/><path d="M330.92 228.62c-1.27 3.19-2.6 6.24-4 9.33s-2.8 6.13-4.28 9.17a176.53 176.53 0 0 1-10 18c-1 1.48-2 2.95-3.12 4.42-.56.74-1.18 1.47-1.84 2.22-.36.38-.65.73-1.07 1.12l-.6.58-.34.32a8.52 8.52 0 0 1-3.28 1.74 14.56 14.56 0 0 1-1.94.41 20.41 20.41 0 0 1-3.22.13 41.09 41.09 0 0 1-5.54-.55 101.83 101.83 0 0 1-19.82-5.62l1.46-5.52c6.47.78 13.08 1.61 19.3 1.87a43.1 43.1 0 0 0 4.4-.06 11.59 11.59 0 0 0 1.75-.28 2.7 2.7 0 0 0 .54-.2c.06 0 0-.07-.27.1a1.05 1.05 0 0 0-.27.2l.1-.12.28-.31c.18-.18.4-.48.61-.72.41-.52.83-1.08 1.25-1.69.83-1.19 1.64-2.51 2.44-3.85 1.6-2.68 3.09-5.53 4.55-8.41s2.86-5.82 4.24-8.78c2.75-5.9 5.44-12 8-17.9Z" style="fill:#7f3e3b"/><path d="m276.17 265.81-6.64-3.81-3.33 7.18s7.75 3.24 9.39 1.22Z" style="fill:#7f3e3b"/><path d="m264.17 263.45-3.04 4.79 5.07.97 3.33-7.18-5.36 1.42zM348.09 193.14l-4.24 4.91-6.47 6.69.49 1.21a12.07 12.07 0 0 1 .86 3.88c.15 2.68-.11 4.95-4.34 6.77 0 0-4.44 5.8 6.12 4.19s12.15-7.09 12.15-7.09c-4.66-3.33-4.94-14.4-4.57-20.56Z" style="fill:#7f3e3b"/><path d="M326.56 187.6c0 .66-.33 1.22-.77 1.24s-.79-.5-.8-1.16.34-1.22.77-1.24.79.5.8 1.16ZM328.77 185.14a.38.38 0 0 1-.32-.18 3.26 3.26 0 0 0-2.42-1.54.4.4 0 0 1-.38-.4.38.38 0 0 1 .4-.38 4 4 0 0 1 3.06 1.9.4.4 0 0 1-.12.54.46.46 0 0 1-.22.06Z" style="fill:#263238"/><path d="M326.32 188a21.42 21.42 0 0 1-2.3 5.12 3.2 3.2 0 0 0 2.72.2Z" style="fill:#630f0f"/><path d="M348.69 184.27c-.39 8.16-.21 13-4.26 17.32a10.63 10.63 0 0 1-18.22-4.71c-1.84-7.23-.88-19.36 7-23a10.74 10.74 0 0 1 15.48 10.39Z" style="fill:#7f3e3b"/><path d="M352.39 187a30.22 30.22 0 0 1-5.3 9.5l-10.62 2s-8.39-3.51-6.15-9.29c-1.42-1.2-.89-4.91.11-6.95a4.33 4.33 0 0 0 5.67-.15 3.88 3.88 0 0 0 6.15.51 4.1 4.1 0 0 0 6.46-1 3.67 3.67 0 0 0 4.28-.28l.15-.14a14.6 14.6 0 0 1-.75 5.8Z" style="fill:#263238"/><path d="M352.39 187a30.22 30.22 0 0 1-5.3 9.5l-10.62 2s-8.39-3.51-6.15-9.29c-1.42-1.2-.89-4.91.11-6.95a4.33 4.33 0 0 0 5.67-.15 3.88 3.88 0 0 0 6.15.51 4.1 4.1 0 0 0 6.46-1 3.67 3.67 0 0 0 4.28-.28l.15-.14a14.6 14.6 0 0 1-.75 5.8Z" style="fill:#fff;opacity:.1"/><path d="M353.92 177.1a3.69 3.69 0 0 1-.78 4.05l-.15.14a3.67 3.67 0 0 1-4.28.28 4.1 4.1 0 0 1-6.46 1 3.88 3.88 0 0 1-6.15-.51 4.33 4.33 0 0 1-5.67.15 3.45 3.45 0 0 1-1-1.24 2.33 2.33 0 0 1-.14-.33 2.37 2.37 0 0 1-.28.27 3.09 3.09 0 0 1-3.56.21 3 3 0 0 1-1.28-2.69 2.77 2.77 0 0 1 .11-.64 1.73 1.73 0 0 1-.3.41 2.5 2.5 0 0 1-3.56-.09 3.09 3.09 0 0 1 1-4.36 3.68 3.68 0 0 1 1.88-.5 4.82 4.82 0 0 1 2.87 1 3 3 0 0 1 4.74-3.53A2.61 2.61 0 0 1 332 168c1.38-.8 3.68-.11 4.8 1.23 0 0 1.54-3.72 4.2-3.3.58.08 3.31 1.29 3.24 2.27a.41.41 0 0 1 0 .19 1.59 1.59 0 0 1 .13-.22 3 3 0 0 1 2.56-1.21 8.59 8.59 0 0 1 3.08.82c2.07.85 4.27 1.8 5.47 3.69s.59 5.03-1.56 5.63Z" style="fill:#263238"/><path d="M335 190a9.65 9.65 0 0 1-2.64 5.34c-1.81 1.73-3.35 0-3.37-2.63 0-2.38.89-6.15 3-6.85s3.41 1.51 3.01 4.14Z" style="fill:#7f3e3b"/><path d="M367 216.54c-.75-2-4.25-4-6.4-4h-1.42a77.68 77.68 0 0 0-8.57.55 152.67 152.67 0 0 0-17 2.86c-2.58.68-5.07 1.54-7.05 2.28-2.52 1-4 1.67-4 1.67s2.76 18.38 4.19 36.64c.79 10.17.46 20.26.72 27.2h42.66c1.47-8.34 1.24-15.61 1.36-30.67.06-9.07-1.41-28.3-4.49-36.53Z" style="fill:#263238"/><path d="M325.82 246.34c.32 3.83.65 7.85 1 11.87 5-7.3 7.76-27.27 7.76-27.27Z" style="opacity:.2;isolation:isolate"/><path d="M320.14 221.24c-6.11 3.44-12.1 21-12.1 21l14 10.55c5.34-5.05 13.15-17.58 14-22.59 1.36-7.64-6.11-14.44-15.9-8.96ZM308.06 400.44a4.35 4.35 0 1 1-4.35-4.35 4.35 4.35 0 0 1 4.35 4.35ZM373 400.44a4.35 4.35 0 1 0 4.35-4.35 4.35 4.35 0 0 0-4.35 4.35ZM336.27 399a4.35 4.35 0 1 0 4.35-4.35 4.35 4.35 0 0 0-4.35 4.35ZM339.27 393.68v-8.41h-12.46a38.86 38.86 0 0 0-7.29.68l-23.2 4.5a2.11 2.11 0 0 0 .47 4.18ZM339.27 393.68v-8.41h12.47a38.71 38.71 0 0 1 7.26.73l26.08 4.16a2.11 2.11 0 0 1-.47 4.18Z" style="fill:#263238"/><path d="M331.55 346.77h15.43v38.51h-15.43zM333.77 328.85h11v17.91h-11z" style="fill:#263238"/><path d="m333.77 334.11 11 2.77v-8.03h-11v5.26z" style="opacity:.5;isolation:isolate"/><path d="M298.12 288.33h5.59v23.85h-5.59z" style="fill:#263238"/><path d="M331.74 328.85V225.16a13.58 13.58 0 0 1 4.65-10.24l7.39-6.47a13.58 13.58 0 0 1 9-3.37h26.69L392.49 219v109.85Z" style="fill:#e8504a"/><path d="M292 308.79h60.9v20.06h-70.83a7.21 7.21 0 0 1-6.2-10.87 18.7 18.7 0 0 1 16.13-9.19Z" style="fill:#e8504a"/><path d="M392.49 219v109.85H282.07a7.21 7.21 0 0 1-6.2-10.87 18.71 18.71 0 0 1 16.13-9.19h30.67a9.11 9.11 0 0 0 9.11-9.11v-74.52a13.58 13.58 0 0 1 4.65-10.24l7.39-6.47a13.58 13.58 0 0 1 9-3.37h26.69Z" style="fill:#fff;opacity:.7000000000000001"/><path d="M340.62 328.85V225.16a13.62 13.62 0 0 1 4.65-10.24l7.39-6.47a13.58 13.58 0 0 1 9-3.37h20.81a13.59 13.59 0 0 1 9.92 4.29l5.32 5.65a13.64 13.64 0 0 1 3.69 9.33v94.11a10.38 10.38 0 0 1-10.4 10.39Z" style="fill:#e8504a"/><path d="M340.62 328.85V225.16a13.62 13.62 0 0 1 4.65-10.24l7.39-6.47a13.58 13.58 0 0 1 9-3.37h20.81a13.59 13.59 0 0 1 9.92 4.29l5.32 5.65a13.64 13.64 0 0 1 3.69 9.33v94.11a10.38 10.38 0 0 1-10.4 10.39Z" style="fill:#fff;opacity:.5"/><path d="M319.9 295.61a57.58 57.58 0 0 0-38 0 5.42 5.42 0 0 1-6.69-2.55c-1.14-2.41.39-5.53 3.49-6.62a67.27 67.27 0 0 1 44.38 0c3.1 1.08 4.63 4.21 3.49 6.62a5.42 5.42 0 0 1-6.67 2.55Z" style="fill:#e8504a"/><path d="M319.9 295.61a57.58 57.58 0 0 0-38 0 5.42 5.42 0 0 1-6.69-2.55c-1.14-2.41.39-5.53 3.49-6.62a67.27 67.27 0 0 1 44.38 0c3.1 1.08 4.63 4.21 3.49 6.62a5.42 5.42 0 0 1-6.67 2.55Z" style="fill:#fff;opacity:.7000000000000001"/><path d="M164.49 196.39c-.21.59-.06 1.18.33 1.31s.87-.23 1.07-.82.06-1.19-.32-1.32-.87.23-1.08.83Z" style="fill:#263238"/><path d="M164.38 197a22.83 22.83 0 0 0 1.07 6.06 3.66 3.66 0 0 1-3-.46Z" style="fill:#a02724"/><path d="M163.53 192.37a.3.3 0 0 0 .23 0 3 3 0 0 1 2.63.4.37.37 0 0 0 .52-.08.38.38 0 0 0 0-.48 3.68 3.68 0 0 0-3.32-.55.38.38 0 0 0-.23.47.35.35 0 0 0 .23.23Z" style="fill:#263238"/><path d="M142.56 198.57c1.12 5.69 2.23 16.12-1.75 19.92 0 0 1.56 5.77 12.14 5.77 11.63 0 5.56-5.77 5.56-5.77-6.35-1.52-5.33-6.23-4.22-10.65Z" style="fill:#b55b52"/><path d="M145.15 188.25c-2.08 7.44-3.68 11.69-1.3 16.7 3.57 7.55 16.05 8.53 19.45-.11 2.59-8 5.15-16.37-1-21.74a10.55 10.55 0 0 0-17.18 5.15Z" style="fill:#b55b52"/><path d="M137.09 190.73c-.54-2.74-.68-5.74.69-8.18s4.68-3.93 7.09-2.51a11.7 11.7 0 1 1 16.59 15.05c.55-2.05 1.11-4.09 1.66-6.14a11.91 11.91 0 0 1-4.26 7.25l1-6.13a9.37 9.37 0 0 1-4.54 7.05l1.17-4.29a37.12 37.12 0 0 1-2.26 5.74c-1 1.15-1.64 8.67-5.08 8.91-11.82 2.35-10.8-10.35-12.06-16.75Z" style="fill:#263238"/><path d="M153 194.29a8.81 8.81 0 0 0 1.22 5.47c1.33 2.14 3.28 1.32 4-.87.64-2 .71-5.45-1.14-6.84s-3.8-.05-4.08 2.24ZM124.81 266.37c-1.27-.42-7.22-3.48-8.17-2.93 2.75-7 4.46-8.09 5.71-12.55a6.84 6.84 0 0 0-1.33-6.5c-1.76-2.36-2.37-3.55-5.29-3.26-4 6.72-9.09 15-11.07 22.59-.67 2.55-1.15 4.49.37 6.65 1.34 1.9 3.81 2.66 6.13 2.87 5.57.5 13.84-.52 13.73-3.83-.06-2.09-.08-3.04-.08-3.04Z" style="fill:#b55b52"/><path d="m123.87 266.12 4.72-1.53-.42 8.53s-3.78.13-5.8-2.4Z" style="fill:#b55b52"/><path d="m134.49 264.45-.67 7.04-5.65 1.63.42-8.53 5.9-.14zM188.61 272.18S182 267 173.38 250c-1.28-2.38-2.5-4.79-3.68-7.21s-2.3-4.84-3.38-7.41l10.22-4.4c2.1 4.58 5.38 9.31 7.7 13.86s7.79 15.33 8.48 16.33c.34.52.71.95 1.06 1.43l.53.7-6.59 7.62ZM197.26 239l-2-2.44-.94-3.65 6.17-5.73A26.88 26.88 0 0 1 203 231a2 2 0 0 1 .22 1l-.25 6.43ZM194.36 228.97l4.61-4.19 1.46 2.45-6.16 5.7.09-3.96z" style="fill:#b55b52"/><path d="M197.35 237.24c.16-.69.3.66.76.12 1.36-1.64 3.34-1.81 4.52 0s.17 19.62-1.71 25.21c-1.25 3.71-1.92 6.67-5.12 8.93a7.8 7.8 0 0 1-4.5 1.62 4.27 4.27 0 0 1-3.9-2.42c-1-2.33 2.58-10.73 3.84-13.44 3.95-8.53 4.22-11.96 6.11-20.02Z" style="fill:#b55b52"/><path d="m184.12 236.47 8.17-.08a7.91 7.91 0 0 0 3.42-.54 6.21 6.21 0 0 0 2.79-3.49c1.16-3 1.26-6.22 1.71-9.36s1.41-6.44 3.79-8.55c-4.34.58-12-.78-15.35 2.77-1.76 1.89-4.87 19.25-4.53 19.25Z" style="fill:#e8504a"/><path d="m184.12 236.47 8.17-.08a7.91 7.91 0 0 0 3.42-.54 6.21 6.21 0 0 0 2.79-3.49c1.16-3 1.26-6.22 1.71-9.36s1.41-6.44 3.79-8.55c-4.34.58-12-.78-15.35 2.77-1.76 1.89-4.87 19.25-4.53 19.25Z" style="fill:#fff;opacity:.5"/><path d="M198.1 224.33c-.47.13-.78 1.8-.68 2.28l.46.82.93 4 3.12-1.72-2.81-5a.92.92 0 0 0-1.02-.38Z" style="fill:#b55b52"/><path d="M127.63 219.92c-7.3 1.67-18.1 24.42-18.1 24.42l14.65 10a163.67 163.67 0 0 0 11.4-18.85c4.33-9.06-.49-17.28-7.95-15.57Z" style="fill:#e8504a"/><path d="M138.29 220.47c-.84-1.83-1.75-3.92.14-4.57 2.09-.72 13.53-1.46 17.47-.11a4.06 4.06 0 0 1 2.85 5v.07Z" style="fill:#263238"/><path d="m132.14 233.06-10.41 19.6 2.45 1.68s4.72-6.57 8-12.25Z" style="opacity:.2;isolation:isolate"/><path d="M172 229.93c1.58 8-2.11 27-2.07 58h-41.62c-.27-6.26 4.29-21.1-1.38-50.66-.18-1-.26-17.15.7-17.32a110.83 110.83 0 0 1 12.18-1.44 153.7 153.7 0 0 1 17.7 0c2.41.25 6.2 1.74 8.6 2.6 3.73 1.32 5.13 4.89 5.89 8.82Z" style="fill:#e8504a"/><path d="M161 237.88c1.08 6.57 5.39 15.25 9.68 20.35.17-3.73.55-7.63.54-10.62Z" style="opacity:.2;isolation:isolate"/><path d="M158 228c-1 7.37 13.5 26.18 13.5 26.18l14.59-10s-4.05-10.37-10.86-17.17c-7.73-7.78-16.06-7.01-17.23.99Z" style="fill:#e8504a"/><path d="M205.72 391.13h7.78l1.77-18.03h-7.78l-1.77 18.03z" style="fill:#b55b52"/><path d="m215.15 374.19-.9 9.29h-7.79l.91-9.29h7.78z" style="opacity:.2;isolation:isolate"/><path d="M175.03 391.13h7.78l3.91-18.03h-7.78l-3.91 18.03z" style="fill:#b55b52"/><path d="M178.77 374.06h7.78l-2.02 9.29h-7.78l2.02-9.29z" style="opacity:.2"/><path d="M213.94 387.63h-8.49a.76.76 0 0 0-.67.7l-1.54 8.9a1.52 1.52 0 0 0 .84 1.76.9.9 0 0 0 .28 0c3.06-.06 7.49-.3 11.34-.3 4.51 0 8.4.31 13.68.31 3.2 0 4.09-4.18 2.75-4.55-6.09-1.72-11.06-1.9-16.32-6.11a3 3 0 0 0-1.87-.71Z" style="fill:#263238"/><path d="M220.12 390.52c1 0 2-.14 2.29-.59a.71.71 0 0 0 0-.81 1 1 0 0 0-.58-.43c-1.3-.35-4 1.2-4.13 1.27a.17.17 0 0 0-.09.19.18.18 0 0 0 .14.15 12.59 12.59 0 0 0 2.37.22Zm1.24-1.51h.35a.54.54 0 0 1 .36.26c.13.23.09.34 0 .4-.36.51-2.33.52-3.78.31a8.75 8.75 0 0 1 3.07-.98Z" style="fill:#e8504a"/><path d="M217.77 390.3h.08c.94-.42 2.8-2.1 2.65-3 0-.21-.18-.46-.68-.52a1.4 1.4 0 0 0-1 .32c-1 .81-1.2 2.91-1.21 3a.18.18 0 0 0 .07.17.16.16 0 0 0 .09.03Zm1.9-3.15h.11c.33 0 .35.17.36.21.09.53-1.18 1.85-2.14 2.42a4.33 4.33 0 0 1 1-2.39 1.1 1.1 0 0 1 .67-.24Z" style="fill:#e8504a"/><path d="M183.36 387.63h-8.74a.75.75 0 0 0-.66.7l-1.54 8.9a1.54 1.54 0 0 0 .89 1.77 1.07 1.07 0 0 0 .25 0c3.05-.06 4.54-.3 8.38-.3 2.37 0 5.4.31 8.67.31s3.69-4.18 2.35-4.55c-6-1.7-6.41-4-8.33-6.28a1.65 1.65 0 0 0-1.27-.55Z" style="fill:#263238"/><path d="M187.93 391.51a2.47 2.47 0 0 0 1.87-.51.74.74 0 0 0 0-.87.85.85 0 0 0-.58-.43c-1.14-.27-3.29 1.2-3.38 1.26a.21.21 0 0 0-.08.19.17.17 0 0 0 .14.14 9.28 9.28 0 0 0 2.03.22Zm1-1.48h.22a.5.5 0 0 1 .34.24c.17.31.07.43 0 .48-.33.43-1.92.44-3.09.25a6.12 6.12 0 0 1 2.51-1Z" style="fill:#e8504a"/><path d="M186 391.3c.81-.44 2.37-2.14 2.2-3a.6.6 0 0 0-.59-.49 1.06 1.06 0 0 0-.78.24c-.9.74-1.09 3-1.1 3.08a.19.19 0 0 0 .09.17Zm1.57-3.15h.08c.24 0 .26.14.27.19.1.51-.9 1.8-1.7 2.41a4.55 4.55 0 0 1 .92-2.44.67.67 0 0 1 .43-.16Z" style="fill:#e8504a"/><path d="M157.46 287.91s36.85 15.22 44.47 26.91c-4.53 29.74-12.66 63.62-12.66 63.62h-13.86a273.51 273.51 0 0 1 3.59-43.76c2-36.35-63.42 1.26-50.71-46.77Z" style="fill:#263238"/><path d="M182.94 313a69 69 0 0 0-7.7.89l-8.07 1.24a121.34 121.34 0 0 0 13.15 9.62c2.79 1.77 5.83 3.47 9.12 3.48 3.7 0 13.74-4.74 12.08-9.67s-14.38-5.74-18.58-5.56Z" style="opacity:.30000000000000004"/><path d="M169.94 287.91s34.06 4.4 52.84 15.09c5.78 3.29 5 13.86 4.82 20.82a164.31 164.31 0 0 1-10.6 54.62h-11.58s.59-18.87.2-49.32c-.12-9.13-18.55-12.14-36.56-13.2a41 41 0 0 1-35.24-25.07l-1.23-2.94Z" style="fill:#263238"/><path d="M219.81 375.34c.06 0-.75 5.47-.75 5.47h-16l-.44-4.88ZM190.61 375.34c.06 0-1.47 5.47-1.47 5.47h-16l.29-4.88ZM147.62 315.51l-11.47 84.51-2.07-.29 8.85-84.86 4.69.64z" style="fill:#e8504a"/><path d="m147.21 318.54-11.06 81.48-2.07-.29 8.47-81.21 4.66.02z" style="opacity:.4;isolation:isolate"/><path d="M187.94 318.53h-65a7.42 7.42 0 0 1 7.42-7.42h50.16a7.42 7.42 0 0 1 7.42 7.42Z" style="fill:#e8504a"/><path d="M187.94 318.53h-65a7.42 7.42 0 0 1 7.42-7.42h50.16a7.42 7.42 0 0 1 7.42 7.42Z" style="fill:#fff;opacity:.7000000000000001"/><path d="m125.95 318.52-9.8 82.17h2.1l12.43-82.17h-4.73zM184.93 318.52l9.8 82.17h-2.1l-12.42-82.17h4.72z" style="fill:#e8504a"/><path d="m184.93 318.52 9.8 82.17h-2.1l-12.42-82.17h4.72z" style="opacity:.4;isolation:isolate"/><path d="m171.82 318.52.19 82.17h-2.09l-2.83-82.17h4.73z" style="fill:#e8504a"/></svg>