<svg xmlns="http://www.w3.org/2000/svg" viewBox="0 0 750 500"><path d="M585.65 202.63h142.49l-23.21 16.75v33a6.88 6.88 0 0 1-6.88 6.88h-112.4a6.88 6.88 0 0 1-6.88-6.88v-42.87a6.88 6.88 0 0 1 6.88-6.88Z" style="fill:#f5f5f5"/><path d="M591.59 225.92c0 .14 21.49.25 48 .25s48-.11 48-.25-21.49-.25-48-.25-48 .11-48 .25ZM591.59 238.57c0 .14 21.49.25 48 .25s48-.11 48-.25-21.49-.25-48-.25-48 .12-48 .25ZM362.57 81.03h6.67v22.34h-6.67zM306.87 77.8h6.67v25.57h-6.67zM320.8 72.47h6.67v30.9h-6.67zM334.72 74.16h6.67v29.21h-6.67zM348.64 64.28h6.67v39.09h-6.67zM376.49 64.47h6.67v38.9h-6.67zM390.42 77.25h6.67v26.12h-6.67zM404.34 66.18h6.67v37.19h-6.67zM418.27 57.81h6.67v45.56h-6.67zM432.19 65.99h6.67v37.38h-6.67z" style="fill:#e0e0e0"/><path d="m614.56 101.3 55.14-8.43a55.8 55.8 0 1 1-49-47Z" style="fill:#ebebeb"/><path d="m632.45 46-6.69 42.74 42-7.88S661.55 56.94 632.45 46Z" style="fill:#e0e0e0"/><path d="M51.48 205a27.34 27.34 0 1 1 27.78 27 27.44 27.44 0 0 1-27.78-27Zm40.41-.66A13.07 13.07 0 1 0 79 217.69a13.11 13.11 0 0 0 12.89-13.35Z" style="fill:#f5f5f5"/><path d="M51.48 205a27.44 27.44 0 0 1 26.9-27.91l.23 14.33a13.14 13.14 0 0 0 .39 26.27l.26 14.31a27.43 27.43 0 0 1-27.78-27Z" style="fill:#e0e0e0"/><path d="M75.93 174.88a31.26 31.26 0 0 1 32 31.13l-16.7.26c-.13-8.47-6.58-13.8-15-13.66Z" style="fill:#ebebeb"/><path d="M194.36 301.44h34.76v41.32h-34.76z" style="fill:#f5f5f5"/><path d="M38.5 298.74h157.07v46.61H38.5z" style="fill:#e0e0e0"/><path d="M230.17 302.66h-38.82v-3.92h38.82a2 2 0 0 1 2 2 2 2 0 0 1-2 1.92ZM230.17 345.35h-38.82v-3.92h38.82a2 2 0 0 1 2 2 2 2 0 0 1-2 1.92Z" style="fill:#e0e0e0"/><path d="M164.66 298.74h18.56v46.61h-18.56zM53.43 299.26h18.56v46.61H53.43z" style="fill:#ebebeb"/><path d="M229.12 308.27c0 .12-7.52.21-16.8.21s-16.8-.09-16.8-.21 7.52-.21 16.8-.21 16.8.1 16.8.21ZM229.12 314.47c0 .11-7.52.2-16.8.2s-16.8-.09-16.8-.2 7.52-.21 16.8-.21 16.8.09 16.8.21ZM229.12 322.1c0 .11-7.52.2-16.8.2s-16.8-.09-16.8-.2 7.52-.21 16.8-.21 16.8.11 16.8.21ZM229.12 329.72c0 .12-7.52.21-16.8.21s-16.8-.09-16.8-.21 7.52-.2 16.8-.2 16.8.09 16.8.2ZM229.12 337.35c0 .12-7.52.21-16.8.21s-16.8-.09-16.8-.21 7.52-.2 16.8-.2 16.8.09 16.8.2Z" style="fill:#e0e0e0"/><path d="M84.02 317.9h70.66v8.39H84.02z" style="fill:#ebebeb"/><path d="M193.48 346.27h35.29v25.18h-35.29z" style="fill:#fafafa"/><path d="M43.7 345.35h150.18v27H43.7z" style="fill:#f5f5f5"/><path d="M192.78 347.18h37.93a.91.91 0 0 0 .91-.91.92.92 0 0 0-.91-.92h-37.93ZM192.78 370.53h38.42a.42.42 0 0 1 .42.42v1a.42.42 0 0 1-.42.42h-38.42v-1.84Z" style="fill:#f5f5f5"/><path d="M228.77 351.05c0 .11-7.82.21-17.45.21s-17.45-.1-17.45-.21 7.81-.21 17.45-.21 17.45.1 17.45.21ZM228.77 355.81c0 .12-7.82.21-17.45.21s-17.45-.09-17.45-.21 7.81-.2 17.45-.2 17.45.09 17.45.2ZM228.77 360.58c0 .11-7.82.2-17.45.2s-17.45-.09-17.45-.2 7.81-.21 17.45-.21 17.45.09 17.45.21ZM228.77 365.34c0 .11-7.82.2-17.45.2s-17.45-.09-17.45-.2 7.81-.21 17.45-.21 17.45.09 17.45.21Z" style="fill:#e0e0e0"/><path d="M198.1 374.76h36.02v68.25H198.1z" style="fill:#ebebeb"/><path d="M29.03 372.36H198.1v74H29.03z" style="fill:#e0e0e0"/><path d="M236.94 446.35h-43.46v-4.8h43.46a2.41 2.41 0 0 1 2.4 2.4 2.4 2.4 0 0 1-2.4 2.4ZM193.48 372.36h44.76a1.1 1.1 0 0 1 1.1 1.1v2.6a1.1 1.1 0 0 1-1.1 1.1h-44.76v-4.8ZM234.12 383.9c0 .12-8.06.21-18 .21s-18-.09-18-.21 8.06-.2 18-.2 18 .09 18 .2ZM234.12 392.66c0 .11-8.06.2-18 .2s-18-.09-18-.2 8.06-.21 18-.21 18 .09 18 .21ZM234.12 401.41c0 .11-8.06.21-18 .21s-18-.1-18-.21 8.06-.21 18-.21 18 .1 18 .21ZM234.12 410.16c0 .12-8.06.21-18 .21s-18-.09-18-.21 8.06-.2 18-.2 18 .09 18 .2ZM234.12 418.92c0 .11-8.06.2-18 .2s-18-.09-18-.2 8.06-.21 18-.21 18 .09 18 .21ZM234.12 427.67c0 .11-8.06.21-18 .21s-18-.1-18-.21 8.06-.21 18-.21 18 .1 18 .21ZM234.12 436.42c0 .12-8.06.21-18 .21s-18-.09-18-.21 8.06-.2 18-.2 18 .09 18 .2Z" style="fill:#e0e0e0"/><path d="M86.88 413.4v4.12c0 5-2.48 7.79-7.26 7.79s-7.26-2.83-7.26-7.79v-16.11c0-5 2.48-7.8 7.26-7.8s7.26 2.84 7.26 7.8v3h-4.6v-3.31c0-2.22-1-3.06-2.52-3.06s-2.53.84-2.53 3.06v16.73c0 2.22 1 3 2.53 3s2.52-.79 2.52-3v-4.43ZM89.45 401.41c0-5 2.61-7.8 7.39-7.8s7.39 2.84 7.39 7.8v16.11c0 5-2.61 7.79-7.39 7.79s-7.39-2.83-7.39-7.79Zm4.87 16.42c0 2.22 1 3.06 2.52 3.06s2.52-.84 2.52-3.06V401.1c0-2.22-1-3.06-2.52-3.06s-2.52.84-2.52 3.06ZM107.37 394h4.87v26.56h8V425h-12.87ZM122 401.41c0-5 2.61-7.8 7.39-7.8s7.4 2.84 7.4 7.8v16.11c0 5-2.61 7.79-7.4 7.79s-7.39-2.83-7.39-7.79Zm4.87 16.42c0 2.22 1 3.06 2.52 3.06s2.53-.84 2.53-3.06V401.1c0-2.22-1-3.06-2.53-3.06s-2.52.84-2.52 3.06ZM144.56 394v23.91c0 2.21 1 3 2.52 3s2.52-.8 2.52-3V394h4.61v23.6c0 4.95-2.48 7.79-7.26 7.79s-7.26-2.84-7.26-7.79V394ZM167.71 425a9.39 9.39 0 0 1-.45-3.81v-4.87c0-2.88-1-3.94-3.18-3.94h-1.69V425h-4.87v-31h7.35c5 0 7.22 2.35 7.22 7.13v2.43c0 3.19-1 5.27-3.19 6.29 2.44 1 3.23 3.36 3.23 6.59v4.79a9.07 9.07 0 0 0 .54 3.76Zm-5.32-26.56v9.51h1.91c1.81 0 2.92-.79 2.92-3.27v-3.06c0-2.21-.75-3.18-2.48-3.18Z" style="fill:#ebebeb"/><path d="M85.83 356h-3.55l.19-.92h8.15l-.2.92h-3.54l-1.83 9.14H84ZM97.46 357.57l-5.52 8.54C91 367.55 90.3 368 89.21 368a2.45 2.45 0 0 1-1.8-.67l.54-.75a1.81 1.81 0 0 0 1.34.55c.65 0 1.15-.31 1.74-1.23l.53-.8-1.88-7.52h1l1.6 6.42 4.13-6.44ZM105.86 360.7a4.26 4.26 0 0 1-4.28 4.5 2.84 2.84 0 0 1-2.88-1.65l-.86 4.37h-1l2.06-10.35h1l-.24 1.21a3.82 3.82 0 0 1 3-1.27 3.05 3.05 0 0 1 3.2 3.19Zm-1 .06a2.22 2.22 0 0 0-2.49-2.36 3.3 3.3 0 0 0-3.29 3.6 2.2 2.2 0 0 0 2.49 2.35 3.3 3.3 0 0 0 3.26-3.59ZM107.05 362a4.29 4.29 0 0 1 4.37-4.49c2.1 0 3.44 1.24 3.44 3.19a4.3 4.3 0 0 1-4.37 4.5 3.11 3.11 0 0 1-3.44-3.2Zm6.79-1.24a2.22 2.22 0 0 0-2.49-2.36 3.33 3.33 0 0 0-3.28 3.55 2.21 2.21 0 0 0 2.49 2.35 3.31 3.31 0 0 0 3.28-3.54ZM124.64 357.57l-1.32 6.64c-.53 2.68-1.94 3.78-4.4 3.78a4.82 4.82 0 0 1-3.36-1.13l.6-.78a4 4 0 0 0 2.84 1 3 3 0 0 0 3.27-2.71l.18-.83a3.9 3.9 0 0 1-3 1.29c-2 0-3.34-1.16-3.34-3a4.18 4.18 0 0 1 4.31-4.29 2.9 2.9 0 0 1 2.95 1.73l.32-1.67Zm-1.72 3c0-1.38-.93-2.2-2.5-2.2a3.21 3.21 0 0 0-3.29 3.34c0 1.38.92 2.2 2.5 2.2a3.21 3.21 0 0 0 3.29-3.31ZM131.31 357.51l-.19 1h-.28c-1.61 0-2.69.92-3.07 2.8l-.76 3.84h-1l1.5-7.56h1l-.31 1.41a3.43 3.43 0 0 1 3.11-1.49ZM140 357.57l-1.51 7.56h-1l.24-1.19a3.85 3.85 0 0 1-2.94 1.26 3.05 3.05 0 0 1-3.3-3.2 4.26 4.26 0 0 1 4.27-4.49 2.84 2.84 0 0 1 2.88 1.64l.32-1.58Zm-1.7 3.19a2.22 2.22 0 0 0-2.49-2.36 3.32 3.32 0 0 0-3.27 3.55 2.2 2.2 0 0 0 2.46 2.35 3.31 3.31 0 0 0 3.28-3.54ZM149.79 360.7a4.26 4.26 0 0 1-4.28 4.5 2.84 2.84 0 0 1-2.88-1.65l-.86 4.37h-1l2.05-10.35h1l-.24 1.21a3.8 3.8 0 0 1 2.94-1.27 3.06 3.06 0 0 1 3.27 3.19Zm-1 .06a2.22 2.22 0 0 0-2.49-2.36 3.3 3.3 0 0 0-3.3 3.6 2.2 2.2 0 0 0 2.48 2.35 3.3 3.3 0 0 0 3.28-3.59ZM158.94 360a4.37 4.37 0 0 1-.08.86l-.86 4.3h-1l.87-4.31a4.48 4.48 0 0 0 .07-.69c0-1.08-.65-1.7-2-1.7a2.94 2.94 0 0 0-3.07 2.65l-.81 4.05h-1l2.13-10.67h1l-.85 4.24a3.72 3.72 0 0 1 2.89-1.19c1.77-.03 2.71.89 2.71 2.46ZM168.5 357.57l-5.5 8.54c-.94 1.44-1.64 1.88-2.73 1.88a2.45 2.45 0 0 1-1.8-.67l.55-.75a1.77 1.77 0 0 0 1.33.55c.65 0 1.15-.31 1.74-1.23l.54-.8-1.89-7.52h1l1.56 6.44 4.13-6.44Z" style="fill:#e0e0e0"/><path d="M191.28 46.79H37.89l25 18v35.47a7.4 7.4 0 0 0 7.41 7.41h121a7.41 7.41 0 0 0 7.41-7.41V54.2a7.41 7.41 0 0 0-7.43-7.41Z" style="fill:#f5f5f5"/><path d="M184.88 71.86c0 .15-23.13.27-51.66.27s-51.67-.13-51.67-.27 23.13-.27 51.67-.27 51.66.12 51.66.27ZM184.88 85.48c0 .15-23.13.27-51.66.27s-51.67-.12-51.67-.27 23.13-.27 51.67-.27 51.66.12 51.66.27Z" style="fill:#e0e0e0"/><path d="M723.27 446.35c0 .15-156.84.26-350.25.26s-350.29-.11-350.29-.26 156.8-.26 350.29-.26 350.25.12 350.25.26Z" style="fill:#263238"/><path d="M657.45 395.31s-26.51-30.5-36.51-61-5.25-27-5.25-27 13.5 29.64 23.75 43.95 28.56 35.3 28.56 35.3Z" style="fill:#455a64"/><path d="M662.73 312a1.54 1.54 0 0 0-2.87 1c1.61 10.72 5.11 35.87 5 52.18-.18 21.19 0 29.38 0 29.38h11s-2-43.8-4.45-57.16c-1.74-9.34-5.41-19.74-8.68-25.4Z" style="fill:#455a64"/><path d="M668.75 391a117 117 0 0 0 9.08-32.94c.91-7.8-.72-18.34-3.13-32.41a87.72 87.72 0 0 1-1.39-15.59 2.63 2.63 0 0 1 4.94-1.24c1.33 2.38 5.19 10.5 6.17 15.58 2.67 13.89 5.69 20.84 3.38 34s-10.86 33.48-10.86 33.48ZM678.68 391.91s29.11-62.55 31.13-71.83 8.87-30.66 9.68-29.45 2 12.51-3.23 25.42-27.64 77.76-27.64 77.76h-9.94" style="fill:#455a64"/><path d="M665.56 389.11a6.71 6.71 0 0 1-.82-.56c-.51-.39-1.3-.94-2.25-1.72a100.71 100.71 0 0 1-7.82-6.91 131 131 0 0 1-21.12-27.1 177.11 177.11 0 0 1-14.41-31.22c-1.46-4.15-2.53-7.55-3.22-9.92-.36-1.17-.61-2.1-.78-2.72a5.23 5.23 0 0 1-.22-1 6.23 6.23 0 0 1 .34.93l.89 2.69c.76 2.34 1.89 5.72 3.4 9.84a189.55 189.55 0 0 0 14.54 31.06A136.51 136.51 0 0 0 655 379.61c3.11 3.1 5.78 5.45 7.66 7 .93.81 1.69 1.39 2.18 1.81a6.1 6.1 0 0 1 .72.69ZM668.74 359.1a11.17 11.17 0 0 1-.26-1.83c-.14-1.3-.32-3-.53-5-.46-4.24-1.18-10.07-2.21-16.48s-2.18-12.18-3.07-16.34c-.43-2-.79-3.66-1.06-4.93a11.16 11.16 0 0 1-.33-1.83 10.67 10.67 0 0 1 .56 1.77c.33 1.15.76 2.82 1.26 4.89 1 4.14 2.22 9.91 3.25 16.34s1.68 12.28 2 16.53c.18 2.13.29 3.85.34 5a9 9 0 0 1 .05 1.88ZM675.56 308.35a4.66 4.66 0 0 1 .34.8c.23.59.52 1.36.88 2.32s.82 2.25 1.25 3.73 1 3.12 1.41 5l.72 2.94c.25 1 .42 2.11.64 3.22.48 2.22.77 4.63 1.12 7.16a106.64 106.64 0 0 1-1.18 33.06c-.53 2.5-1 4.88-1.63 7.06-.3 1.09-.55 2.16-.87 3.16s-.63 2-.93 2.89c-.56 1.85-1.23 3.46-1.77 4.89s-1.06 2.65-1.51 3.63l-1 2.25a4.32 4.32 0 0 1-.4.77 4.43 4.43 0 0 1 .29-.82l.92-2.3c.42-1 .92-2.21 1.41-3.65s1.15-3.06 1.68-4.91c.28-.92.58-1.88.89-2.88s.54-2.07.83-3.16c.61-2.18 1-4.55 1.57-7a110.65 110.65 0 0 0 1.18-32.89c-.34-2.52-.61-4.92-1.06-7.13-.22-1.11-.38-2.19-.61-3.21s-.46-2-.68-2.94c-.39-1.88-.92-3.54-1.32-5s-.79-2.72-1.14-3.74-.57-1.76-.76-2.36a4.49 4.49 0 0 1-.27-.89ZM719.15 291.89a.75.75 0 0 1 0 .28c0 .22-.08.49-.13.81-.13.71-.29 1.77-.57 3.12-.56 2.69-1.5 6.56-3 11.26s-3.43 10.2-5.79 16.26-5.08 12.65-7.66 19.67-4.65 13.86-6.55 20.06-3.66 11.8-5.39 16.4a105.66 105.66 0 0 1-4.59 10.7c-.6 1.24-1.14 2.16-1.48 2.8l-.41.71a1 1 0 0 1-.16.24 1.12 1.12 0 0 1 .1-.27l.36-.74c.31-.66.81-1.6 1.37-2.85 1.17-2.48 2.75-6.12 4.4-10.74s3.4-10.19 5.26-16.41 3.87-13.08 6.5-20.11 5.34-13.63 7.72-19.67 4.41-11.52 5.9-16.19 2.51-8.51 3.14-11.18c.32-1.33.52-2.38.69-3.08.08-.32.14-.58.19-.8a.91.91 0 0 1 .1-.27Z" style="fill:#263238"/><path d="M629.41 278.07a2.51 2.51 0 0 0-4.13 2.56 71.22 71.22 0 0 0 3.66 9.4c4 8.51 15.76 39 21.26 55.77s13.25 48 13.25 48l11.75-1.9S664.45 340.55 654 322c-8.49-14.83-16.93-36.31-24.59-43.93Z" style="fill:#455a64"/><path d="M653.41 356.28a6.84 6.84 0 0 1 .61 1.41c.35.92.82 2.26 1.35 3.94 1.08 3.35 2.41 8 3.74 13.23s2.44 9.94 3.21 13.37c.36 1.62.65 3 .89 4.07a7.84 7.84 0 0 1 .24 1.51 7.18 7.18 0 0 1-.48-1.45c-.28-1.07-.64-2.42-1.07-4L658.51 375c-1.33-5.2-2.59-9.89-3.56-13.26l-1.16-4a7.63 7.63 0 0 1-.38-1.46ZM669.35 392.86a1.41 1.41 0 0 1-.06-.31c0-.25-.08-.55-.14-.93-.12-.81-.23-2-.48-3.56-.43-3.08-1.2-7.53-2.46-12.95a187.84 187.84 0 0 0-5.5-18.77c-2.41-7-5.43-14.48-8.86-22.27-6.91-15.55-13.81-29.34-18.35-39.53-2.29-5.09-4.07-9.24-5.24-12.14-.6-1.44-1-2.57-1.32-3.34-.13-.36-.24-.64-.33-.88a1.13 1.13 0 0 1-.09-.3s.06.09.15.28.23.51.39.85l1.42 3.3c1.24 2.86 3.08 7 5.42 12 4.63 10.15 11.6 23.9 18.52 39.47 3.43 7.8 6.44 15.34 8.83 22.33a178.87 178.87 0 0 1 5.39 18.89 131.7 131.7 0 0 1 2.27 13c.21 1.55.28 2.76.37 3.58 0 .38.05.68.07.93a1.3 1.3 0 0 1 0 .35ZM675.2 391.91a13.63 13.63 0 0 1-.4-2c-.23-1.38-.54-3.2-.91-5.4-.81-4.55-2-10.82-3.82-17.64s-3.75-12.91-5.27-17.27l-1.8-5.14a11.9 11.9 0 0 1-.62-1.92 13.23 13.23 0 0 1 .85 1.83c.5 1.19 1.21 2.93 2 5.1a170.1 170.1 0 0 1 5.46 17.26 180.26 180.26 0 0 1 3.65 17.73c.34 2.29.59 4.15.72 5.44a13.42 13.42 0 0 1 .14 2.01Z" style="fill:#263238"/><path d="M653.45 390.22h45.86v55.87h-45.86z" style="fill:#bdb3d0"/><path d="M653.45 390.22h45.86v55.87h-45.86z" style="opacity:.30000000000000004"/><path d="M644 390.22h40.68v55.87H644z" style="fill:#bdb3d0"/><path d="M88.53 370.8c-7.82-5-18.64-5.1-26.24.21-7.22 5.05-10.89 14.23-10.57 23s4.59 19.55 12.56 24.18l23.4-.1a31.42 31.42 0 0 0 12.88-23.61c.35-9.24-4.22-18.68-12.03-23.68Z" style="fill:#455a64"/><path d="M77 419.07a10.56 10.56 0 0 1-.14-2c0-1.44-.1-3.28-.16-5.49-.12-4.63-.3-11-.61-18.09s-.69-13.46-1-18.09c-.13-2.2-.24-4-.33-5.48a10.42 10.42 0 0 1 0-2 11.09 11.09 0 0 1 .32 2c.16 1.29.35 3.16.57 5.47.42 4.62.88 11 1.2 18.09s.41 13.49.39 18.13c0 2.32 0 4.19-.08 5.49a11 11 0 0 1-.16 1.97ZM54.08 392.05c0 .2-1.29.27-2.84.14s-2.79-.4-2.78-.6 1.29-.27 2.84-.15 2.8.4 2.78.61ZM54.52 384.15c-.09.19-1.18-.11-2.45-.68s-2.23-1.17-2.15-1.36 1.18.12 2.45.68 2.23 1.21 2.15 1.36ZM58.58 378.29c-.11.17-1.34-.41-2.62-1.47s-2.09-2.17-1.94-2.3 1.17.69 2.41 1.72 2.26 1.87 2.15 2.05ZM62.67 372.76c-.19.08-.78-.84-1.32-2.06s-.83-2.28-.64-2.37.78.84 1.32 2.07.82 2.28.64 2.36ZM69.08 368.84c-.19.08-.82-.9-1.25-2.26s-.46-2.54-.26-2.57.57 1 1 2.34.7 2.4.51 2.49ZM79.77 364.41c.2.07.08.91-.26 1.88s-.78 1.69-1 1.62-.08-.9.26-1.87.81-1.7 1-1.63ZM87.71 367.82c.14.15-.37.85-1.14 1.56s-1.5 1.16-1.64 1 .37-.85 1.13-1.56 1.51-1.15 1.65-1ZM94.69 372.33c.12.17-.5.79-1.38 1.39s-1.69.94-1.81.77.51-.79 1.39-1.39 1.69-.94 1.8-.77ZM99.65 379.05c.08.19-.89.79-2.18 1.34s-2.4.84-2.48.65.9-.79 2.19-1.33 2.39-.85 2.47-.66ZM101.61 386.39c0 .2-1 .5-2.23.65s-2.28.12-2.31-.09 1-.49 2.22-.65 2.29-.12 2.32.09ZM102.62 395.42c-.08.19-1.14-.09-2.36-.62s-2.16-1.12-2.08-1.31 1.15.09 2.37.62 2.16 1.12 2.07 1.31ZM101.73 403.17c-.07.19-1.41-.13-2.81-1.05s-2.23-2-2.09-2.15 1.17.66 2.5 1.52 2.47 1.51 2.4 1.68ZM97.69 410.22c-.12.16-1.19-.46-2.21-1.57s-1.57-2.21-1.41-2.33 1 .77 2 1.82 1.76 1.92 1.62 2.08ZM59.39 411.05c.09.18-1 1-2.51 1.72S54.13 414 54 413.84s1-1 2.5-1.73 2.79-1.24 2.89-1.06ZM55.89 404.67c.08.19-.82.78-2 1.32s-2.23.83-2.32.64.82-.78 2-1.32 2.23-.83 2.32-.64ZM53.32 399c0 .2-1.08.53-2.48.73s-2.54.19-2.57 0 1.08-.53 2.47-.72 2.55-.2 2.58-.01ZM61.75 395.9c.06.2-1 .7-2.45.86s-2.61-.09-2.59-.29 1.14-.29 2.5-.45 2.48-.32 2.54-.12ZM68.76 388.93c.06.19-.8.63-2 .74s-2.08-.14-2.06-.34.92-.29 2-.4 2-.2 2.06 0ZM70.1 383.34c-.07.2-1 .05-2.08-.32s-1.9-.83-1.83-1 1-.05 2.08.33 1.9.8 1.83.99ZM72.67 377.69c-.14.15-.78-.27-1.24-1.07s-.5-1.55-.3-1.6.54.53 1 1.23.69 1.3.54 1.44ZM69.57 400.82c.05.2-.75.57-1.8.83a6.73 6.73 0 0 1-1.51.22l-.14-.44c.27 0 .44 0 .48.05s-.08.21-.3.38l-.15-.44a7 7 0 0 1 1.45-.5c1.04-.25 1.92-.3 1.97-.1ZM71 410.73c.07.19-1 .77-2.3 1.3s-2.49.8-2.56.61 1-.78 2.29-1.3 2.51-.8 2.57-.61ZM63.1 406.33c.07.19-.62.6-1.53.91s-1.7.41-1.77.21.62-.6 1.53-.91 1.67-.41 1.77-.21ZM63.7 386.17c0 .2-1.24.08-2.61-.41s-2.38-1.15-2.29-1.33 1.2.15 2.54.62 2.41.95 2.36 1.12ZM82.86 384c.12.17-.55.81-1.49 1.43s-1.8 1-1.92.81.56-.81 1.5-1.43 1.8-1.01 1.91-.81ZM83.91 393.92c0 .2-.67.52-1.58.71s-1.68.18-1.73 0 .67-.52 1.58-.71 1.68-.2 1.73 0ZM85.12 405.11c-.09.18-1.11-.1-2.27-.64s-2-1.13-2-1.32 1.11.1 2.27.64 2.08 1.13 2 1.32ZM82.55 416c-.16.14-.82-.4-1.47-1.2s-1-1.55-.89-1.68.81.41 1.47 1.21 1.05 1.53.89 1.67ZM82 376.65c.13.16-.31.71-1.06 1.08s-1.44.4-1.49.2.49-.52 1.16-.86 1.29-.58 1.39-.42ZM91.42 386.68c.07.19-.8.67-2 .84s-2.15-.06-2.14-.26.93-.33 2-.48 2.07-.29 2.14-.1ZM89.55 377.68c.09.18-.77.8-2 1.19s-2.28.39-2.31.19.92-.53 2.08-.91 2.13-.66 2.23-.47ZM93.47 400.63c0 .2-1.48.33-3.26 0s-3.11-1-3-1.15 1.47.11 3.18.41 3.08.53 3.08.74ZM90 413.71c-.12.16-1.21-.48-2.29-1.57s-1.71-2.14-1.58-2.3 1 .72 2.09 1.78 1.89 1.93 1.78 2.09Z" style="fill:#263238"/><path d="M74.64 367a34 34 0 0 0-6.55 5.18 32 32 0 0 0-8.16 18 40.8 40.8 0 0 0 .49 11.05 87.57 87.57 0 0 0 2.07 8.87c.72 2.49 1.38 4.49 1.82 5.88a14.64 14.64 0 0 1 .63 2.18 11.76 11.76 0 0 1-.9-2.08c-.53-1.36-1.27-3.34-2.05-5.83a73.65 73.65 0 0 1-2.24-8.9 39.34 39.34 0 0 1-.56-11.25 31.47 31.47 0 0 1 8.52-18.32 23.15 23.15 0 0 1 4.88-3.78 12.42 12.42 0 0 1 1.5-.78 2.2 2.2 0 0 1 .55-.22Z" style="fill:#263238"/><path d="M84.83 418.7c-.17-.09 1.67-2.92 3.35-8a45.39 45.39 0 0 0 2-20.63A38.85 38.85 0 0 0 87 379a26.22 26.22 0 0 0-5.42-7.56 20.12 20.12 0 0 0-5.32-3.36c-1.38-.57-2.21-.71-2.2-.77a2 2 0 0 1 .61 0 10.61 10.61 0 0 1 1.69.45 18.36 18.36 0 0 1 5.56 3.24 25.49 25.49 0 0 1 5.7 7.65 38.19 38.19 0 0 1 3.3 11.2 43.88 43.88 0 0 1-2.25 20.91c-.42 1.29-1 2.39-1.37 3.39s-.88 1.8-1.24 2.46a16 16 0 0 1-1.23 2.09Z" style="fill:#263238"/><path d="M55.89 416.93h41.18l.25 8.24H55.89v-8.24z" style="fill:#bdb3d0"/><path d="m59.39 421.05 2.36 25.16h30.11l2.42-24.88-34.89-.28z" style="fill:#bdb3d0"/><path d="M97.32 425.27c0 .21-9.27.37-20.71.37s-20.71-.16-20.71-.37 9.27-.37 20.71-.37 20.71.16 20.71.37ZM93.14 432.93a6.2 6.2 0 0 1-.88 1.58 23.14 23.14 0 0 1-3.2 3.77l-.19.18-.18-.2a59.2 59.2 0 0 0-8.08-7.06h.46l-3.58 3.14-4.23 3.66-.23.21-.24-.2-6.87-5.78.4-.05c-1.42 1.74-2.62 3.19-3.56 4.35a9.52 9.52 0 0 1-1.4 1.52 11.21 11.21 0 0 1 1.15-1.72l3.36-4.49.18-.23.23.18 7 5.66h-.46l4.21-3.7 3.59-3.13.22-.19.24.17a52.91 52.91 0 0 1 8 7.29h-.38a40.28 40.28 0 0 0 4.44-4.96Z" style="fill:#263238"/><rect width="465.06" height="307.54" x="137.46" y="131.77" rx="14.57" style="fill:#455a64"/><path d="M122.24 419.44h503.85v9.11a17.8 17.8 0 0 1-17.8 17.8H140a17.8 17.8 0 0 1-17.8-17.8v-9.11h.04Z" style="fill:#455a64"/><path d="m324.15 416.56 6.25 9.95h87.98l5.8-9.95H324.15z" style="fill:#263238"/><path d="M598.52 416.56c0 .17-103.22.3-230.51.3s-230.55-.13-230.55-.3 103.2-.3 230.55-.3 230.51.13 230.51.3Z" style="fill:#263238"/><rect width="436.6" height="258.98" x="150.78" y="149.45" rx="3.27" style="fill:#ebebeb"/><path d="M586.91 408.81h-436.6l.47-240h436.13v240z" style="fill:#fff"/><path d="M186.59 159.46a3.49 3.49 0 1 1-3.49-3.46 3.48 3.48 0 0 1 3.49 3.46ZM165.46 159.46A3.49 3.49 0 1 1 162 156a3.48 3.48 0 0 1 3.46 3.46ZM175.6 159.46a3.49 3.49 0 1 1-3.49-3.49 3.48 3.48 0 0 1 3.49 3.49ZM150.31 385.63h437.07v23.18H150.31z" style="fill:#263238"/><path d="M166.83 399.9v.74h-3.48v-.58l1.87-1.78c.46-.44.54-.72.54-1 0-.43-.3-.68-.88-.68a1.32 1.32 0 0 0-1.1.49l-.62-.47a2.2 2.2 0 0 1 1.8-.78c1 0 1.69.51 1.69 1.35a1.88 1.88 0 0 1-.79 1.49l-1.26 1.2ZM167.3 397.56a.56.56 0 1 1 .55.56.54.54 0 0 1-.55-.56Zm0 2.57a.56.56 0 1 1 1.11 0 .56.56 0 1 1-1.11 0ZM170.6 395.92v4.72h-.87v-4h-1v-.74ZM175.75 399.57h-.84v1.07h-.85v-1.07h-2.59V399l2.33-3h.94l-2.2 2.91h1.55v-.95h.82v.95h.84ZM183.46 397.68H541.7v1.63H183.46z" style="fill:#fff"/><path d="M183.19 395.93h111.95v4.36H183.19z" style="fill:#bdb3d0"/><path d="M298.76 398.5a5.45 5.45 0 1 1-5.45-5.45 5.45 5.45 0 0 1 5.45 5.45Z" style="fill:#bdb3d0"/><path d="M550.72 398.45A1.57 1.57 0 0 1 549 400c-1.29 0-2-.83-2-2.35a2.24 2.24 0 0 1 2.32-2.51 2.4 2.4 0 0 1 1.24.31l-.33.66a1.56 1.56 0 0 0-.89-.23c-.89 0-1.45.55-1.45 1.62a1.6 1.6 0 0 1 1.26-.49 1.47 1.47 0 0 1 1.57 1.44Zm-.85 0c0-.49-.37-.8-.94-.8a.86.86 0 0 0-1 .81c0 .44.35.79 1 .79a.81.81 0 0 0 .94-.76ZM551.15 396.83a.56.56 0 1 1 1.11 0 .56.56 0 1 1-1.11 0Zm0 2.57a.56.56 0 1 1 1.11 0 .56.56 0 1 1-1.11 0ZM552.82 397.55c0-1.55.85-2.43 2-2.43s2 .88 2 2.43-.85 2.43-2 2.43-2-.88-2-2.43Zm3.06 0c0-1.14-.44-1.66-1.09-1.66s-1.09.52-1.09 1.66.45 1.67 1.09 1.67 1.09-.53 1.09-1.67ZM557.35 397.55c0-1.55.85-2.43 2-2.43s2 .88 2 2.43-.85 2.43-2 2.43-2-.88-2-2.43Zm3.07 0c0-1.14-.45-1.66-1.1-1.66s-1.08.52-1.08 1.66.44 1.67 1.08 1.67 1.1-.53 1.1-1.67ZM568.93 397.26h-1.64v-4.71H572v1.63h-3.07v3.08zM572 403.4h-4.71v-4.7h1.63v3.07H572v1.63zM579.5 403.4h-4.7v-1.63h3.06v-3.08h1.64v4.71zM579.5 397.25h-1.63v-3.07h-3.08v-1.63h4.71v4.7z" style="fill:#fff"/><path d="M210.19 183.08h-25.74l-12.86 22.29 12.86 22.28h25.74l12.86-22.28-12.86-22.29z" style="fill:#ebebeb"/><path d="M186.55 209.73a22.72 22.72 0 0 1-3.14-4.06 7.77 7.77 0 0 1-1.07-4.94 27.43 27.43 0 0 0 .65-2.93c.1-1.38-.48-2.82 0-4.11.76-2 3.47-2.33 5.12-3.72 1.28-1.09 1.91-2.85 3.32-3.76a6.25 6.25 0 0 1 4.27-.58 15.75 15.75 0 0 0 4.37.38 29.45 29.45 0 0 0 3-.81 4.11 4.11 0 0 1 3 .21 2 2 0 0 1 .82 2.67c1.69-.78 3.83.54 4.29 2.33a5 5 0 0 1-1.89 4.93 11 11 0 0 1-5.1 2.08c-5.17 1-10.77.43-15.22-2.37" style="fill:#263238"/><path d="M210.41 215.23c-.17-3.19-1.06-9.73-1.94-15.64a12.34 12.34 0 0 0-13-10.5h-.64c-6.84.86-9.93 7.15-8.88 14l2 24.55h16.7s-.4-4.31-.4-4.35 6.52-1.46 6.16-8.06Z" style="fill:#ffbe9d"/><path d="M204.24 223.21a15.47 15.47 0 0 1-8.77-1.87s2.36 4.61 8.9 3.58Z" style="fill:#eb996e"/><path d="M206.34 205.25a.93.93 0 0 1-.84 1 .89.89 0 0 1-1-.78.94.94 0 0 1 .84-1 .89.89 0 0 1 1 .78ZM207.27 202.91c-.11.13-.86-.35-1.88-.28s-1.72.63-1.84.51 0-.28.36-.54a2.62 2.62 0 0 1 1.46-.56 2.46 2.46 0 0 1 1.5.38c.33.22.45.43.4.49ZM196.76 205.94a1 1 0 0 1-.84 1 .91.91 0 0 1-1-.79 1 1 0 0 1 .84-1 .91.91 0 0 1 1 .79ZM197.31 203.77c-.11.13-.86-.35-1.88-.28s-1.72.62-1.84.51 0-.28.36-.54a2.6 2.6 0 0 1 3-.19c.29.22.41.44.36.5ZM201.49 211a6.63 6.63 0 0 1 1.63-.41c.26 0 .5-.11.53-.29a1.32 1.32 0 0 0-.22-.75l-.9-1.92a34.65 34.65 0 0 1-2.07-5 33.69 33.69 0 0 1 2.47 4.87c.3.67.59 1.32.87 1.93a1.59 1.59 0 0 1 .2 1 .68.68 0 0 1-.4.41 2 2 0 0 1-.44.09 6.56 6.56 0 0 1-1.67.07ZM197.3 199.77c-.08.28-1.1.22-2.28.45s-2.12.61-2.3.37.08-.38.45-.68a3.87 3.87 0 0 1 1.67-.71 3.75 3.75 0 0 1 1.81.09c.45.15.69.35.65.48ZM206.7 200c-.17.24-.88.05-1.72.09s-1.54.26-1.72 0 0-.35.31-.59a2.35 2.35 0 0 1 1.37-.47 2.43 2.43 0 0 1 1.4.37c.31.25.43.48.36.6Z" style="fill:#263238"/><path d="M186.8 208c-.12 0-4.63-1-4.18 3.47s5.33 3 5.32 2.9-1.14-6.37-1.14-6.37Z" style="fill:#ffbe9d"/><path d="M185.94 212.85s-.07.06-.19.13a.79.79 0 0 1-.59.07 1.94 1.94 0 0 1-1.07-1.65 2.5 2.5 0 0 1 .11-1.14.9.9 0 0 1 .53-.67.41.41 0 0 1 .48.17c.08.12.06.22.08.22s.09-.08 0-.27a.51.51 0 0 0-.2-.26.57.57 0 0 0-.45-.07 1.13 1.13 0 0 0-.75.78 2.68 2.68 0 0 0-.14 1.28 2 2 0 0 0 1.33 1.83.86.86 0 0 0 .71-.19c.21-.08.21-.23.15-.23Z" style="fill:#eb996e"/><path d="M208.14 193.42c-.31 1.79-3.95 3.44-7 3.35-2.78-.08-4.16-1.46-6.17-2.44-1.28-.62-1.28-.62-3-.34-1.4.23-2.13 1.88-2.91 3.07 1.5 3.27.89 7.07.25 10.61a1.76 1.76 0 0 1-.45 1.07 1.44 1.44 0 0 1-1.83-.27 5.62 5.62 0 0 1-1.42-2.86 18.69 18.69 0 0 1-.44-7.33 12.63 12.63 0 0 1 3-6.61 12 12 0 0 1 8.19-3.73 14.75 14.75 0 0 1 8.73 2.47 8.79 8.79 0 0 1 3 3" style="fill:#263238"/><path d="m202.16 213.32-2.3-1.07a.77.77 0 0 0-.42-.1.63.63 0 0 0-.39.27 2.12 2.12 0 0 0-.26 2.34 1.79 1.79 0 0 0 2.16.79 2.45 2.45 0 0 0 1.27-2.16Z" style="fill:#eb996e"/><path d="M201 215.72s-.48.37-1.35.12a2.14 2.14 0 0 1-1.19-1 2.19 2.19 0 0 1-.15-1.88 2.3 2.3 0 0 1 .56-.84 2.32 2.32 0 0 1 .39-.29.64.64 0 0 1 .6 0c.53.29.88.54 1.23.76.67.45 1.07.76 1 .82s-.5-.13-1.22-.5l-1.23-.64h-.18a1.89 1.89 0 0 0-.28.23 1.74 1.74 0 0 0-.42.66 1.8 1.8 0 0 0 .08 1.46 1.87 1.87 0 0 0 .9.85c.75.32 1.26.16 1.26.25ZM200.29 205.36s0-.41-.24-1.12a4.7 4.7 0 0 0-1.73-2.47 4.48 4.48 0 1 0 0 7.19 4.7 4.7 0 0 0 1.73-2.47c.2-.71.19-1.13.24-1.13s0 .11 0 .31a3.51 3.51 0 0 1-.09.87 4.64 4.64 0 0 1-1.69 2.71 4.9 4.9 0 0 1-4.64.76 4.93 4.93 0 0 1 0-9.29 4.9 4.9 0 0 1 4.64.76 4.64 4.64 0 0 1 1.69 2.71 3.47 3.47 0 0 1 .09.87c.03.2.02.3 0 .3ZM211.52 204.92c-.05 0 0-.4-.24-1.09a4.55 4.55 0 0 0-1.68-2.4 4.36 4.36 0 1 0 0 7 4.55 4.55 0 0 0 1.68-2.4c.2-.69.19-1.1.24-1.1s0 .1 0 .3a3.78 3.78 0 0 1-.08.85 4.56 4.56 0 0 1-1.65 2.64 4.77 4.77 0 0 1-4.53.74 4.81 4.81 0 0 1 0-9.06 4.77 4.77 0 0 1 4.53.74 4.58 4.58 0 0 1 1.65 2.65 3.69 3.69 0 0 1 .08.85c.03.18.02.28 0 .28Z" style="fill:#263238"/><path d="M202.36 203.89c-.1.09-.55-.2-1.15-.18s-1 .31-1.14.22.28-.72 1.13-.74 1.29.62 1.16.7ZM191.17 204.7c.09.11-.79.91-1.95 1.78a6.71 6.71 0 0 1-2.26 1.36c-.09-.11.79-.91 1.95-1.78a6.61 6.61 0 0 1 2.26-1.36ZM284 205.14c0 .14-11.57.26-25.84.26s-25.84-.12-25.84-.26 11.57-.26 25.84-.26 25.84.12 25.84.26ZM260.09 210.55c0 .14-6.14.26-13.72.26s-13.72-.12-13.72-.26 6.14-.27 13.72-.27 13.72.12 13.72.27Z" style="fill:#263238"/><path d="M438.79 245.09a39.38 39.38 0 0 1 18.56 24c4.83 17.28 19.6 62.28 19.6 62.28s8.44 9.93 9.34 17.28-.9 25.14-3.62 28.46a7.63 7.63 0 0 1-6.58 2.77l-35.53-3.37-14-93.68Z" style="fill:#bdb3d0"/><path d="M321.31 243.46s-25.41 8-31.74 14.9l20.8 96.76-.37 30.54h120.48c0-1.51 1.08-101.38 1.08-101.38l7.23-39.19-42.79-7.53-8.44-6.64-47.63 2.42-7.24 7.23Z" style="fill:#bdb3d0"/><path d="M331 327.41c-.37-.82-.91-1.71-1.79-1.89-1.45-.3-2.42 1.41-2.91 2.81a127.56 127.56 0 0 1-15.82 30.89l-.31 14.86c7-5.91 13.94-12.24 18.42-20.25s6.15-18.06 2.41-26.42Z" style="opacity:.30000000000000004"/><path d="M289.57 258.36s-8.37 11.41-11.84 18.86-32.28 70-34 76.47-6.2 26.81 6.95 31.53h27.07l27.16-54.93 1.39-63.75Z" style="fill:#bdb3d0"/><path d="M279.46 345.54s-.6-.53-1.85-1.24a21 21 0 0 0-5.68-2.06 27.35 27.35 0 0 0-4.14-.58 16.5 16.5 0 0 0-4.79.34 17.67 17.67 0 0 0-9.11 5.72 24.84 24.84 0 0 0-5.16 9.59 47.85 47.85 0 0 0-1.62 8.85c-.26 2.56-.35 4.65-.44 6.08 0 .68-.08 1.23-.1 1.66a2.1 2.1 0 0 1-.08.58 4.36 4.36 0 0 1 0-.58v-1.66c0-1.45.06-3.53.27-6.11a46.17 46.17 0 0 1 1.53-9 24.88 24.88 0 0 1 5.23-9.8 18 18 0 0 1 9.4-5.84 16.35 16.35 0 0 1 4.88-.27 26.33 26.33 0 0 1 4.19.65 19.75 19.75 0 0 1 5.7 2.24 10 10 0 0 1 1.35 1 2.84 2.84 0 0 1 .42.43ZM266.63 334.6a3.52 3.52 0 0 1 .91-.14 16.18 16.18 0 0 1 2.51 0 20.9 20.9 0 0 1 3.69.55 22 22 0 0 1 8.21 3.92 20.47 20.47 0 0 1 2.75 2.52 16.17 16.17 0 0 1 1.55 2 3.42 3.42 0 0 1 .46.8c-.08.06-.82-1-2.28-2.52a24.55 24.55 0 0 0-2.77-2.39 25 25 0 0 0-3.84-2.3 26.36 26.36 0 0 0-4.2-1.54 24 24 0 0 0-3.6-.64c-2.08-.27-3.39-.16-3.39-.26ZM291.09 331.59a5.58 5.58 0 0 1-1.25-.09c-.8-.1-1.95-.22-3.39-.33a57.92 57.92 0 0 0-22.13 2.65c-1.37.44-2.47.83-3.22 1.12a6.3 6.3 0 0 1-1.19.39 5 5 0 0 1 1.11-.58c.73-.35 1.82-.79 3.18-1.28a51.08 51.08 0 0 1 22.29-2.66c1.43.15 2.59.32 3.38.49a6.57 6.57 0 0 1 1.22.29ZM368.18 278.14a1.42 1.42 0 0 1-.28-.33l-.74-1-2.72-3.76c-2.33-3.3-5.59-7.9-9.42-13.3l.42-.06c-1.46 4.28-3.07 9-4.76 14l-.11.31-.28-.18-.56-.36a28.82 28.82 0 0 1-5.89-5 35.06 35.06 0 0 1-4.21-5.82 49.07 49.07 0 0 1-4.63-11.17 78 78 0 0 1-1.75-8c-.16-.9-.28-1.63-.38-2.18a3.47 3.47 0 0 0-.13-.55c0-.12-.07-.18-.06-.19s.41 1 .77 2.89.93 4.61 1.91 7.9a49.39 49.39 0 0 0 4.69 11.06 35.7 35.7 0 0 0 4.17 5.72A28.37 28.37 0 0 0 350 273l.55.36-.38.14c1.71-5 3.33-9.69 4.81-14l.15-.44.27.38c3.76 5.45 7 10.09 9.27 13.41 1.09 1.62 2 2.91 2.61 3.85l.67 1a2.36 2.36 0 0 1 .23.44Z" style="fill:#263238"/><path d="M399.53 324.33a54.82 54.82 0 0 0 7 32.46c5.6 9.74 13.82 18.43 24.05 23.09.33-9.93-.15-21.63.18-31.56Z" style="opacity:.30000000000000004"/><path d="M398.4 311.26s-4.38 1.21-1.1 10.18 4.38 8.42 6.57 16.8 4.74 16 8.56 20.78 18.05 14.4 18.05 14.4l12.76-12s-2.1-9-1.6-15.06 1.78-21 1.6-23.59-2.92-8.75-2.92-8.75v-4.24l-6.56-20.18s-3.65-1.64-4.92 4.19l-2.19-6.19s-3.46-.55-4.37 6.56.73 16.95.73 16.95l-1.83 12.39-2.73 8.39-2.37.36s-3.57-1-5.52-7.69-7.24-14.76-12.16-13.3Z" style="fill:#ffbe9d"/><path d="M439 343s0-.15-.06-.45-.06-.79-.09-1.34c-.07-1.22-.16-2.91-.27-5-.2-4.35-.47-10.41-.79-17.48l.05.15a2.57 2.57 0 0 0-2.58-.68 3.79 3.79 0 0 0-2.36 1.74c-1.12 1.79-1.18 4.13-1.53 6.38-.69 5.11-1.35 10-1.95 14.41-.3 2.22-.62 4.32-1.05 6.27a39.62 39.62 0 0 1-1.59 5.32c-.56 1.59-1.06 3-1.37 4.33A13.47 13.47 0 0 0 425 360a10.65 10.65 0 0 0 .5 2.86 4.42 4.42 0 0 1-.3-.7 7.53 7.53 0 0 1-.4-2.15 12.75 12.75 0 0 1 .33-3.45 39 39 0 0 1 1.31-4.38 40.84 40.84 0 0 0 1.5-5.29c.41-1.93.72-4 1-6.24.58-4.44 1.23-9.3 1.91-14.42.16-1.13.28-2.26.48-3.38a8.91 8.91 0 0 1 1.12-3.21 4.3 4.3 0 0 1 2.69-1.94 3 3 0 0 1 3.07.84l.05.07v.08c.25 7.07.46 13.13.61 17.49 0 2.11.09 3.8.13 5v1.34a2.26 2.26 0 0 1 0 .48Z" style="fill:#eb996e"/><path d="M432 320a5 5 0 0 1-.54-1.14 30.39 30.39 0 0 1-1.07-3.26 33.64 33.64 0 0 1-.91-5 14.54 14.54 0 0 1-.06-3 6.53 6.53 0 0 1 1.1-3.12 4.48 4.48 0 0 1 2.34-1.76l.19-.05.1.17c1.85 3.26 3.46 6.14 4.58 8.21l1.31 2.45a3.9 3.9 0 0 1 .42.92 4.54 4.54 0 0 1-.58-.83l-1.44-2.37c-1.2-2-2.87-4.87-4.73-8.12l.29.12a4 4 0 0 0-2.05 1.56 6 6 0 0 0-1 2.88 14.41 14.41 0 0 0 0 2.94 37.55 37.55 0 0 0 .79 5c.32 1.4.67 2.52.9 3.29A5.88 5.88 0 0 1 432 320Z" style="fill:#eb996e"/><path d="M428.94 321.64a4.68 4.68 0 0 1-.12-1.17c0-.86-.08-1.92-.13-3.17-.08-2.68-.17-6.38-.22-10.47a90.59 90.59 0 0 1 .16-10.49 16.49 16.49 0 0 1 .68-3.12 3.64 3.64 0 0 1 .47-1.08 29.3 29.3 0 0 0-.79 4.24c-.25 2.65 0 6.35 0 10.44s.08 7.79.07 10.47v3.18a5.37 5.37 0 0 1-.12 1.17ZM418.15 355.25c-.07-.06.73-1 1.71-2.71a22.76 22.76 0 0 0 1.49-3.11 25.65 25.65 0 0 0 1.14-4.06 25.21 25.21 0 0 0 .35-4.2 23.28 23.28 0 0 0-.3-3.43c-.33-1.95-.75-3.11-.66-3.14a3 3 0 0 1 .36.79 14.42 14.42 0 0 1 .66 2.28 19.5 19.5 0 0 1 .42 3.49 20.65 20.65 0 0 1-1.53 8.45 19.53 19.53 0 0 1-1.61 3.12 14.34 14.34 0 0 1-1.41 1.9c-.37.42-.59.64-.62.62Z" style="fill:#eb996e"/><path d="m440.55 349 11.07 3.84s10.58-5.47 17.87 0 13.62 19.88 11.62 25.71c0 0-5 6.22-8.86 7.13s-18.71-2.7-24.9-4-16.87-8.24-16.87-8.24Z" style="fill:#ffbe9d"/><path d="M441.91 365.29a4.44 4.44 0 0 1-.12-1c0-.75-.09-1.64-.15-2.68-.12-2.26-.27-5.38-.32-8.84s.05-6.59.25-8.85c.1-1.13.23-2 .34-2.67a3.33 3.33 0 0 1 .23-1c.08 0-.09 1.4-.2 3.66s-.15 5.37-.1 8.82.12 6.43.16 8.83v2.68a3.28 3.28 0 0 1-.09 1.05Z" style="fill:#eb996e"/><path d="M478.42 352.38a35.28 35.28 0 0 0-3.68-3.32 20.27 20.27 0 0 0-22.44-1.23 36.14 36.14 0 0 0-4 2.89 5.92 5.92 0 0 1 .91-1 18.35 18.35 0 0 1 2.93-2.22 19.91 19.91 0 0 1 22.86 1.27 17.56 17.56 0 0 1 2.66 2.53 5.64 5.64 0 0 1 .76 1.08Z" style="fill:#263238"/><path d="M477 343.15a22.11 22.11 0 0 0-4.61-2.54 20.34 20.34 0 0 0-12.46-.37 29.12 29.12 0 0 0-6.45 2.68 30.59 30.59 0 0 0-4.67 3.3c-1.24 1.06-2.19 2-2.84 2.63a8 8 0 0 1-1.05 1 6.89 6.89 0 0 1 .9-1.12 34.57 34.57 0 0 1 2.75-2.77 28.73 28.73 0 0 1 4.67-3.43 27.7 27.7 0 0 1 6.55-2.77 19.92 19.92 0 0 1 12.74.53 14.78 14.78 0 0 1 3.41 1.92c.37.27.62.53.81.69s.25.24.25.25ZM477.09 335.15c0 .1-2-.49-5.18-.92a40.65 40.65 0 0 0-5.67-.36 44.52 44.52 0 0 0-6.93.62 45.36 45.36 0 0 0-6.73 1.78 39.92 39.92 0 0 0-5.21 2.28c-2.87 1.5-4.49 2.72-4.55 2.63a7.09 7.09 0 0 1 1.11-.88 12.71 12.71 0 0 1 1.37-.94c.55-.35 1.17-.76 1.89-1.14a38.38 38.38 0 0 1 5.23-2.4 41.18 41.18 0 0 1 6.8-1.84 42.07 42.07 0 0 1 7-.59 37.45 37.45 0 0 1 5.73.47c.81.1 1.53.29 2.16.42a15.49 15.49 0 0 1 1.62.42 8.26 8.26 0 0 1 1.36.45ZM392.26 237.23a9.19 9.19 0 0 1 .76 2.94 28.3 28.3 0 0 1-.42 8.59 49.24 49.24 0 0 1-1.43 6 45.56 45.56 0 0 1-2.9 6.65c-2.39 4.6-5.39 9.61-8.87 15l-.4.63v-11.85l.39.19-9.39 7.49.08-.12A98.24 98.24 0 0 0 366 295.2c-.92 12.17-.18 23.81.39 34.37s.82 20.09 1.15 28.09.6 14.46.84 18.93c.14 2.22.24 3.94.31 5.14 0 .57.07 1 .09 1.34s0 .46 0 .46 0-.15-.07-.45-.08-.77-.14-1.34c-.11-1.17-.25-2.9-.4-5.14-.3-4.46-.65-10.93-1-18.93s-.78-17.51-1.26-28.08-1.35-22.22-.43-34.43a97.78 97.78 0 0 1 4.19-22.57v-.07h.06l9.36-7.51.39-.32v11.6l-.41-.13c6.87-10.65 12.46-19.91 13.32-27.4a29.37 29.37 0 0 0 .54-8.52 15.26 15.26 0 0 0-.41-2.22c-.2-.54-.26-.79-.26-.79Z" style="fill:#263238"/><path d="M374.32 366.22H374a2.81 2.81 0 1 0 .36 0ZM374.32 327.68H374a2.8 2.8 0 1 0 .36 0ZM374 293.2a2.82 2.82 0 0 0 .37-5.63H374a2.82 2.82 0 0 0 0 5.64Z" style="fill:#fff"/><path d="M330.77 192.07c-3.5-3.89-7-7.81-9.59-12.37s-4.08-9.89-3.24-15c.5-3 1.78-5.9 2-9 .28-4.2-1.48-8.59 0-12.52 2.32-6.16 10.61-7.11 15.63-11.36 3.91-3.31 5.81-8.68 10.11-11.46 3.76-2.44 8.59-2.38 13-1.76s8.89 1.75 13.33 1.15c3.16-.42 6.14-1.7 9.23-2.47s6.56-1 9.31.64 4.31 5.51 2.5 8.14c5.14-2.37 11.67 1.64 13.08 7.12s-1.41 11.41-5.77 15-10 5.3-15.55 6.35c-15.74 3-32.83 1.29-46.4-7.23" style="fill:#263238"/><path d="M386.14 245c-.77-6-1.4-10.93-1.44-11.55 0 0 19.92-4.48 18.82-24.62-.53-9.74-3.25-29.7-5.93-47.73a37.56 37.56 0 0 0-39.68-32l-2 .12c-20.85 2.63-30.28 21.81-27.08 42.59l11.26 69.67s4.8 15.41 15.07 18.08l13 18.52 2.14-8 9.66-8.42a38.06 38.06 0 0 0 4.77-7.09 15.56 15.56 0 0 0 1.41-9.57Z" style="fill:#ffbe9d"/><path d="M384.71 233.17s-12.65 1.88-26.74-5.71c0 0 7.18 14.07 27.14 10.92Z" style="fill:#eb996e"/><path d="M391.12 178.42a2.89 2.89 0 0 1-2.58 3.09 2.75 2.75 0 0 1-3.13-2.4A2.87 2.87 0 0 1 388 176a2.75 2.75 0 0 1 3.12 2.42ZM393.93 171.28c-.33.4-2.62-1.07-5.71-.85s-5.22 1.91-5.62 1.57c-.17-.15.15-.85 1.09-1.64a7.87 7.87 0 0 1 4.46-1.71 7.54 7.54 0 0 1 4.58 1.15c1 .64 1.36 1.3 1.2 1.48ZM361.9 180.51a2.87 2.87 0 0 1-2.58 3.08 2.74 2.74 0 0 1-3.13-2.39 2.89 2.89 0 0 1 2.57-3.09 2.76 2.76 0 0 1 3.14 2.4ZM363.57 173.89c-.34.4-2.62-1.07-5.71-.85s-5.26 1.91-5.62 1.55c-.18-.15.14-.85 1.08-1.64a7.93 7.93 0 0 1 4.47-1.71 7.53 7.53 0 0 1 4.57 1.15c1 .66 1.37 1.32 1.21 1.5ZM376.32 196.08c0-.18 1.88-.64 5-1.25.78-.13 1.52-.34 1.62-.88a4.05 4.05 0 0 0-.69-2.31l-2.74-5.86c-3.81-8.34-6.63-15.23-6.29-15.38s3.7 6.49 7.52 14.84l2.64 5.9a4.6 4.6 0 0 1 .62 3.07 2 2 0 0 1-1.22 1.24 5.38 5.38 0 0 1-1.33.28c-3.16.38-5.1.52-5.13.35ZM363.55 161.71c-.25.87-3.36.67-7 1.35s-6.47 1.87-7 1.15c-.24-.35.22-1.17 1.35-2.07a12.39 12.39 0 0 1 10.63-1.9c1.41.45 2.13 1.07 2.02 1.47ZM392.19 162.4c-.49.74-2.67.16-5.24.29s-4.7.79-5.25.09c-.24-.34.06-1.07 1-1.8a7.62 7.62 0 0 1 8.45-.3c.92.66 1.26 1.32 1.04 1.72Z" style="fill:#263238"/><path d="M331.52 186.66c-.35-.12-14.1-3.16-12.74 10.57s16.22 9.25 16.22 8.86-3.48-19.43-3.48-19.43Z" style="fill:#ffbe9d"/><path d="M328.92 201.58c-.07 0-.22.19-.61.41a2.38 2.38 0 0 1-1.78.22c-1.51-.39-3-2.57-3.27-5a8 8 0 0 1 .33-3.49 2.79 2.79 0 0 1 1.62-2 1.23 1.23 0 0 1 1.48.52c.22.37.16.65.23.66s.27-.25.11-.81a1.56 1.56 0 0 0-.63-.81 1.86 1.86 0 0 0-1.4-.28 3.38 3.38 0 0 0-2.28 2.38 8.11 8.11 0 0 0-.45 3.91c.36 2.76 2 5.21 4.07 5.58a2.57 2.57 0 0 0 2.16-.58c.43-.38.5-.69.42-.71Z" style="fill:#eb996e"/><path d="M396.58 142.35c-.94 5.47-12 10.48-21.22 10.21-8.47-.25-12.66-4.45-18.81-7.44-3.9-1.89-3.9-1.89-9.19-1-4.27.69-6.49 5.74-8.89 9.34 4.57 10 2.72 21.56.78 32.36a5.46 5.46 0 0 1-1.39 3.28c-1.54 1.36-4 .55-5.56-.84-2.43-2.23-3.54-5.53-4.33-8.73a56.48 56.48 0 0 1-1.36-22.33 38.7 38.7 0 0 1 9.28-20.2 36.66 36.66 0 0 1 25-11.39 45 45 0 0 1 26.62 7.56c3.64 2.39 7 5.34 9.1 9.17" style="fill:#263238"/><path d="m378.35 203-7-3.26a2.31 2.31 0 0 0-1.27-.32 2 2 0 0 0-1.21.82 6.49 6.49 0 0 0-.78 7.15 5.48 5.48 0 0 0 6.57 2.42c2.48-1 3.68-3.91 3.88-6.59Z" style="fill:#eb996e"/><path d="M374.88 210.33c0 .06-.33.26-1 .41a6.06 6.06 0 0 1-3-.22 6.25 6.25 0 0 1-3.47-2.89 6.43 6.43 0 0 1-.43-5.52 6.69 6.69 0 0 1 1.62-2.45 6.43 6.43 0 0 1 1.14-.86 1.8 1.8 0 0 1 .81-.25 1.86 1.86 0 0 1 .81.15 12.45 12.45 0 0 1 1.09.62l.95.59 1.71 1.06c2.07 1.32 3.32 2.2 3.25 2.32s-1.45-.52-3.62-1.68l-1.77-1-1-.55c-.34-.17-.7-.4-1-.52a.74.74 0 0 0-.77.08 5.45 5.45 0 0 0-.92.73 6 6 0 0 0-1.36 2.08 5.64 5.64 0 0 0 .3 4.69 5.78 5.78 0 0 0 2.89 2.66 7.05 7.05 0 0 0 2.71.51c.66.03 1.03-.03 1.06.04ZM372.67 178.77a24.45 24.45 0 0 0-.55-3.48 14.18 14.18 0 0 0-18.59-9.77 13.48 13.48 0 0 0-3.57 1.93 13 13 0 0 0-3 3 14 14 0 0 0 0 16.65 13 13 0 0 0 3 3 13.48 13.48 0 0 0 3.57 1.93 14.22 14.22 0 0 0 18.59-9.77 24.69 24.69 0 0 0 .55-3.47.77.77 0 0 1 0 .23v.68a5.82 5.82 0 0 1-.08 1.11 11.18 11.18 0 0 1-.27 1.5 13.73 13.73 0 0 1-1.55 3.87 14.47 14.47 0 0 1-17.41 6.3 13.75 13.75 0 0 1-3.69-2 13.56 13.56 0 0 1-3.1-3.09 14.5 14.5 0 0 1 0-17.25 13.33 13.33 0 0 1 3.09-3.09 13.75 13.75 0 0 1 3.69-2 14.57 14.57 0 0 1 7.65-.6 14.45 14.45 0 0 1 9.76 6.9 13.73 13.73 0 0 1 1.55 3.87 11.18 11.18 0 0 1 .27 1.5 5.82 5.82 0 0 1 .08 1.11v.68a.87.87 0 0 1 .01.26ZM406.91 177.42a24.72 24.72 0 0 0-.53-3.39 13.93 13.93 0 0 0-5.1-7.57 13.55 13.55 0 0 0-5.8-2.55 13.79 13.79 0 0 0-7.22.61 13.44 13.44 0 0 0-3.47 1.87 13.17 13.17 0 0 0-2.9 2.92 13.69 13.69 0 0 0 0 16.22 12.92 12.92 0 0 0 2.9 2.91 13.18 13.18 0 0 0 3.47 1.88 13.89 13.89 0 0 0 7.22.61 13.55 13.55 0 0 0 5.8-2.55 13.93 13.93 0 0 0 5.1-7.57 24.72 24.72 0 0 0 .53-3.39 5.52 5.52 0 0 1 0 .89 6.56 6.56 0 0 1-.08 1.09 10.81 10.81 0 0 1-.26 1.46 14.09 14.09 0 0 1-11 10.5 14.26 14.26 0 0 1-7.46-.59 14.36 14.36 0 0 1-6.62-4.94 14.15 14.15 0 0 1 0-16.82 14.36 14.36 0 0 1 6.62-4.94 14.26 14.26 0 0 1 7.46-.59 14.09 14.09 0 0 1 11 10.5 10.81 10.81 0 0 1 .26 1.46 6.56 6.56 0 0 1 .08 1.09 5.52 5.52 0 0 1 0 .89Z" style="fill:#263238"/><path d="M379 174.26c-.06.05-.39-.22-1-.51a5.67 5.67 0 0 0-2.52-.55 5.47 5.47 0 0 0-2.49.64c-.6.31-.92.6-1 .54s.18-.44.78-.86a4.9 4.9 0 0 1 5.38-.09c.61.4.85.79.85.83ZM344.85 176.73a63.22 63.22 0 0 1-6.26 5 64 64 0 0 1-6.58 4.59 60.28 60.28 0 0 1 6.27-5 62.16 62.16 0 0 1 6.57-4.59Z" style="fill:#263238"/><path d="M333 241.81c-1.39 13.57 3.77 27.9 14.66 36.12.85.65 1.92 1.29 2.93.92a3.2 3.2 0 0 0 1.52-1.56 26.52 26.52 0 0 0 3.24-17.44c-1.72 4.54-3.2 9-4.94 13.74-9.47-5.76-15.41-18-17.41-31.78ZM369.87 272.67l8-2.92 1.32 13.51s8.62-15.71 12.19-22.87 1.73-19.82 1.73-19.82 1.27 11-7.36 25.07l-6.52 10.6v-11.1ZM277 341.33a21.32 21.32 0 0 0-11.57-1.45 22.27 22.27 0 0 0-11.52 4.36c-3.24 2.61-5.43 6.73-5 10.87l.4.05c2.79-7.54 8.33-13 15.48-13.69s14.12 2.51 19 7.76c-.53-3.92-3.27-6.23-6.79-7.9ZM478.94 349a18.27 18.27 0 0 0-10.32-5.31 23.14 23.14 0 0 0-19.24 5.57l1.52-1.24a24.29 24.29 0 0 1 12.82-3.48 18.51 18.51 0 0 1 12.21 4.88c3 2.84 4.79 6.69 6.5 10.44a13.07 13.07 0 0 0-3.49-10.86Z" style="opacity:.30000000000000004"/><path d="M427.45 286.3a5.45 5.45 0 0 1 .36-1.09c.31-.79.69-1.76 1.13-2.91 1-2.45 2.3-5.83 3.7-9.6s2.61-7.2 3.48-9.68l1-2.95a5.22 5.22 0 0 1 .44-1.06 4.15 4.15 0 0 1-.25 1.12c-.19.72-.49 1.74-.88 3-.78 2.52-1.94 6-3.34 9.75s-2.79 7.15-3.85 9.56c-.52 1.21-1 2.18-1.29 2.85a4.59 4.59 0 0 1-.5 1.01ZM301.38 287.28c-.14 0-1.23-4.73-2.43-10.63S296.89 266 297 265.92s1.22 4.73 2.42 10.63 2.1 10.7 1.96 10.73Z" style="fill:#263238"/><path d="M299.49 346.77c.32.16-3.66-31.16-3.66-31.16s2.51-23.77 3.92-24.87v-8.39s3.89-2.35 4.93 1.45c0 0 3.45-3 4 4.13s.73 14.41.73 14.41l7.67 19.18 1.26.64s1.65-15 2.61-17.24 1.62-7.59 5.25-6.78 3.94 3.81 3.29 8.71-1.47 10-1.16 13.14 1.74 10.13 1.3 15.67-3.48 11.38-6.66 15.48-9.27 12.59-12.57 15.14c-1.07.9-10.91-19.51-10.91-19.51Z" style="fill:#ffbe9d"/><path d="M303.37 321.28a6 6 0 0 1 0-1.34c.06-1 .15-2.18.25-3.64.23-3.07.59-7.31 1-12 .22-2.33.43-4.55.62-6.59a11.74 11.74 0 0 0 0-2.83 4 4 0 0 0-1-2.16 4.28 4.28 0 0 0-3.13-1.37 8.87 8.87 0 0 0-1.31.16 1.22 1.22 0 0 1 .32-.16 3.38 3.38 0 0 1 1-.21 4.4 4.4 0 0 1 3.41 1.33 4.28 4.28 0 0 1 1.11 2.35 11.46 11.46 0 0 1 0 2.93c-.18 2-.38 4.27-.58 6.6-.43 4.68-.85 8.91-1.18 12l-.41 3.63a7.6 7.6 0 0 1-.1 1.3ZM307.49 308.47a10.88 10.88 0 0 0-1.36 2.47 41.44 41.44 0 0 0-1.27 6.76c-.42 2.68-.82 5.1-1.14 6.85a15 15 0 0 1-.62 2.81 16.7 16.7 0 0 1 .26-2.87c.22-1.76.57-4.19 1-6.87s.71-5.13 1.45-6.81a6.55 6.55 0 0 1 1.09-1.81c.33-.4.57-.55.59-.53Z" style="fill:#eb996e"/><path d="M304.67 283.39a3.49 3.49 0 0 1 .27 1c.14.64.31 1.57.5 2.73.38 2.31.8 5.52 1.07 9.09s.32 6.81.28 9.15c0 1.17-.05 2.12-.1 2.77a3.5 3.5 0 0 1-.12 1 33.45 33.45 0 0 1-.15-3.78c-.05-2.34-.17-5.56-.43-9.11s-.62-6.76-.91-9.08a31.93 31.93 0 0 1-.41-3.77ZM326.8 312.75a2.76 2.76 0 0 1-2.58.22c-1.47-.44-2.15-1.57-2-1.62a13.7 13.7 0 0 0 2.17 1.12 14.61 14.61 0 0 0 2.41.28Z" style="fill:#eb996e"/><path d="m299.92 342.87-20.26 8.52h-12.08s-11.94 3.73-13.78 14.93-2.1 16.95 3.15 18.34 20.08 1.54 27.43-.9 26.61-18 26.61-18l1.85-11.24Z" style="fill:#ffbe9d"/><path d="M304.67 355.25s-.23-.17-.58-.53a12.88 12.88 0 0 1-1.31-1.68 22.77 22.77 0 0 1-2.83-6.41 38 38 0 0 1-1.25-6.88 13 13 0 0 1-.08-2.9 19.53 19.53 0 0 1 .44 2.85 50.94 50.94 0 0 0 1.39 6.79 26.89 26.89 0 0 0 2.64 6.36c.91 1.51 1.65 2.33 1.58 2.4ZM313.5 358.8a21.12 21.12 0 0 0 1.15-4.34 14 14 0 0 0-2.72-10.18c-1.23-1.72-2.62-3.22-3.79-4.68a22.16 22.16 0 0 1-2.74-4.14 10.93 10.93 0 0 1-1-3.2 4.07 4.07 0 0 1 0-1.22 14.3 14.3 0 0 0 1.38 4.25 23.31 23.31 0 0 0 2.79 4c1.17 1.42 2.57 2.92 3.83 4.68a14.56 14.56 0 0 1 2.53 5.55 14.11 14.11 0 0 1 .13 5 13.14 13.14 0 0 1-.92 3.22c-.16.36-.31.63-.41.81s-.22.26-.23.25Z" style="fill:#eb996e"/><path d="M282.25 310a101.59 101.59 0 0 1-4.94-9c-2.6-5-4.6-9.16-4.48-9.23a101.59 101.59 0 0 1 4.94 9 100.34 100.34 0 0 1 4.48 9.23ZM315 273.51a62.15 62.15 0 0 1 3.05-7.5 64.43 64.43 0 0 1 3.53-7.28 64.2 64.2 0 0 1-3.05 7.5 63.39 63.39 0 0 1-3.53 7.28ZM347.13 297.19a46.21 46.21 0 0 1-4.6-5.14 46.71 46.71 0 0 1-4.19-5.47 44.53 44.53 0 0 1 4.59 5.14 46.2 46.2 0 0 1 4.2 5.47ZM339.74 329.76a39.87 39.87 0 0 1 3.46-5.22 38.19 38.19 0 0 1 3.89-4.91 39.12 39.12 0 0 1-3.46 5.22 36.53 36.53 0 0 1-3.89 4.91ZM329.8 375.77a9.93 9.93 0 0 1-1.17-2c-.66-1.28-1.51-3.07-2.37-5.08s-1.55-3.88-2-5.23a10.1 10.1 0 0 1-.64-2.24 10.35 10.35 0 0 1 1 2.11l2.15 5.15c.83 1.91 1.57 3.64 2.22 5.13a10.37 10.37 0 0 1 .81 2.16ZM358 356.21a37.15 37.15 0 0 1-6.07-.91 36.15 36.15 0 0 1-6-1.42 72.47 72.47 0 0 1 12 2.33ZM380 313.22a72.88 72.88 0 0 1 5.78-6.62 75 75 0 0 1 6.18-6.28 75.27 75.27 0 0 1-5.79 6.63 76.61 76.61 0 0 1-6.17 6.27ZM402 370.55c-.11.1-3.34-3.65-7.22-8.35s-6.93-8.6-6.82-8.69 3.34 3.65 7.22 8.35 6.91 8.6 6.82 8.69ZM265.2 346.12c.07.14-2.88 1.64-6.1 4.11s-5.46 4.91-5.58 4.8a7.12 7.12 0 0 1 1.36-1.7 30.76 30.76 0 0 1 3.9-3.51 31.22 31.22 0 0 1 4.42-2.82 7.53 7.53 0 0 1 2-.88ZM273.44 324a21.31 21.31 0 0 1-2.35 4 21 21 0 0 1-2.79 3.72 21.55 21.55 0 0 1 2.35-4 20.7 20.7 0 0 1 2.79-3.72ZM292 345.72a13.21 13.21 0 0 1-1.94-8.55c.15 0 .2 2 .75 4.33s1.33 4.15 1.19 4.22ZM294.75 276.8a15.36 15.36 0 0 1-3.85.81 14.81 14.81 0 0 1-3.93.29 15.51 15.51 0 0 1 3.86-.81 15.25 15.25 0 0 1 3.92-.29ZM308.69 252.07a30.65 30.65 0 0 1-7 3.88 15.31 15.31 0 0 1 3.37-2.17 15.86 15.86 0 0 1 3.63-1.71ZM347.9 262.52a36.37 36.37 0 0 1-3.86-4.64 36 36 0 0 1-3.44-4.95 69.7 69.7 0 0 1 7.3 9.59ZM397.67 287.38a24.49 24.49 0 0 1-6.05-9.72c.15-.06 1.22 2.27 2.9 4.94s3.27 4.68 3.15 4.78ZM416.67 293.64a58.28 58.28 0 0 1-4.6 10.13 30.94 30.94 0 0 1 2.07-5.17 29.36 29.36 0 0 1 2.53-4.96ZM419.33 267.71a53.74 53.74 0 0 1-5.06-5.66 55.39 55.39 0 0 1-4.65-6 110.86 110.86 0 0 1 9.71 11.66ZM390.31 246.65a23.5 23.5 0 0 1-.45-4.84 22.78 22.78 0 0 1 .07-4.87 23.5 23.5 0 0 1 .45 4.84 22 22 0 0 1-.07 4.87ZM414 245.34a38.41 38.41 0 0 1-6.18 1.09 37.86 37.86 0 0 1-6.24.57 38.41 38.41 0 0 1 6.18-1.09 37.78 37.78 0 0 1 6.24-.57ZM451.23 272.71a63 63 0 0 1-3.72-7.08 61.87 61.87 0 0 1-3.24-7.31 62.06 62.06 0 0 1 3.73 7.08 62.21 62.21 0 0 1 3.23 7.31ZM445 296.36a65 65 0 0 1 2.26-11.28 32.44 32.44 0 0 1-.87 5.69 31.54 31.54 0 0 1-1.39 5.59ZM462.24 315a63.19 63.19 0 0 1-3-7.68 64 64 0 0 1-2.47-7.86 66.07 66.07 0 0 1 3 7.69 65.45 65.45 0 0 1 2.47 7.85ZM459.83 325.91a13.86 13.86 0 0 1-5.05-1.81 13.4 13.4 0 0 1-4.27-3.24c.1-.12 1.94 1.4 4.52 2.78s4.85 2.12 4.8 2.27ZM482 350.77a28.55 28.55 0 0 1-3.11-7 28.55 28.55 0 0 1 3.11 7ZM351.21 385.45a19.92 19.92 0 0 1-.78-4.43 20.23 20.23 0 0 1-.26-4.49A18.78 18.78 0 0 1 351 381a19.53 19.53 0 0 1 .21 4.45ZM419.14 383.73a18.65 18.65 0 0 1 .65-4.33 18.91 18.91 0 0 1 1.17-4.22 18.31 18.31 0 0 1-.66 4.33 18.6 18.6 0 0 1-1.16 4.22Z" style="fill:#fff"/><path d="M432.16 185.44 441 170a41.46 41.46 0 1 1 9.93 11Z" style="fill:#fafafa"/><path d="m432.16 185.44 18.77-4.28h.19L451 181l-.18.17a42.72 42.72 0 0 0 8.52 5.14 41.46 41.46 0 0 0 11.36 3.24 37.17 37.17 0 0 0 6.56.33c1.13-.06 2.27-.09 3.43-.18l3.5-.53a41.78 41.78 0 0 0 25.89-16.62 41.38 41.38 0 0 0 7-16 42.42 42.42 0 0 0-.49-18.43 40.93 40.93 0 0 0-8.88-17l-1.71-1.95c-.56-.63-1.22-1.14-1.82-1.72s-1.2-1.16-1.88-1.64l-2-1.48a16.67 16.67 0 0 0-2.06-1.36l-2.1-1.28-2.2-1.07a20.88 20.88 0 0 0-2.22-1 42.46 42.46 0 0 0-18.57-2.85 40.8 40.8 0 0 0-17 5A42 42 0 0 0 436.46 136a44.6 44.6 0 0 0-1.8 13.47 41 41 0 0 0 2 11.63 42.29 42.29 0 0 0 4.15 8.92v-.13c-5.54 9.93-8.25 14.78-8.68 15.54.44-.75 3.22-5.57 8.89-15.42v-.12A41.64 41.64 0 0 1 437 161a40.93 40.93 0 0 1-2-11.55 44.76 44.76 0 0 1 1.83-13.34 41.71 41.71 0 0 1 19.51-23.9 40.31 40.31 0 0 1 16.85-5 41.87 41.87 0 0 1 18.34 2.83 20.34 20.34 0 0 1 2.19 1l2.18 1.06 2.1 1.3a17.37 17.37 0 0 1 2 1.34l2 1.47c.67.48 1.23 1.08 1.85 1.62s1.25 1.08 1.8 1.7l1.67 1.83a40.57 40.57 0 0 1 8.78 16.83 41.68 41.68 0 0 1 .49 18.2 40.75 40.75 0 0 1-6.9 15.83 41.39 41.39 0 0 1-25.58 16.49l-3.46.54c-1.15.09-2.28.13-3.4.19a37.5 37.5 0 0 1-6.5-.3 41.32 41.32 0 0 1-11.3-3.14 42.34 42.34 0 0 1-8.49-5.06l-.77-.59.59.77.07-.2Z" style="fill:#263238"/><path d="M487.4 146.55a4 4 0 1 0 4.05-4.05 4 4 0 0 0-4.05 4.05ZM471.21 146.55a4 4 0 1 0 4-4.05 4 4 0 0 0-4 4.05ZM455.06 144.53a4 4 0 1 0 5.52-1.48 4 4 0 0 0-5.52 1.48Z" style="fill:#263238"/></svg>