<svg xmlns="http://www.w3.org/2000/svg" viewBox="0 0 500 500"><path d="M96.58 277.15c-84.18 48.6-84.17 127.39 0 176s220.65 48.6 304.83 0 84.17-127.39 0-176-220.65-48.6-304.83 0ZM41.34 117.98l2 1.19 41.1-23.83-2.01-1.2-41.09 23.84z" style="fill:#fafafa"/><path d="m82.43 94.14-39.09 22.67-.08-40.98 39.09-22.66.08 40.97z" style="fill:#fff"/><path d="M88.13 45.43 39.47 73.65l.1 52.08 48.66-28.22Zm-3.69 49.91-41.1 23.83-.08-43.34L84.35 52Z" style="fill:#f0f0f0"/><path d="m84.44 95.34-2.01-1.2-.08-40.97 2-1.18.09 43.35z" style="fill:#e0e0e0"/><path d="m88.13 45.44-2.04-1.17-48.66 28.22 2.04 1.16 48.66-28.21z" style="fill:#fafafa"/><path d="m37.43 72.49 2.04 1.16.1 52.08-2.04-1.16-.1-52.08z" style="fill:#e0e0e0"/><path d="m80.9 92.92-36.04 20.91-.02-10.42 8.98-20.85 5.63 5.2-2 8.73 12.4-26.67 11.03 12.69.02 10.41z" style="fill:#f0f0f0"/><path d="M59.08 72.49a5.93 5.93 0 0 0-2.66 4.63c0 1.7 1.2 2.39 2.67 1.53A5.84 5.84 0 0 0 61.75 74c0-1.67-1.2-2.36-2.67-1.51Z" style="fill:#f0f0f0"/><path d="m41.34 189.16 2 1.19 41.1-23.83-2.01-1.19-41.09 23.83z" style="fill:#fafafa"/><path d="M82.43 165.33 43.34 188l-.08-40.99 39.09-22.65.08 40.97z" style="fill:#fff"/><path d="m88.13 116.62-48.66 28.22.1 52.08 48.66-28.22Zm-3.69 49.9-41.1 23.84-.08-43.36 41.09-23.83Z" style="fill:#f0f0f0"/><path d="m84.44 166.52-2.01-1.19-.08-40.97 2-1.18.09 43.34z" style="fill:#e0e0e0"/><path d="m88.13 116.62-2.04-1.16-48.66 28.22 2.04 1.16 48.66-28.22z" style="fill:#fafafa"/><path d="m37.43 143.68 2.04 1.16.1 52.07-2.04-1.16-.1-52.07z" style="fill:#e0e0e0"/><path d="m80.9 164.11-36.04 20.9-.02-10.42 8.98-20.85 5.63 5.2-2 8.74 12.4-26.67 11.03 12.68.02 10.42z" style="fill:#f0f0f0"/><path d="M59.08 143.68a5.9 5.9 0 0 0-2.66 4.62c0 1.7 1.2 2.39 2.67 1.54a5.88 5.88 0 0 0 2.66-4.63c0-1.7-1.2-2.39-2.67-1.53Z" style="fill:#f0f0f0"/><path d="m474.23 264.35-2.57 1.53-84.89-49.02 2.57-1.54 84.89 49.03z" style="fill:#fafafa"/><path d="m389.34 215.32 82.32 47.54V90.94l-82.32-47.51v171.89z" style="fill:#fff"/><path d="m381.91 219.66 94.6 54.62V88.14l-94.6-54.63Zm4.86-177.74 84.89 49v174.96l-84.89-49Z" style="fill:#f5f5f5"/><path d="m386.77 216.86 2.57-1.54V43.43l-2.57-1.51v174.94z" style="fill:#e0e0e0"/><path d="M471.66 202.7v3.02l-84.89-49.03 2.57-1.53 82.32 47.54zM471.66 142.5v3.02L386.77 96.5l2.57-1.54 82.32 47.54zM381.91 33.52l2.61-1.5 94.6 54.62-2.61 1.5-94.6-54.62z" style="fill:#fafafa"/><path d="m479.12 86.64-2.61 1.5v186.14l2.61-1.49V86.64zM434.25 69.34l-2.61-1.5v174.94l2.61-1.49V69.34z" style="fill:#e0e0e0"/><path d="m426.79 65.05 4.85 2.79v174.94l-4.85-2.81V65.05z" style="fill:#f5f5f5"/><path d="M381.91 93.7v5.59l94.6 54.63v-5.6l-94.6-54.62zM381.91 153.88v5.59l94.6 54.63v-5.6l-94.6-54.62z" style="fill:#f5f5f5"/><path d="m431.64 122.42 2.61-1.51 37.41 21.59v3.02l-40.02-23.1zM431.64 182.58l2.61-1.51 37.41 21.6v3.02l-40.02-23.11z" style="fill:#fafafa"/><path d="m40.4 327.49 59.72 34.49 63.08-36.37-59.88-34.4-62.92 36.28zM10.02 368.92l45.24 26.13 47.79-27.56-45.36-26.06-47.67 27.49z" style="fill:#e0e0e0"/><ellipse cx="166.57" cy="402" rx="77.39" ry="44.68" style="fill:#e0e0e0"/><ellipse cx="306.42" cy="425.03" rx="59.52" ry="34.36" style="fill:#e0e0e0"/><path d="m451.82 369.37-56.4 32.57-59.59-34.35 56.56-32.49 59.43 34.27zM488.5 403.23l-42.73 24.68-45.13-26.03 42.84-24.61 45.02 25.96z" style="fill:#e0e0e0"/><path d="m345.87 313.75 46.55-26.88 49.39 28.59-46.54 26.87-49.4-28.58z" style="fill:#f5f5f5"/><path d="m395.27 396.72-49.4-28.59v-54.38l49.4 28.58v54.39z" style="fill:#ebebeb"/><path d="m395.27 396.72 46.54-26.88v-54.38l-46.54 26.87v54.39z" style="fill:#e0e0e0"/><path d="m422.4 326.66-49.43-28.57-7.75 4.49 49.44 28.56 7.74-4.48z" style="fill:#fafafa"/><path d="M422.4 326.66v8.96l-1.07-.63-1.45 2.09-.9-.77-1.58 2.2-1.01-.81-1.73 2.4v-8.96l7.74-4.48z" style="fill:#e6e6e6"/><path d="m353.28 282.23 39.36-22.72 41.76 24.17-39.35 22.73-41.77-24.18z" style="fill:#f5f5f5"/><path d="m395.05 336.7-41.77-24.17v-30.3l41.77 24.18v30.29z" style="fill:#ebebeb"/><path d="m395.05 336.7 39.35-22.72v-30.3l-39.35 22.73v30.29z" style="fill:#e0e0e0"/><path d="M417.99 293.15 376.19 269l-6.55 3.79 41.81 24.15 6.54-3.79z" style="fill:#fafafa"/><path d="M417.99 293.15v7.58l-.91-.54-1.22 1.77-.76-.65-1.34 1.87-.86-.69-1.45 2.02v-7.57l6.54-3.79z" style="fill:#e6e6e6"/><path d="m410.88 351.9 33.11-19.11 35.13 20.33-33.11 19.12-35.13-20.34z" style="fill:#f5f5f5"/><path d="m446.01 422.73-35.13-20.33v-50.5l35.13 20.34v50.49z" style="fill:#ebebeb"/><path d="m446.01 422.73 33.11-19.11v-50.5l-33.11 19.12v50.49z" style="fill:#e0e0e0"/><path d="m465.32 361.09-35.17-20.32-5.51 3.19 35.17 20.31 5.51-3.18z" style="fill:#fafafa"/><path d="M465.32 361.09v6.37l-.77-.45-1.03 1.49-.64-.55-1.12 1.57-.73-.58-1.22 1.7v-6.37l5.51-3.18z" style="fill:#e6e6e6"/><path d="m152.57 268.6-49.28-28.45-52.3 30.27 49.28 28.45 52.3-30.27z" style="fill:#f5f5f5"/><path d="m100.28 356.45 52.29-30.27V268.6l-52.29 30.27v57.58z" style="fill:#ebebeb"/><path d="M100.28 356.45 50.99 328v-57.58l49.28 28.45.01 57.58z" style="fill:#e0e0e0"/><path d="m71.54 282.27 52.34-30.24 8.21 4.75-52.35 30.23-8.2-4.74z" style="fill:#fafafa"/><path d="M71.54 282.27v9.49l1.14-.67 1.53 2.22.95-.82 1.68 2.33 1.08-.85 1.82 2.53v-9.49l-8.2-4.74z" style="fill:#e6e6e6"/><path d="m144.73 235.24-41.67-24.06-44.22 25.59 41.67 24.06 44.22-25.59z" style="fill:#f5f5f5"/><path d="m100.51 292.91 44.22-25.6v-32.07l-44.22 25.59v32.08z" style="fill:#ebebeb"/><path d="m100.51 292.91-41.67-24.06v-32.08l41.67 24.06v32.08z" style="fill:#e0e0e0"/><path d="m76.21 246.8 44.26-25.58 6.94 4.02-44.27 25.57-6.93-4.01z" style="fill:#fafafa"/><path d="M76.21 246.8v8.02l.96-.57 1.3 1.88.8-.69 1.42 1.97.91-.72 1.54 2.14v-8.02l-6.93-4.01z" style="fill:#e6e6e6"/><path d="m92.2 331.69-35.05-20.24-37.2 21.53 35.06 20.24 37.19-21.53z" style="fill:#f5f5f5"/><path d="m55.01 389.57 37.19-21.53v-36.35l-37.19 21.53v36.35z" style="fill:#ebebeb"/><path d="m55.01 389.57-35.06-20.24v-36.35l35.06 20.24v36.35z" style="fill:#e0e0e0"/><path d="M34.57 341.41 71.8 319.9l5.83 3.38-37.23 21.5-5.83-3.37z" style="fill:#fafafa"/><path d="M34.57 341.41v6.75l.81-.48 1.09 1.58.68-.58 1.19 1.66.76-.61 1.3 1.8v-6.75l-5.83-3.37z" style="fill:#e6e6e6"/><path d="M364.29 215.5c9.65-.17 19.3-.29 28.94-.51l14.48-.34c4.82-.15 9.64-.26 14.47-.44V214c-4.83-.18-9.65-.29-14.47-.44l-14.48-.34c-9.64-.22-19.29-.34-28.94-.51s-19.29-.29-28.94-.34h-9.1l9-1.58c9.5-1.73 19-3.55 28.45-5.36s18.95-3.64 28.41-5.53l14.19-2.85c4.73-1 9.46-1.93 14.18-3v-.21c-4.78.66-9.55 1.39-14.33 2.08l-14.31 2.18c-9.54 1.46-19.06 3-28.59 4.52s-19.05 3.07-28.56 4.69c-3 .53-6 1-9 1.6l8.6-3.13c9.05-3.34 18.06-6.78 27.08-10.21s18-6.87 27-10.38l13.41-5.19c4.49-1.79 9-3.54 13.45-5.36l-.07-.2c-4.6 1.48-9.17 3-13.75 4.53l-13.72 4.63c-9.14 3.09-18.24 6.28-27.37 9.42s-18.23 6.32-27.31 9.58l-8.64 3.16q4-2.29 8-4.6c8.33-4.86 16.61-9.81 24.9-14.76s16.56-9.9 24.81-14.91l12.36-7.53c4.1-2.54 8.22-5.05 12.31-7.62l-.11-.19c-4.26 2.26-8.5 4.57-12.75 6.86l-12.7 6.94c-8.47 4.63-16.88 9.35-25.32 14s-16.86 9.39-25.23 14.18l-8 4.6q3.54-2.94 7.06-5.9c7.36-6.24 14.65-12.56 21.95-18.86s14.59-12.63 21.84-19l10.87-9.56c3.6-3.21 7.22-6.4 10.8-9.64l-.14-.16c-3.81 3-7.58 6-11.37 9l-11.3 9c-7.53 6-15 12.14-22.5 18.21s-15 12.18-22.39 18.35q-3.52 3-7 5.92 3-3.51 5.92-7c6.17-7.42 12.25-14.91 18.35-22.39s12.18-15 18.21-22.5l9-11.3c3-3.79 6-7.56 9-11.37l-.17-.14c-3.24 3.58-6.43 7.2-9.64 10.8L361.54 147c-6.37 7.25-12.66 14.56-19 21.84s-12.62 14.59-18.86 21.95q-3 3.52-5.9 7.06 2.31-4 4.61-8c4.78-8.37 9.47-16.8 14.17-25.23s9.4-16.85 14-25.32l6.94-12.7c2.29-4.25 4.6-8.48 6.86-12.75l-.19-.11c-2.57 4.09-5.08 8.21-7.62 12.31l-7.53 12.36c-5 8.25-9.94 16.54-14.91 24.81s-9.9 16.57-14.76 24.9q-2.31 4-4.6 8 1.59-4.32 3.16-8.64c3.26-9.08 6.41-18.2 9.58-27.31s6.33-18.23 9.42-27.37l4.63-13.72c1.51-4.58 3.05-9.15 4.54-13.75l-.21-.07c-1.81 4.47-3.57 9-5.36 13.45l-5.27 13.48c-3.51 9-6.92 18-10.38 27s-6.87 18-10.21 27.08c-1.05 2.87-2.09 5.73-3.12 8.6.54-3 1.06-6 1.59-9 1.62-9.51 3.15-19 4.69-28.56s3.06-19.05 4.52-28.59l2.18-14.31c.69-4.78 1.42-9.55 2.08-14.33h-.21c-1 4.72-2 9.45-3 14.18l-2.85 14.19c-1.89 9.46-3.68 18.94-5.53 28.41s-3.63 19-5.35 28.45c-.53 3-1.07 6-1.58 9v-9.11c0-9.65-.2-19.3-.34-28.94s-.29-19.3-.51-28.94l-.22-14.51c-.15-4.83-.26-9.65-.44-14.48h-.22c-.18 4.83-.29 9.65-.44 14.48l-.34 14.47c-.22 9.64-.34 19.29-.51 28.94s-.29 19.29-.34 28.94v9.11c-.51-3-1.05-6-1.57-9-1.73-9.5-3.55-19-5.36-28.45s-3.64-18.95-5.53-28.41l-2.85-14.19c-1-4.73-1.93-9.46-2.95-14.18h-.21c.66 4.78 1.39 9.55 2.08 14.33l2.18 14.31c1.46 9.54 3 19.06 4.52 28.59s3.07 19 4.69 28.56c.53 3 1.05 6 1.59 9-1-2.87-2.07-5.73-3.12-8.6-3.34-9.05-6.78-18.06-10.21-27.08s-6.87-18-10.38-27l-5.27-13.48c-1.79-4.49-3.54-9-5.36-13.45l-.2.07c1.48 4.6 3 9.17 4.53 13.75l4.63 13.72c3.09 9.14 6.28 18.24 9.42 27.37s6.32 18.23 9.58 27.31l3.16 8.64-4.6-8c-4.86-8.33-9.82-16.61-14.76-24.9s-9.9-16.56-14.91-24.81l-7.53-12.36c-2.54-4.1-5.05-8.22-7.62-12.31l-.19.11c2.26 4.27 4.57 8.5 6.86 12.75l6.94 12.7c4.63 8.47 9.35 16.88 14 25.32s9.39 16.86 14.18 25.23l4.6 8q-2.94-3.54-5.9-7.06c-6.24-7.36-12.56-14.65-18.86-21.95s-12.63-14.59-19-21.84l-9.56-10.87c-3.21-3.6-6.4-7.22-9.64-10.8l-.16.14c3 3.81 6 7.58 9 11.37l9 11.3c6 7.53 12.14 15 18.21 22.5s12.18 15 18.35 22.39q3 3.52 5.92 7-3.51-3-7-5.92c-7.42-6.17-14.91-12.25-22.39-18.35s-15-12.18-22.5-18.21l-11.3-9c-3.79-3-7.56-6-11.37-9l-.14.16c3.58 3.24 7.2 6.43 10.8 9.64l10.82 9.69c7.25 6.37 14.56 12.66 21.84 19s14.59 12.62 21.95 18.86q3.53 3 7.06 5.9-4-2.31-8-4.6c-8.37-4.79-16.8-9.48-25.23-14.18s-16.85-9.4-25.32-14L219 163c-4.25-2.29-8.49-4.6-12.75-6.86l-.11.19c4.09 2.57 8.21 5.08 12.31 7.62l12.36 7.53c8.25 5 16.54 9.94 24.81 14.91s16.57 9.9 24.9 14.76q4 2.31 8 4.6l-8.64-3.16c-9.08-3.26-18.2-6.41-27.31-9.58s-18.23-6.33-27.37-9.42l-13.72-4.63c-4.58-1.51-9.15-3.05-13.75-4.53l-.07.2c4.47 1.82 9 3.57 13.45 5.36l13.48 5.27c9 3.51 18 6.92 27 10.38s18 6.87 27.08 10.21l8.6 3.13c-3-.55-6-1.07-9-1.6-9.51-1.62-19-3.15-28.56-4.69s-19.05-3.06-28.59-4.52L206.75 196c-4.78-.69-9.55-1.42-14.33-2.08v.21c4.72 1 9.45 2 14.18 3l14.19 2.85c9.46 1.89 18.94 3.68 28.41 5.53s19 3.63 28.45 5.36l9 1.58h-9.1c-9.65 0-19.3.2-28.94.34s-19.3.29-28.94.51l-14.47.34c-4.83.15-9.65.26-14.48.44v.22c4.83.18 9.65.29 14.48.44l14.47.34c9.64.22 19.29.34 28.94.51s19.29.29 28.94.34h9.1c-3 .51-6 1-9 1.58-9.5 1.72-19 3.54-28.45 5.35s-18.95 3.64-28.41 5.53l-14.19 2.85c-4.73 1-9.46 1.93-14.18 2.95v.21c4.78-.66 9.55-1.39 14.33-2.08l14.31-2.18c9.54-1.46 19.06-3 28.59-4.52s19-3.06 28.56-4.69c3-.53 6-1.05 9-1.59-2.87 1-5.73 2.07-8.6 3.12-9.05 3.34-18.06 6.78-27.08 10.21s-18 6.87-27 10.38L211 248.23c-4.49 1.79-9 3.55-13.45 5.36l.07.21c4.6-1.49 9.17-3 13.75-4.54l13.72-4.63c9.14-3.09 18.24-6.28 27.37-9.42s18.23-6.32 27.31-9.58l8.64-3.15q-4 2.28-8 4.59c-8.33 4.86-16.61 9.82-24.9 14.76s-16.56 9.9-24.81 14.91l-12.36 7.53c-4.1 2.54-8.22 5.05-12.31 7.62l.11.19c4.26-2.26 8.5-4.57 12.75-6.85l12.7-7c8.47-4.63 16.88-9.35 25.32-14s16.86-9.39 25.23-14.17l8-4.61q-3.54 2.94-7.06 5.9c-7.36 6.24-14.65 12.56-21.95 18.86s-14.59 12.63-21.84 19l-10.87 9.56c-3.6 3.21-7.22 6.4-10.8 9.64l.14.17c3.81-3 7.58-6 11.37-9l11.3-9c7.53-6 15-12.14 22.5-18.21s15-12.18 22.39-18.35q3.52-3 7-5.92c-2 2.34-3.95 4.7-5.92 7-6.17 7.43-12.25 14.91-18.35 22.39s-12.18 15-18.21 22.5l-9 11.3c-3 3.79-6 7.56-9 11.37l.16.14c3.24-3.58 6.43-7.2 9.64-10.8l9.56-10.87c6.37-7.25 12.66-14.56 19-21.84s12.62-14.59 18.86-21.95q3-3.52 5.9-7.06-2.31 4-4.6 8c-4.79 8.37-9.48 16.8-14.18 25.23s-9.4 16.85-14 25.32l-6.94 12.7c-2.29 4.25-4.6 8.49-6.86 12.75l.19.11c2.57-4.09 5.08-8.21 7.62-12.31l7.53-12.36c5-8.25 9.94-16.54 14.91-24.81s9.9-16.57 14.76-24.9q2.31-4 4.6-8-1.59 4.32-3.16 8.64c-3.26 9.08-6.41 18.2-9.58 27.31s-6.33 18.23-9.42 27.37l-4.63 13.72c-1.51 4.58-3.05 9.15-4.53 13.75l.2.07c1.82-4.47 3.57-9 5.36-13.44l5.32-13.43c3.51-9 6.92-18 10.38-27s6.87-18 10.21-27.08c1.05-2.87 2.09-5.73 3.12-8.6-.54 3-1.06 6-1.59 9-1.62 9.51-3.15 19-4.69 28.56s-3.06 19.05-4.52 28.59l-2.18 14.31c-.69 4.78-1.42 9.55-2.08 14.33h.21c1-4.72 2-9.45 2.95-14.18l2.85-14.19c1.89-9.46 3.68-18.94 5.53-28.41s3.63-19 5.36-28.45c.52-3 1.06-6 1.57-9v9.1c.05 9.65.2 19.3.34 28.94s.29 19.3.51 28.95l.34 14.47c.15 4.82.26 9.64.44 14.47h.22c.18-4.83.29-9.65.44-14.47l.34-14.47c.22-9.65.34-19.3.51-28.95s.29-19.29.34-28.94v-9.1c.51 3 1.05 6 1.58 9 1.72 9.5 3.54 19 5.35 28.45s3.64 18.95 5.53 28.41l2.85 14.26c1 4.73 1.93 9.46 3 14.18h.21c-.66-4.78-1.39-9.55-2.08-14.33l-2.18-14.31c-1.46-9.54-3-19.06-4.52-28.59s-3.07-19.05-4.69-28.56c-.53-3-1-6-1.59-9 1 2.87 2.07 5.73 3.12 8.6 3.27 8.95 6.73 18.01 10.16 27.01s6.87 18 10.38 27l5.27 13.49c1.79 4.48 3.55 9 5.36 13.44l.21-.07c-1.49-4.6-3-9.17-4.54-13.75l-4.63-13.72c-3.09-9.14-6.28-18.24-9.42-27.37s-6.32-18.23-9.58-27.31q-1.57-4.32-3.16-8.64l4.6 8c4.86 8.33 9.82 16.61 14.76 24.9s9.9 16.56 14.91 24.81l7.53 12.36c2.54 4.1 5.05 8.22 7.62 12.31l.19-.11c-2.26-4.26-4.57-8.5-6.86-12.75l-6.94-12.7c-4.63-8.47-9.35-16.88-14-25.32s-9.39-16.86-14.17-25.23q-2.31-4-4.61-8 2.94 3.54 5.9 7.06c6.24 7.36 12.56 14.65 18.86 21.95s12.63 14.59 19 21.84l9.56 10.87c3.21 3.6 6.4 7.22 9.64 10.8l.17-.14c-3-3.81-6-7.58-9-11.37l-9-11.3c-6-7.53-12.14-15-18.21-22.5s-12.18-15-18.35-22.39c-2-2.34-3.94-4.7-5.92-7q3.51 3 7 5.92c7.42 6.17 14.91 12.25 22.39 18.35s15.17 12.18 22.7 18.21l11.1 9c3.79 3 7.56 6 11.37 9l.14-.17c-3.58-3.24-7.2-6.43-10.8-9.64l-10.87-9.56c-7.25-6.37-14.56-12.66-21.84-19s-14.59-12.62-21.95-18.86q-3.52-3-7.06-5.9l8 4.61c8.37 4.78 16.8 9.47 25.23 14.17s16.85 9.4 25.32 14l12.7 7c4.25 2.28 8.49 4.59 12.75 6.85l.11-.19c-4.09-2.57-8.21-5.08-12.31-7.62l-12.36-7.53c-8.25-5-16.54-9.94-24.81-14.91s-16.57-9.9-24.9-14.76q-4-2.31-8-4.59l8.64 3.15c9.08 3.26 18.2 6.41 27.31 9.58s18.23 6.33 27.37 9.42l13.72 4.63c4.58 1.51 9.15 3.05 13.75 4.54l.07-.21c-4.47-1.81-9-3.57-13.45-5.36L388.3 243c-9-3.51-18-6.91-27-10.38s-18-6.87-27.08-10.21c-2.87-1.05-5.73-2.09-8.6-3.12 3 .54 6 1.06 9 1.59 9.51 1.63 19 3.15 28.56 4.69s19.05 3.06 28.59 4.52l14.31 2.18c4.78.69 9.55 1.42 14.33 2.08v-.21c-4.72-1-9.45-2-14.18-2.95l-14.19-2.85c-9.46-1.89-18.94-3.68-28.41-5.53s-19-3.63-28.45-5.35c-3-.53-6-1.07-9-1.58h9.1c9.72-.09 19.37-.24 29.01-.38Z" style="fill:#bdb3d0;opacity:.2"/><path d="M329.41 404.89c-12.7-7.33-33.28-7.33-46 0-6.35 3.66-9.52 8.46-9.51 13.27v4c.1 4.73 3.26 9.43 9.51 13 12.7 7.33 33.28 7.33 46 0 6.27-3.62 9.44-8.36 9.51-13.11v-4.06c-.03-4.69-3.2-9.46-9.51-13.1Z" style="fill:#37474f"/><path d="M283.43 431.43c-12.7-7.33-12.7-19.21 0-26.54s33.28-7.33 46 0 12.69 19.21 0 26.54-33.3 7.33-46 0Z" style="fill:#455a64"/><path d="M309.18 418.76V248.92h-5.55v169.84a1.28 1.28 0 0 0 .79 1.27 4.32 4.32 0 0 0 3.93 0 1.29 1.29 0 0 0 .83-1.27Z" style="fill:#37474f"/><path d="M256 228.55c27.89-16.11 73.11-16.11 101 0 13.94 8 20.91 22.53 20.9 33.08v2.05c0 10.55-7 21.11-20.9 29.16-27.89 16.1-73.11 16.1-101 0-13.95-8-20.91-18.61-20.9-29.16v-2.05c-.1-10.55 6.9-25.03 20.9-33.08Z" style="fill:#bdb3d0"/><path d="M256 228.55c27.89-16.11 73.11-16.11 101 0 13.94 8 20.91 22.53 20.9 33.08v2.05c0 10.55-7 21.11-20.9 29.16-27.89 16.1-73.11 16.1-101 0-13.95-8-20.91-18.61-20.9-29.16v-2.05c-.1-10.55 6.9-25.03 20.9-33.08Z" style="opacity:.2"/><path d="M255.89 223.19c27.89-16.1 73.11-16.1 101 0 13.94 8.05 20.9 18.61 20.9 29.16v3.51c0 10.56-7 25-20.9 33.09-27.89 16.1-73.11 16.1-101 0C241.94 280.9 235 265 235 254.4v-2.05c0-10.55 6.94-21.11 20.89-29.16Z" style="fill:#37474f"/><path d="M356.89 281.5c27.89-16.1 27.89-42.2 0-58.31s-73.11-16.1-101 0-27.89 42.21 0 58.31 73.11 16.11 101 0Z" style="fill:#455a64"/><path d="m306.42 208.89-68.32 39.45 68.33 39.44 68.31-39.44-68.32-39.45z" style="fill:#37474f"/><path d="m248.22 181.13-.01 67.21 58.21 33.58v-67.19l-58.2-33.6zM306.42 214.73v67.19l58.2-33.58v-67.21l-58.2 33.6z" style="fill:#bdb3d0"/><path d="M306.42 214.73v67.19l58.2-33.58v-67.21l-58.2 33.6z" style="fill:#fff;opacity:.25"/><path d="m306.42 214.73.91 65.53 33.6-18.25-34.51 19.91v-67.19z" style="fill:#fff;opacity:.4"/><path d="m306.42 147.53-58.2 33.6 58.2 33.6 58.2-33.6-58.2-33.6z" style="fill:#bdb3d0"/><path d="m306.42 147.53-58.2 33.6 58.2 33.6 58.2-33.6-58.2-33.6z" style="fill:#fff;opacity:.4"/><path d="m248.22 181.13 58.01 31.88 58.39-31.88-58.2 33.6-58.2-33.6z" style="fill:#fff;opacity:.1"/><path d="m273.16 166.73 58.2 33.6 8.32-4.8-58.2-33.6-8.32 4.8z" style="fill:#bdb3d0"/><path d="M339.68 195.53v10.57l-1.01-.58-1.04 1.81-1.05-.62-1.04 1.82-1.04-.61-1.05 1.8-1.04-.59-1.05 1.8v-10.59l8.32-4.81z" style="fill:#bdb3d0"/><path d="M339.68 195.53v10.57l-1.01-.58-1.04 1.81-1.05-.62-1.04 1.82-1.04-.61-1.05 1.8-1.04-.59-1.05 1.8v-10.59l8.32-4.81z" style="opacity:.25"/><path d="M326.08 224.12c.58-1 1.19-2 1.85-2.91a28.48 28.48 0 0 1 2.15-2.74 24.22 24.22 0 0 1 2.51-2.45 19.34 19.34 0 0 1 2.9-2 10.8 10.8 0 0 1 3.89-1.47 4.55 4.55 0 0 1 3 .51 4.72 4.72 0 0 1 1.92 2.37 11 11 0 0 1 .68 4.16 18.62 18.62 0 0 1-.51 4.48 24.79 24.79 0 0 1-1.29 3.82 26.68 26.68 0 0 1-1.71 3.24l-1.76 2.8c-.56.87-1 1.7-1.45 2.47a7.07 7.07 0 0 0-.75 2.23l-.6 4.9-4.51 2.6-.45-4.89a6.46 6.46 0 0 1 .29-2.82 15.54 15.54 0 0 1 1.21-2.77c.51-.92 1.08-1.85 1.71-2.8s1.22-1.91 1.77-2.9a20 20 0 0 0 1.38-3.06 9.84 9.84 0 0 0 .56-3.29c0-1.4-.36-2.31-1.08-2.72s-1.69-.27-2.88.42a10.63 10.63 0 0 0-2.21 1.66 19.23 19.23 0 0 0-1.54 1.73c-.43.55-.79 1-1.09 1.48a2.94 2.94 0 0 1-.86.87c-.61.35-1.06.26-1.36-.26Zm4.47 31.54a8.68 8.68 0 0 1 .29-2.16 10.09 10.09 0 0 1 .83-2.1 9.45 9.45 0 0 1 1.23-1.79 6 6 0 0 1 1.54-1.29 3.23 3.23 0 0 1 1.52-.48 1.94 1.94 0 0 1 1.24.37 2.46 2.46 0 0 1 .83 1.14 5 5 0 0 1 .3 1.82 8.24 8.24 0 0 1-.3 2.18 10.15 10.15 0 0 1-.83 2.08 8.7 8.7 0 0 1-1.24 1.78 6.1 6.1 0 0 1-1.52 1.26 3.33 3.33 0 0 1-1.54.51 1.87 1.87 0 0 1-1.23-.36 2.48 2.48 0 0 1-.83-1.13 5.16 5.16 0 0 1-.29-1.83ZM267.88 213.23a8.22 8.22 0 0 1 1.85-.78 7.09 7.09 0 0 1 2.15-.26 9.19 9.19 0 0 1 2.5.45 14.09 14.09 0 0 1 2.9 1.3 17.86 17.86 0 0 1 3.89 3 19.84 19.84 0 0 1 3 3.95 20.62 20.62 0 0 1 1.92 4.59 18.4 18.4 0 0 1 .68 4.94 11.83 11.83 0 0 1-.52 3.89 6.67 6.67 0 0 1-1.29 2.33 5.09 5.09 0 0 1-1.7 1.27c-.62.28-1.21.54-1.77.76a6.37 6.37 0 0 0-1.44.81 2 2 0 0 0-.75 1.36l-.6 4.21-4.51-2.61-.45-5.41a4.51 4.51 0 0 1 .28-2.49 3.61 3.61 0 0 1 1.22-1.37 8 8 0 0 1 1.71-.83 8.66 8.66 0 0 0 1.76-.85 4.53 4.53 0 0 0 1.39-1.46 5.27 5.27 0 0 0 .56-2.66 7.67 7.67 0 0 0-1.09-4 7.76 7.76 0 0 0-2.87-2.9 6.64 6.64 0 0 0-2.21-.9 5.42 5.42 0 0 0-1.54 0 9.44 9.44 0 0 0-1.1.21 1.08 1.08 0 0 1-.86-.12 3.27 3.27 0 0 1-1.36-1.83Zm4.46 36.69a5 5 0 0 1 .3-1.82 2.46 2.46 0 0 1 .83-1.14 1.9 1.9 0 0 1 1.22-.37 3.11 3.11 0 0 1 1.54.48 6.25 6.25 0 0 1 1.53 1.29 9.36 9.36 0 0 1 1.24 1.79 9.54 9.54 0 0 1 .82 2.1 8.26 8.26 0 0 1 .3 2.16 4.94 4.94 0 0 1-.3 1.83 2.43 2.43 0 0 1-.82 1.14 1.87 1.87 0 0 1-1.24.34 3.37 3.37 0 0 1-1.53-.49 6.76 6.76 0 0 1-1.54-1.27 9 9 0 0 1-1.22-1.78 10.15 10.15 0 0 1-.83-2.08 8.24 8.24 0 0 1-.3-2.18Z" style="fill:#fff"/><path d="M315.83 118.16a4.72 4.72 0 0 0-1.55-2.16l-.31-.2c-.59-.34-8.46-4.89-8.59-5a3.72 3.72 0 0 0-2-.46 6 6 0 0 0-2.88.9 11.68 11.68 0 0 0-2.89 2.43 17.5 17.5 0 0 0-2.32 3.37 18.54 18.54 0 0 0-1.55 4 15.52 15.52 0 0 0-.56 4.08 9.24 9.24 0 0 0 .56 3.45 4.66 4.66 0 0 0 1.55 2.13l.32.21 8.51 4.91a3.61 3.61 0 0 0 2 .48 6.36 6.36 0 0 0 2.9-1 11.92 11.92 0 0 0 2.88-2.38 16.79 16.79 0 0 0 2.34-3.36 19.28 19.28 0 0 0 1.55-3.92 15.83 15.83 0 0 0 .56-4.11 9.54 9.54 0 0 0-.52-3.37Z" style="fill:#455a64"/><path d="M293.76 128.57a4.66 4.66 0 0 0 1.55 2.13l.32.21 8.51 4.91a3.61 3.61 0 0 0 2 .48v-10.49l-3.86.16-8.52-4.97a15.52 15.52 0 0 0-.56 4.08 9.24 9.24 0 0 0 .56 3.49Z" style="fill:#37474f"/><path d="M301.73 130.05a15.55 15.55 0 0 1 .57-4.08 18.54 18.54 0 0 1 1.55-4 17.92 17.92 0 0 1 2.31-3.37 11.73 11.73 0 0 1 2.9-2.43 6.17 6.17 0 0 1 2.88-.91 3.72 3.72 0 0 1 2.34.69 4.72 4.72 0 0 1 1.55 2.16 9.54 9.54 0 0 1 .56 3.42 15.83 15.83 0 0 1-.56 4.11 19.28 19.28 0 0 1-1.55 3.92 16.79 16.79 0 0 1-2.34 3.36 11.92 11.92 0 0 1-2.88 2.38 6.36 6.36 0 0 1-2.9 1 3.6 3.6 0 0 1-2.31-.67 4.66 4.66 0 0 1-1.55-2.13 9.22 9.22 0 0 1-.57-3.45Z" style="fill:#fafafa"/><path d="M312.06 115.81a3.16 3.16 0 0 1 1.92.6 4.15 4.15 0 0 1 1.38 1.93 9.05 9.05 0 0 1 .53 3.24 15.25 15.25 0 0 1-.54 4 18.47 18.47 0 0 1-1.52 3.81 15.77 15.77 0 0 1-2.26 3.26 11.12 11.12 0 0 1-2.76 2.28 5.69 5.69 0 0 1-2.66.89H306a3 3 0 0 1-1.86-.58 4.21 4.21 0 0 1-1.38-1.91 8.83 8.83 0 0 1-.53-3.26 15.4 15.4 0 0 1 .55-4 18.26 18.26 0 0 1 1.51-3.84 17.12 17.12 0 0 1 2.25-3.28 10.7 10.7 0 0 1 2.77-2.32 5.57 5.57 0 0 1 2.64-.85h.11m0-.5h-.12a6.17 6.17 0 0 0-2.88.91 11.73 11.73 0 0 0-2.9 2.43 17.92 17.92 0 0 0-2.31 3.37 18.54 18.54 0 0 0-1.55 4 15.55 15.55 0 0 0-.57 4.08 9.22 9.22 0 0 0 .57 3.45 4.66 4.66 0 0 0 1.55 2.13 3.55 3.55 0 0 0 2.15.67h.16a6.36 6.36 0 0 0 2.9-1 11.92 11.92 0 0 0 2.88-2.38 16.79 16.79 0 0 0 2.34-3.36 19.28 19.28 0 0 0 1.55-3.92 15.83 15.83 0 0 0 .56-4.11 9.54 9.54 0 0 0-.56-3.42 4.72 4.72 0 0 0-1.55-2.16 3.73 3.73 0 0 0-2.22-.69ZM327.61 56a8.89 8.89 0 0 0-3.61-4.48c-1.44-.85-7.12-4.09-8.53-4.92a8.58 8.58 0 0 0-5.63-1 19.78 19.78 0 0 0-7.32 2.76 36.7 36.7 0 0 0-5.52 3.89 46.84 46.84 0 0 0-4.72 4.62 54.6 54.6 0 0 0-4.01 5.13 83.11 83.11 0 0 0-3.48 5.49l3.28 4.93a1.86 1.86 0 0 0 .66.72l8.46 4.86a.23.23 0 0 0 .1 0 1.23 1.23 0 0 0 .64.18 2.56 2.56 0 0 0 1.24-.4 5.63 5.63 0 0 0 1.62-1.65c.56-.81 1.27-1.74 2.06-2.79a38.57 38.57 0 0 1 2.9-3.26c.32-.31.66-.63 1-.93s.46-.37.69-.57c.41-.31.85-.63 1.32-.92s.74-.48 1.13-.7c2.24-1.29 4.05-1.57 5.42-.8s2 2.48 2 5.12a18.49 18.49 0 0 1-1.05 6.21 39 39 0 0 1-2.62 5.78c-1 1.85-2.14 3.67-3.32 5.44s-2.26 3.55-3.22 5.28a30 30 0 0 0-2.28 5.22 12.17 12.17 0 0 0-.55 5.31l.85 9.22 8.51-4.9 1.11-9.23a12.91 12.91 0 0 1 1.42-4.19c.77-1.47 1.68-3 2.72-4.66s2.16-3.41 3.33-5.28a48.22 48.22 0 0 0 3.21-6.12 44 44 0 0 0 2.44-7.17 35.75 35.75 0 0 0 1-8.44 20.69 20.69 0 0 0-1.25-7.75Z" style="fill:#455a64"/><path d="M317.38 71.37a18.49 18.49 0 0 1-1.05 6.21 39 39 0 0 1-2.62 5.78c-1 1.85-2.14 3.67-3.32 5.44s-2.26 3.55-3.22 5.28a30 30 0 0 0-2.28 5.22 12.17 12.17 0 0 0-.55 5.31l.85 9.22-8.54-4.93-.85-9.21a12.33 12.33 0 0 1 .54-5.32 30.13 30.13 0 0 1 2.29-5.23c1-1.73 2-3.47 3.22-5.26s2.3-3.6 3.33-5.46a39.73 39.73 0 0 0 2.61-5.76 19 19 0 0 0 1-4.91c.36-.24.74-.48 1.13-.7 2.24-1.29 4.05-1.57 5.42-.8s2.04 2.48 2.04 5.12ZM288.73 73.15l8.55 4.94-3.95-5.66-8.54-4.93 3.28 4.94a1.83 1.83 0 0 0 .66.71Z" style="fill:#37474f"/><path d="M293.33 72.43q1.67-2.79 3.48-5.43a54.38 54.38 0 0 1 4.05-5.16 45.7 45.7 0 0 1 4.72-4.61 36.19 36.19 0 0 1 5.42-3.89 20.34 20.34 0 0 1 7.33-2.77 8.69 8.69 0 0 1 5.62 1 8.93 8.93 0 0 1 3.66 4.43 20.67 20.67 0 0 1 1.28 7.83 34.6 34.6 0 0 1-1 8.44 43.32 43.32 0 0 1-2.43 7.19 48.77 48.77 0 0 1-3.21 6.11q-1.75 2.81-3.33 5.28c-1.02 1.64-1.92 3.15-2.69 4.65a12.82 12.82 0 0 0-1.41 4.21l-1.13 9.22-8.49 4.9-.86-9.21a12.35 12.35 0 0 1 .54-5.32 29.05 29.05 0 0 1 2.3-5.22c.95-1.73 2-3.49 3.21-5.27s2.29-3.6 3.33-5.46a38.09 38.09 0 0 0 2.6-5.76 18.3 18.3 0 0 0 1.06-6.21q0-4-2-5.12t-5.42.79a19.56 19.56 0 0 0-4.16 3.12 35.35 35.35 0 0 0-2.9 3.26q-1.22 1.57-2.07 2.79a5.51 5.51 0 0 1-1.62 1.65c-1.14.66-2 .49-2.56-.5Z" style="fill:#fafafa"/><path d="M319.86 51a7.43 7.43 0 0 1 3.87 1 8.43 8.43 0 0 1 3.42 4.23 20.38 20.38 0 0 1 1.24 7.64 34.68 34.68 0 0 1-.95 8.32 45.25 45.25 0 0 1-2.4 7.11 51.09 51.09 0 0 1-3.18 6c-1.17 1.87-2.28 3.64-3.33 5.28s-2 3.21-2.74 4.69a13.4 13.4 0 0 0-1.47 4.38l-1.09 9-7.61 4.35-.78-8.45a11.86 11.86 0 0 1 .52-5.11 29 29 0 0 1 2.25-5.13c.94-1.69 2-3.45 3.2-5.24s2.31-3.63 3.34-5.49a38.61 38.61 0 0 0 2.64-5.83 19.05 19.05 0 0 0 1.09-6.38c0-2.82-.77-4.69-2.3-5.56a4 4 0 0 0-1.95-.49 8.13 8.13 0 0 0-4 1.29 20.25 20.25 0 0 0-4.26 3.2 35.91 35.91 0 0 0-3 3.31c-.8 1-1.5 2-2.08 2.8a5.27 5.27 0 0 1-1.46 1.51 2.07 2.07 0 0 1-1 .32c-.23 0-.58-.06-.92-.67l-3.11-4.67c1-1.78 2.15-3.52 3.3-5.19a55.56 55.56 0 0 1 4-5.11 46.78 46.78 0 0 1 4.67-4.56 36.49 36.49 0 0 1 5.39-3.79 19.86 19.86 0 0 1 7.14-2.7 12 12 0 0 1 1.43-.1m0-.5a12.86 12.86 0 0 0-1.49.1 20.34 20.34 0 0 0-7.24 2.78 36.19 36.19 0 0 0-5.46 3.84 45.7 45.7 0 0 0-4.72 4.61 54.38 54.38 0 0 0-4.01 5.21q-1.86 2.68-3.48 5.48l3.28 4.94a1.51 1.51 0 0 0 1.34.89 2.5 2.5 0 0 0 1.22-.39 5.51 5.51 0 0 0 1.62-1.65q.85-1.22 2.07-2.79a35.35 35.35 0 0 1 2.9-3.26 19.56 19.56 0 0 1 4.16-3.12 7.7 7.7 0 0 1 3.71-1.22 3.39 3.39 0 0 1 1.71.43q2 1.15 2 5.12a18.3 18.3 0 0 1-1.06 6.21 38.09 38.09 0 0 1-2.6 5.76q-1.56 2.79-3.33 5.46a74.48 74.48 0 0 0-3.21 5.27 29.05 29.05 0 0 0-2.3 5.22 12.35 12.35 0 0 0-.54 5.32l.86 9.21 8.49-4.9 1.13-9.22a12.82 12.82 0 0 1 1.41-4.21c.77-1.46 1.67-3 2.72-4.65s2.16-3.41 3.33-5.28a48.77 48.77 0 0 0 3.21-6.11 43.32 43.32 0 0 0 2.43-7.19 34.6 34.6 0 0 0 1-8.44 20.67 20.67 0 0 0-1.27-7.88 8.93 8.93 0 0 0-3.61-4.48 8 8 0 0 0-4.13-1.05Z" style="fill:#455a64"/><path d="M115.13 323.22c-1.12 20.84.25 34.69-1.21 48.89-.31 3-3.26 24.86-2.79 31.14.71 9.43 14.53 9.51 16 4.06s6.59-30.28 6.5-33.72c4-15.93 13.69-49.83 13.69-49.83ZM207 372.43c-2.36-2.75-4.44-6.2-4.28-13.06.17-7.07.83-19.18 1.45-29.85l-28.74-.47c2.91 15.52 4.91 26.9 5.91 31.89 0 .11 0 1.54-.05 2.27-.33 5.85 8.49 8.3 13.71 12.5a102.23 102.23 0 0 0 14.21 9.9c3.85 2.1 11.89 2.71 13 .36-6.35-5.15-10.3-7.78-15.21-13.54Z" style="fill:#b16668"/><path d="M233 393.14c.34 0 .64 3.59-1.31 5-2.24 1.62-8.68 4.14-16.9 2.67s-12.56-4.12-15.71-6.92-7.57-6.75-11.27-7.74c-3.44-.91-7.92-2.88-9-4s-.62-5.58-.62-5.58Z" style="fill:#263238"/><path d="M181.08 359.66s-.61-.15-.89.89c-.33 1.23.78 4.07-.52 7.13-1.16 2.72-2 7.56-1.4 10.48.51 2.31 6.68 4.53 10.23 6a46.25 46.25 0 0 1 11.32 7.64c3.7 3.24 11.7 6.73 17.1 7.1 8.23.56 13.69-1.26 15.51-4 1.46-2.17 1-4.39-.74-6.28a20.8 20.8 0 0 0-5-3.69c-2.42-1.41-4.85-2.74-7.21-4.24q-4.64-3-9.09-6.16a16.13 16.13 0 0 1-3.18-2.75c-1.94-2.38-2.29-5.56-3-8.5a2.72 2.72 0 0 0-.5-1.2 3 3 0 0 0-1.92-.77 25.26 25.26 0 0 0-7.26.32c-1.86.33-3.93 1-4.68 2.64s0 3.37-.65 4.91c-.11.26-.3.54-.59.58-.92.14-1.36-2.49-1.75-3.16-.79-1.34-1.35-2.82-2.74-3.75a13.58 13.58 0 0 1-2.39-1.42 3.47 3.47 0 0 1-.65-1.77Z" style="fill:#37474f"/><path d="M224.25 383.3c-12 .35-15 8.55-15.87 13.57a25.56 25.56 0 0 0 8.54 2.07c8.23.52 14.08-1.68 16-4.88 2.14-3.74-.45-6.8-8.67-10.76Z" style="fill:#fafafa"/><path d="M208.89 383.81a.6.6 0 0 1-.36-.14.54.54 0 0 1 0-.78 14.59 14.59 0 0 1 11-3.43.56.56 0 0 1 .48.63.59.59 0 0 1-.67.46 13.49 13.49 0 0 0-10 3.08.58.58 0 0 1-.45.18ZM203.92 380.7a.56.56 0 0 1-.36-.14.54.54 0 0 1 0-.78 14.54 14.54 0 0 1 11-3.43.55.55 0 0 1 .48.64.57.57 0 0 1-.67.45 13.44 13.44 0 0 0-10 3.09.62.62 0 0 1-.45.17ZM199.36 377.22a.61.61 0 0 1-.36-.15.53.53 0 0 1 0-.78 14.54 14.54 0 0 1 11-3.42.55.55 0 0 1 .48.63.57.57 0 0 1-.67.45 13.48 13.48 0 0 0-10 3.09.69.69 0 0 1-.45.18ZM194.9 373.73a.54.54 0 0 1-.36-.14.53.53 0 0 1 0-.77c2.46-2.6 7.73-4.12 12-3.43a.55.55 0 0 1 .48.63.57.57 0 0 1-.67.45c-3.87-.61-8.79.77-11 3.08a.58.58 0 0 1-.45.18Z" style="fill:#f0f0f0"/><path d="M131.18 411.92c-.47 5.44-1.52 9.05-3.82 12.21s-6.55 4.09-10.81 3.09-9.71-3.61-10.85-8.34-1.79-8-.72-13Z" style="fill:#263238"/><path d="M113.92 372.11c-1.77.09-2.43 7.41-3.58 14.72-1.24 7.85-4 11.05-5.11 17.48-1.26 7.35.09 10.66 3 15.16s13.4 9 18.73 2.76c4.35-5.13 4.63-10.89 4.38-18.25-.26-7.61 1.29-12.61 1.76-18.38.45-5.5 2-11.37.48-12-.13.8-.26 1.83-.4 2.62a6.76 6.76 0 0 1-1 3.1c-.27.36-1.09.75-1.24.08a3.71 3.71 0 0 1 0-1.37c.3-2-.88-2.21-1.52-2.38-1.38-.37-6.85-1-8.17-1.14-1-.08-2-.12-3.07-.13h-1.8c-.6 0-1.11 0-1.37.49a2 2 0 0 0-.17.68l-.29 2.21a.82.82 0 0 1-.3.62.53.53 0 0 1-.58-.07c-.41-.34-.19-1.21-.17-1.66l.09-1.41c.05-.45.28-2.66.33-3.13Z" style="fill:#37474f"/><path d="M104.66 408.57c-.39 4.57.81 7.72 3.09 11.25 2.9 4.5 14.25 9.07 19.58 2.78 2.66-3.13 3.42-6.87 3.85-10.69-3.03-4.97-21.52-7.44-26.52-3.34Z" style="fill:#fafafa"/><path d="M127.48 403.84a.9.9 0 0 1-.22-.06c-.07 0-8.18-3.08-16.16-1.62a.65.65 0 0 1-.77-.44.57.57 0 0 1 .5-.67c8.44-1.53 16.71 1.59 17 1.72a.54.54 0 0 1 .29.76.66.66 0 0 1-.64.31ZM111.6 396.68a.68.68 0 0 1-.55-.39.55.55 0 0 1 .43-.71c8-2.19 16.67 1.43 17 1.59a.52.52 0 0 1 .26.77.72.72 0 0 1-.88.22c-.08 0-8.57-3.54-16-1.51a.67.67 0 0 1-.26.03ZM112 391.51a.66.66 0 0 1-.55-.39.55.55 0 0 1 .41-.71c8.75-2.55 17 1.39 17.32 1.55a.52.52 0 0 1 .21.78.72.72 0 0 1-.91.18c-.06 0-8.05-3.81-16.2-1.44a.89.89 0 0 1-.28.03Z" style="fill:#f0f0f0"/><path d="M112.5 386.42a.68.68 0 0 1-.5-.42.55.55 0 0 1 .4-.72c8.2-2.5 17.1 1.54 17.44 1.72a.52.52 0 0 1 .22.77.71.71 0 0 1-.9.2c-.07 0-8.7-3.94-16.32-1.62a.77.77 0 0 1-.34.07Z" style="fill:#ebebeb"/><path d="M136.54 163.83c-6.32 10.32-15.56 17.76-16 53.45-.49 36.24-.27 56.49-.5 60.85s-2.08 11.84-4.85 33.32-1.06 46.71-1.06 46.71 2.14 3.94 10.87 4.84c8 .81 13.12-1.76 13.12-1.76s11.48-41.72 14.77-54.63 13.4-62.76 13.4-62.76l4.61 34.66s-3 12.73 0 31.66 7.77 37.44 7.77 37.44 4 1.25 12.52 1.3a31.87 31.87 0 0 0 12.27-2.47s5-55.27 5.43-76.66-.2-80.23-7.69-105.94Z" style="fill:#455a64"/><path d="M154.7 284.54s-3.37-4.78-11.85-5.89-13 3.18-13 3.18 15.82-1.31 24.85 2.71Zm-25.84.44c10.92 2.22 15.92 1.89 20.94 1 0 .02-15.72-2.11-20.94-.98ZM187.16 275.68a113.72 113.72 0 0 1 21.58-.36c0-.81.06-1.59.08-2.34-7.33-.88-18.56 1.09-21.66 2.7ZM208.53 280.52c0-.74.06-1.46.09-2.17-1.72-.07-9-.31-16.31.11 4.41 1.19 14.33 1.93 16.22 2.06Z" style="fill:#b16668"/><path d="M123.56 291.06c2.41-10 3.8-30.22 4.07-46.79.09-5 .17-10.19.33-15.69.6-21.58 2.81-45.71 14.66-61.1l.92.63c-8 10.35-11.5 24.79-13.14 39.72 11.5-1.24 14.21-11.9 17.91-26.57.5-2 1-4.08 1.59-6.21l1.1.26c-.56 2.12-1.08 4.19-1.59 6.19-3.69 14.65-6.61 26.25-19.13 27.45-.68 6.57-1 13.23-1.19 19.66-.15 5.49-.24 10.67-.32 15.67-.28 16.64-1.67 36.94-4.1 47-.27 1.12-.57 2.3-.87 3.54-3.22 12.89-8 32.22-6.45 66a12.05 12.05 0 0 1-1.17-.7c-1.49-33.51 3.31-52.74 6.51-65.59.31-1.17.6-2.35.87-3.47ZM166.26 243.84l8-41s15.17-.77 23.74-8.94c-1.73 7.09-13.88 12.88-19.36 14l-1.52 7.22c.19 3.85.41 7.9.63 12.08 1.24 23 2.29 46.82 1.17 52.21-2.17 10.46-1.3 20.45.39 34 1.52 12.24 4 27.4 5.55 35.15l-1.14-.12c-1.54-7.67-3.62-21.19-5.69-34.94s-2.77-23.38-.22-34.36c1.21-5.22 0-30-1.19-51.9q-.21-4-.42-7.79l-5.35 25.42.07 33.59Z" style="fill:#37474f"/><path d="M263.37 127.09c-3.53 2.07-4.08 4-7.94 11.74-4.22 8.51-9.4 13.67-11.89 14.91s-9.21 0-20.44-6c-13.65-7.29-27-15.61-27-15.61L188.78 100c2.86.54 7.15.89 12.41 5 10.85 8.46 35.71 26 35.71 26s2.09-1.8 4.43-3.85 4.54-3.32 4.26-4.75Z" style="fill:#b16668"/><path d="M236.9 131c-3.39 2.79-6 6.32-6.36 10.42-.9-3.64 1.27-9.37 4.72-11.6Z" style="fill:#9a4a4d"/><path d="M254.54 128.25c-5.83-1.35-8-4.62-9.61-6.71s-3.19-3.76-4.88-4.12-4.89-.9-7-2.11a2.39 2.39 0 0 1 .43-4.51c2.2-.7 4.12.4 6.39 1.12s9.53 1.08 11.65-2.92 2.18-8 2.42-11.54-.08-6.61 2.2-7.1 2.26 1.84 2.3 4.58-.24 8.31-.1 9.58 1.14 2.18 1.85.88a26.64 26.64 0 0 0 1.81-6.49c.63-3 1.28-6 3.44-5.61s1.72 2.91 1.34 5.15-1.44 6.8-1.68 8 0 2.86 1.4.92a38.46 38.46 0 0 0 3.1-5.37c.91-1.69 1.73-3.81 3.56-3s1.75 3 .76 5.06a57.25 57.25 0 0 1-4.11 6.49c-1.06 1.56-2.2 4.4.26 2.94s3.42-2.29 4.55-2.81 2.84.69 1.63 2.48-3.85 3.33-4.57 4.38A22.59 22.59 0 0 1 269 121c-1 1-2 3.58-4.14 5.08s-4.48 3.51-10.32 2.17Z" style="fill:#b16668"/><path d="M255.38 96.8c-.58-1.52-.15-2.33.81-2.3s2.23-.43 2.18-1.76c.05.66.06 1.4.07 2.18 0 2-.1 5.37-.13 7.61.05-3.2-2.31-4.2-2.93-5.73ZM265.63 108.25c-.31.21-1.55.52-1.62-1.32s-.12-4.7-.78-6.32a4.9 4.9 0 0 1-.21-3.44c.18-.43.55.14 1.75.31a2.17 2.17 0 0 0 2.34-1.74 16.44 16.44 0 0 1-.31 2.71c-.38 2.25-1.44 6.8-1.68 8-.19.92-.12 2.05.51 1.8ZM269.57 107.86c-.05-.47-1.25-1.48-.93-1.91s.93 0 1.18-.35.09-1.94.27-2.85.62-1 1.44-.15 2.7.15 3-.53a7 7 0 0 1-.65 2.05 57.25 57.25 0 0 1-4.11 6.49c-.72 1.07-1.48 2.72-1.11 3.2-.88-.48-1.46-2.56-.83-3.31s1.79-2.17 1.74-2.64Z" style="fill:#9a4a4d"/><path d="M235.1 116.2c3.3.86 5.36-.19 7.69 1s5.42 4.36 9.22 6.76 8 2.85 9.76 2.12 6.51-4.6 4.35-6.32-5-4.52-5.69-6.58c2 2.8 5.68 5.89 7 6.34a1.69 1.69 0 0 0 2.33-1.29c0-.81-.78-1.66-.51-1.92s1 .09 1.52-.14 1.88-1.29 1.85-2.23.41-1.8 1-1.3 1.57 1.29 2.42.93c-1.29 1.64-3.63 3-4.3 4A22.59 22.59 0 0 1 269 121c-1 1-2 3.58-4.14 5.08s-4.5 3.47-10.34 2.13-8-4.62-9.61-6.71-3.19-3.76-4.88-4.12a43.25 43.25 0 0 1-4.93-1.18Z" style="fill:#9a4a4d"/><path d="M252.32 113.35a3.9 3.9 0 0 1 1.07.83c.36.35.72.69 1.05 1.06a15.38 15.38 0 0 1 1.83 2.57 14.92 14.92 0 0 1 1.91 5.88 12.92 12.92 0 0 1-.16 3.62c-.09.43-.83.24-.75-.2a13.21 13.21 0 0 0-1-7.74 17.13 17.13 0 0 0-1.78-3.08c-.34-.46-.69-.93-1-1.38a9.45 9.45 0 0 1-1.17-1.44s-.06-.14 0-.12Z" style="fill:#9a4a4d"/><path d="M125 183.81c3.93-12.2 12.4-20.65 11.78-26.59-.94-9.13-7.74-21.34-7.9-27.64-.56-22.39 5.77-26.37 12-28.12s19.37-4.06 19.37-4.06c3.76-.06 18.77.65 18.77.65l9.83 2a67.78 67.78 0 0 1 13.69 14.13c7.08 9.57 9.59 24.89-1.05 33.09a83.5 83.5 0 0 0-.56 8.75c.33 5.68 4 18.72 4.75 30.13-16.46 14.05-62.85 12.85-80.68-2.34Z" style="fill:#bdb3d0"/><g style="opacity:.4"><path d="M125 183.81c3.93-12.2 12.4-20.65 11.78-26.59-.94-9.13-7.74-21.34-7.9-27.64-.56-22.39 5.77-26.37 12-28.12s19.37-4.06 19.37-4.06c3.76-.06 18.77.65 18.77.65l9.83 2a67.78 67.78 0 0 1 13.69 14.13c7.08 9.57 9.59 24.89-1.05 33.09a83.5 83.5 0 0 0-.56 8.75c.33 5.68 4 18.72 4.75 30.13-16.46 14.05-62.85 12.85-80.68-2.34Z" style="fill:#fff"/></g><path d="M101.41 165.68c-2-4.3 2.79-15.2 7-23.76 4.9-10 11.58-24.83 14.89-29.92 2.74-4.23 6.7-7.81 17.53-10.37a30.75 30.75 0 0 1 1.17 28.94l-18.7 31.64Z" style="fill:#b16668"/><path d="M109 155.32c4.11-3.33 8.76-6 20.72-4l-6.42 10.86-15.81 2.5Z" style="fill:#9a4a4d"/><path d="M158.32 167.62c0 .22-6.47 2.07-13 3.45s-19.74 4.3-30.81 2.52c-5.1-.82-11.21-4-13.12-7.91-1.09-2.24 2-9.37 11.41-11.68s15-.49 22.91.11c11.1.83 13.24.87 13.69-2.16Z" style="fill:#b16668"/><path d="M139.67 171.8c-.1.17-.21.33-.32.49 2.33-.44 4.37-.88 6-1.22 6.51-1.38 13-3.23 13-3.45L149.42 152a13.74 13.74 0 0 1-.76 4.21 32 32 0 0 1-2.67 5.4c-1.99 3.53-3.94 6.3-6.32 10.19Z" style="fill:#9a4a4d"/><path d="M162 159.12a6 6 0 0 1-.25-.58c-.66-1.7-.7-3.59-1.37-5.28a12.54 12.54 0 0 0-4.82-5.32 17.92 17.92 0 0 1-3.62-2.91 13.55 13.55 0 0 0-2.81-2.9 8.67 8.67 0 0 0-3.9-1.41 3.48 3.48 0 0 0-2 .28c-.73.4-.53.8-.18 1.4s.74 1.21 1.14 1.81a45.7 45.7 0 0 0 3.11 4.21 11.9 11.9 0 0 1 2.34 4 8.49 8.49 0 0 1-.18 4.44 23.7 23.7 0 0 1-1.7 4.62c-.57 1.16-1.24 2.27-1.9 3.38-2.13 3.55-4.26 7.09-6.47 10.59a1.18 1.18 0 0 0-.26.9c.17.65 1.29.76 1.84.76a3.85 3.85 0 0 0 2.32-.94l.16-.13c2.22-1.89 7.65-10 7.65-10s-1.92 6.44-3.47 10.77-2.87 7.59-3.16 8.53 3 1.61 4.9-1.33 5.52-12.55 5.52-12.55.53 5.36.87 8.84.58 8.12.81 9.34 2.84.43 3.53-2.28.26-10.31.26-10.31 2 5.83 2.54 6.53 2.71 1.32 3.25-1.76c.37-2.07-.28-3.78-1.78-8.76-.28-.95-.52-1.91-.71-2.89a10.83 10.83 0 0 1 0-2.9 14.35 14.35 0 0 0-.77-6.37c-.3-.56-.64-1.16-.89-1.78Z" style="fill:#b16668"/><path d="M152.86 157.4c2.47 2.78 6.15 2.76 6.92 2.18-1.18 2.05-6 1.36-6.92-2.18ZM165.46 183.52c-.47.27-1.4 0-1.89-1s-1.43-4-1.85-5.45-1.82-6.31-1.82-6.31l.41 6.37s2 5.83 2.54 6.53a1.66 1.66 0 0 0 2.61-.14Z" style="fill:#9a4a4d"/><path d="m145.86 34.51-.25.2c-2.29 1.89-3.84 3.82-6.82 4.53s-5.78 1.66-7.94 3.82A9.4 9.4 0 0 0 128 50c.08 1.15.67 1.54 1 2.51a4.86 4.86 0 0 1-.64 3.81 17.28 17.28 0 0 0-2 4.11c-.57 2.5.79 5.07 2.55 7 1.06 1.12 2.32 2.18 2.74 3.67.56 2-.53 4-.47 6.06.09 3.56 3.72 6.17 7.26 6.55 2 .22 4.29 0 5.85 1.3 1.17 1 1.6 2.62 2.68 3.71a7 7 0 0 0 4 1.7 14.87 14.87 0 0 0 7.34-.62 10 10 0 0 0 5.5-4.76c1-2 1.17-4.38 2.24-6.37 2-3.75 6.75-5.33 9-8.94a8.57 8.57 0 0 0 .68-7.57c-.78-2-2.29-3.64-2.62-5.72-.42-2.67 1.21-5.22 1.51-7.9a8.27 8.27 0 0 0-3.1-7.32c-2-1.55-4.62-2.09-6.7-3.54-1.26-.88-2.28-2.07-3.48-3a12.9 12.9 0 0 0-15.48-.17Z" style="fill:#263238"/><path d="M150 37.88a11.21 11.21 0 0 0-4.25 7.89 6.12 6.12 0 0 0 .31 2.85 5.34 5.34 0 0 0 5.34 3 9.82 9.82 0 0 0 5.79-2.79 13.62 13.62 0 0 0 3.81-5.66c.45-1.33 1.13-3.79.5-5.17-1.75-3.93-9.04-2-11.5-.12Z" style="fill:#bdb3d0"/><path d="M155 36.27a12.85 12.85 0 0 1 7.34-3.12c2.6-.22 4.13.05 6.67-.54s4.62-1.84 7-2.43c5.31-1.31 11.1.95 14.85 4.93 1.66 1.76 3.13 3.93 5.43 4.66a24.54 24.54 0 0 0 3.54.51c3.72.6 6.78 3.56 8.25 7a19.46 19.46 0 0 1 1.31 8.72c-.14 2.65-1.62 4.9-2 7.43s1.77 5.35 2.1 8c.35 2.81-.6 6-3.11 7.35a10.88 10.88 0 0 0-2-7.33 14.18 14.18 0 0 1-3.88 10.49 11.77 11.77 0 0 1-10.5 3.31 32.15 32.15 0 0 0-4.37-1c-2.95-.18-5.59 1.65-8.07 3.25-3.07 2-6 2.9-9.63 2s-7.64-1.83-10.67-4.15a43.56 43.56 0 0 1-8.2-7.79c-4.9-6.38-5.69-14.1-4.18-21.8a23.2 23.2 0 0 1 2.74-7.8 14.74 14.74 0 0 1 2.48-3c.21-.18 2.14-1.5 2.16-.94a10.66 10.66 0 0 1 2.74-7.75Z" style="fill:#263238"/><path d="M150.61 64.2c3.24-.79 5.71.69 7 4.14 1.09 3 4.25 2.39 4.08-2.1 7.78-5.74.23-11 6.76-16.66 4.08-3.54 11.57-1.52 14.32 1.36a7.52 7.52 0 0 1 9.08-2.38c3.07 1.52 4.87 3.7 5.85 8.34 1 4.83-.74 5.5-.37 8.87A38.93 38.93 0 0 1 198 73c-.3 11-4.38 16.87-8.08 19a18.86 18.86 0 0 1-11.48 1.94l-.27 6.14s6.24 10.94 5.22 18.66a94 94 0 0 1-18.33-9.74c-9.2-6.34-9.53-10.31-9.53-10.31l1.67-20c-.93 1.66-5.52 3.2-8.73-.18-4.07-4.24-3.58-12.91 2.14-14.31Z" style="fill:#b16668"/><path d="m195.84 63.28-4.73-2.5a2.57 2.57 0 0 1 3.54-1.18 2.81 2.81 0 0 1 1.19 3.68ZM177.77 60.43 173 62.77a2.57 2.57 0 0 1 1.14-3.55 2.82 2.82 0 0 1 3.63 1.21Z" style="fill:#263238"/><path d="m177 78.07 7.11 3.29a3.93 3.93 0 0 1-5.53 1.73c-1.91-.98-2.4-3.01-1.58-5.02Z" style="fill:#9a4a4d"/><path d="M180.7 83.57a4.11 4.11 0 0 0-3.65-4.13h-.38a3.44 3.44 0 0 0 1.93 3.65 4.47 4.47 0 0 0 2.1.48Z" style="fill:#ffa8a7"/><path d="m184.56 63.89.6 13.79 7.02-1.93-7.62-11.86z" style="fill:#9a4a4d"/><path d="M179.68 66.59a2.24 2.24 0 1 1-2.08-2.39 2.23 2.23 0 0 1 2.08 2.39ZM195.05 66.77a2.24 2.24 0 1 1-2.05-2.38 2.24 2.24 0 0 1 2.05 2.38Z" style="fill:#263238"/><path d="M178.48 93.88c-7-1.89-14.79-3.4-18.41-13.75a18.1 18.1 0 0 0 6.66 12 28.79 28.79 0 0 0 11.41 5.16Z" style="fill:#9a4a4d"/></svg>