<svg xmlns="http://www.w3.org/2000/svg" viewBox="0 0 750 500"><path d="M101.3 104.56c0 2.26-1.45 4.17-3.78 4.17A3.35 3.35 0 0 1 94 105.3a4.29 4.29 0 0 1 2.27-3.59 1.63 1.63 0 0 0-1.4-.65c-5.56 0-9.22 7.54-9.22 12.46v14c0 4.3 2.65 5.44 7 5.44v1.39c-2-.07-6.08-.26-10.19-.26-3 0-6.31.19-7.83.26V133c3.65 0 5-1.07 5-4.76V107.5c0-4-1.2-5.86-5-5.86v-1.39c1.39.13 2.78.2 4.11.2a22 22 0 0 0 6.89-.91v8.29c1.39-3.85 5-8.48 9.61-8.48 3.6 0 6.06 2.36 6.06 5.21ZM591.47 55.16a3.07 3.07 0 0 0 1.62.68c.61 0 .86-.72 1-2.09h1.09c-.14 1.67-.23 3.71-.23 9.7h-1.09c-.35-4.52-2.53-9.15-7.81-9.15-3.39 0-5.8 2.26-5.8 5.53 0 4.32 3.71 6 8 8.71 4.94 3.09 8.57 5.6 8.57 10.71 0 6-4.58 9-10.11 9a11.14 11.14 0 0 1-6.5-1.76 3.26 3.26 0 0 0-1.62-.68c-.61 0-.86.72-1 2.09h-1.09c.14-2 .18-4.69.18-11.4h1.1c.39 5.76 2.57 10.8 8.66 10.8 3.09 0 6.18-1.86 6.18-6.34 0-3.86-3-6-7.41-8.69s-8.48-5.29-8.48-10.66c0-5.62 4.25-8.24 8.94-8.24a9 9 0 0 1 5.8 1.79ZM616.85 134.14c1.51 1.53 1.91 3.29 1.91 6.66V154c0 1.53.37 2.25 1.46 2.25a3.23 3.23 0 0 0 2.14-1l.53.81a6.34 6.34 0 0 1-4.34 1.74c-3.32 0-4.09-2-4.09-4.22a8.3 8.3 0 0 1-7.31 4.22c-3.19 0-6-1.6-6-5.31s2.9-5.44 7.66-7.44c3.18-1.32 5.69-2.13 5.69-4v-2.95c0-4-2-4.78-4.41-4.78-1.63 0-3.63.32-4.72 1.69a2.94 2.94 0 0 1 2.23 2.91 2.49 2.49 0 0 1-2.78 2.58c-1.63 0-2.58-1.24-2.58-2.95a4.21 4.21 0 0 1 2.23-3.39 12.18 12.18 0 0 1 6.66-1.79c2.63-.02 4.63.63 5.72 1.77Zm-2.39 8.86c-.51.77-1.56 1.26-4.55 2.72-2.09 1-4.62 2.37-4.62 6 0 2.86 1.62 4.18 3.81 4.18 1.9 0 3.76-1 5.36-3.6ZM341.51 58.93a9.3 9.3 0 0 1-8.9 6.39c-6.89 0-10.93-5-10.93-12.33 0-8.36 4.22-13.49 10.75-13.49 5.57 0 8.89 3.27 8.89 10.45h-14.86a24.18 24.18 0 0 0-.16 3c0 6.52 3.62 10.33 7.27 10.33 2.85 0 5.34-1.2 7-4.76ZM326.39 49h10.36c.16-4.64-1.33-8.64-4.51-8.64-2.83.04-5.34 2.69-5.85 8.64ZM147 268.3l1.32 4.74s-28.22-2.14-40.52 10.43a3.39 3.39 0 0 1-2 2.51l-6 2.61a3.41 3.41 0 0 1-3.76-.82s-17-2-29.42 11l-4.87 4.53-8.5-62.83 66.22-37.19Z" style="fill:#e0e0e0"/><path d="m148.75 260.43 2.57 8.47s-29.4-6.46-48.91 16.85l-7.2-42.34s48.79 9.12 53.54 17.02Z" style="fill:#ebebeb"/><path d="M133.12 198.23s-36.95-12.79-48.64 26.2l17.93 61.32s17.76-36.27 49.68-24.43Z" style="fill:#f5f5f5"/><path d="M102.41 285.75s-30.75-7.69-43.34 15.55l-13.18-57.06 39.21-17.69Z" style="fill:#ebebeb"/><path d="M84.53 224.47s-15.3-16.65-33.23-8.55l-11.36 5.59 12.2 57.69s28-13.08 50.32 6.59Z" style="fill:#f5f5f5"/><path d="M102.41 285.75a16.86 16.86 0 0 0-.57-2.44c-.48-1.69-1.1-3.9-1.84-6.57-1.63-5.67-3.82-13.25-6.23-21.63s-4.55-16-6.17-21.64c-.74-2.67-1.36-4.88-1.84-6.57a15 15 0 0 0-.76-2.38 13.82 13.82 0 0 0 .46 2.46c.33 1.58.89 3.84 1.59 6.64 1.41 5.59 3.5 13.27 5.94 21.72s4.74 16.07 6.46 21.57c.84 2.64 1.55 4.82 2.08 6.5a13.3 13.3 0 0 0 .88 2.34ZM49.33 228.56c.08.14 1.81-.85 4.85-1.83a31.29 31.29 0 0 1 5.44-1.23 36.18 36.18 0 0 1 6.82-.19 35.63 35.63 0 0 1 6.7 1.24 32.07 32.07 0 0 1 5.19 2c2.85 1.44 4.41 2.69 4.5 2.57s-.33-.38-1-.95a11.24 11.24 0 0 0-1.33-1 18.74 18.74 0 0 0-1.87-1.14 27.69 27.69 0 0 0-5.24-2.26 30.46 30.46 0 0 0-13.85-1.08 29 29 0 0 0-5.54 1.49 20.21 20.21 0 0 0-2 .85 11.41 11.41 0 0 0-1.46.75 5.35 5.35 0 0 0-1.21.78ZM49.89 235.38c.07.14 1.81-.86 4.84-1.84a32.3 32.3 0 0 1 5.44-1.22 35.35 35.35 0 0 1 6.82-.2 35.57 35.57 0 0 1 6.71 1.25 31.39 31.39 0 0 1 5.18 2c2.85 1.43 4.41 2.69 4.51 2.56a5.09 5.09 0 0 0-1-.95 12.55 12.55 0 0 0-1.33-1 17.61 17.61 0 0 0-1.87-1.15 28.35 28.35 0 0 0-5.24-2.26 33 33 0 0 0-6.86-1.34 33.74 33.74 0 0 0-7 .26 28.18 28.18 0 0 0-5.55 1.51 18.18 18.18 0 0 0-2 .84 10.76 10.76 0 0 0-1.46.76c-.81.46-1.22.73-1.19.78ZM51.81 242.38c.07.14 1.81-.86 4.84-1.84a32.46 32.46 0 0 1 5.44-1.23 36.2 36.2 0 0 1 6.82-.19 35.57 35.57 0 0 1 6.71 1.25 31.39 31.39 0 0 1 5.18 2c2.85 1.43 4.41 2.69 4.51 2.56a5.09 5.09 0 0 0-1-.95 12.84 12.84 0 0 0-1.33-1 19.49 19.49 0 0 0-1.87-1.14 28.53 28.53 0 0 0-5.23-2.26A30.49 30.49 0 0 0 62 238.57a28.18 28.18 0 0 0-5.54 1.43 18.18 18.18 0 0 0-2 .84 10.76 10.76 0 0 0-1.46.76c-.8.45-1.22.73-1.19.78ZM105.75 267.33c.15.05.81-2.11 2.68-5.17a29 29 0 0 1 22.9-14c3.58-.26 5.81.13 5.82 0a5.4 5.4 0 0 0-1.54-.35 24.42 24.42 0 0 0-4.31-.21 27.84 27.84 0 0 0-23.37 14.29 23.15 23.15 0 0 0-1.78 3.93 5.88 5.88 0 0 0-.4 1.51Z" style="fill:#e0e0e0"/><path d="M103.63 259.39c.15.06.81-2.1 2.68-5.17a29 29 0 0 1 22.9-14c3.58-.26 5.81.14 5.83 0a6 6 0 0 0-1.55-.34 24.42 24.42 0 0 0-4.31-.21 27.86 27.86 0 0 0-23.37 14.28 24.36 24.36 0 0 0-1.78 3.93 6 6 0 0 0-.4 1.51Z" style="fill:#e0e0e0"/><path d="M101.52 251.46c.14 0 .8-2.11 2.67-5.18a29 29 0 0 1 22.91-14c3.57-.26 5.8.13 5.82 0a5.25 5.25 0 0 0-1.55-.35 24.36 24.36 0 0 0-4.31-.21A27.86 27.86 0 0 0 103.69 246a24.76 24.76 0 0 0-1.78 3.93 5.21 5.21 0 0 0-.39 1.53Z" style="fill:#e0e0e0"/><path d="M99.4 243.52c.14 0 .8-2.11 2.67-5.17a29 29 0 0 1 22.91-14c3.58-.26 5.8.13 5.82 0a5.5 5.5 0 0 0-1.55-.34 23.43 23.43 0 0 0-4.31-.21 27.86 27.86 0 0 0-23.37 14.28 25.28 25.28 0 0 0-1.78 3.92 5.12 5.12 0 0 0-.39 1.52Z" style="fill:#e0e0e0"/><path d="M97.28 235.58c.14.06.8-2.1 2.67-5.17a29 29 0 0 1 22.91-14c3.58-.26 5.8.14 5.82 0a5.13 5.13 0 0 0-1.55-.35 24.29 24.29 0 0 0-4.3-.21 27.86 27.86 0 0 0-23.38 14.28 25.71 25.71 0 0 0-1.78 3.93 5.27 5.27 0 0 0-.39 1.52Z" style="fill:#e0e0e0"/><path d="M95.16 227.65c.14 0 .81-2.11 2.67-5.17a29 29 0 0 1 22.91-14c3.58-.26 5.8.13 5.82 0a5.37 5.37 0 0 0-1.55-.34 23.2 23.2 0 0 0-4.3-.22 27.84 27.84 0 0 0-23.38 14.29 23.78 23.78 0 0 0-1.77 3.93 5 5 0 0 0-.4 1.51Z" style="fill:#e0e0e0"/><path d="m83.66 252.13 5.48 17.07s-14.37-6.27-29.93-1.93l-4.46-17.86s17.09-6.66 28.91 2.72M604.1 360.29h20.69v-49.45h-20.36a4.87 4.87 0 0 0-4.86 4.86v40.07a4.52 4.52 0 0 0 4.53 4.52Z" style="fill:#ebebeb"/><path d="M604.1 360.29h-.38a4.08 4.08 0 0 1-1.09-.2 4.57 4.57 0 0 1-2.94-2.93 10 10 0 0 1-.24-3.06V341.58c0-6.58 0-14.4-.06-23.09v-3.32a5.2 5.2 0 0 1 1.51-3.13 5 5 0 0 1 3.24-1.44H625.09v.26c0 19.4-.06 36.84-.08 49.45v.19h-.18l-15.16-.08-4.1-.05H604.14a2.45 2.45 0 0 1 .36 0h1.07l4.1-.05 15.16-.08-.18.18c0-12.61-.05-30.05-.08-49.45l.26.26H604.14a4.61 4.61 0 0 0-2.93 1.29 4.71 4.71 0 0 0-1.37 2.83c-.05 1.06 0 2.2 0 3.27 0 8.69 0 16.51-.06 23.09V354.23a10.17 10.17 0 0 0 .19 3 4.5 4.5 0 0 0 2.78 2.89 6.51 6.51 0 0 0 1.35.17Z" style="fill:#e0e0e0"/><path d="M618.58 310.63h11.33v-18.84h-1.64a3.57 3.57 0 0 1 0-7.13h34.28a3.57 3.57 0 1 1 0 7.13h-1.63v18.84l20.59.11a3.48 3.48 0 0 1 3.48 3.48v42.7a3.48 3.48 0 0 1-3.48 3.48l-62.93-.11a3.48 3.48 0 0 1-3.48-3.48v-42.7a3.48 3.48 0 0 1 3.48-3.48Z" style="fill:#f5f5f5"/><path d="M618.58 310.63a6.74 6.74 0 0 0-.76.12 3.44 3.44 0 0 0-1.87 1.17 3.54 3.54 0 0 0-.71 1.47 11.68 11.68 0 0 0-.06 2v5c0 7.6 0 18.57.08 32.12v3.88a4.35 4.35 0 0 0 .12 1.26 3.31 3.31 0 0 0 1.52 2 3.4 3.4 0 0 0 1.21.41 12 12 0 0 0 1.35 0H681a3.43 3.43 0 0 0 3-1.2 3.1 3.1 0 0 0 .67-1.54 17.45 17.45 0 0 0 0-1.8V314.6a4.08 4.08 0 0 0-.11-1.22 3.23 3.23 0 0 0-1.38-1.88 3.39 3.39 0 0 0-1.1-.44 6.08 6.08 0 0 0-1.23-.07l-20-.11h-.25v-19.32h.24a19.74 19.74 0 0 0 2.2-.05 3.31 3.31 0 0 0 1.81-.94 3.34 3.34 0 0 0 .62-3.79 3.39 3.39 0 0 0-3.31-1.88H627.9a3.39 3.39 0 0 0-.84 6.54 8.46 8.46 0 0 0 2.85.23h.16v19.09h-.1l-8.42-.05h-2.91 2.91l8.42-.05-.1.1q0-7.23-.06-18.84l.16.16h-1.45a4 4 0 0 1-1.51-.24 3.74 3.74 0 0 1 .91-7.21c4.5-.05 9.24 0 14.28-.05h20.1a3.81 3.81 0 0 1 3 6.46 3.82 3.82 0 0 1-2.1.96 19.57 19.57 0 0 1-2.28.06l.24-.24v18.84l-.25-.25 20 .1a6.75 6.75 0 0 1 1.33.07 3.75 3.75 0 0 1 2.88 2.7 4.52 4.52 0 0 1 .13 1.35v41a17.12 17.12 0 0 1 0 1.88 3.77 3.77 0 0 1-.78 1.78 3.86 3.86 0 0 1-1.57 1.14 4.57 4.57 0 0 1-1.88.25h-24.54l-25.48-.15h-11.54a13.38 13.38 0 0 1-1.4-.05 3.6 3.6 0 0 1-1.36-.46 3.75 3.75 0 0 1-1.69-2.2 4.58 4.58 0 0 1-.13-1.36v-3.88c0-13.55.06-24.52.08-32.12v-5a11 11 0 0 1 .1-2 3.52 3.52 0 0 1 .75-1.51 3.41 3.41 0 0 1 1.94-1.15 2.8 2.8 0 0 1 .83-.17Z" style="fill:#e0e0e0"/><path d="m623.31 356 54 .11a4.32 4.32 0 0 0 4.31-4.32v-12l-62.57-.1v12a4.31 4.31 0 0 0 4.26 4.31Z" style="fill:#e0e0e0"/><path d="M619 318c.14 0 .26 5.22.26 11.66s-.12 11.67-.26 11.67-.26-5.22-.26-11.67.1-11.66.26-11.66ZM681.42 319.36c.15 0 .26 5.16.26 11.51s-.11 11.51-.26 11.51-.26-5.15-.26-11.51.12-11.51.26-11.51Z" style="fill:#e0e0e0"/><path d="M602.68 339.7h4.78a4.72 4.72 0 0 1 4.72 4.72v11.66h-9.5V339.7Z" style="fill:#e0e0e0" transform="rotate(180 607.425 347.89)"/><path d="M682.46 91.79c-2.23-.89-14 4.59-24 27.12l7.37 13.42a40.28 40.28 0 0 1-9.06-9.41 1.73 1.73 0 0 1-.1.24c-10.34 26.11-24 77.55-24.8 95.3-.42 10 1.63 20.33 3.49 27.47 1.5 5.7 4 14.66 8.88 17.95l1.65 1.68 9.07-.28s10.35-3.51 19.63-20.14c17.39-31.15 19.49-55 19.72-67.46l-5.08 1.92 5.54-6s1.08-13.81 1.66-28.5l-18 1.76a78.55 78.55 0 0 1 18.24-7.46c.28-9.8.25-19.24-.57-24.51-2.23-14.27-11.26-22.16-13.64-23.1Z" style="fill:#ebebeb"/><path d="M656.73 134a6.65 6.65 0 0 1 .53 1.13c.35.84.78 1.89 1.3 3.13 1.11 2.64 2.69 6.27 4.58 10.2s3.75 7.42 5.13 9.93l1.64 3a5.9 5.9 0 0 1 .55 1.12 5.56 5.56 0 0 1-.73-1 82.68 82.68 0 0 1-1.78-2.9c-1.46-2.46-3.37-5.94-5.28-9.88s-3.43-7.61-4.45-10.29c-.51-1.34-.9-2.43-1.15-3.19a5.35 5.35 0 0 1-.34-1.25ZM661.15 153.81a33.15 33.15 0 0 1 2.67 5.13 30.84 30.84 0 0 1 2.2 5.34 32.73 32.73 0 0 1-2.67-5.12 31.73 31.73 0 0 1-2.2-5.35ZM664.37 178.64a5.85 5.85 0 0 1 1.12-.47c.73-.27 1.79-.66 3.09-1.17a101.79 101.79 0 0 0 9.91-4.48 103.58 103.58 0 0 0 9.36-5.54c1.16-.78 2.09-1.41 2.73-1.86a6.61 6.61 0 0 1 1-.65 5.09 5.09 0 0 1-.91.81c-.6.5-1.51 1.19-2.64 2a79.77 79.77 0 0 1-19.35 10.07c-1.32.46-2.4.8-3.16 1a4.61 4.61 0 0 1-1.15.29ZM690.59 127.09a14.06 14.06 0 0 1-2.15 2c-1.4 1.18-3.39 2.74-5.69 4.32a67.75 67.75 0 0 1-6.1 3.73 14.25 14.25 0 0 1-2.67 1.27 20.6 20.6 0 0 1 2.49-1.59c1.56-.94 3.69-2.27 6-3.84s4.31-3.07 5.76-4.18a20.7 20.7 0 0 1 2.36-1.71ZM684.55 126.31a21 21 0 0 1-4.25 4.69 21.41 21.41 0 0 1-5.17 3.66c-.08-.13 2.23-1.74 4.82-4.05s4.48-4.4 4.6-4.3Z" style="fill:#e0e0e0"/><path d="M647.13 246.67c4.51-19.93 7.7-41.11 12.15-61 4.36-19.45 16.55-69.26 21.62-89.89a.62.62 0 0 1 .71-.46.62.62 0 0 1 .5.71c-1.49 10-3.2 20-4.9 30-5.62 34.81-15.14 87.42-19.82 122.3-2.15 15.18-4.94 35.82-8.16 50.82l-11.79-1.6c3.56-15.45 6.25-35.15 9.69-50.88Z" style="fill:#e0e0e0"/><path d="M647.13 246.67s0 .31-.16.89-.3 1.46-.52 2.6c-.46 2.28-1.11 5.66-1.9 10l-2.82 16.05c-1.11 6.28-2.37 13.46-4.13 21.37l-.14-.21 11.8 1.59-.21.15c4-18.76 6.68-41.39 10.32-66.38s8.45-52.32 13.31-81c2.47-14.5 4.76-28.67 7-42.36.56-3.42 1.12-6.81 1.66-10.17l.42-2.51.1-.63a.39.39 0 0 0-.08-.39.36.36 0 0 0-.61.11q-.6 2.43-1.18 4.86l-4.58 19c-6 24.78-11.37 47.09-15.89 65.83-2.12 9.4-3.74 18-5.17 25.49s-2.68 14-3.69 19.29-1.92 9.38-2.53 12.15q-.48 2.07-.72 3.15c-.17.7-.27 1.06-.27 1.06s.07-.36.22-1.07.37-1.78.66-3.16c.58-2.78 1.42-6.88 2.44-12.17s2.2-11.78 3.6-19.31 3-16.1 5.1-25.51c4.49-18.75 9.84-41.07 15.78-65.86q2.24-9.28 4.57-19l1.19-4.92a.87.87 0 0 1 1.46-.26.88.88 0 0 1 .19.79l-.1.63c-.13.84-.27 1.67-.41 2.51-.54 3.36-1.1 6.76-1.65 10.18-2.23 13.69-4.52 27.87-7 42.37-4.85 28.69-9.58 56-13.34 81s-6.44 47.61-10.44 66.38v.17h-.17l-11.79-1.62h-.19v-.19c1.78-7.88 3.06-15.06 4.2-21.33s2.1-11.65 2.9-16 1.5-7.76 2-10l.57-2.59c.12-.65.2-.98.2-.98Z" style="fill:#e0e0e0"/><path d="M642.72 188a20.76 20.76 0 0 1 1.84 2.45c1.1 1.53 2.64 3.63 4.44 5.87s3.53 4.19 4.79 5.59a21.11 21.11 0 0 1 2 2.32 15.21 15.21 0 0 1-2.27-2.06 73.22 73.22 0 0 1-4.92-5.53c-1.81-2.25-3.32-4.39-4.35-6a16.06 16.06 0 0 1-1.53-2.64Z" style="fill:#e0e0e0"/><path d="M631.05 319.14s4.76-9.31 6.39-14.21c1.18-3.54-1.3-8-1.3-8l1.57-2 12.17 1.16.93 2.77s-4.18 3.05-4.35 7.45 2.08 14.6 2.08 14.6a31.85 31.85 0 0 0-9.63 14.77l-.8-.14 2.39-14.65h.41a3.26 3.26 0 0 0 2.38-1.57 2.9 2.9 0 0 0-1.33-4 3.34 3.34 0 0 0-4.33 1.27 2.88 2.88 0 0 0 1.33 4l-1.87 14.8-1-.16s-.03-11.46-5.04-16.09Z" style="fill:#ebebeb"/><path d="M631.05 319.14s.08.07.22.21l.61.61c.26.29.53.69.87 1.14a17.6 17.6 0 0 1 .94 1.73 31.76 31.76 0 0 1 2.56 12.38l-.14-.17 1 .16-.19.15c.52-4.27 1.13-9.27 1.81-14.81l.12.22a3.14 3.14 0 0 1-1.71-3.65 3.45 3.45 0 0 1 3.5-2.41 3.53 3.53 0 0 1 2.16.85 3.08 3.08 0 0 1 .3 4.41 3.56 3.56 0 0 1-2.17 1.15h-.43l.23-.21c-.75 4.66-1.55 9.58-2.37 14.66l-.22-.3.8.13-.29.18a30.11 30.11 0 0 1 3.42-7.52 35 35 0 0 1 6.29-7.36l-.08.25a106.38 106.38 0 0 1-2-12.14 17.45 17.45 0 0 1 0-3 8.61 8.61 0 0 1 .82-2.84 12.82 12.82 0 0 1 3.6-4.34l-.09.26q-.47-1.41-.93-2.76l.2.15-12.17-1.2.17-.07-1.57 2v-.21a14.44 14.44 0 0 1 1.57 5.07 8 8 0 0 1-.12 2.45 18 18 0 0 1-.74 2.18c-1.09 2.73-2.17 5-3.06 6.87s-1.62 3.29-2.12 4.26c-.24.46-.43.82-.58 1.09a3.33 3.33 0 0 1-.21.37 2.79 2.79 0 0 1 .16-.39c.14-.28.31-.65.53-1.12l2-4.3c.86-1.87 1.91-4.17 3-6.89a16.62 16.62 0 0 0 .71-2.13 7.72 7.72 0 0 0 .1-2.36A14 14 0 0 0 636 297l-.06-.11.07-.1 1.56-2 .07-.09h.11l12.17 1.14h.15l.05.14.93 2.76.06.16-.14.1a12.39 12.39 0 0 0-3.43 4.18 8 8 0 0 0-.77 2.68 16.37 16.37 0 0 0 0 2.88 106.28 106.28 0 0 0 2 12.08v.15l-.11.1a34.38 34.38 0 0 0-6.2 7.24 29.49 29.49 0 0 0-3.36 7.4l-.07.22h-.22l-.8-.13h-.26l.05-.26c.83-5.08 1.63-10 2.4-14.64v-.21h.58a3.11 3.11 0 0 0 1.88-1 2.68 2.68 0 0 0 .66-1.94 2.87 2.87 0 0 0-2.79-2.54 3 3 0 0 0-3 2.08 2.7 2.7 0 0 0 1.47 3.13l.14.07v.16c-.71 5.53-1.36 10.52-1.91 14.79v.18h-.17l-1-.17h-.14v-.14a32.59 32.59 0 0 0-2.39-12.31 12.51 12.51 0 0 0-2.48-3.86Z" style="fill:#e0e0e0"/><path d="M651.27 298.64c-4.85.18-9.86-.73-14.65-1.5" style="fill:#ebebeb"/><path d="M636.62 297.14a68.47 68.47 0 0 1 7.32.84c2 .25 3.84.41 5.17.48a11.36 11.36 0 0 1 2.16.18 25.19 25.19 0 0 1-7.39-.14c-2-.25-3.85-.58-5.16-.83a8.93 8.93 0 0 1-2.1-.53ZM630.49 291.64c0-.15 7.13-.26 15.91-.26s15.92.11 15.92.26-7.13.26-15.92.26-15.91-.12-15.91-.26Z" style="fill:#e0e0e0"/><path d="M700.45 464.72c0 .15-145.72.26-325.43.26s-325.47-.11-325.47-.26 145.69-.26 325.47-.26 325.43.12 325.43.26ZM467.68 92.4c2.39-6.13 6.95-8.16 11.58-8.16 3.49 0 5.66.94 7.22 2.57 1.7 1.86 2.4 4.29 2.4 9V114c0 3.8 1.43 4.9 5.19 4.9v1.43c-1.6-.07-5.19-.27-8.19-.27s-6.22.2-7.65.27v-1.43c3.29 0 4.52-1.1 4.52-4.9V94.26c0-4.22-.63-7.85-5.52-7.85-5.59 0-9.55 5.12-9.55 12.34V114c0 3.8 1.23 4.9 4.49 4.9v1.43c-1.43-.07-4.63-.27-7.62-.27s-6.62.2-8.19.27v-1.43c3.76 0 5.19-1.1 5.19-4.9V75.09c0-4.09-1.23-6-5.19-6v-1.42c1.43.14 2.86.2 4.23.2a21.77 21.77 0 0 0 7.09-1ZM363.76 104.68a1.83 1.83 0 0 1-1.68 1c-.79 0-1.39-.36-1.69-1.7l-.34-1.57c-.3-1.33-.53-2.22-1.77-2.22h-1.49v3.6c0 1.14.2 1.31 1.27 1.35v.32h-4v-.32c1.06 0 1.27-.21 1.27-1.35V96c0-1.14-.21-1.3-1.27-1.35v-.31h4.28c2.53 0 3.79 1.2 3.79 2.73 0 1.09-.69 2.65-3.05 3h.19a2.28 2.28 0 0 1 2.2 2.07l.39 1.6c.19.91.37 1.29.8 1.29s.57-.23.86-.6Zm-7-8.66v3.86h1c2.23 0 2.72-1.16 2.72-2.6 0-1.65-.71-2.61-2.61-2.61-.87 0-1.08.27-1.08 1.33ZM499.91 137.25c0 1 0 1.82.09 2.44h-.69c-.42-4.14-.85-5.56-4.57-5.56h-1.62v16.92c0 2.41.51 2.78 3 2.86v.6c-1-.06-2.76-.09-4.37-.09-1.79 0-3.46 0-4.4.09v-.6c2.5-.08 3-.45 3-2.86v-16.92h-1.61c-3.72 0-4.17 1.42-4.57 5.56h-.69c.06-.62.09-1.48.09-2.44 0-.74-.06-2.29-.22-3.8 2.47.08 6 .08 8.4.08s5.88 0 8.35-.08c-.1 1.55-.19 3.06-.19 3.8ZM244.83 129.48c2.81 0 5.24 1 5.24 4.15 0 4-3.85 9.17-12.51 9.17-4.52 0-9-1.37-9-4.1 0-2.18 2.77-4.17 5.61-5.46H234c-1.57 0-4.48-.41-4.48-3.41 0-1.92 1.33-3.73 5.59-5.65a6.31 6.31 0 0 1-4.11-6.38c0-4.91 3.56-7 8.26-7a12.16 12.16 0 0 1 3.16.39 9.59 9.59 0 0 1 1.58-4 3.79 3.79 0 0 1 3.05-1.49 2.2 2.2 0 0 1 2.36 2.34 2.09 2.09 0 0 1-2.14 2.14c-1.62 0-2.1-1.07-2.38-2.82a5.35 5.35 0 0 0-1.2 2.19 12.44 12.44 0 0 0-.46 1.85 6.32 6.32 0 0 1 4.3 6.42c0 4.92-3.58 7.08-8.27 7.08a11.73 11.73 0 0 1-3.3-.42c-2 1.07-3.76 2.16-3.76 3.54 0 1 .62 1.48 2.14 1.48Zm2.16 6.25c0-1.64-.68-2.49-3.41-2.49h-8.32a5.3 5.3 0 0 0-3 4.52c0 3 3.54 4.28 6.53 4.28 3.72-.04 8.21-2.04 8.21-6.31Zm-11.81-17.93c0 4.78 1.57 6.27 4.06 6.27s4.08-1.49 4.08-6.27-1.57-6.26-4.08-6.26-4.06 1.46-4.06 6.26ZM245 161.26c-4.12.17-4.92.8-4.92 5.21v30.09c0 4.41.8 5 4.92 5.21V203c-1.9-.12-4.92-.18-7.7-.18-3.17 0-6.07.06-7.76.18v-1.22c4.12-.18 4.89-.8 4.89-5.21V164.1l-14.61 39.18h-1l-15.29-39.36v32c0 4.44.8 5.65 5.51 5.83V203c-1.45-.12-4.11-.18-6.19-.18s-4.29.06-5.62.18v-1.22c4.11-.18 4.91-1.39 4.91-5.83v-29.48c0-4.41-.8-5-4.91-5.21V160c1.33.12 3.58.18 5.62.18 1.78 0 3.85-.06 5.19-.18l13.32 35.19 13-35h2.87c2.78 0 5.8-.06 7.7-.18ZM349.15 82.91c-4.11.17-4.91 1.39-4.91 5.83v36.19h-1.4l-25.47-39.36v32c0 4.44.8 5.66 5.51 5.83v1.22c-1.45-.12-4.12-.18-6.19-.18s-4.29.06-5.63.18v-1.22c4.12-.17 4.92-1.39 4.92-5.83V88.12c0-4.41-.8-5-4.92-5.21v-1.22c1.34.12 3.59.18 5.63.18 1.78 0 3.41-.06 4.74-.18l21.41 33V88.74c0-4.44-.77-5.66-5.5-5.83v-1.22c1.45.12 4.11.18 6.18.18s4.3-.06 5.63-.18ZM173.72 192.14c0 2.18.66 3.19 2.76 3.19v.75a24.6 24.6 0 0 0-2.24-.1 11.62 11.62 0 0 0-3.77.51v-4.27a6.22 6.22 0 0 1-5.93 4.34 5 5 0 0 1-3.77-1.38c-.9-1-1.2-2.45-1.2-4.73v-9.08c0-2.18-.63-3.2-2.74-3.2v-.76c.76.07 1.52.1 2.25.1a12.25 12.25 0 0 0 3.76-.49v14.22c0 2.25.14 4.16 2.74 4.16 2.83 0 4.89-2.87 4.89-6.56v-7.47c0-2.18-.65-3.2-2.75-3.2v-.76c.76.07 1.52.1 2.24.1a12.16 12.16 0 0 0 3.76-.49ZM186.91 140.45c0 12.06-7.3 20-20 20-1.67 0-5.38-.16-7.76-.16-2.59 0-5.32 0-6.86.16v-1.11c3.76-.16 4.49-.73 4.49-4.76v-27.43c0-4-.73-4.6-4.49-4.76v-1.11c1.27.08 3.35.19 5.4.19h1.36c2.54-.06 6.24-.17 8.35-.17 13.16-.02 19.51 6.8 19.51 19.15Zm-25-13.41v27.69c0 3.87.73 4.76 4.17 4.76 12.06 0 15.33-6.76 15.33-18.82 0-12.41-3.92-18.39-15.39-18.39-3.42 0-4.15.95-4.15 4.72ZM272.62 65.6a1.39 1.39 0 0 0 .83.38c.59 0 .94-.79 1.09-2.54h1c-.12 2.08-.16 4.85-.16 9.8h-1c-.6-3.62-.94-4.77-2.14-6.31a9.27 9.27 0 0 0-7.54-3.33c-5.56 0-9.22 5.77-9.22 15 0 9.51 4.14 14.76 9.64 14.76 2.56 0 5.68-.94 7.28-3.25 1.25-1.67 1.54-3.29 2-6.74h1c0 5.16 0 8.07.16 10.24h-1c-.15-1.75-.44-2.52-1-2.52a1.76 1.76 0 0 0-.88.35 12.43 12.43 0 0 1-7.89 2.77c-8.09 0-13.5-5.68-13.5-15.44 0-9.54 5.61-16 13.54-16a11.92 11.92 0 0 1 7.79 2.83ZM301.84 103.3c0 1.21.36 1.76 1.53 1.76v.43c-.42 0-.85-.06-1.25-.06a6.27 6.27 0 0 0-2.08.28v-2.37a3.45 3.45 0 0 1-3.29 2.41 2.76 2.76 0 0 1-2.08-.76 3.72 3.72 0 0 1-.66-2.62v-5c0-1.21-.36-1.77-1.52-1.77v-.42c.42 0 .84.06 1.24.06a6.65 6.65 0 0 0 2.09-.28v7.88c0 1.24.07 2.29 1.51 2.29s2.71-1.58 2.71-3.63v-4.16c0-1.21-.36-1.77-1.53-1.77v-.42c.43 0 .85.06 1.25.06a6.55 6.55 0 0 0 2.08-.28ZM204.92 133.5c-.91 0-1.09.18-1.09 1.15v6.64c0 1 .18 1.11 1.09 1.11h1c1.67 0 2-.64 2.19-2.5h.31v1.09c0 .43 0 1 .09 1.71H201.57v-.26c.91 0 1.08-.18 1.08-1.15v-6.64c0-1-.17-1.11-1.08-1.15v-.26h3.41ZM516.42 149.24c-.9 0-1.08.17-1.08 1.15V157c0 1 .18 1.11 1.08 1.11h1c1.67 0 2-.64 2.2-2.5h.3v1.1c0 .43 0 1 .1 1.71H513.07v-.27c.91 0 1.09-.18 1.09-1.15v-6.63c0-1-.18-1.11-1.09-1.15V149h3.41ZM220.32 98.05c0 9.07-5.35 15.17-12.9 15.17s-12.85-5.41-12.85-14.7c0-9.07 5.35-15.17 12.89-15.17 7.71 0 12.86 5.41 12.86 14.7Zm-21.71.31c0 8.64 4 14.12 9 14.12 5.27 0 8.68-5.88 8.68-14.28 0-8.63-4-14.12-9-14.12-5.29 0-8.68 5.92-8.68 14.28ZM198.34 214.38v.41c-.54.12-1.14.54-1.61 1.77l-4.79 12.34h-.32l-5-12.81c-.41-1-1-1.28-1.4-1.3v-.41c.55 0 1.4.06 2.18.06 1.05 0 2 0 2.6-.06v.41c-1 0-1.44.18-1.44.75a2.82 2.82 0 0 0 .24 1l3.69 9.79 3.32-8.61a4.93 4.93 0 0 0 .41-1.66c0-.9-.61-1.2-1.78-1.23v-.41c.78 0 1.63.06 2.35.06a14.93 14.93 0 0 0 1.55-.1ZM137.27 115.83c1.08 1.1 1.37 2.37 1.37 4.79v9.49c0 1.1.26 1.62 1.05 1.62a2.34 2.34 0 0 0 1.53-.72l.38.58a4.53 4.53 0 0 1-3.11 1.25c-2.39 0-2.94-1.43-2.94-3a6 6 0 0 1-5.25 3c-2.29 0-4.34-1.15-4.34-3.82s2.09-3.9 5.5-5.33c2.29-1 4.09-1.54 4.09-2.91v-2.11c0-2.87-1.4-3.44-3.17-3.44a4.25 4.25 0 0 0-3.38 1.22 2.11 2.11 0 0 1 1.6 2.08 1.79 1.79 0 0 1-2 1.85 1.87 1.87 0 0 1-1.86-2.11 3.07 3.07 0 0 1 1.61-2.44 8.8 8.8 0 0 1 4.78-1.28 5.89 5.89 0 0 1 4.14 1.28Zm-1.72 6.36c-.37.55-1.12.9-3.27 2-1.5.71-3.32 1.7-3.32 4.33 0 2.05 1.17 3 2.74 3 1.37 0 2.7-.72 3.85-2.59ZM114.6 170.73c3 .4 3.88 1.89 3.88 3.43 0 2.17-1.72 3.69-4.57 3.69h-5.63v-.38c1.29-.06 1.54-.25 1.54-1.64v-9.44c0-1.38-.25-1.58-1.54-1.63v-.38c.53 0 1.49.05 2.32.05h2.87c2.67 0 4 1.23 4 3 0 1.34-.76 2.66-2.89 3.31Zm-3-4.34v4.31h1.28c2.24 0 2.8-1.45 2.8-3.11 0-1.87-.76-2.83-2.67-2.83-1.17 0-1.42.32-1.42 1.63Zm5 7.69c0-1.93-1-3.06-3.39-3.06h-1.6v4.81c0 1.33.25 1.58 1.43 1.58 2.47 0 3.54-1.19 3.54-3.33ZM586.73 119.16c1.2 0 2.23.44 2.23 1.76 0 1.7-1.63 3.91-5.32 3.91-1.93 0-3.83-.59-3.83-1.75 0-.93 1.18-1.77 2.39-2.32h-.07c-.67 0-1.9-.18-1.9-1.45 0-.82.56-1.59 2.38-2.41a2.68 2.68 0 0 1-1.77-2.71c0-2.09 1.52-3 3.51-3a5.21 5.21 0 0 1 1.35.16 4.08 4.08 0 0 1 .67-1.69 1.63 1.63 0 0 1 1.3-.63.93.93 0 0 1 1 1 .88.88 0 0 1-.91.91c-.68 0-.89-.45-1-1.19a2.16 2.16 0 0 0-.51.93 4.74 4.74 0 0 0-.2.79 2.67 2.67 0 0 1 1.83 2.73c0 2.09-1.52 3-3.52 3a5.11 5.11 0 0 1-1.36-.2c-.86.46-1.6.92-1.6 1.51 0 .42.26.63.91.63Zm.92 2.66c0-.7-.29-1.06-1.45-1.06h-3.54a2.23 2.23 0 0 0-1.29 1.92c0 1.29 1.51 1.82 2.78 1.82 1.6 0 3.5-.85 3.5-2.68Zm-5-7.63c0 2 .67 2.66 1.73 2.66s1.74-.63 1.74-2.66-.67-2.67-1.74-2.67-1.76.63-1.76 2.67ZM379.61 73.07c1.2 0 2.23.44 2.23 1.77 0 1.69-1.63 3.9-5.32 3.9-1.92 0-3.83-.59-3.83-1.75 0-.93 1.18-1.77 2.39-2.32H375c-.67 0-1.9-.18-1.9-1.45 0-.82.57-1.59 2.38-2.41a2.68 2.68 0 0 1-1.77-2.71c0-2.09 1.52-3 3.52-3a5.18 5.18 0 0 1 1.34.16 4.08 4.08 0 0 1 .67-1.69 1.64 1.64 0 0 1 1.3-.63.94.94 0 0 1 1 1 .9.9 0 0 1-.91.92c-.69 0-.9-.46-1-1.2a2.28 2.28 0 0 0-.51.93 4.84 4.84 0 0 0-.19.79 2.69 2.69 0 0 1 1.83 2.73c0 2.09-1.53 3-3.52 3a5.13 5.13 0 0 1-1.41-.18c-.85.46-1.6.92-1.6 1.51 0 .42.26.63.91.63Zm.92 2.66c0-.7-.28-1.06-1.45-1.06h-3.54a2.27 2.27 0 0 0-1.29 1.92c0 1.29 1.51 1.82 2.78 1.82 1.6 0 3.5-.85 3.5-2.68Zm-5-7.63c0 2 .67 2.67 1.73 2.67s1.74-.64 1.74-2.67-.67-2.67-1.73-2.67-1.76.63-1.76 2.67ZM553.82 139.67c8.81 1.17 11.36 5.52 11.36 10 0 6.33-5 10.79-13.37 10.79-1.65 0-5-.16-9.56-.16-2.61 0-5.36 0-6.91.16v-1.12c3.78-.16 4.52-.73 4.52-4.78V127c0-4-.74-4.62-4.52-4.78v-1.12c1.55.11 4.35.17 6.8.17 3.5 0 7.06-.11 8.4-.11 7.8 0 11.74 3.61 11.74 8.75 0 3.94-2.23 7.77-8.46 9.67ZM545 127v12.58h3.75c6.55 0 8.18-4.24 8.18-9.07 0-5.47-2.23-8.29-7.8-8.29-3.38-.02-4.13.93-4.13 4.78Zm14.59 22.48c0-5.66-2.85-8.94-9.92-8.94H545v14.07c0 3.89.73 4.62 4.18 4.62 7.31-.02 10.43-3.52 10.43-9.77ZM556.17 100.74H546.29v-.38c1.29 0 1.54-.25 1.54-1.63v-9.44c0-1.39-.25-1.58-1.54-1.64v-.38c1.87.06 4.37.06 5.52.06s2.8 0 4-.06c-.1.89-.14 1.81-.14 2.25a9.59 9.59 0 0 0 .06 1.18h-.44c-.25-2.25-.54-3-2.55-3h-1.58c-1.29 0-1.54.19-1.54 1.58v4.49h1.26c1.65 0 1.62-1.6 1.77-2.51h.43c0 .81-.06 1.35-.06 1.79v.91c0 .62 0 1.25.11 2.7h-.44c-.15-1.21-.17-2.51-1.82-2.51h-1.27v4.57c0 1.38.25 1.58 1.54 1.58h1.39c2.38 0 2.86-.86 3.12-3.38h.44c0 .35-.05.85-.05 1.38s.03 1.48.13 2.44ZM170 94.1a3.69 3.69 0 0 1 3.65-2.57 2.92 2.92 0 0 1 2.28.81 3.85 3.85 0 0 1 .75 2.82v5.74c0 1.2.45 1.55 1.64 1.55v.45c-.5 0-1.64-.09-2.58-.09s-2 .07-2.42.09v-.45c1 0 1.43-.35 1.43-1.55v-6.21c0-1.34-.2-2.48-1.74-2.48-1.77 0-3 1.62-3 3.89v4.8c0 1.2.38 1.55 1.41 1.55v.45c-.45 0-1.46-.09-2.4-.09s-2.09.07-2.58.09v-.45c1.18 0 1.63-.35 1.63-1.55V88.64c0-1.29-.39-1.89-1.63-1.89v-.45c.45 0 .9.06 1.33.06a6.91 6.91 0 0 0 2.24-.3ZM525.26 114.34c0 1 .29 1.41 1.23 1.41v.34h-1a5 5 0 0 0-1.67.23v-1.9a2.77 2.77 0 0 1-2.64 1.93 2.24 2.24 0 0 1-1.68-.61 3 3 0 0 1-.53-2.11v-4c0-1-.28-1.42-1.22-1.42v-.34h1a5.28 5.28 0 0 0 1.67-.22v6.33c0 1 .07 1.84 1.22 1.84s2.18-1.27 2.18-2.91v-3.33c0-1-.29-1.42-1.23-1.42v-.34h1a5.24 5.24 0 0 0 1.67-.22ZM517.32 70.83c1.08 1.1 1.37 2.37 1.37 4.79v9.49c0 1.1.26 1.61 1 1.61a2.33 2.33 0 0 0 1.53-.71l.38.58a4.53 4.53 0 0 1-3.11 1.25c-2.39 0-2.94-1.43-2.94-3a6 6 0 0 1-5.25 3c-2.29 0-4.34-1.15-4.34-3.82s2.09-3.9 5.51-5.34c2.28-1 4.08-1.53 4.08-2.9v-2.12c0-2.86-1.4-3.43-3.17-3.43a4.26 4.26 0 0 0-3.38 1.22 2.09 2.09 0 0 1 1.6 2.08 1.79 1.79 0 0 1-2 1.85 1.87 1.87 0 0 1-1.85-2.12 3 3 0 0 1 1.6-2.43 8.8 8.8 0 0 1 4.78-1.28 5.89 5.89 0 0 1 4.19 1.28Zm-1.72 6.35c-.37.55-1.12.9-3.27 2-1.5.71-3.32 1.7-3.32 4.33 0 2 1.17 3 2.74 3 1.37 0 2.7-.71 3.85-2.58ZM408.9 65a3.49 3.49 0 0 0 1.85.77c.69 0 1-.82 1.19-2.38h1.25c-.16 1.9-.27 4.24-.27 11.07h-1.24c-.4-5.17-2.89-10.44-8.9-10.44-3.87 0-6.62 2.57-6.62 6.31 0 4.92 4.24 6.88 9.11 9.93 5.64 3.52 9.77 6.38 9.77 12.2 0 6.89-5.22 10.3-11.52 10.3a12.59 12.59 0 0 1-7.41-2 3.8 3.8 0 0 0-1.86-.77c-.68 0-1 .83-1.19 2.39h-1.24c.16-2.23.21-5.35.21-13h1.24c.45 6.56 2.94 12.31 9.88 12.31 3.52 0 7-2.12 7-7.23 0-4.4-3.41-6.89-8.44-9.9s-9.67-6-9.67-12.16c0-6.41 4.85-9.4 10.2-9.4a10.24 10.24 0 0 1 6.66 2ZM434 87.9c3 .4 3.88 1.89 3.88 3.43 0 2.16-1.72 3.69-4.57 3.69-.57 0-1.71-.06-3.27-.06-.89 0-1.83 0-2.36.06v-.38c1.29-.06 1.54-.25 1.54-1.64v-9.44c0-1.38-.25-1.58-1.54-1.64v-.38c.53 0 1.48.06 2.32.06h2.87c2.67 0 4 1.24 4 3 0 1.35-.77 2.66-2.89 3.31Zm-3-4.34v4.3h1.28c2.24 0 2.8-1.45 2.8-3.1 0-1.87-.77-2.84-2.67-2.84-1.2 0-1.41.33-1.41 1.64Zm5 7.68c0-1.93-1-3-3.4-3H431V93c0 1.33.25 1.58 1.43 1.58 2.45 0 3.57-1.2 3.57-3.34Z" style="fill:#263238"/><path d="M175.29 385.05v-3.68l-81.89.16h-4.73v3.57h4.73v22.03h88.44v-22.08h-6.55z" style="fill:#f5f5f5"/><path d="M155.21 407.55v-26.18h20.08v2.77h6.55v22.99l-26.63.42z" style="fill:#ebebeb"/><path d="M175.29 381.37c0 .14-19.22.26-42.94.26s-42.94-.12-42.94-.26 19.22-.26 42.94-.26 42.94.12 42.94.26ZM181.19 392.94c0 .14-19.58.26-43.73.26s-43.73-.12-43.73-.26 19.57-.26 43.73-.26 43.73.11 43.73.26ZM181.85 400.83c0 .14-19.73.26-44.06.26s-44.06-.12-44.06-.26 19.72-.26 44.06-.26 44.06.12 44.06.26ZM89.41 385.05c0-.15 19.23-.26 42.94-.26s42.94.11 42.94.26-19.22.26-42.94.26-42.94-.12-42.94-.26Z" style="fill:#e0e0e0"/><path d="M89.41 407.41v32.9h-4.73v3.57h4.73v22h88.45v-20h-6.55v-4.38h6.55V435h2.91v-3h-3.46v-24.59Z" style="fill:#f5f5f5"/><path d="M154.37 407.5v58.4l23.49.09V445.5h-6.55v-4l6.55.14v-6.55h2.97l-.06-3.38-3.46-.1V407.4l-22.94.1z" style="fill:#ebebeb"/><path d="M177.2 440.15c0 .14-20.55.26-45.89.26s-45.89-.12-45.89-.26 20.54-.26 45.89-.26 45.89.11 45.89.26ZM171.31 443.83c0 .14-19.23.26-42.94.26s-42.95-.12-42.95-.26 19.23-.26 43-.26 42.89.11 42.89.26ZM177.2 451.72c0 .14-19.58.26-43.73.26s-43.73-.12-43.73-.26 19.58-.26 43.73-.26 43.73.11 43.73.26ZM180.77 431.57c0 .14-20.38.26-45.51.26s-45.52-.12-45.52-.26 20.38-.26 45.52-.26 45.51.11 45.51.26ZM177.2 411.42c0 .14-19.58.26-43.73.26s-43.73-.12-43.73-.26 19.58-.26 43.73-.26 43.73.11 43.73.26ZM177.31 421.67c0 .15-19.53.27-43.61.27s-43.63-.12-43.63-.27 19.53-.26 43.63-.26 43.61.12 43.61.26ZM177.86 459.61c0 .14-19.73.26-44.06.26s-44.06-.12-44.06-.26 19.72-.26 44.06-.26 44.06.12 44.06.26Z" style="fill:#e0e0e0"/><path d="M100.37 421.67h3.79v4.79h-3.79zM128.05 421.67h7.23v4.79h-7.23z" style="fill:#eb8045"/><path d="M41 405.44v30.31h-4.36V439H41v20.29h81.47v-18.42h-6v-4h6v-6h2.69v-2.74H122v-22.69Z" style="fill:#f5f5f5"/><path d="M82.55 405.53v53.8l39.92.08v-18.88h-6.03v-3.68l6.03.13v-6.04l2.74.01-.05-3.12-3.19-.09v-22.3l-39.42.09z" style="fill:#ebebeb"/><path d="M121.87 435.61c0 .14-18.93.26-42.27.26s-42.28-.12-42.28-.26 18.92-.26 42.28-.26 42.27.11 42.27.26ZM116.44 439c0 .15-17.71.26-39.56.26s-39.56-.11-39.56-.26 17.71-.26 39.56-.26 39.56.11 39.56.26ZM121.87 446.26c0 .15-18 .26-40.28.26s-40.29-.11-40.29-.26 18-.26 40.29-.26 40.28.12 40.28.26ZM125.16 427.7c0 .14-18.78.26-41.93.26s-41.93-.12-41.93-.26 18.77-.26 41.93-.26 41.93.12 41.93.26ZM121.87 409.14c0 .14-18 .26-40.28.26s-40.29-.12-40.29-.26 18-.27 40.29-.27 40.28.13 40.28.27ZM122.09 415.09c0 .14-18 .26-40.28.26s-40.29-.12-40.29-.26 18-.26 40.29-.26 40.28.11 40.28.26ZM122 418.59c0 .14-18 .26-40.18.26s-40.18-.12-40.18-.26 18-.26 40.18-.26 40.18.11 40.18.26ZM122.47 453.53c0 .15-18.17.26-40.58.26s-40.59-.11-40.59-.26 18.17-.26 40.59-.26 40.58.12 40.58.26Z" style="fill:#e0e0e0"/><path d="M57.59 414.95h5.31v5.09h-5.31zM77.73 427.76h6.66v4.41h-6.66z" style="fill:#eb8045"/><path d="M78.66 423.51v41.68h48.47v-41.68ZM94.48 431a2.83 2.83 0 0 1 2.52-3.07h11.87a3.15 3.15 0 0 1 0 6.16H97a2.83 2.83 0 0 1-2.52-3.09Z" style="fill:#455a64"/><path d="M34.57 423.51v41.68h45v-41.68ZM82.32 424.11a81.91 81.91 0 0 1-.26-9.16 81.91 81.91 0 0 1 .26-9.16 79.13 79.13 0 0 1 .26 9.16 79.13 79.13 0 0 1-.26 9.16Z" style="fill:#263238"/><path d="M121.87 423.51a1.34 1.34 0 0 1 0-.32v-4.53c0-3.16 0-7.67-.09-13.22l.19.19-40.43.07-40.54-.07.18-.19c0 5.56-.06 10.06-.08 13.22 0 1.53 0 2.74-.05 3.6v1.25a1.34 1.34 0 0 1 0-.32v-4.53c0-3.16 0-7.66-.08-13.22v-.19H41l40.44-.07 40.43.07h.19v.19c0 5.55-.07 10.06-.09 13.22v4.53a1.34 1.34 0 0 1-.1.32Z" style="fill:#263238"/><path d="M572.82 395.53h-63.34a17.59 17.59 0 0 1-17.59-17.59 17.6 17.6 0 0 1 17.59-17.59h63.34Z" style="fill:#eb8045"/><path d="M555.29 360.35h141.78a1.94 1.94 0 0 1 1.94 1.94v2a1.94 1.94 0 0 1-1.94 1.94H555.29v-5.88ZM555.29 389.69h141.78a1.94 1.94 0 0 1 1.94 1.94v2a1.94 1.94 0 0 1-1.94 1.94H555.29v-5.88Z" style="fill:#eb8045"/><path d="M694.72 389.69H571.33a11.76 11.76 0 0 1-11.76-11.75 11.76 11.76 0 0 1 11.76-11.75h123.39a29 29 0 0 0 0 23.5Z" style="fill:#f5f5f5"/><path d="M559.57 395.53h-50a17.65 17.65 0 0 1-17.65-17.64 17.54 17.54 0 0 1 17.54-17.54h51.48c-12.77 7.72-11.81 26.2-1.37 35.18Z" style="opacity:.30000000000000004"/><path d="M679.73 379c0 .12-25.33.21-56.56.21s-56.57-.09-56.57-.21 25.32-.21 56.57-.21 56.56.13 56.56.21ZM691.37 384.26c0 .11-25.33.21-56.56.21s-56.57-.1-56.57-.21 25.32-.21 56.57-.21 56.56.09 56.56.21ZM687.94 371.63c0 .11-25.33.21-56.56.21s-56.57-.1-56.57-.21 25.32-.21 56.57-.21 56.56.09 56.56.21ZM553.38 393.07c0 .12-11.86.21-26.48.21s-26.48-.09-26.48-.21 11.86-.21 26.48-.21 26.48.14 26.48.21ZM553.38 363.27c0 .12-11.86.21-26.48.21s-26.48-.09-26.48-.21 11.86-.21 26.48-.21 26.48.09 26.48.21Z" style="fill:#263238"/><path d="M484.95 420.23h81.56v45.31h-81.56a22.66 22.66 0 0 1-22.66-22.66 22.66 22.66 0 0 1 22.66-22.66Z" style="fill:#eb8045"/><path d="M543.94 420.23h182.6a2.49 2.49 0 0 1 2.49 2.49v2.53a2.49 2.49 0 0 1-2.49 2.49h-182.6v-7.52.01ZM543.94 458h182.6a2.49 2.49 0 0 1 2.49 2.49v2.53a2.49 2.49 0 0 1-2.49 2.49h-182.6V458Z" style="fill:#eb8045"/><path d="M723.5 458H564.59a15.12 15.12 0 0 1-15.13-15.13 15.12 15.12 0 0 1 15.13-15.13H723.5a37.42 37.42 0 0 0 0 30.26Z" style="fill:#f5f5f5"/><path d="M549.46 465.55H484.7a22.41 22.41 0 0 1-22.41-22.42 22.9 22.9 0 0 1 22.9-22.9h66c-16.42 9.94-15.19 33.77-1.73 45.32Z" style="opacity:.4"/><path d="M704.2 444.29c0 .12-32.62.21-72.85.21s-72.85-.09-72.85-.21 32.61-.21 72.85-.21 72.85.1 72.85.21ZM719.19 451c0 .12-32.62.21-72.85.21s-72.85-.09-72.85-.21 32.61-.21 72.85-.21 72.85.12 72.85.21ZM714.77 438.05c0 .12-32.62.21-72.85.21s-72.85-.09-72.85-.21 32.61-.21 72.85-.21 72.85.1 72.85.21ZM541.48 462.37c0 .12-15.27.21-34.1.21s-34.1-.09-34.1-.21 15.26-.21 34.1-.21 34.1.09 34.1.21ZM541.48 424c0 .12-15.27.21-34.1.21s-34.1-.09-34.1-.21 15.26-.21 34.1-.21 34.1.09 34.1.21Z" style="fill:#263238"/><path d="M593.58 420.4h-71.71a13 13 0 0 1-13-13 13 13 0 0 1 13-13h71.71Z" style="fill:#455a64"/><path d="M575.23 394.45h148.36a2 2 0 0 1 2 2v2.06a2 2 0 0 1-2 2H575.23v-6.11.05ZM575.23 414.29h148.36a2 2 0 0 1 2 2v2.06a2 2 0 0 1-2 2H575.23v-6.11.05Z" style="fill:#455a64"/><path d="M721.13 414.29H586.58a6.86 6.86 0 0 1-6.86-6.86 6.86 6.86 0 0 1 6.86-6.86h134.55q-5.19 6.85 0 13.72Z" style="fill:#f5f5f5"/><path d="M579.72 420.4h-58a12.87 12.87 0 0 1-12.87-12.87A13.08 13.08 0 0 1 522 394.45h59.15c-13.36 5.69-12.36 19.32-1.43 25.95Z" style="opacity:.30000000000000004"/><path d="M705.44 406.35c0 .11-26.5.21-59.18.21s-59.19-.1-59.19-.21 26.49-.21 59.19-.21 59.18.09 59.18.21ZM717.62 410c0 .12-26.5.21-59.18.21s-59.19-.09-59.19-.21 26.49-.21 59.19-.21 59.18.13 59.18.21ZM573.24 417.82c0 .11-12.41.21-27.71.21s-27.7-.1-27.7-.21 12.4-.21 27.7-.21 27.71.09 27.71.21ZM573.24 397.51c0 .12-12.41.21-27.71.21s-27.7-.09-27.7-.21 12.4-.21 27.7-.21 27.71.09 27.71.21ZM723.85 394.45c0 .12-45.51.21-101.63.21s-101.63-.09-101.63-.21 45.49-.21 101.63-.21 101.63.1 101.63.21Z" style="fill:#263238"/><path d="M611.88 371.78v14.09l4.89-3.13 5.45 3.13v-14.09h-10.34z" style="fill:#eb8045"/><path d="M214.42 239.3h288.13v44.31H214.42z" style="fill:#ebebeb"/><path d="M496.44 259.74h-2V232.6a6.28 6.28 0 0 0-6.21-6.34H231.17a5.17 5.17 0 0 0-5.11 5.22V253h-2v-21.52a7.17 7.17 0 0 1 7.11-7.22h257.06a8.28 8.28 0 0 1 8.21 8.34Z" style="fill:#e0e0e0"/><path d="M187.08 255.66H533.9v20.54H187.08z" style="fill:#455a64"/><path d="M180.72 248.54h12.71v34.18h-12.71z" style="fill:#263238"/><path d="M193.44 275.12a41.67 41.67 0 0 1-6.28.24 41.59 41.59 0 0 1-6.27-.24 40.07 40.07 0 0 1 6.27-.24 40.15 40.15 0 0 1 6.28.24ZM193.44 271.42a41.67 41.67 0 0 1-6.28.24 41.59 41.59 0 0 1-6.27-.24 41.59 41.59 0 0 1 6.27-.24 41.67 41.67 0 0 1 6.28.24ZM193.44 267.72a41.67 41.67 0 0 1-6.28.24 41.59 41.59 0 0 1-6.27-.24 41.59 41.59 0 0 1 6.27-.24 41.67 41.67 0 0 1 6.28.24ZM193.44 264a41.67 41.67 0 0 1-6.28.24 41.59 41.59 0 0 1-6.27-.24 41.59 41.59 0 0 1 6.27-.24 41.67 41.67 0 0 1 6.28.24ZM193.44 260.32a40.15 40.15 0 0 1-6.28.24 40.07 40.07 0 0 1-6.27-.24 41.59 41.59 0 0 1 6.27-.24 41.67 41.67 0 0 1 6.28.24ZM193.44 256.63a41.67 41.67 0 0 1-6.28.24 41.59 41.59 0 0 1-6.27-.24 39.29 39.29 0 0 1 6.27-.25 39.37 39.37 0 0 1 6.28.25ZM193.44 252.93a41.67 41.67 0 0 1-6.28.24 41.59 41.59 0 0 1-6.27-.24 40.07 40.07 0 0 1 6.27-.24 40.15 40.15 0 0 1 6.28.24ZM193.44 279a41.67 41.67 0 0 1-6.28.24 41.59 41.59 0 0 1-6.27-.24 39.29 39.29 0 0 1 6.27-.25 39.37 39.37 0 0 1 6.28.25Z" style="fill:#455a64"/><path d="M523.53 248.54h12.71v34.18h-12.71z" style="fill:#263238"/><path d="M536.24 275.12a82 82 0 0 1-12.54 0 82 82 0 0 1 12.54 0ZM536.24 271.42a82 82 0 0 1-12.54 0 82 82 0 0 1 12.54 0ZM536.24 267.72a82 82 0 0 1-12.54 0 82 82 0 0 1 12.54 0ZM536.24 264a82 82 0 0 1-12.54 0 82 82 0 0 1 12.54 0ZM536.24 260.32a82 82 0 0 1-12.54 0 82 82 0 0 1 12.54 0ZM536.24 256.63a82 82 0 0 1-12.54 0 78.75 78.75 0 0 1 12.54 0ZM536.24 252.93a82 82 0 0 1-12.54 0 82 82 0 0 1 12.54 0ZM536.24 279a82 82 0 0 1-12.54 0 78.75 78.75 0 0 1 12.54 0Z" style="fill:#455a64"/><path d="M245.25 112.37h229.82v187.75H245.25z" style="fill:#fff"/><path d="M475.07 300.12c0-1.82-.08-74.61-.22-187.75l.22.22h-229.8l.26-.26v187.75l-.23-.23 229.82.23-229.82.23h-.3V112.07h230.3v.21c-.14 113.23-.23 186.03-.23 187.84Z" style="fill:#263238"/><path d="M209.68 267.54v-15.4h29.19v7.7h88.52a7.66 7.66 0 0 1 7.59 7.74V287h16.72v-19.46a6 6 0 0 1 5.91-6 6 6 0 0 1 5.9 6v20.3h17.39v-19.29a9.62 9.62 0 0 1 9.52-9.71h85.93v-8.71h32.8v48.53H209.68Z" style="fill:#263238"/><path d="M192.35 433.44c-1.31 9.66-2.33 15.68-.19 22.16a11.2 11.2 0 0 0 10.58 7.67l312.58 1.85c5.38 0 9.66-3.64 11.56-8.76 2.13-5.74.12-19-1.65-25.38l-15.55-83.43-.49-61.2-299.9.43.29 59.63Z" style="fill:#eb8045"/><g style="opacity:.4"><path d="m222.9 357.46-9.53 71.59 287.38-.95-8.48-70.64H222.9zM297.19 429.05l9.82 7.06h97.66l7.88-7.71-115.36.65z"/></g><path d="M511.23 316.42h-305.5a3.86 3.86 0 0 1-3.83-3.9 3.87 3.87 0 0 1 3.83-3.9h305.5a3.87 3.87 0 0 1 3.83 3.9 3.86 3.86 0 0 1-3.83 3.9Z" style="fill:#eb8045"/><path d="M511.23 316.42a4 4 0 0 0 1.58-.37 3.92 3.92 0 0 0 2.18-3.9 3.84 3.84 0 0 0-1.77-2.88c-1.09-.79-2.6-.54-4.13-.57h-10.68l-68.07.08-224.59.08a3.58 3.58 0 0 0-3.13 1.87 3.71 3.71 0 0 0 .06 3.65 3.56 3.56 0 0 0 3.17 1.76h111.38l101 .06 68.07.08 18.51.05H511.26 486.3l-68.07.08-101 .05H205.85a4.08 4.08 0 0 1-3.62-2 4.22 4.22 0 0 1-.07-4.17 4.12 4.12 0 0 1 3.59-2.14l224.59.08 68.07.08h12.91a3.82 3.82 0 0 1 2 .61 4 4 0 0 1 1.09 5.65 3.78 3.78 0 0 1-1.55 1.28 3.71 3.71 0 0 1-1.19.32 3.16 3.16 0 0 1-.44.25Z" style="fill:#263238"/><path d="M416.47 379.01h3.26v49.22h-3.26z" style="fill:#e0e0e0"/><path d="M427.14 379.58a18.23 18.23 0 0 1-18.08 0v-7.31h18.08Z" style="fill:#263238"/><path d="M427.39 372.76c0 1.61-4.16 2.91-9.29 2.91s-9.28-1.3-9.28-2.91 4.15-2.92 9.28-2.92 9.29 1.31 9.29 2.92Z" style="fill:#455a64"/><path d="M236.37 363.72h3.26v65.04h-3.26z" style="fill:#e0e0e0"/><path d="M247 364.29a18.27 18.27 0 0 1-18.08 0V357H247Z" style="fill:#263238"/><path d="M247.28 357.46c0 1.61-4.15 2.92-9.28 2.92s-9.28-1.31-9.28-2.92 4.15-2.91 9.28-2.91 9.28 1.3 9.28 2.91Z" style="fill:#455a64"/><path d="M248.57 379.45h3.26v49.3h-3.26z" style="fill:#e0e0e0"/><path d="M259.23 380a18.21 18.21 0 0 1-18.07 0v-7.31h18.07Z" style="fill:#263238"/><path d="M259.48 373.2c0 1.61-4.15 2.91-9.28 2.91s-9.29-1.3-9.29-2.91 4.16-2.92 9.29-2.92 9.28 1.31 9.28 2.92Z" style="fill:#455a64"/><path d="M247 394.63a18.27 18.27 0 0 1-18.08 0v-7.32H247Z" style="fill:#263238"/><path d="M247.28 387.8c0 1.61-4.15 2.92-9.28 2.92s-9.28-1.31-9.28-2.92 4.15-2.91 9.28-2.91 9.28 1.3 9.28 2.91Z" style="fill:#455a64"/><path d="M271.83 379.45h3.26v49.3h-3.26z" style="fill:#e0e0e0"/><path d="M282.5 380a18.21 18.21 0 0 1-18.07 0v-7.31h18.07Z" style="fill:#263238"/><path d="M282.75 373.2c0 1.61-4.16 2.91-9.29 2.91s-9.28-1.3-9.28-2.91 4.16-2.92 9.28-2.92 9.29 1.31 9.29 2.92Z" style="fill:#455a64"/><path d="m299.7 430.63-2.51-1.88h-.99v-49.3h3.26l.24 51.18z" style="fill:#e0e0e0"/><path d="M306.87 380a18.23 18.23 0 0 1-18.08 0v-7.31h18.08Z" style="fill:#263238"/><path d="M307.11 373.2c0 1.61-4.15 2.91-9.28 2.91s-9.28-1.3-9.28-2.91 4.15-2.92 9.28-2.92 9.28 1.31 9.28 2.92Z" style="fill:#455a64"/><path d="M320.22 379.45h3.26v49.74h-3.26z" style="fill:#e0e0e0"/><path d="M330.89 380a18.23 18.23 0 0 1-18.08 0v-7.31h18.08Z" style="fill:#263238"/><path d="M331.13 373.2c0 1.61-4.15 2.91-9.28 2.91s-9.28-1.3-9.28-2.91 4.15-2.92 9.28-2.92 9.28 1.31 9.28 2.92Z" style="fill:#455a64"/><path d="M343.96 379.45h3.26v49.74h-3.26z" style="fill:#e0e0e0"/><path d="M354.62 380a18.21 18.21 0 0 1-18.07 0v-7.31h18.07Z" style="fill:#263238"/><path d="M354.87 373.2c0 1.61-4.15 2.91-9.28 2.91s-9.29-1.3-9.29-2.91 4.16-2.92 9.29-2.92 9.28 1.31 9.28 2.92Z" style="fill:#455a64"/><path d="M368.08 379.45h3.26v49.74h-3.26z" style="fill:#e0e0e0"/><path d="M378.75 380a18.21 18.21 0 0 1-18.07 0v-7.31h18.07Z" style="fill:#263238"/><path d="M379 373.2c0 1.61-4.16 2.91-9.29 2.91s-9.28-1.3-9.28-2.91 4.16-2.92 9.28-2.92 9.29 1.31 9.29 2.92Z" style="fill:#455a64"/><path d="M392.35 379.45h3.26v49.74h-3.26z" style="fill:#e0e0e0"/><path d="M403 380a18.21 18.21 0 0 1-18.07 0v-7.31H403Z" style="fill:#263238"/><path d="M403.26 373.2c0 1.61-4.16 2.91-9.29 2.91s-9.28-1.3-9.28-2.91 4.16-2.92 9.28-2.92 9.29 1.31 9.29 2.92Z" style="fill:#455a64"/><path d="M440.87 379.45h3.26v48.65h-3.26z" style="fill:#e0e0e0"/><path d="M451.53 380a18.21 18.21 0 0 1-18.07 0v-7.31h18.07Z" style="fill:#263238"/><path d="M451.78 373.2c0 1.61-4.15 2.91-9.28 2.91s-9.29-1.3-9.29-2.91 4.16-2.92 9.29-2.92 9.28 1.31 9.28 2.92Z" style="fill:#455a64"/><path d="M465.4 379.45h3.26v48.65h-3.26z" style="fill:#e0e0e0"/><path d="M476.07 380a18.23 18.23 0 0 1-18.07 0v-7.31h18.08Z" style="fill:#263238"/><path d="M476.31 373.2c0 1.61-4.15 2.91-9.28 2.91s-9.28-1.3-9.28-2.91 4.15-2.92 9.28-2.92 9.28 1.31 9.28 2.92Z" style="fill:#455a64"/><path d="M260.42 363.72h3.26v65.04h-3.26z" style="fill:#e0e0e0"/><path d="M271.09 364.29a18.27 18.27 0 0 1-18.08 0V357h18.08Z" style="fill:#263238"/><path d="M271.33 357.46c0 1.61-4.15 2.92-9.28 2.92s-9.29-1.31-9.29-2.92 4.16-2.91 9.29-2.91 9.28 1.3 9.28 2.91Z" style="fill:#455a64"/><path d="M284.47 363.72h3.26v65.04h-3.26z" style="fill:#e0e0e0"/><path d="M295.13 364.29a18.26 18.26 0 0 1-18.07 0V357h18.07Z" style="fill:#263238"/><path d="M295.38 357.46c0 1.61-4.16 2.92-9.28 2.92s-9.29-1.31-9.29-2.92 4.16-2.91 9.29-2.91 9.28 1.3 9.28 2.91Z" style="fill:#455a64"/><path d="M308.52 363.72h3.26v72.39h-3.26z" style="fill:#e0e0e0"/><path d="M319.18 364.29a18.26 18.26 0 0 1-18.07 0V357h18.07Z" style="fill:#263238"/><path d="M319.43 357.46c0 1.61-4.16 2.92-9.28 2.92s-9.29-1.31-9.29-2.92 4.16-2.91 9.29-2.91 9.28 1.3 9.28 2.91Z" style="fill:#455a64"/><path d="M332.57 363.72h3.26v64.79h-3.26z" style="fill:#e0e0e0"/><path d="M343.23 364.29a18.26 18.26 0 0 1-18.07 0V357h18.07Z" style="fill:#263238"/><path d="M343.48 357.46c0 1.61-4.16 2.92-9.29 2.92s-9.28-1.31-9.28-2.92 4.16-2.91 9.28-2.91 9.29 1.3 9.29 2.91Z" style="fill:#455a64"/><path d="M356.61 363.72h3.26v64.79h-3.26z" style="fill:#e0e0e0"/><path d="M367.28 364.29a18.26 18.26 0 0 1-18.07 0V357h18.07Z" style="fill:#263238"/><path d="M367.53 357.46c0 1.61-4.16 2.92-9.29 2.92s-9.28-1.31-9.28-2.92 4.16-2.91 9.28-2.91 9.29 1.3 9.29 2.91Z" style="fill:#455a64"/><path d="M380.66 363.72h3.26v64.79h-3.26z" style="fill:#e0e0e0"/><path d="M391.33 364.29a18.26 18.26 0 0 1-18.07 0V357h18.07Z" style="fill:#263238"/><path d="M391.58 357.46c0 1.61-4.16 2.92-9.29 2.92s-9.28-1.31-9.28-2.92 4.15-2.91 9.28-2.91 9.29 1.3 9.29 2.91Z" style="fill:#455a64"/><path d="m407.97 432.7-3.26 3.41v-72.4h3.26v68.99z" style="fill:#e0e0e0"/><path d="M415.38 364.29a18.27 18.27 0 0 1-18.08 0V357h18.08Z" style="fill:#263238"/><path d="M415.63 357.46c0 1.61-4.16 2.92-9.29 2.92s-9.28-1.31-9.28-2.92 4.15-2.91 9.28-2.91 9.29 1.3 9.29 2.91Z" style="fill:#455a64"/><path d="M428.76 363.72h3.26v64.52h-3.26z" style="fill:#e0e0e0"/><path d="M439.43 364.29a18.27 18.27 0 0 1-18.08 0V357h18.08Z" style="fill:#263238"/><path d="M439.67 357.46c0 1.61-4.15 2.92-9.28 2.92s-9.28-1.31-9.28-2.92 4.15-2.91 9.28-2.91 9.28 1.3 9.28 2.91Z" style="fill:#455a64"/><path d="M452.81 363.72h3.26v64.38h-3.26z" style="fill:#e0e0e0"/><path d="M463.48 364.29a18.27 18.27 0 0 1-18.08 0V357h18.08Z" style="fill:#263238"/><path d="M463.72 357.46c0 1.61-4.15 2.92-9.28 2.92s-9.29-1.31-9.29-2.92 4.16-2.91 9.29-2.91 9.28 1.3 9.28 2.91Z" style="fill:#455a64"/><path d="M476.86 363.72h3.26v64.46h-3.26z" style="fill:#e0e0e0"/><path d="M487.52 364.29a18.26 18.26 0 0 1-18.07 0V357h18.07Z" style="fill:#263238"/><path d="M487.77 357.46c0 1.61-4.15 2.92-9.28 2.92s-9.29-1.31-9.29-2.92 4.16-2.91 9.29-2.91 9.28 1.3 9.28 2.91Z" style="fill:#455a64"/><path d="M271.08 404.18a18.26 18.26 0 0 1-18.07 0v-7.31h18.07Z" style="fill:#263238"/><path d="M271.33 397.36c0 1.61-4.15 2.91-9.28 2.91s-9.29-1.3-9.29-2.91 4.16-2.92 9.29-2.92 9.28 1.31 9.28 2.92Z" style="fill:#455a64"/><path d="M259 421.41a18.27 18.27 0 0 1-18.08 0v-7.32H259Z" style="fill:#263238"/><path d="M259.23 414.58c0 1.61-4.15 2.92-9.28 2.92s-9.28-1.31-9.28-2.92 4.15-2.91 9.28-2.91 9.28 1.33 9.28 2.91Z" style="fill:#455a64"/><path d="M282.57 421.17a18.26 18.26 0 0 1-18.07 0v-7.31h18.07Z" style="fill:#263238"/><path d="M282.82 414.35c0 1.61-4.16 2.91-9.29 2.91s-9.28-1.3-9.28-2.91 4.16-2.92 9.28-2.92 9.29 1.31 9.29 2.92Z" style="fill:#455a64"/><path d="M306.15 409.27a18.26 18.26 0 0 1-18.07 0V402h18.07Z" style="fill:#263238"/><path d="M306.4 402.45c0 1.61-4.15 2.91-9.28 2.91s-9.29-1.3-9.29-2.91 4.16-2.92 9.29-2.92 9.28 1.31 9.28 2.92Z" style="fill:#455a64"/><path d="M330.89 409a18.23 18.23 0 0 1-18.08 0v-7.31h18.08Z" style="fill:#263238"/><path d="M331.13 402.21c0 1.61-4.15 2.92-9.28 2.92s-9.28-1.31-9.28-2.92 4.15-2.92 9.28-2.92 9.28 1.31 9.28 2.92Z" style="fill:#455a64"/><path d="M354.62 409a18.21 18.21 0 0 1-18.07 0v-7.31h18.07Z" style="fill:#263238"/><path d="M354.87 402.21c0 1.61-4.15 2.92-9.28 2.92s-9.29-1.31-9.29-2.92 4.16-2.92 9.29-2.92 9.28 1.31 9.28 2.92Z" style="fill:#455a64"/><path d="M379.16 409a18.23 18.23 0 0 1-18.08 0v-7.31h18.08Z" style="fill:#263238"/><path d="M379.4 402.21c0 1.61-4.15 2.92-9.28 2.92s-9.28-1.31-9.28-2.92 4.15-2.92 9.28-2.92 9.28 1.31 9.28 2.92Z" style="fill:#455a64"/><path d="M403.15 410.25a18.27 18.27 0 0 1-18.08 0v-7.31h18.08Z" style="fill:#263238"/><path d="M403.39 403.42c0 1.61-4.15 2.92-9.28 2.92s-9.28-1.31-9.28-2.92 4.15-2.91 9.28-2.91 9.28 1.3 9.28 2.91Z" style="fill:#455a64"/><path d="M427.14 409a18.23 18.23 0 0 1-18.08 0v-7.31h18.08Z" style="fill:#263238"/><path d="M427.39 402.21c0 1.61-4.16 2.92-9.29 2.92s-9.28-1.31-9.28-2.92 4.15-2.92 9.28-2.92 9.29 1.31 9.29 2.92Z" style="fill:#455a64"/><path d="M451.53 421.17a18.26 18.26 0 0 1-18.07 0v-7.31h18.07Z" style="fill:#263238"/><path d="M451.78 414.35c0 1.61-4.15 2.91-9.28 2.91s-9.29-1.3-9.29-2.91 4.16-2.92 9.29-2.92 9.28 1.31 9.28 2.92Z" style="fill:#455a64"/><path d="M477.94 424.32a19.16 19.16 0 0 1-18.57 0V417h18.57Z" style="fill:#263238"/><path d="M477.94 417c0 1.61-4.15 3.4-9.28 3.4s-9.31-1.6-9.31-3.21 4.18-2.85 9.31-2.85 9.28 1.06 9.28 2.66Z" style="fill:#455a64"/><path d="M295.34 394.63a18.26 18.26 0 0 1-18.07 0v-7.32h18.07Z" style="fill:#263238"/><path d="M295.59 387.8c0 1.61-4.16 2.92-9.29 2.92s-9.3-1.31-9.3-2.92 4.16-2.91 9.28-2.91 9.31 1.3 9.31 2.91Z" style="fill:#455a64"/><path d="M319.49 394.63a18.26 18.26 0 0 1-18.07 0v-7.32h18.07Z" style="fill:#263238"/><path d="M319.74 387.8c0 1.61-4.16 2.92-9.28 2.92s-9.29-1.31-9.29-2.92 4.16-2.91 9.29-2.91 9.28 1.3 9.28 2.91Z" style="fill:#455a64"/><path d="M343.23 394.63a18.26 18.26 0 0 1-18.07 0v-7.32h18.07Z" style="fill:#263238"/><path d="M343.48 387.8c0 1.61-4.16 2.92-9.29 2.92s-9.28-1.31-9.28-2.92 4.16-2.91 9.28-2.91 9.29 1.3 9.29 2.91Z" style="fill:#455a64"/><path d="M366.41 394.63a18.26 18.26 0 0 1-18.07 0v-7.32h18.07Z" style="fill:#263238"/><path d="M366.66 387.8c0 1.61-4.16 2.92-9.29 2.92s-9.28-1.31-9.28-2.92 4.15-2.91 9.28-2.91 9.29 1.3 9.29 2.91Z" style="fill:#455a64"/><path d="M390.53 394.63a18.26 18.26 0 0 1-18.07 0v-7.32h18.07Z" style="fill:#263238"/><path d="M390.78 387.8c0 1.61-4.15 2.92-9.28 2.92s-9.29-1.31-9.29-2.92 4.16-2.91 9.29-2.91 9.28 1.3 9.28 2.91Z" style="fill:#455a64"/><path d="M415 394.63a18.26 18.26 0 0 1-18.07 0v-7.32H415Z" style="fill:#263238"/><path d="M415.23 387.8c0 1.61-4.16 2.92-9.29 2.92s-9.28-1.31-9.28-2.92 4.16-2.91 9.28-2.91 9.29 1.3 9.29 2.91Z" style="fill:#455a64"/><path d="M439.62 394.63a18.26 18.26 0 0 1-18.07 0v-7.32h18.07Z" style="fill:#263238"/><path d="M439.87 387.8c0 1.61-4.16 2.92-9.29 2.92s-9.28-1.31-9.28-2.92 4.16-2.91 9.28-2.91 9.29 1.3 9.29 2.91Z" style="fill:#455a64"/><path d="M463.48 403.2a18.23 18.23 0 0 1-18.08 0v-7.31h18.08Z" style="fill:#263238"/><path d="M463.72 396.38c0 1.61-4.15 2.91-9.28 2.91s-9.29-1.3-9.29-2.91 4.16-2.92 9.29-2.92 9.28 1.31 9.28 2.92Z" style="fill:#455a64"/><path d="M487.56 394.63a18.26 18.26 0 0 1-18.07 0v-7.32h18.07Z" style="fill:#263238"/><path d="M487.81 387.8c0 1.61-4.16 2.92-9.28 2.92s-9.29-1.31-9.29-2.92 4.16-2.91 9.29-2.91 9.28 1.3 9.28 2.91Z" style="fill:#455a64"/><path d="m209.17 316.42 300.41 8.18-.05-8.18H209.17z" style="opacity:.4"/><path d="M451 237.1c0 .13-40.89.24-91.33.24s-91.34-.11-91.34-.24 40.89-.24 91.34-.24 91.33.14 91.33.24ZM509.18 346.41c0 .13-67.07.24-149.79.24s-149.81-.11-149.81-.24 67.06-.24 149.81-.24 149.79.11 149.79.24ZM228.72 331.16a4 4 0 1 1-4-4.05 4 4 0 0 1 4 4.05ZM240.85 331.16a4 4 0 1 1-4-4.05 4 4 0 0 1 4 4.05Z" style="fill:#263238"/><path d="M310.15 436.11v-10.26h90.55a1.45 1.45 0 0 1 1.44 1.47v8.79Z" style="fill:#e0e0e0"/><path d="M500.75 428.1H494.3l-18.1.07-63.62.1.17-.08-7.86 8-.07.07h-97.89l-.07-.05-9.81-7.36.14.05-60.54-.1-17.17-.06H213.37 219.48l17.17-.07 60.54-.09h.14l9.83 7.35-.15-.05h97.7l-.17.07 7.87-8 .07-.07h.1l63.62.09 18.1.07H500.33a3.33 3.33 0 0 1 .42.06ZM525.23 440.85c0 .14-74.33.26-166 .26s-166-.12-166-.26 74.31-.26 166-.26 166 .12 166 .26Z" style="fill:#263238"/><path d="M311.28 425.85h90a.85.85 0 0 1 .85.85v1.8h-92V427a1.13 1.13 0 0 1 1.15-1.15Z" style="fill:#fafafa"/><path d="M310.15 436.11a4.57 4.57 0 0 1 .48 0H317.32l19.54-.08 65.28-.11-.26.26v-8.25a1.69 1.69 0 0 0-.25-1 1.58 1.58 0 0 0-.88-.66 5.21 5.21 0 0 0-1.22-.07H330.4L318 426h-6.22a1.71 1.71 0 0 0-.92.4 1.78 1.78 0 0 0-.54.8 3 3 0 0 0-.08.95c0 2.54-.05 4.52-.06 5.89v2.09a4.9 4.9 0 0 1 0-.51v-1.52c0-1.38 0-3.38-.06-5.94a3.62 3.62 0 0 1 .09-1 1.92 1.92 0 0 1 .59-.91 2 2 0 0 1 1-.47H330.43l32.25-.06h36.88a5.06 5.06 0 0 1 1.37.09 2.11 2.11 0 0 1 1.17.88 2.28 2.28 0 0 1 .33 1.3v8.51h-.26l-65.47-.11-19.48-.08H310.62ZM466.99 261.45h-2V238.1H255.33v23.35h-2V236.1h213.66v25.35z" style="fill:#263238"/><path d="M269.34 233.9h22.83v6.52h-22.83zM428.45 233.9h22.83v6.52h-22.83z" style="fill:#263238"/><path d="M454.44 328.64h37.09v8.1h-37.09z" style="fill:#ebebeb"/><rect width="49.5" height="5.98" x="337.42" y="154.51" rx="1.93" style="fill:#e0e0e0"/><rect width="185.66" height="3.66" x="269.34" y="171.95" rx="1.18" style="fill:#e0e0e0"/><rect width="185.66" height="3.66" x="269.34" y="185.57" rx="1.18" style="fill:#e0e0e0"/><rect width="185.66" height="3.66" x="269.34" y="199.97" rx="1.18" style="fill:#e0e0e0"/><rect width="112.79" height="3.66" x="269.34" y="214.38" rx="1.18" style="fill:#e0e0e0"/><rect width="185.66" height="3.66" x="269.34" y="246.47" rx="1.18" style="fill:#e0e0e0"/><path d="m571 223.52 7.31-1a22.07 22.07 0 1 0-6-5.16Z" style="fill:#fff"/><path d="M571 223.52s0-.15.11-.42l.28-1.2c.24-1.06.59-2.59 1-4.54l-.18.07a.11.11 0 0 0 .16 0 .12.12 0 0 0 0-.14 21.81 21.81 0 0 1 22.26-34.87 21.3 21.3 0 0 1 9.3 5 21.82 21.82 0 0 1-25.61 35 .11.11 0 0 0-.08 0l-5.39.83-1.41.22a3.43 3.43 0 0 0-.49.09h.45l1.38-.17 5.49-.68h-.07a21.87 21.87 0 0 0 10.42 3.09A22.25 22.25 0 0 0 604.4 187a21.9 21.9 0 0 0-9.54-5.09 22.79 22.79 0 0 0-10.32-.12 22.43 22.43 0 0 0-14.54 11 22.06 22.06 0 0 0 2.28 24.62l.15-.16a.11.11 0 0 0-.16 0v.05c-.39 2-.7 3.56-.92 4.65-.09.5-.16.88-.22 1.18a2 2 0 0 0-.13.39Z" style="fill:#263238"/><path d="M596.26 204.36a2.24 2.24 0 1 1 2.24 2.24 2.24 2.24 0 0 1-2.24-2.24ZM587.3 204.36a2.24 2.24 0 1 1 2.24 2.24 2.24 2.24 0 0 1-2.24-2.24ZM578.37 205.48a2.24 2.24 0 1 1 3.06.82 2.24 2.24 0 0 1-3.06-.82Z" style="fill:#263238"/><circle cx="117.89" cy="323.24" r="22.31" style="fill:#fff" transform="rotate(-80.78 117.9 323.246)"/><path d="M140.2 323.24a2.52 2.52 0 0 1 0-.36c0-.27 0-.62-.07-1.06q0-.35-.06-.78c0-.28-.09-.59-.14-.93a16.26 16.26 0 0 0-.48-2.29 21.15 21.15 0 0 0-2.48-5.9 22.11 22.11 0 0 0-26.54-9.41 23.58 23.58 0 0 0-2.88 1.27 22.13 22.13 0 0 0-2.7 1.74 26.43 26.43 0 0 0-2.51 2.13 24.34 24.34 0 0 0-2.16 2.56 21.48 21.48 0 0 0-3.18 6.07 22 22 0 0 0 0 13.91 21.28 21.28 0 0 0 3.15 6.08 25.4 25.4 0 0 0 2.16 2.56 26.32 26.32 0 0 0 2.5 2.13 24.41 24.41 0 0 0 2.71 1.74 23.58 23.58 0 0 0 2.88 1.27 22.26 22.26 0 0 0 11.59 1 21.92 21.92 0 0 0 9.31-4.12 22.16 22.16 0 0 0 5.64-6.26 21.15 21.15 0 0 0 2.48-5.9 16.55 16.55 0 0 0 .48-2.29c.05-.34.11-.65.14-.93s0-.55.06-.78c0-.45 0-.79.07-1.06a2.52 2.52 0 0 1 0-.36 2 2 0 0 1 0 .36v1.85c0 .29-.08.6-.12.94a14.86 14.86 0 0 1-.43 2.32 20.92 20.92 0 0 1-2.43 6 22.4 22.4 0 0 1-15.12 10.66 22.66 22.66 0 0 1-11.84-.94 24.52 24.52 0 0 1-2.94-1.29 23.17 23.17 0 0 1-2.77-1.77 26.23 26.23 0 0 1-2.56-2.17 25.58 25.58 0 0 1-2.22-2.62 21.84 21.84 0 0 1-3.23-6.21 22.43 22.43 0 0 1 0-14.24 22 22 0 0 1 3.23-6.22 26.57 26.57 0 0 1 2.22-2.61 24.91 24.91 0 0 1 2.56-2.17 23.17 23.17 0 0 1 2.77-1.77 24.52 24.52 0 0 1 2.94-1.29 22.56 22.56 0 0 1 11.84-.94 22.44 22.44 0 0 1 15.12 10.65 21.08 21.08 0 0 1 2.43 6 14.86 14.86 0 0 1 .43 2.32c0 .34.1.65.12.94v1.85a2 2 0 0 1 .03.32Z" style="fill:#263238"/><circle cx="143.44" cy="337.98" r="3.25" style="fill:#fff"/><path d="M146.69 338a7 7 0 0 1-.2-.77 3.19 3.19 0 0 0-1.19-1.66 3.07 3.07 0 0 0-2.88-.39 3 3 0 0 0 0 5.64 3.07 3.07 0 0 0 2.88-.39 3.19 3.19 0 0 0 1.19-1.66 7 7 0 0 1 .2-.77 1.46 1.46 0 0 1 0 .82 3.28 3.28 0 0 1-1.17 1.91 3.42 3.42 0 0 1-3.26.55 3.47 3.47 0 0 1 0-6.55 3.39 3.39 0 0 1 3.26.55 3.24 3.24 0 0 1 1.17 1.9 1.46 1.46 0 0 1 0 .82ZM124.71 323.24a2.28 2.28 0 1 1 2.27 2.27 2.27 2.27 0 0 1-2.27-2.27ZM115.62 323.24a2.27 2.27 0 1 1 2.27 2.27 2.27 2.27 0 0 1-2.27-2.27ZM106.55 324.38a2.28 2.28 0 1 1 3.11.83 2.28 2.28 0 0 1-3.11-.83ZM496.22 204.18a7.69 7.69 0 0 1-1.86-6.33c.5-2.22 2.71-4.1 4.95-3.7a5.58 5.58 0 0 1 8.69-5.7 3 3 0 0 1 2-2.84c1-.42 4.8 0 5.73 2.25l3.17 18.64a11.82 11.82 0 0 1-1.32 16.72 5.84 5.84 0 0 1-6.85 8.46 5.53 5.53 0 1 1-10.23-3.88c-2.72.71-5.54-1.64-6.12-4.39s.54-5.6 2.15-7.9a6.17 6.17 0 0 1-.35-11.33Z" style="fill:#263238"/><path d="M512.23 190.6c-2.59.66-3.24 2.69-3.87 4.38-1.37 3.62-.43 9.17 1.44 12.57s4 5.2 7.82 6l1.47-17.55Z" style="fill:#eb8045"/><path d="M510.17 200.61a6.1 6.1 0 0 1 1-7.76c-1-1.47-.5-3.6.72-4.92a12 12 0 0 1 4.62-2.65 8.22 8.22 0 0 1 9.93-5.4c2.32-3 6.87-3.2 10.43-1.92a9.63 9.63 0 0 0 2.65.75 15.4 15.4 0 0 0 2-.15c3.72-.27 7.21 2.55 8.44 6.07a7 7 0 0 0 .68 1.65 10 10 0 0 0 1.73 1.57 5.88 5.88 0 0 1 2 4.49c0 1.43-.58 2.92-.06 4.26.26.67.78 1.23 1 1.92.56 2-1.74 3.89-1.47 5.95a12.51 12.51 0 0 0 .32 1.24 3.71 3.71 0 0 1-.38 2.53 5.35 5.35 0 0 0-.92 1.77 6 6 0 0 0 .21 1.51c.17 1.23-2.75 5.77-3.84 6.37l-31.49-1.67a5.89 5.89 0 0 1-4.24-5.34 2.12 2.12 0 0 0-.22-1.18 2.51 2.51 0 0 0-.82-.61c-2-1.21-2-4-1.68-6.29a2.82 2.82 0 0 0 0-1 3.45 3.45 0 0 0-.61-1.19Z" style="fill:#263238"/><path d="M519.19 201.22a16.87 16.87 0 0 1 9.81-14.14 20.86 20.86 0 0 1 8.16-1.45 12.81 12.81 0 0 1 7.33 2c1.71.51 7.7 6.73 7.64 13.07-.07 7-.43 15.63-1.64 20.79-2.43 10.4-10.59 11.15-10.59 11.15l-.16 8.76 4.26 12.44-20.7 8.09-4.79-20.59Z" style="fill:#ffbf9d"/><path d="M548.65 209a1.34 1.34 0 0 1-1.4 1.26A1.29 1.29 0 0 1 546 209a1.35 1.35 0 0 1 1.4-1.27 1.28 1.28 0 0 1 1.25 1.27ZM549.45 204.58c-.18.16-1.14-.67-2.59-.77s-2.57.54-2.71.35.12-.38.61-.69a3.71 3.71 0 0 1 2.18-.5 3.54 3.54 0 0 1 2 .83c.47.37.6.7.51.78ZM540.13 215.42a9.09 9.09 0 0 1 2.39-.26c.37 0 .73-.06.81-.31a1.84 1.84 0 0 0-.17-1.11l-.89-2.9c-1.23-4.13-2.09-7.51-1.92-7.56s1.3 3.26 2.53 7.38c.29 1 .57 2 .84 2.92a2.15 2.15 0 0 1 .09 1.47.91.91 0 0 1-.65.49 2.49 2.49 0 0 1-.64.05 9.85 9.85 0 0 1-2.39-.17Z" style="fill:#263238"/><path d="M539.93 232.66a26.92 26.92 0 0 1-13.85-4.78s3.21 7.68 13.8 7.46Z" style="fill:#ff9a6c"/><path d="M548.92 198.7c-.27.34-1.36 0-2.67 0s-2.4.27-2.66-.07c-.12-.16 0-.5.52-.82a3.91 3.91 0 0 1 2.16-.59 4 4 0 0 1 2.14.61c.47.37.59.71.51.87ZM532.57 208.69a1.34 1.34 0 0 0 1.25 1.41 1.29 1.29 0 0 0 1.44-1.17 1.34 1.34 0 0 0-1.25-1.4 1.28 1.28 0 0 0-1.44 1.16ZM529.56 203.7c.16.18 1.21-.54 2.67-.48s2.49.82 2.65.64-.07-.4-.53-.75a3.72 3.72 0 0 0-2.12-.74 3.6 3.6 0 0 0-2.13.61c-.46.33-.62.64-.54.72ZM529.91 198c.28.34 1.41 0 2.76.07s2.48.31 2.76 0c.12-.16 0-.5-.54-.83a4.16 4.16 0 0 0-2.22-.62 4.08 4.08 0 0 0-2.22.59c-.45.3-.66.63-.54.79Z" style="fill:#263238"/><path d="M520.15 211.3c.06-.78-.71-2.69-1.48-2.87-2-.47-5.77-.57-6.19 4.67-.56 7.16 6.75 6.26 6.78 6.05s.74-5.15.89-7.85Z" style="fill:#ffbf9d"/><path d="M517.49 216.38s-.14.07-.35.15a1.25 1.25 0 0 1-.94-.05 3.1 3.1 0 0 1-1.2-2.88 4.21 4.21 0 0 1 .49-1.76 1.46 1.46 0 0 1 1-.89.64.64 0 0 1 .71.4c.08.21 0 .35.06.36s.16-.1.13-.4a.78.78 0 0 0-.25-.47.92.92 0 0 0-.68-.24 1.75 1.75 0 0 0-1.39 1 4.22 4.22 0 0 0-.59 2c-.07 1.45.56 2.86 1.58 3.24a1.34 1.34 0 0 0 1.15-.1c.25-.19.3-.35.28-.36Z" style="fill:#ff9a6c"/><path d="M553.76 200.3a4 4 0 0 1-2-3.87c-1 .21-1.87-1.06-2.37-1.9s-1.16-1.29-1-2.26a1.1 1.1 0 0 0 0-.57c-.13-.27-.46-.38-.76-.49a4.73 4.73 0 0 1-2.93-3.45 10.5 10.5 0 0 1-5 .44 4 4 0 0 1-6.56-.74 3.5 3.5 0 0 1-2.46 1.5 10.71 10.71 0 0 1-3-.05 4 4 0 0 1-3 4.3 1.06 1.06 0 0 0-.7.34c-.14.23 0 .52.06.78a3.13 3.13 0 0 1-2.47 3.83 2.28 2.28 0 0 1-.49 3.63c-.27.14-.62.3-.61.59a.79.79 0 0 0 .14.31 4.47 4.47 0 0 1 1 2.36 1.69 1.69 0 0 1-1.56 1.76 2.16 2.16 0 0 1 .8 1.58c0 .6-.71 1.17-1.27.91-.24-.11-3.77-1-3.91-1.25-1.84-2.81.94-5.57 1.38-8.85a21.22 21.22 0 0 1 3.8-9.14 15.56 15.56 0 0 1 2.8-3.16 21.57 21.57 0 0 1 4.15-2.52 20.4 20.4 0 0 1 6-2.25c3.94-.61 7.87 1 11.36 2.9a16.58 16.58 0 0 1 3.74 2.49 14.55 14.55 0 0 1 3 4.37 17.92 17.92 0 0 1 2.08 7.27" style="fill:#263238"/><path d="M555.33 198.52a2.69 2.69 0 0 0-.33-.79c-.14-.25-.33-.55-.51-.92a3.25 3.25 0 0 1-.3-1.36 10.39 10.39 0 0 1 .15-1.77 8.27 8.27 0 0 0 .1-2.14 6.06 6.06 0 0 0-1.6-3.4 8 8 0 0 0-1.07-.92 4.7 4.7 0 0 1-1-1 6.07 6.07 0 0 1-.59-1.4 9.58 9.58 0 0 0-4.17-5.22 8.59 8.59 0 0 0-1.68-.78 7.72 7.72 0 0 0-1.87-.34 7.87 7.87 0 0 0-1 0c-.32 0-.64.07-1 .1a4.61 4.61 0 0 1-1.92-.13c-.63-.17-1.25-.45-1.9-.66a12.71 12.71 0 0 0-4.1-.67 11 11 0 0 0-2.13.24 7.09 7.09 0 0 0-3.78 2.13l-.29.33h.12a8.06 8.06 0 0 0-6.26.82 8 8 0 0 0-3.81 4.66l.06-.07a22.52 22.52 0 0 0-2.6 1.15 7.59 7.59 0 0 0-2.18 1.69 4.89 4.89 0 0 0-1.11 2.41 3.38 3.38 0 0 0 .51 2.47v-.12a5.93 5.93 0 0 0-1.91 3.57 5.92 5.92 0 0 0 .92 4.36c.16.23.32.44.45.67a1.56 1.56 0 0 1 .2.72 3.64 3.64 0 0 1-.07.74 11.7 11.7 0 0 0-.11 2.73 5.63 5.63 0 0 0 .56 2.12 3.47 3.47 0 0 0 1 1.24c.35.27.67.39.85.54a1.68 1.68 0 0 1 .24.23.86.86 0 0 0-.23-.26c-.17-.15-.49-.28-.83-.55a3.55 3.55 0 0 1-1-1.23 5.58 5.58 0 0 1-.53-2.1 11 11 0 0 1 .14-2.7 4.56 4.56 0 0 0 .07-.76 1.66 1.66 0 0 0-.21-.78 6.83 6.83 0 0 0-.45-.69 5.3 5.3 0 0 1-.42-.73 6 6 0 0 1-.46-3.53 5.74 5.74 0 0 1 1.87-3.45h.06l-.05-.07a3.21 3.21 0 0 1-.48-2.34 4.81 4.81 0 0 1 1.07-2.31 7.35 7.35 0 0 1 2.13-1.64 22.52 22.52 0 0 1 2.59-1.14 7.79 7.79 0 0 1 3.71-4.54 7.87 7.87 0 0 1 6.09-.79h.07v-.06l.28-.32a6.88 6.88 0 0 1 3.66-2.06 10.55 10.55 0 0 1 2.09-.24 12.82 12.82 0 0 1 2.06.17 13 13 0 0 1 2 .49c.64.21 1.25.48 1.91.66a4.66 4.66 0 0 0 1 .17 6.65 6.65 0 0 0 1 0c.32 0 .64-.09 1-.11a7.39 7.39 0 0 1 .94 0 7.32 7.32 0 0 1 1.82.33 8.51 8.51 0 0 1 1.65.75 9.5 9.5 0 0 1 4.11 5.12 6 6 0 0 0 .6 1.43 4.84 4.84 0 0 0 1.07 1.05 8.52 8.52 0 0 1 1.06.9 5.84 5.84 0 0 1 1.58 3.32 7.61 7.61 0 0 1-.08 2.1 9.67 9.67 0 0 0-.14 1.79 3.51 3.51 0 0 0 .33 1.39c.19.38.39.66.53.91a3.38 3.38 0 0 1 .29.57c.21-.05.23.03.23.02Z" style="fill:#455a64"/><path d="M530 178.54s.2-.1.56-.24a4.65 4.65 0 0 1 1.59-.35 4.47 4.47 0 0 1 2.34.51 4.61 4.61 0 0 1 2 2.09 3.84 3.84 0 0 1 .3.84.91.91 0 0 1-.1.75l-.19.23.29-.06a3 3 0 0 1 2.2.42 2.79 2.79 0 0 1 1.12 1.41 3 3 0 0 1 .2 1.2v.45-.11a1.23 1.23 0 0 0 .06-.34 2.85 2.85 0 0 0-.14-1.25 3 3 0 0 0-1.15-1.52 3.12 3.12 0 0 0-2.34-.47l.1.17a1.07 1.07 0 0 0 .15-.93 3.41 3.41 0 0 0-.31-.88 4.8 4.8 0 0 0-2.11-2.18 4.69 4.69 0 0 0-4.06-.06 2.44 2.44 0 0 0-.39.22ZM517.74 186a1.17 1.17 0 0 0 .24.27 4.5 4.5 0 0 0 .77.62 3.53 3.53 0 0 0 1.4.53A2.58 2.58 0 0 0 522 187h-.16l.19.31.22.3a4.49 4.49 0 0 0 3.41 1.57 3.89 3.89 0 0 0 1.15-.18 1.54 1.54 0 0 0 .39-.17 7 7 0 0 1-1.54.2 4.62 4.62 0 0 1-1.62-.37 4.25 4.25 0 0 1-1.62-1.19l-.21-.28-.18-.29-.07-.11-.09.07a2.4 2.4 0 0 1-1.67.4 3.58 3.58 0 0 1-1.35-.46c-.73-.49-1.08-.87-1.11-.8ZM513.49 192.34v.13a1.22 1.22 0 0 0 .13.36 2 2 0 0 0 1.1.85 3.61 3.61 0 0 0 2.07-.08 10.29 10.29 0 0 0 1.16-.37 1.93 1.93 0 0 0 1-.83l.06-.11h-.18a8.46 8.46 0 0 0 2 1.42 3.64 3.64 0 0 0 2 .35 2.66 2.66 0 0 0 1.28-.48 2 2 0 0 0 .28-.24l.08-.11s-.14.12-.41.29a2.91 2.91 0 0 1-1.24.39 3.6 3.6 0 0 1-1.9-.38 8.08 8.08 0 0 1-2-1.4l-.11-.1-.06.14v.09a1.83 1.83 0 0 1-.94.74c-.38.15-.77.26-1.13.37a3.58 3.58 0 0 1-2 .12 1.83 1.83 0 0 1-1.07-.74 3.1 3.1 0 0 1-.12-.41Z" style="fill:#455a64"/><path d="M534.67 216.26a19.91 19.91 0 0 1 4.54 2.34c0 .74-1.37 2.19-2.09 2.39a2.55 2.55 0 0 1-2.26-.56 3.11 3.11 0 0 1-.84-2.08 4.73 4.73 0 0 1 .65-2.09Z" style="fill:#ff9a6c"/><path d="M536.91 221.06a5 5 0 0 1-1.56-.51 2.8 2.8 0 0 1-1.11-1.29 2.84 2.84 0 0 1 0-2 2.62 2.62 0 0 1 .53-.83h-.25a31 31 0 0 0 4.34 1.92 29.63 29.63 0 0 0-4.15-2.3l-.14-.07-.11.11a3 3 0 0 0-.62 1 3.1 3.1 0 0 0 0 2.36 2.92 2.92 0 0 0 1.32 1.4 2.11 2.11 0 0 0 1.75.21Z" style="fill:#263238"/><path d="M515.44 219.08a2.3 2.3 0 1 0 4.56.59 2.3 2.3 0 0 0-4.56-.59Z" style="fill:#455a64"/><path d="M572.09 250.58h15.49v1.7h-15.49a.79.79 0 0 1-.79-.79v-.12a.79.79 0 0 1 .79-.79Z" style="fill:#263238" transform="rotate(38.48 579.468 251.453)"/><path d="M578.16 267.59s1.76-7 3-9.3a5.09 5.09 0 0 1 1.14-2 50.93 50.93 0 0 1 6.21-4.49c.41-.14 7.26-.09 7.26-.09s.34 2.07-1.21 2.43a2.78 2.78 0 0 1-.22 2.31 2.33 2.33 0 0 1 1.66 1.25 2.21 2.21 0 0 1 .06 2.16 2.61 2.61 0 0 1 1.19 2.53c-.19 1.73-1.13 1.91-1.13 1.91s1 2.63-.11 3.38-2.73 1.68-2.73 1.68-2.5 5.87-3.6 6.69a4.07 4.07 0 0 1-2.64.6l-25.92 25.89-6.26-18.07Z" style="fill:#ffbf9d"/><path d="M584.55 254.67a12.32 12.32 0 0 1 5.13-2.09 8.85 8.85 0 0 1 2.18-.25 3.31 3.31 0 0 1 1.76.55c.91.63.94 1.42.87 1.4a2.83 2.83 0 0 0-2.64-1.47 9.31 9.31 0 0 0-2.06.28c-2.96.61-5.17 1.72-5.24 1.58ZM589.79 257.22c-.08-.11.76-.76 2-1a3.18 3.18 0 0 1 2.27.12 13.11 13.11 0 0 1-2.16.39 12.79 12.79 0 0 1-2.11.49ZM596.34 259.84a13.73 13.73 0 0 1-5.3.72 7.23 7.23 0 0 1 2.62-.62 6.84 6.84 0 0 1 2.68-.1ZM596.24 263.93c0 .15-.84.2-1.85.23s-1.85 0-1.87-.12.81-.37 1.85-.4 1.89.15 1.87.29Z" style="fill:#ff9a6c"/><path d="m577.8 280.81-1.75-1.8 36.6-34.34 2.86 1.76-37.71 34.38z" style="fill:#fff"/><path d="m577.8 280.81.2-.2.56-.55 2.18-2 8-7.41 26.59-24.38v.41l-2.14-1.32-.71-.44h.31c-17.38 16.31-32.05 30-36.73 34.21V279c.55.6 1 1.05 1.28 1.37a3.17 3.17 0 0 1 .41.48l-.43-.4-1.32-1.38-.06-.05.06-.02c4.54-4.4 19.1-18.17 36.48-34.48l.14-.14.17.11.71.44 2.14 1.32.3.18-.26.23L588.81 271l-8.07 7.25-2.18 1.94-.56.49c-.13.09-.2.14-.2.13Z" style="fill:#263238"/><path d="m586.18 287.63-8.44-4.86a1 1 0 0 1-.18-1.6l37.23-34.93a1.17 1.17 0 0 1 1.59 0l7.85 7Z" style="fill:#eb8045"/><path d="M622.6 251.8a2.05 2.05 0 0 1-.36.39l-1.07 1.05-4 3.79-13.45 12.37c-5.25 4.83-10 9.17-13.48 12.3l-4.13 3.69-1.14 1a2.28 2.28 0 0 1-.42.32s.11-.15.35-.4l1.07-1.05 4-3.81c3.4-3.2 8.13-7.59 13.38-12.42s10-9.13 13.52-12.25l4.14-3.67 1.14-1c.29-.22.43-.33.45-.31Z" style="fill:#263238"/><path d="M518.72 234.67s-8.4 5.73-9.57 21.62c-.73 9.87 12.13 53.75 12.13 53.75s-5.78 29.3-4.57 31c3.65 5.18 17 2.19 20.74-2 9-10.18 25.13-30.41 25.13-30.41l1-2.46-6.58-15.59s3.84-11.82 2.32-21.26c-1.25-7.75-19.61-29-19.61-29Z" style="fill:#eb8045"/><path d="M533.5 245.93c-5.21-7.92-17.72-6.33-20.57 2.62-1.64 5.13-1.89 12.7 2 23.58 9.4 26.33 16.36 34.14 22.53 38.84 8.62 6.57 32.45-16 32.45-16l-9.51-14.63-12.94 8.14s-10.76-35.52-12.24-39.31a18.39 18.39 0 0 0-1.72-3.24Z" style="fill:#eb8045"/><path d="M533.5 245.93a15 15 0 0 1 1.59 2.76c.8 1.93 1.7 4.84 2.9 8.55 2.38 7.44 5.7 18.14 9.67 31.15l-.32-.12 12.93-8.16.19-.13.13.2 9.52 14.62.11.18-.15.14a125.22 125.22 0 0 1-10.46 8.69 59 59 0 0 1-12.33 7.28 17.27 17.27 0 0 1-5.33 1.3 8.25 8.25 0 0 1-2.75-.26 7.25 7.25 0 0 1-2.4-1.34 38 38 0 0 1-7.27-7.58 89.75 89.75 0 0 1-9.5-17.38c-.63-1.44-1.21-2.89-1.8-4.31l-1.65-4.24c-1-2.81-2.08-5.52-2.89-8.22a40.89 40.89 0 0 1-1.94-15.45 23.93 23.93 0 0 1 .56-3.47c.13-.56.29-1.1.45-1.63l.63-1.54a10.9 10.9 0 0 1 4.1-4.48 12.46 12.46 0 0 1 5-1.71 13.22 13.22 0 0 1 4.44.33 11.09 11.09 0 0 1 5.24 3.13 4.14 4.14 0 0 1 .61.71l.4.54.31.44s-.13-.13-.36-.41l-.41-.52a4.69 4.69 0 0 0-.62-.69 11.14 11.14 0 0 0-5.22-3 12.88 12.88 0 0 0-4.37-.28 12.08 12.08 0 0 0-4.88 1.71 10.71 10.71 0 0 0-4 4.38c-.19.49-.39 1-.59 1.49s-.32 1.06-.44 1.61a24.9 24.9 0 0 0-.54 3.42 40.72 40.72 0 0 0 2 15.3c.8 2.67 1.86 5.38 2.9 8.18l1.65 4.22c.6 1.42 1.18 2.86 1.81 4.3a90.37 90.37 0 0 0 9.47 17.27 37.58 37.58 0 0 0 7.18 7.47 6.49 6.49 0 0 0 2.23 1.25 7.65 7.65 0 0 0 2.57.24 16.89 16.89 0 0 0 5.17-1.27 58.15 58.15 0 0 0 12.22-7.21 124.06 124.06 0 0 0 10.42-8.63v.32l-9.49-14.65.32.08-12.95 8.12-.24.15-.08-.27c-4-13-7.21-23.71-9.49-31.19-1.17-3.72-2-6.66-2.79-8.58a18 18 0 0 0-1.07-2.11l-.3-.52c-.06-.11-.1-.17-.09-.18Z" style="fill:#263238"/><path d="M543.5 299.24a22.21 22.21 0 0 1 4-10.78c.14.08-1.12 2.34-2.21 5.31s-1.64 5.5-1.79 5.47ZM651.1 329.42l11.32 16.69s20.77-5.9 23.17-3L654 366.21l-18.7-25.29Z" style="fill:#263238"/><path d="M651.66 351.89a1.61 1.61 0 0 0 .18 2.13 1.54 1.54 0 0 0 2.11-.17 1.69 1.69 0 0 0-.21-2.25 1.59 1.59 0 0 0-2.17.42" style="fill:#e0e0e0"/><path d="m654 366.21-1.79-2.63 30.95-21.17s1.85-.42 2.42.69Z" style="fill:#455a64"/><path d="M662.82 345.58c.11.16-.61.79-1 1.84s-.33 2-.51 2-.61-1-.11-2.28 1.55-1.73 1.62-1.56ZM667.13 344.52c.15.13-.33.88-.37 1.91s.3 1.84.14 1.95-.89-.7-.81-2 .91-2 1.04-1.86ZM671.92 347.11c-.12.14-.9-.48-1.12-1.61s.25-2 .41-1.92 0 .86.24 1.79.61 1.63.47 1.74ZM659.82 342.06c0 .19-.83.49-1.66 1.19s-1.3 1.47-1.48 1.4.07-1.11 1.06-1.91 2.06-.86 2.08-.68Z" style="fill:#fff"/><path d="m644.12 328 3.88 21.17s20.38 7.13 20.67 10.86l-39.12.72-.34-14.23-6.61-25.77Z" style="fill:#263238"/><path d="M635.86 347.69a1.6 1.6 0 0 0-1.07 1.85 1.54 1.54 0 0 0 1.81 1.08 1.7 1.7 0 0 0 1.13-2 1.59 1.59 0 0 0-2-.91" style="fill:#e0e0e0"/><path d="m629.54 360.75.05-3.17 37.49.5s1.76.72 1.58 1.95Z" style="fill:#455a64"/><path d="M648.62 349c0 .19-1 .29-1.89.92s-1.41 1.45-1.59 1.37.09-1.18 1.23-1.92 2.29-.59 2.25-.37ZM652.75 350.58c0 .18-.77.52-1.41 1.34s-.8 1.68-1 1.68-.33-1.09.47-2.09 1.94-1.11 1.94-.93ZM655.17 355.45c-.17 0-.45-.91 0-2s1.36-1.49 1.44-1.34-.46.73-.83 1.6-.42 1.71-.61 1.74ZM648.19 344.35c-.08.18-1-.07-2 0s-1.91.45-2 .29.7-.86 2-1 2.09.56 2 .71Z" style="fill:#fff"/><path d="M668.66 360a.72.72 0 0 1-.11-.21 2.67 2.67 0 0 0-.32-.56 7.7 7.7 0 0 0-1.78-1.63 28 28 0 0 0-3.11-1.87c-1.21-.65-2.59-1.28-4-2.05-2.8-1.48-5.41-2.71-7.33-3.5a23.11 23.11 0 0 0-2.3-.84c-.56-.16-.87-.19-.88-.23a2 2 0 0 1 .92 0 15.37 15.37 0 0 1 2.39.69 63.45 63.45 0 0 1 7.45 3.39c1.39.76 2.76 1.41 4 2.09a23.43 23.43 0 0 1 3.11 2 6.74 6.74 0 0 1 1.73 1.82 1.83 1.83 0 0 1 .25.64c0 .26 0 .26-.02.26ZM638.72 346.45a41.89 41.89 0 0 1-9.32 0 41.89 41.89 0 0 1 9.32 0Z" style="fill:#455a64"/><path d="M521.28 341.58s.09.29.3.81a28.08 28.08 0 0 0 25.61 17.79l10 .22a24 24 0 0 0 19-8.57q1.44-1.72 3-3.93c8.79-12.11 27.33-43.23 27.33-43.23s1.28 11.33 12.94 23.23 24.64 23.51 24.64 23.51l16.65-8.87s-27.65-49.55-31.66-56-13.09-20.75-25.59-16.61-42.42 39.63-42.42 39.63Z" style="fill:#263238"/><path d="M660.81 342.54s-.09.08-.28.2l-.88.5-3.34 1.85-12 6.51-.14.08-.12-.11c-4.43-4.15-9.69-9.13-15.28-14.52-4-3.83-7.73-7.5-11.07-10.92a36.27 36.27 0 0 1-7.32-10.38 51.48 51.48 0 0 1-3.05-8c-.27-1-.46-1.74-.57-2.26a4.35 4.35 0 0 1-.14-.81 6.62 6.62 0 0 1 .24.78c.14.51.36 1.26.66 2.23a55.85 55.85 0 0 0 3.2 7.9 36.22 36.22 0 0 0 7.28 10.2c3.35 3.4 7.13 7 11.09 10.89l15.22 14.57h-.25l12.13-6.35 3.4-1.74.9-.44a1.82 1.82 0 0 1 .32-.18Z" style="fill:#455a64"/><path d="M213.57 313.22a16.41 16.41 0 0 1-8.65-2.46c4.81-.47 8.62-5.25 8.46-10.08s-3.91-9.17-8.55-10.54a14.85 14.85 0 0 0-13.53 3.22 14.54 14.54 0 0 0-5 8.6l9.7 14.41a14.51 14.51 0 0 0 15.75.71l-5.26-.95a9.33 9.33 0 0 0 7.08-2.91Z" style="fill:#263238"/><path d="M193.24 303.59a13.68 13.68 0 0 0-2.48-3.35 4.64 4.64 0 0 0-3.83-1.28 1.92 1.92 0 0 0-1.52 1.11c-.22.62.25 1.45.9 1.39l.14.12q2.19 1.94 4.45 3.78a3.74 3.74 0 0 0 1.24.77 1.31 1.31 0 0 0 1.36-.29c.5-.6.15-1.55-.26-2.25Z" style="fill:#eb8045"/><path d="M196 308.37a24.58 24.58 0 0 0-19-9.47c-4.32-.07-6.11.83-9.22 1.67a13.63 13.63 0 0 0-7.77 5.14 22.89 22.89 0 0 0-4.48 10.44 32.63 32.63 0 0 0 .62 10.89 43.09 43.09 0 0 0 5.83 12.86l6.64.81c5.51.18 11.09.36 16.46-.89s10.59-4.15 13.46-8.85c3.95-6.54 2.3-16.67-2.54-22.6Z" style="fill:#263238"/><path d="m187.11 308.31-13.3-5.31-3.48.4c-7.82 0-13.21 8.65-13.26 15-.06 7 .15 15.62 1.27 20.81 2.25 10.43 11.14 11.29 11.14 11.29s-.18 5.56-.24 9.06l20.36-1.47 1-46.22a3.69 3.69 0 0 0-3.49-3.56Z" style="fill:#ae7461"/><path d="M174 336.78a2.2 2.2 0 0 0-.77-1.37 2.27 2.27 0 0 0-2.75-.16 3.05 3.05 0 0 0-1.15 2.86 2.75 2.75 0 0 0 2 1.14 2.32 2.32 0 0 0 .37 0 2.4 2.4 0 0 0 1.67-.66 2.2 2.2 0 0 0 .63-1.81Z" style="fill:#6f4439"/><path d="M160.59 327.31a1.36 1.36 0 0 0 1.41 1.29 1.29 1.29 0 0 0 1.32-1.29 1.34 1.34 0 0 0-1.37-1.29 1.3 1.3 0 0 0-1.36 1.29ZM159.45 321.92c.18.17 1.16-.64 2.61-.72s2.56.59 2.71.41-.12-.39-.6-.71a3.75 3.75 0 0 0-2.18-.54 3.56 3.56 0 0 0-2.06.8c-.43.36-.56.69-.48.76ZM168.78 333.31a9.89 9.89 0 0 0-2.38-.3c-.37 0-.73-.07-.8-.32a1.85 1.85 0 0 1 .18-1.11c.3-.92.62-1.88.94-2.88 1.31-4.11 2.23-7.47 2.06-7.52s-1.35 3.23-2.66 7.33l-.89 2.9a2.14 2.14 0 0 0-.11 1.47.91.91 0 0 0 .64.5 2.47 2.47 0 0 0 .63.06 9.42 9.42 0 0 0 2.39-.13Z" style="fill:#263238"/><path d="M169.47 350.5a26.78 26.78 0 0 0 13.88-4.5s-3.35 7.5-13.94 7.09Z" style="fill:#6f4439"/><path d="M173.11 334.08c-.24 0-.15 1.57-1.44 2.77s-3 1.11-3 1.33.39.28 1.1.26a3.9 3.9 0 0 0 2.49-1 3.4 3.4 0 0 0 1.11-2.31c.04-.69-.15-1.07-.26-1.05ZM160 316.84c.26.34 1.36 0 2.66.08s2.4.32 2.67 0c.12-.16 0-.5-.51-.83a4.12 4.12 0 0 0-4.3-.05c-.52.3-.69.63-.52.8ZM176.44 326.94a1.36 1.36 0 0 1-1.28 1.39 1.3 1.3 0 0 1-1.42-1.19 1.36 1.36 0 0 1 1.28-1.39 1.3 1.3 0 0 1 1.42 1.19ZM179.1 321.36c-.17.18-1.2-.56-2.66-.53s-2.5.78-2.66.6.08-.4.54-.74a3.66 3.66 0 0 1 2.13-.7 3.58 3.58 0 0 1 2.12.64c.43.37.61.65.53.73ZM178.23 316.71c-.28.34-1.41 0-2.76 0s-2.49.27-2.76-.08c-.12-.16.06-.49.55-.82a4.26 4.26 0 0 1 2.23-.58 4.09 4.09 0 0 1 2.21.63c.49.35.65.69.53.85Z" style="fill:#263238"/><path d="M188.82 329.56c0-.79.76-2.68 1.53-2.85 2.05-.43 5.78-.47 6.1 4.77.44 7.17-6.85 6.14-6.87 5.93s-.58-5.15-.76-7.85Z" style="fill:#ae7461"/><path d="M191.39 334.67s.13.08.35.16a1.23 1.23 0 0 0 .94 0 3.12 3.12 0 0 0 1.26-2.87 4.28 4.28 0 0 0-.46-1.76 1.47 1.47 0 0 0-1-.9.64.64 0 0 0-.72.38c-.08.21 0 .35-.06.37s-.17-.11-.13-.41a.8.8 0 0 1 .26-.47 1 1 0 0 1 .68-.23 1.79 1.79 0 0 1 1.37 1 4.28 4.28 0 0 1 .56 2c0 1.44-.62 2.84-1.64 3.21a1.37 1.37 0 0 1-1.15-.12c-.23-.19-.28-.35-.26-.36Z" style="fill:#6f4439"/><path d="m190.64 326.73-1.82 1.89c-7.87-7.53-23.24-26.38-22.38-25.26a23 23 0 0 1 11.23-1.22c5.85 1 17 3.93 16.78 10.83s-3.81 13.76-3.81 13.76Z" style="fill:#263238"/><path d="M199 326.28a3.82 3.82 0 0 0-.28-1.57 7.28 7.28 0 0 0-2.69-3.37 16.33 16.33 0 0 0-6-2.35 35.62 35.62 0 0 1-7.44-2.36 31.32 31.32 0 0 1-6.63-4.09 32.48 32.48 0 0 1-7.07-8l-.61-1c-.14-.23-.22-.35-.24-.34a2.31 2.31 0 0 0 .17.37l.55 1.05a29.76 29.76 0 0 0 2.46 3.57 30.72 30.72 0 0 0 4.53 4.56 31.08 31.08 0 0 0 6.69 4.17 34.92 34.92 0 0 0 7.51 2.35 16.44 16.44 0 0 1 5.91 2.23 7.38 7.38 0 0 1 2.71 3.21 9 9 0 0 1 .43 1.57Z" style="fill:#455a64"/><path d="m206.49 466.74-25.62-.4-63.82-29.77c15.78 1.37 18.83 1 33.31-2.46 1.62-.39 10.6-6.49 12.21-6.94l41.55-1.32c2.08 1 5.6 7.85 7.82 15.09 0 0 6.54 21.06-5.45 25.8Z" style="fill:#263238"/><path d="M199.4 442.41a61.48 61.48 0 0 1 .75 12.85 12.72 12.72 0 0 0 3.14-10.71c-.37-2.09-1.24-4.4-.15-6.22.74-1.23 2.69-2.63 2.4-4 0 0-1.7 0-3.25-.06l-3.82-.13a13.6 13.6 0 0 1 .69 8.43" style="opacity:.30000000000000004"/><path d="m169.3 355.31 20.61-2.22 3.77 3.43-14.71 8.65-6.49 3.36-6.41-1.95-2.03-3.82 5.26-7.45z" style="fill:#ae7461"/><path d="M141.53 380.4s6.46-12.4 8.06-15.1a21.65 21.65 0 0 1 7.81-7.23l11.9-2.76s-1.23 6 6.18 6.38c9.42.52 15.27-8.51 15.27-8.51s10.75 1.1 13.71 2.35 11.37 4.76 12.6 15.93l2.88 18.22-22.71 1.73.31 24.27-9.65 7.89s-25.89 17.22-37.53 10.54c0 0-.39-5 4.86-4.45 0 0 1.89-10.82.58-17.49l-3.74-9.08a35.15 35.15 0 0 1-2.65-11.42c-.14-2.58-.07-4.53-.07-4.53s-5.83-2.01-7.81-6.74Z" style="fill:#455a64"/><path d="m160.48 409.7 35.39 1.86 1.36-20.15 19.09-1.41s-.65 11-1.48 16.64c-1.7 11.61-4.25 19.58-6.88 22s-34.79-6.39-34.79-6.39Z" style="fill:#ae7461"/><path d="M140.89 439.4S114 431 105.58 428.22c-14.52-4.71-24 .06-27 5.25-3.89 6.75 5.45 19.9 9 22.92 10.65 9 28.91 10.17 28.91 10.17l65.66-.13-19.17-26Z" style="fill:#263238"/><path d="M144.91 451.59a65.48 65.48 0 0 1-32.23-4.39 42.49 42.49 0 0 0-5.38-2 15.73 15.73 0 0 0-5.55-.39 5.53 5.53 0 0 0-3.91 1.77c-1.31 1.73-.64 4.18.09 6.23a20.59 20.59 0 0 0 3.4 6.76 16.34 16.34 0 0 0 7.61 4.42 65.66 65.66 0 0 0 17.21 2.48l20-1.09Z" style="fill:#e0e0e0"/><path d="M106.38 445.21a1.86 1.86 0 0 1 .31.54 8.93 8.93 0 0 1 .52 1.59 10.31 10.31 0 0 1-3.21 10.12 8.71 8.71 0 0 1-1.36 1 1.64 1.64 0 0 1-.56.26c0-.07.72-.5 1.72-1.47a10.83 10.83 0 0 0 3.16-9.84c-.28-1.41-.65-2.17-.58-2.2ZM209.45 437.75c-1.56-4.41-1.82-10.91-11.43-14s-16.9 2.86-21.84 4.94-32 16.89-32 16.89-5.09 9.08-3.64 13.09 8 8 8 8h30.22c7.8 0 22.31-.26 22.31-.26a90 90 0 0 0 5.2-9.88l.26-1.3c.07-1.1 4.47-13.06 2.92-17.48Z" style="fill:#263238"/><path d="M192.71 460.71a.89.89 0 0 1-.22.42 5.59 5.59 0 0 1-1 .89 25.89 25.89 0 0 1-4.27 2.4 29.39 29.39 0 0 1-3.16 1.24 23.11 23.11 0 0 1-3.8.82 74 74 0 0 1-8.88.35c-6.29.1-12 .33-16.12.29-2.06 0-3.73-.1-4.88-.22a11.63 11.63 0 0 1-1.32-.19 1.88 1.88 0 0 1-.45-.1c0-.05.63.06 1.78.13s2.81.1 4.87.08c4.12 0 9.81-.31 16.11-.41a77.48 77.48 0 0 0 8.84-.32 22.79 22.79 0 0 0 3.75-.77 26.89 26.89 0 0 0 3.14-1.18 29.87 29.87 0 0 0 4.3-2.25 6.21 6.21 0 0 0 1-.82c.24-.21.28-.37.31-.36Z" style="fill:#263238"/><path d="M140.42 455.33a35.82 35.82 0 0 1 3.65-9.86c4.94-2.72 10.62-5.82 16.83-9.15 3.1-1.67 6.34-3.39 9.69-5.12 1.69-.87 3.38-1.75 5.17-2.55s3.47-1.74 5.24-2.64a29.49 29.49 0 0 1 7.81-2.94 19.33 19.33 0 0 1 4.07-.37 17.93 17.93 0 0 1 4 .57 18.64 18.64 0 0 1 6.92 3.3 13.81 13.81 0 0 1 2.52 2.73 15.78 15.78 0 0 1 1.62 3.2 32.66 32.66 0 0 1 1 3.28 27 27 0 0 1 .87 3.2 21.1 21.1 0 0 1-.52 6.18c-.39 1.93-.87 3.72-1.34 5.4-.24.84-.48 1.65-.71 2.43a20.79 20.79 0 0 0-.59 2.24c-.11.5-.19.9-.27 1.3A31.78 31.78 0 0 1 203 464a13.79 13.79 0 0 1-1.84 2.32s0-.06.11-.16l.36-.44a19.48 19.48 0 0 0 1.26-1.78 32.76 32.76 0 0 0 3.35-7.53l.25-1.18a20.48 20.48 0 0 1 .59-2.4q.33-1.19.69-2.43c.46-1.68.92-3.48 1.3-5.39a21 21 0 0 0 .48-6.08 27.44 27.44 0 0 0-.86-3.14c-.32-1.08-.62-2.18-1-3.25a15.6 15.6 0 0 0-1.6-3.12 13.76 13.76 0 0 0-2.44-2.63 19 19 0 0 0-10.65-3.77 18.35 18.35 0 0 0-4 .37 29.25 29.25 0 0 0-7.71 2.9c-1.76.9-3.47 1.89-5.27 2.65s-3.46 1.68-5.14 2.53c-3.35 1.73-6.59 3.45-9.7 5.1-6.17 3.34-11.85 6.4-16.81 9.07a35.82 35.82 0 0 0-3.66 9.71 6.4 6.4 0 0 0 .38 4.15 12.23 12.23 0 0 0 2.18 2.87 28.67 28.67 0 0 0 3.9 3.21l1.09.74.38.26-.4-.22c-.26-.15-.64-.38-1.13-.7a26.4 26.4 0 0 1-4-3.16 12.24 12.24 0 0 1-2.25-2.9 6.67 6.67 0 0 1-.44-4.27Z" style="fill:#455a64"/><path d="M197.8 455.4s9 1.07 8.2 5.48-3.74 5.89-3.74 5.89l-24.48.05s14.62-1.02 20.02-11.42Z" style="fill:#e0e0e0"/><path d="M198.67 453.25a3.14 3.14 0 0 1-.27 1.25 10 10 0 0 1-1.46 2.73 7.28 7.28 0 0 1-3.45 2.64 19.82 19.82 0 0 0 3.11-2.87 25.88 25.88 0 0 0 2.07-3.75Z" style="fill:#263238"/><path d="M195.54 455a5.82 5.82 0 0 1-.87 3.14 6.79 6.79 0 0 1-2 2.59c-.1-.08.79-1.21 1.59-2.78s1.17-2.95 1.28-2.95Z" style="fill:#263238"/><path d="M207 465.54c-.07 0 .51-1.15 1.22-3.05A32.43 32.43 0 0 0 210 447c-.26-2-.57-3.22-.5-3.24a3.19 3.19 0 0 1 .28.84 17.63 17.63 0 0 1 .51 2.35 28.88 28.88 0 0 1 .19 7.95 29.52 29.52 0 0 1-2 7.7 22.69 22.69 0 0 1-1 2.18 3.72 3.72 0 0 1-.48.76Z" style="fill:#455a64"/><path d="M201.94 453c-.07-.59-.3-1.3-.89-1.41s-1.2.67-1.49 1.34c-3.1 7.17-13.31 12.76-21.09 13.49a71.29 71.29 0 0 0 11.3-.93 17.21 17.21 0 0 0 8.62-3.94 10.44 10.44 0 0 0 3.55-8.55Z" style="opacity:.30000000000000004"/><path d="M142.31 443.25a25.19 25.19 0 0 1-4.33-1.64 25.31 25.31 0 0 1-4.16-2 26.53 26.53 0 0 1 4.33 1.65 26.26 26.26 0 0 1 4.16 1.99ZM155.22 366.71c.06 0-.55 1.19-1.42 3.11a56.11 56.11 0 0 0-2.81 7.74 56.76 56.76 0 0 0-1.6 8.07c-.25 2.09-.32 3.4-.4 3.4a4 4 0 0 1 0-.93c0-.59 0-1.45.12-2.51a44.67 44.67 0 0 1 4.44-15.9c.47-.95.88-1.71 1.19-2.21a3.44 3.44 0 0 1 .48-.77ZM219.94 389.68a2.22 2.22 0 0 1-.47.07l-1.37.14-5.09.42-17.4 1.32h-.22v-.22c-.14-2.31-.3-4.75-.46-7.26-.24-4.37-.46-8.54-.52-12.33a17.44 17.44 0 0 1 2.23-9.78 12.16 12.16 0 0 1 4.88-4.69 10 10 0 0 1 1.73-.67 2.55 2.55 0 0 1 .62-.15c0 .06-.86.24-2.27 1a12.25 12.25 0 0 0-4.68 4.69 17.32 17.32 0 0 0-2.09 9.61c.09 3.78.31 7.94.56 12.31.15 2.51.3 4.95.45 7.26l-.24-.21L213 390l5.1-.3 1.37-.05ZM177.24 404.52a2.68 2.68 0 0 1-.76-.28 6.58 6.58 0 0 1-.85-.42 10.44 10.44 0 0 1-1.07-.66 15.23 15.23 0 0 1-2.51-2.13 17.5 17.5 0 0 1-2.4-3.23 18.37 18.37 0 0 1-1.56-3.72 15.46 15.46 0 0 1-.54-3.25 10.88 10.88 0 0 1 0-1.26 6.27 6.27 0 0 1 .07-.95 2.88 2.88 0 0 1 .15-.79c.09 0-.06 1.15.12 3a17.49 17.49 0 0 0 .63 3.15 18.69 18.69 0 0 0 1.55 3.61 18.38 18.38 0 0 0 2.31 3.17 16.6 16.6 0 0 0 2.38 2.15c1.46 1.09 2.52 1.53 2.48 1.61Z" style="fill:#263238"/><path d="M203.37 416.57c-.08 0-.31-.46-.89-1.1a11.65 11.65 0 0 0-2.64-2.08 25.4 25.4 0 0 0-4.41-1.93c0-.17 2.32 0 4.68 1.48a9 9 0 0 1 2.66 2.3c.54.76.66 1.32.6 1.33Z" style="fill:#6f4439"/><path d="M111.23 432.64a6.94 6.94 0 0 1 1.4.26c.9.2 2.19.52 3.77 1 3.16.86 7.5 2.17 12.21 3.87s8.89 3.46 11.87 4.83c1.49.68 2.68 1.25 3.5 1.67a7.68 7.68 0 0 1 1.25.69 7.65 7.65 0 0 1-1.34-.51l-3.56-1.52c-3-1.27-7.2-3-11.9-4.67s-9-3.06-12.13-4l-3.72-1.11a8.69 8.69 0 0 1-1.35-.51ZM139.05 438.1a14.52 14.52 0 0 1 4.39 2.75 14.36 14.36 0 0 1 3.53 3.79c-.11.1-1.67-1.59-3.86-3.39s-4.11-3.02-4.06-3.15Z" style="fill:#455a64"/><path d="m102.8 372.05 27.37 30.31a.26.26 0 0 0 .1.07l10.64 3.31a.23.23 0 0 1 .1.07c.32.36 2.58 2.81 4.61 1.66h.06l20.29-4a.85.85 0 0 0 .41-1.45l-24.91-23.45a.23.23 0 0 0-.16-.06l-20.23-.51.29-1c.29-1-.18-1.58-1.19-1.78L103 371.66a.24.24 0 0 0-.2.39Z" style="fill:#eb8045"/><path d="m167.7 398-24.43-24.26a1.76 1.76 0 0 0-1.05-.5c-2.73-.3-13.82-1.34-17.75 1.22a27.11 27.11 0 0 0-5.23-4.51c-3.15-1.84-10.79-3.18-10.79-3.18l-2 2.39 3.26 1.84-4.85-.74-1.29 1.47 17.32 4.51s1 .49.22 1.81l19.62.41a1.82 1.82 0 0 1 1.21.49L166.41 402l1.47-2.95a.9.9 0 0 0-.18-1.05Z" style="fill:#ebebeb"/><path d="M121.08 378a1.51 1.51 0 0 0 .24.33l.71.9c.63.77 1.54 1.88 2.69 3.24 2.28 2.73 5.47 6.47 9.07 10.54s6.94 7.68 9.44 10.21c1.26 1.26 2.31 2.25 3.05 2.92l.87.74a1.36 1.36 0 0 0 .32.24l-.28-.28c-.21-.21-.49-.47-.83-.79-.71-.69-1.74-1.7-3-3-2.46-2.57-5.77-6.21-9.37-10.27s-6.81-7.78-9.14-10.47l-2.76-3.18-.76-.86a1.77 1.77 0 0 0-.25-.27ZM121.08 378c.08.05.87-1.28 1.79-2.16s1.8-1.42 1.76-1.51a4.61 4.61 0 0 0-2 1.29 6.7 6.7 0 0 0-1.55 2.38ZM109.68 371a12.42 12.42 0 0 0 2 .48 44.35 44.35 0 0 1 4.67 1.28 31.36 31.36 0 0 1 4.46 1.91c1.1.58 1.76 1 1.79.94s-.14-.15-.42-.35a14.78 14.78 0 0 0-1.25-.81 24.14 24.14 0 0 0-4.46-2 31 31 0 0 0-4.75-1.2 9.84 9.84 0 0 0-2.04-.25Z" style="fill:#263238"/><path d="M149.92 383.6a1.29 1.29 0 0 0-.2-.22l-.63-.62-2.33-2.21-3.49-3.24-1-.94a6.44 6.44 0 0 0-.55-.47.86.86 0 0 0-.27 0H137.81c-4.2 0-8 0-10.77.05l-3.26.06h-.89a1.3 1.3 0 0 0-.31 0h19l.07.06.13.12.26.24 1 .93 3.55 3.21 2.41 2.14.66.57c.17.27.25.33.26.32Z" style="fill:#263238"/><path d="M120.75 376.2s1.15.15.33 1.83l24.41 28.41a16.33 16.33 0 0 1-3.42-3l-19.83-20.67a8.55 8.55 0 0 1-2.47-3.67 15.7 15.7 0 0 0-.39-1.93 3.41 3.41 0 0 0-1.54-1.71Z" style="opacity:.30000000000000004"/><path d="M155.29 408.47s-13.14-1.08-13.35-1.89l-9.63-7.6c-1.09-1.06-4.56-5.13-5.5-5.83a5.68 5.68 0 0 0-1.5-.75 1.07 1.07 0 0 0-1.23 1.57l2.23 3.77s-5.59-7.25-6.8-7.88a2.9 2.9 0 0 0-1.13-.29 1.16 1.16 0 0 0-1 1.83c2.35 3.29 7.43 10.41 8.8 12.39.87 1.24 9.56 7.66 11.07 8.94s17.55 9.22 18.86 9.81a46.6 46.6 0 0 0-.82-14.07Z" style="fill:#ae7461"/><path d="M126.14 397.46a4.49 4.49 0 0 1 .67.84c.39.53.92 1.27 1.49 2.1l.08.11a2.55 2.55 0 0 0 1.29 1.91c.53.32.91.44.89.5a3.83 3.83 0 0 1-1-.37 2.67 2.67 0 0 1-1.42-2v.05l-.08-.12c-.57-.82-1.08-1.58-1.44-2.13a5.62 5.62 0 0 1-.48-.89Z" style="fill:#6f4439"/><path d="M141.12 398.64a14.86 14.86 0 0 0-2.91-1.48.81.81 0 0 0-1 .74s12.65 12.63 14.21 13.89 5.7 4.13 5.7 4.13l-12-14.72Z" style="fill:#ae7461"/><path d="M178.2 410.64s-13.6-.78-13.81-1.6a42.77 42.77 0 0 1-1.06-6.24 60.34 60.34 0 0 1 1-8.42 1.49 1.49 0 0 0-1.18-1.73 1.2 1.2 0 0 0-1.29.74c-.93 1.72-1.75 6.5-2.84 6.78s-5.14 0-6.22-1.1-8.27-8.34-9.2-9a5.94 5.94 0 0 0-2.32-1 .73.73 0 0 0-.7 1.14l4.82 7s-7-7-8.24-7.59a4.48 4.48 0 0 0-1.81-.43.57.57 0 0 0-.51.89c1.5 2.17 5.38 7.75 6.25 8.6 1.08 1.06 15.15 16.65 16.67 17.93s14.06 5.14 15.38 5.72Z" style="fill:#ae7461"/><path d="M145.43 397.17c-.07.07 1.2 1.26 2.6 2.83a3.85 3.85 0 0 1 .45.59c.13.24.28.42.38.61s.13.41.24.6a2.12 2.12 0 0 0 .32.51 1.61 1.61 0 0 0 .94.65s-.38-.24-.77-.79a2.92 2.92 0 0 1-.26-.47c-.08-.18-.1-.39-.22-.63s-.25-.42-.36-.62a4 4 0 0 0-.48-.66 23.1 23.1 0 0 0-1.94-1.93 3.78 3.78 0 0 0-.9-.69ZM144.45 405a5.22 5.22 0 0 1 .53.46l1.4 1.27c1.18 1.09 2.8 2.59 4.63 4.2s3.53 3 4.78 4l1.47 1.19a4.54 4.54 0 0 1 .53.45 5.4 5.4 0 0 1-.58-.39l-1.52-1.18c-1.26-1-3-2.37-4.82-4s-3.44-3.13-4.59-4.24l-1.36-1.33a3.9 3.9 0 0 1-.47-.43ZM147 405.19s-.12.06-.37 0a1.6 1.6 0 0 1-.91-.45 3.3 3.3 0 0 1-.8-1.28 5.69 5.69 0 0 0-.85-1.56c-.85-.95-1.69-1.78-2.26-2.41a9.94 9.94 0 0 1-.9-1 10.07 10.07 0 0 1 1 .93c.59.61 1.44 1.4 2.31 2.38a5.43 5.43 0 0 1 .86 1.62 3.47 3.47 0 0 0 .73 1.25 1.59 1.59 0 0 0 1.19.52Z" style="fill:#6f4439"/><path d="m106.42 369.14.71 1.45 2.55.4-3.26-1.85z" style="fill:#e0e0e0"/></svg>