<svg xmlns="http://www.w3.org/2000/svg" width="76" height="73" fill="none"><path fill="#fff" d="M70.003 3.094c-3.25-3.123-8.505-3.123-11.756 0L53.779 7.37 68.31 21.33l4.468-4.292c3.25-3.122 3.25-8.17 0-11.292l-2.776-2.652ZM25.591 34.46a7.835 7.835 0 0 0-2.004 3.123l-4.394 12.66c-.43 1.227-.09 2.581.86 3.508s2.361 1.24 3.652.827l13.182-4.22a8.659 8.659 0 0 0 3.25-1.925l24.834-23.868-14.547-13.972L25.591 34.46ZM14.25 9.125C6.383 9.125 0 15.255 0 22.813v36.5C0 66.868 6.383 73 14.25 73h38c7.867 0 14.25-6.13 14.25-13.688V45.626c0-2.524-2.123-4.563-4.75-4.563S57 43.102 57 45.626v13.688c0 2.523-2.123 4.562-4.75 4.562h-38c-2.627 0-4.75-2.039-4.75-4.563v-36.5c0-2.523 2.123-4.562 4.75-4.562H28.5c2.627 0 4.75-2.039 4.75-4.563 0-2.523-2.123-4.562-4.75-4.562H14.25Z"/></svg>