<svg xmlns="http://www.w3.org/2000/svg" width="87" height="87" fill="none"><path fill="#000" d="M43.5 0C19.48 0 0 19.477 0 43.5c0 19.22 12.463 35.525 29.75 41.278 2.172.402 2.875-.946 2.875-2.092v-8.098c-12.1 2.632-14.62-5.133-14.62-5.133-1.979-5.028-4.832-6.365-4.832-6.365-3.947-2.701.301-2.643.301-2.643 4.368.304 6.666 4.484 6.666 4.484 3.88 6.648 10.176 4.727 12.659 3.614.388-2.81 1.515-4.73 2.762-5.814-9.66-1.106-19.818-4.836-19.818-21.5 0-4.753 1.7-8.631 4.48-11.676-.449-1.099-1.938-5.525.425-11.513 0 0 3.654-1.168 11.966 4.458 3.47-.964 7.189-1.446 10.886-1.464 3.697.018 7.42.5 10.897 1.464 8.305-5.626 11.951-4.458 11.951-4.458 2.368 5.992.878 10.418.428 11.513 2.791 3.045 4.477 6.927 4.477 11.676 0 16.707-10.175 20.387-19.861 21.463 1.558 1.349 2.983 3.995 2.983 8.055v11.937c0 1.157.696 2.516 2.904 2.088C74.552 79.014 87 62.712 87 43.5 87 19.477 67.523 0 43.5 0Z"/></svg>