<svg xmlns="http://www.w3.org/2000/svg" width="512" height="448" fill="none"><path fill="#fff" d="M152.009 88c-26.51 0-48 21.49-48 48s21.49 48 48 48 48-21.49 48-48-21.5-48-48-48Zm295.1-88h-384C28.66 0 0 28.65 0 64v320c0 35.35 28.65 64 63.1 64h384c35.35 0 64-28.65 64-64V64c.009-35.35-27.791-64-63.991-64Zm16 377.3-136.8-185.9c-2.5-4.6-8.2-7.4-14.3-7.4-6.113 0-11.82 2.768-15.21 7.379l-106.6 144.1-37.09-46.1c-3.441-4.279-8.934-6.809-14.77-6.809-5.842 0-11.33 2.529-14.78 6.809l-75.52 93.81c0-.029 0 .029 0 0L48 64c0-8.822 7.178-16 16-16h384c8.822 0 16 7.178 16 16v313.3h-.89Z"/></svg>