<svg xmlns="http://www.w3.org/2000/svg" width="82" height="82" fill="none"><path fill="#fff" d="M69.841 12.013C62.111 4.264 51.841 0 40.915 0 18.353 0 0 18.393 0 41s18.353 41 40.915 41c10.925 0 21.203-4.264 28.926-12.013 7.731-7.75 11.982-18.04 11.982-28.987s-4.25-21.246-11.982-28.987Zm-28.926 67.15C19.917 79.163 2.834 62.04 2.834 41c0-21.041 17.083-38.163 38.081-38.163C61.914 2.837 78.997 19.96 78.997 41c0 21.041-17.083 38.163-38.082 38.163Z"/><path fill="#fff" d="M54.347 41.968c-2.62-2.346-6.052-3.912-9.378-5.429l-.024-.008c-5.864-2.681-10.933-5.002-10.573-10.488.156-2.09 1.67-3.354 2.916-4.034 1.4-.77 3.26-1.23 4.979-1.23.205 0 .41.008.606.016 5.004.336 8.951 2.46 12.809 6.872l.23.27.27-.23 1.506-1.311.27-.238-.237-.27c-4.3-4.937-8.968-7.422-14.676-7.807a8.019 8.019 0 0 0-.794-.033c-.172 0-.36 0-.557.009h-.246c-3.743 0-7.846 1.23-10.966 3.296-3.726 2.468-5.814 5.863-5.872 9.561-.147 8.996 7.199 12.021 13.677 14.703l.016.008.066.024c5.733 2.379 10.679 4.428 10.572 9.922-.048 3.625-5.224 5.626-8.779 5.626h-.499v.008c-5.299-.156-10.033-2.444-14.07-6.782l-.246-.262-.262.238-1.466 1.36-.262.247.246.263c4.586 4.944 10.245 7.6 16.371 7.675h.278c3.956 0 8.256-1.066 11.499-2.862 4.062-2.222 6.428-5.461 6.674-9.119.279-4.017-1.056-7.29-4.078-9.995ZM35.33 34.145c2.335 2 5.496 3.436 8.55 4.822l.058.024c3.235 1.492 6.297 2.903 8.517 4.863 2.457 2.165 3.497 4.674 3.276 7.896-.205 3.19-2.572 5.322-4.726 6.61a6.61 6.61 0 0 0 .672-2.764c.05-3.313-1.22-5.961-3.89-8.11-2.334-1.877-5.43-3.148-8.427-4.387-6.233-2.566-12.12-4.993-12.014-12.16.032-2.756 1.687-5.363 4.66-7.34.098-.065.196-.13.302-.196a6.697 6.697 0 0 0-.597 2.419c-.238 3.321.95 6.043 3.62 8.323Z"/></svg>