<svg xmlns="http://www.w3.org/2000/svg" width="355" height="388" fill="none"><path fill="#151A20" d="m42.548 335.772 3.668-7.373c-5.38-3.564-12.838-5.899-20.54-5.899-11.738 0-22.375 5.284-22.375 17.573-.122 22.857 35.946 14.869 35.58 30.598-.123 6.513-6.236 9.462-13.817 9.462-7.58 0-15.894-3.072-21.396-8.233L0 378.905c6.113 5.898 15.528 9.093 24.698 9.093 12.348 0 23.597-5.653 23.597-18.31 0-23.225-35.946-15.729-35.946-30.352 0-6.145 5.502-8.725 12.715-8.725 5.991 0 12.471 1.966 17.484 5.161Zm46.843-13.149c-18.706.123-31.911 13.395-31.911 32.688 0 19.293 13.082 32.687 32.033 32.687 10.76 0 19.807-3.932 25.921-10.691l-5.258-5.53c-5.013 5.284-11.982 8.234-19.929 8.234-12.593 0-21.763-8.357-23.353-21.137h52.574c.979-21.873-9.292-36.251-30.077-36.251Zm-22.497 28.632c1.345-12.534 10.148-20.644 22.497-20.644 12.593 0 20.908 8.11 21.519 20.644H66.894Zm113.938-12.411 5.258-6.636c-5.869-6.021-14.428-9.585-24.82-9.585-18.585 0-31.911 13.518-31.911 32.688 0 19.293 13.204 32.687 31.911 32.687 11.126 0 20.051-4.178 25.798-11.182l-5.502-5.653c-4.524 5.407-11.493 8.356-19.929 8.356-13.327 0-22.864-9.831-22.864-24.208 0-14.255 9.537-24.086 22.864-24.086 7.825 0 14.305 2.827 19.195 7.619Zm33.079-1.475v-14.377h-9.537v64.637h9.537v-34.407c1.1-13.026 9.536-21.505 23.108-21.259v-9.34c-10.882.123-18.829 5.284-23.108 14.746Zm61.385-14.746c-18.706.123-31.911 13.395-31.911 32.688 0 19.293 13.083 32.687 32.034 32.687 10.759 0 19.807-3.932 25.92-10.691l-5.257-5.53c-5.013 5.284-11.982 8.234-19.93 8.234-12.593 0-21.763-8.357-23.352-21.137h52.574c.978-21.873-9.292-36.251-30.078-36.251ZM252.8 351.255c1.345-12.534 10.148-20.644 22.496-20.644 12.594 0 20.908 8.11 21.519 20.644H252.8Zm99.51 24.577c-3.546 2.089-6.969 3.195-10.27 3.318-5.502 0-8.559-3.195-8.559-11.059v-35.637H353.9v-7.496h-20.419V308h-9.414v16.958h-9.292v7.496h9.292v37.234c0 12.78 6.969 18.433 16.383 18.31 5.136 0 10.026-1.72 14.55-4.792l-2.69-7.374ZM277.422 41.473C250.698 14.721 215.198 0 177.433 0 99.441 0 36 63.498 36 141.546c0 78.049 63.441 141.547 141.433 141.547 37.765 0 73.293-14.721 99.989-41.473 26.724-26.753 41.416-62.281 41.416-100.074 0-37.792-14.692-73.349-41.416-100.073Zm-99.989 231.825c-72.585 0-131.638-59.11-131.638-131.752 0-72.641 59.053-131.751 131.638-131.751 72.585 0 131.638 59.11 131.638 131.751 0 72.642-59.053 131.752-131.638 131.752Z"/><path fill="#151A20" d="M223.862 144.887c-9.059-8.096-20.921-13.503-32.415-18.74l-.084-.029c-20.27-9.257-37.793-17.268-36.548-36.207.538-7.22 5.775-11.579 10.078-13.928 4.841-2.662 11.267-4.247 17.212-4.247.708 0 1.416.028 2.095.057 17.297 1.16 30.942 8.492 44.276 23.723l.793.934.934-.793 5.209-4.53.934-.82-.821-.934c-14.862-17.042-30.999-25.62-50.73-26.95a27.757 27.757 0 0 0-2.746-.114c-.595 0-1.246 0-1.925.028h-.85c-12.937 0-27.12 4.247-37.906 11.38-12.88 8.522-20.099 20.242-20.297 33.009-.51 31.056 24.883 41.502 47.276 50.759l.057.028.226.085c19.817 8.21 36.915 15.287 36.547 34.254-.169 12.513-18.061 19.421-30.347 19.421h-1.727v.028c-18.316-.538-34.679-8.436-48.635-23.412l-.85-.906-.905.821-5.068 4.699-.906.85.85.906c15.853 17.07 35.414 26.242 56.59 26.497h.962c13.674 0 28.536-3.68 39.747-9.88 14.041-7.672 22.222-18.854 23.072-31.48.962-13.871-3.652-25.167-14.098-34.509Zm-65.735-27.007c8.069 6.908 18.996 11.862 29.555 16.646l.198.085c11.183 5.152 21.77 10.021 29.442 16.787 8.493 7.474 12.088 16.137 11.324 27.262-.708 11.013-8.889 18.373-16.335 22.818a22.784 22.784 0 0 0 2.322-9.541c.17-11.437-4.218-20.581-13.447-27.998-8.068-6.482-18.769-10.87-29.13-15.145-21.544-8.861-41.898-17.24-41.53-41.983.113-9.512 5.832-18.514 16.108-25.337.34-.226.679-.453 1.047-.679a23.096 23.096 0 0 0-2.066 8.351c-.821 11.466 3.284 20.864 12.512 28.734Z"/></svg>