<svg xmlns="http://www.w3.org/2000/svg" width="1000" height="284" fill="none"><path fill="#fff" d="M241.422 41.473C214.698 14.721 179.198 0 141.433 0 63.441 0 0 63.498 0 141.546c0 78.049 63.441 141.547 141.433 141.547 37.765 0 73.293-14.721 99.989-41.473 26.724-26.753 41.416-62.281 41.416-100.074 0-37.792-14.692-73.349-41.416-100.073Zm-99.989 231.825c-72.585 0-131.638-59.11-131.638-131.752 0-72.641 59.053-131.751 131.638-131.751 72.585 0 131.638 59.11 131.638 131.751 0 72.642-59.053 131.752-131.638 131.752Z"/><path fill="#fff" d="M187.862 144.887c-9.059-8.096-20.921-13.503-32.415-18.74l-.084-.029c-20.27-9.257-37.793-17.268-36.548-36.207.538-7.22 5.775-11.579 10.078-13.928 4.841-2.662 11.267-4.247 17.212-4.247.708 0 1.416.028 2.095.057 17.297 1.16 30.942 8.492 44.276 23.723l.793.934.934-.793 5.209-4.53.934-.82-.821-.934c-14.862-17.042-30.999-25.62-50.73-26.95a27.757 27.757 0 0 0-2.746-.114c-.595 0-1.246 0-1.925.028h-.85c-12.937 0-27.12 4.247-37.906 11.38-12.88 8.522-20.1 20.242-20.297 33.009-.51 31.056 24.883 41.502 47.276 50.759l.057.028.226.085c19.817 8.21 36.915 15.287 36.547 34.254-.169 12.513-18.061 19.421-30.347 19.421h-1.727v.028c-18.316-.538-34.679-8.436-48.635-23.412l-.85-.906-.905.821-5.068 4.699-.906.85.85.906c15.853 17.07 35.414 26.242 56.59 26.497h.962c13.674 0 28.536-3.68 39.747-9.88 14.041-7.672 22.222-18.854 23.072-31.48.962-13.871-3.652-25.167-14.098-34.509Zm-65.735-27.007c8.069 6.908 18.996 11.862 29.555 16.646l.198.085c11.183 5.152 21.77 10.021 29.442 16.787 8.493 7.474 12.088 16.137 11.324 27.262-.708 11.013-8.889 18.373-16.335 22.818a22.784 22.784 0 0 0 2.322-9.541c.17-11.437-4.218-20.581-13.447-27.998-8.068-6.482-18.769-10.87-29.13-15.145-21.544-8.861-41.898-17.24-41.53-41.983.113-9.512 5.832-18.514 16.108-25.337.34-.226.679-.453 1.047-.679a23.096 23.096 0 0 0-2.066 8.351c-.821 11.466 3.284 20.864 12.512 28.734Zm317.782-6.421 6.575-13.15c-9.643-6.356-23.012-10.52-36.82-10.52-21.04 0-40.108 9.424-40.108 31.341-.219 40.766 64.436 26.52 63.778 54.573-.219 11.616-11.177 16.876-24.766 16.876-13.588 0-28.492-5.479-38.354-14.684l-6.575 12.493c10.958 10.52 27.834 16.218 44.272 16.218 22.136 0 42.299-10.082 42.299-32.656 0-41.423-64.435-28.054-64.435-54.135 0-10.958 9.862-15.561 22.793-15.561 10.74 0 22.355 3.507 31.341 9.205Zm83.969-23.451c-33.532.22-57.203 23.89-57.203 58.299 0 34.41 23.451 58.299 57.423 58.299 19.286 0 35.505-7.013 46.463-19.068l-9.424-9.862c-8.986 9.424-21.478 14.684-35.724 14.684-22.575 0-39.012-14.903-41.862-37.697h94.243c1.753-39.012-16.657-64.655-53.916-64.655Zm-40.327 51.067c2.411-22.356 18.191-36.821 40.327-36.821 22.575 0 37.478 14.465 38.574 36.821h-78.901Zm204.242-22.136 9.424-11.836c-10.52-10.739-25.862-17.095-44.491-17.095-33.314 0-57.203 24.109-57.203 58.299 0 34.41 23.67 58.299 57.203 58.299 19.944 0 35.943-7.452 46.244-19.944l-9.862-10.082c-8.11 9.643-20.602 14.903-35.725 14.903-23.889 0-40.984-17.533-40.984-43.176 0-25.423 17.095-42.957 40.984-42.957 14.027 0 25.643 5.041 34.41 13.589Zm59.295-2.63V88.666h-17.095v115.283h17.095v-61.368c1.972-23.232 17.095-38.354 41.423-37.916V88.008c-19.506.22-33.752 9.425-41.423 26.301Zm110.038-26.301c-33.533.22-57.203 23.89-57.203 58.299 0 34.41 23.451 58.299 57.422 58.299 19.287 0 35.506-7.013 46.464-19.068l-9.424-9.862c-8.986 9.424-21.479 14.684-35.725 14.684-22.574 0-39.012-14.903-41.861-37.697h94.243c1.753-39.012-16.657-64.655-53.916-64.655Zm-40.327 51.067c2.411-22.356 18.191-36.821 40.327-36.821 22.574 0 37.478 14.465 38.574 36.821h-78.901Zm178.379 43.833c-6.356 3.726-12.492 5.699-18.41 5.918-9.862 0-15.342-5.698-15.342-19.725v-63.559h36.601v-13.37h-36.601V61.927H944.55v30.245h-16.656v13.37h16.656v66.408c0 22.793 12.493 32.875 29.369 32.656 9.205 0 17.972-3.068 26.081-8.548l-4.822-13.15Z"/></svg>