<svg xmlns="http://www.w3.org/2000/svg" width="512" height="512" fill="none"><path fill="#fff" d="M304 48c0-26.5-21.5-48-48-48s-48 21.5-48 48 21.5 48 48 48 48-21.5 48-48Zm0 416c0-26.5-21.5-48-48-48s-48 21.5-48 48 21.5 48 48 48 48-21.5 48-48ZM48 304c26.5 0 48-21.5 48-48s-21.5-48-48-48-48 21.5-48 48 21.5 48 48 48Zm464-48c0-26.5-21.5-48-48-48s-48 21.5-48 48 21.5 48 48 48 48-21.5 48-48ZM142.9 437c18.7-18.7 18.7-49.1 0-67.9-18.7-18.8-49.1-18.7-67.9 0-18.8 18.7-18.7 49.1 0 67.9 18.7 18.8 49.1 18.7 67.9 0Zm0-294.2c18.7-18.7 18.7-49.1 0-67.9-18.7-18.8-49.2-18.7-67.9.1-18.7 18.8-18.7 49.1 0 67.9 18.7 18.8 49.1 18.7 67.9 0v-.1ZM369.1 437c18.7 18.7 49.1 18.7 67.9 0 18.8-18.7 18.7-49.1 0-67.9-18.7-18.8-49.1-18.7-67.9 0-18.8 18.7-18.7 49.1 0 67.9Z"/></svg>