<svg width="67" height="60" viewBox="0 0 67 60" fill="none" xmlns="http://www.w3.org/2000/svg">
<g filter="url(#filter0_d_3_7)">
<path fill-rule="evenodd" clip-rule="evenodd" d="M12 0C7.58172 0 4 3.58172 4 8V44C4 48.4183 7.58172 52 12 52H48C52.4183 52 56 48.4183 56 44V38H39C34.5817 38 31 34.4183 31 30V21C31 16.5817 34.5817 13 39 13H56V8C56 3.58172 52.4183 0 48 0H12Z" fill="white"/>
<g filter="url(#filter1_d_3_7)">
<rect x="35" y="16" width="28" height="20" rx="8" fill="white"/>
</g>
</g>
<defs>
<filter id="filter0_d_3_7" x="0" y="0" width="67" height="60" filterUnits="userSpaceOnUse" color-interpolation-filters="sRGB">
<feFlood flood-opacity="0" result="BackgroundImageFix"/>
<feColorMatrix in="SourceAlpha" type="matrix" values="0 0 0 0 0 0 0 0 0 0 0 0 0 0 0 0 0 0 127 0" result="hardAlpha"/>
<feOffset dy="4"/>
<feGaussianBlur stdDeviation="2"/>
<feComposite in2="hardAlpha" operator="out"/>
<feColorMatrix type="matrix" values="0 0 0 0 0 0 0 0 0 0 0 0 0 0 0 0 0 0 0.25 0"/>
<feBlend mode="normal" in2="BackgroundImageFix" result="effect1_dropShadow_3_7"/>
<feBlend mode="normal" in="SourceGraphic" in2="effect1_dropShadow_3_7" result="shape"/>
</filter>
<filter id="filter1_d_3_7" x="31" y="16" width="36" height="28" filterUnits="userSpaceOnUse" color-interpolation-filters="sRGB">
<feFlood flood-opacity="0" result="BackgroundImageFix"/>
<feColorMatrix in="SourceAlpha" type="matrix" values="0 0 0 0 0 0 0 0 0 0 0 0 0 0 0 0 0 0 127 0" result="hardAlpha"/>
<feOffset dy="4"/>
<feGaussianBlur stdDeviation="2"/>
<feComposite in2="hardAlpha" operator="out"/>
<feColorMatrix type="matrix" values="0 0 0 0 0 0 0 0 0 0 0 0 0 0 0 0 0 0 0.25 0"/>
<feBlend mode="normal" in2="BackgroundImageFix" result="effect1_dropShadow_3_7"/>
<feBlend mode="normal" in="SourceGraphic" in2="effect1_dropShadow_3_7" result="shape"/>
</filter>
</defs>
</svg>
